<?xml version="1.0" encoding="utf-8" standalone="no"?>
<!DOCTYPE svg PUBLIC "-//W3C//DTD SVG 1.1//EN"
  "http://www.w3.org/Graphics/SVG/1.1/DTD/svg11.dtd">
<svg xmlns:xlink="http://www.w3.org/1999/xlink" width="250.56pt" height="250.56pt" viewBox="0 0 250.56 250.56" xmlns="http://www.w3.org/2000/svg" version="1.1">
 <metadata>
  <rdf:RDF xmlns:dc="http://purl.org/dc/elements/1.1/" xmlns:cc="http://creativecommons.org/ns#" xmlns:rdf="http://www.w3.org/1999/02/22-rdf-syntax-ns#">
   <cc:Work>
    <dc:type rdf:resource="http://purl.org/dc/dcmitype/StillImage"/>
    <dc:date>2026-05-16T14:41:56.347002</dc:date>
    <dc:format>image/svg+xml</dc:format>
    <dc:creator>
     <cc:Agent>
      <dc:title>Matplotlib v3.10.8, https://matplotlib.org/</dc:title>
     </cc:Agent>
    </dc:creator>
   </cc:Work>
  </rdf:RDF>
 </metadata>
 <defs>
  <style type="text/css">*{stroke-linejoin: round; stroke-linecap: butt}</style>
 </defs>
 <g id="figure_1">
  <g id="patch_1">
   <path d="M 0 250.56 
L 250.56 250.56 
L 250.56 0 
L 0 0 
L 0 250.56 
z
" style="fill: none"/>
  </g>
  <g id="patch_2">
   <path d="M 14.4 236.16 
L 236.16 236.16 
L 236.16 14.4 
L 14.4 14.4 
z
" style="fill: #ffffff"/>
  </g>
  <g id="pane3d_1">
   <g id="patch_3">
    <path d="M 112.225394 146.073759 
L 225.162381 168.257911 
L 227.395567 66.201946 
L 111.878252 49.83759 
" style="fill: #f2f2f2; opacity: 0.5; stroke: #f2f2f2; stroke-linejoin: miter"/>
   </g>
  </g>
  <g id="pane3d_2">
   <g id="patch_4">
    <path d="M 112.225394 146.073759 
L 28.648141 178.652988 
L 26.285172 73.885669 
L 111.878252 49.83759 
" style="fill: #e6e6e6; opacity: 0.5; stroke: #e6e6e6; stroke-linejoin: miter"/>
   </g>
  </g>
  <g id="pane3d_3">
   <g id="patch_5">
    <path d="M 112.225394 146.073759 
L 28.648141 178.652988 
L 147.087871 205.387373 
L 225.162381 168.257911 
" style="fill: #ececec; opacity: 0.5; stroke: #ececec; stroke-linejoin: miter"/>
   </g>
  </g>
  <g id="grid3d_1"/>
  <g id="grid3d_2"/>
  <g id="grid3d_3"/>
  <g id="axis3d_1">
   <g id="line2d_1">
    <path d="M 225.162381 168.257911 
L 147.087871 205.387373 
" style="fill: none; stroke: #808080; stroke-width: 0.8; stroke-linecap: square"/>
   </g>
   <g id="text_1">
    <!-- $\theta_1$ -->
    <g style="fill: #808080" transform="translate(196.752394 202.578525) rotate(-25.4341) scale(0.1 -0.1)">
     <defs>
      <path id="Cmmi10-b5" d="M 1031 -72 
Q 741 -72 566 140 
Q 391 353 323 653 
Q 256 953 256 1247 
L 256 1253 
Q 256 1572 317 1915 
Q 378 2259 493 2601 
Q 609 2944 744 3213 
Q 838 3400 986 3631 
Q 1134 3863 1317 4064 
Q 1500 4266 1711 4389 
Q 1922 4513 2138 4513 
L 2144 4513 
Q 2375 4513 2529 4384 
Q 2684 4256 2770 4056 
Q 2856 3856 2890 3628 
Q 2925 3400 2925 3194 
Q 2925 2709 2794 2204 
Q 2663 1700 2431 1228 
Q 2344 1050 2189 809 
Q 2034 569 1861 378 
Q 1688 188 1472 58 
Q 1256 -72 1038 -72 
L 1031 -72 
z
M 1044 97 
Q 1256 97 1451 323 
Q 1647 550 1794 873 
Q 1941 1197 2052 1536 
Q 2163 1875 2216 2113 
L 909 2113 
Q 809 1709 753 1417 
Q 697 1125 697 844 
Q 697 97 1044 97 
z
M 959 2338 
L 2272 2338 
Q 2341 2619 2381 2808 
Q 2422 2997 2450 3206 
Q 2478 3416 2478 3597 
Q 2478 4347 2138 4347 
Q 1731 4347 1436 3692 
Q 1141 3038 959 2338 
z
" transform="scale(0.015625)"/>
      <path id="Cmr10-31" d="M 594 0 
L 594 225 
Q 1394 225 1394 428 
L 1394 3788 
Q 1063 3628 556 3628 
L 556 3853 
Q 1341 3853 1741 4263 
L 1831 4263 
Q 1853 4263 1873 4245 
Q 1894 4228 1894 4206 
L 1894 428 
Q 1894 225 2694 225 
L 2694 0 
L 594 0 
z
" transform="scale(0.015625)"/>
     </defs>
     <use xlink:href="#Cmmi10-b5" transform="translate(0 0.484375)"/>
     <use xlink:href="#Cmr10-31" transform="translate(46.923828 -16.521875) scale(0.7)"/>
    </g>
   </g>
  </g>
  <g id="axis3d_2">
   <g id="line2d_2">
    <path d="M 28.648141 178.652988 
L 147.087871 205.387373 
" style="fill: none; stroke: #808080; stroke-width: 0.8; stroke-linecap: square"/>
   </g>
   <g id="text_2">
    <!-- $\theta_2$ -->
    <g style="fill: #808080" transform="translate(72.502303 206.844595) rotate(-347.28028) scale(0.1 -0.1)">
     <defs>
      <path id="Cmr10-32" d="M 319 0 
L 319 172 
Q 319 188 331 206 
L 1325 1306 
Q 1550 1550 1690 1715 
Q 1831 1881 1968 2097 
Q 2106 2313 2186 2536 
Q 2266 2759 2266 3009 
Q 2266 3272 2169 3511 
Q 2072 3750 1880 3894 
Q 1688 4038 1416 4038 
Q 1138 4038 916 3870 
Q 694 3703 603 3438 
Q 628 3444 672 3444 
Q 816 3444 917 3347 
Q 1019 3250 1019 3097 
Q 1019 2950 917 2848 
Q 816 2747 672 2747 
Q 522 2747 420 2851 
Q 319 2956 319 3097 
Q 319 3338 409 3548 
Q 500 3759 670 3923 
Q 841 4088 1055 4175 
Q 1269 4263 1509 4263 
Q 1875 4263 2190 4108 
Q 2506 3953 2690 3670 
Q 2875 3388 2875 3009 
Q 2875 2731 2753 2481 
Q 2631 2231 2440 2026 
Q 2250 1822 1953 1562 
Q 1656 1303 1563 1216 
L 838 519 
L 1453 519 
Q 1906 519 2211 526 
Q 2516 534 2534 550 
Q 2609 631 2688 1141 
L 2875 1141 
L 2694 0 
L 319 0 
z
" transform="scale(0.015625)"/>
     </defs>
     <use xlink:href="#Cmmi10-b5" transform="translate(0 0.484375)"/>
     <use xlink:href="#Cmr10-32" transform="translate(46.923828 -16.521875) scale(0.7)"/>
    </g>
   </g>
  </g>
  <g id="axis3d_3">
   <g id="line2d_3">
    <path d="M 28.648141 178.652988 
L 26.285172 73.885669 
" style="fill: none; stroke: #808080; stroke-width: 0.8; stroke-linecap: square"/>
   </g>
   <g id="text_3">
    <!-- $\mathcal{L}(\theta_1, \theta_2)$ -->
    <g style="fill: #808080" transform="translate(5.037592 109.385496) rotate(-271.292055) scale(0.1 -0.1)">
     <defs>
      <path id="Cmsy10-4c" d="M 238 -141 
Q 197 -141 197 -97 
Q 197 -72 219 -38 
Q 266 38 359 130 
Q 453 222 494 275 
Q 656 509 750 691 
Q 913 1028 1031 1466 
Q 1206 2163 1348 2597 
Q 1491 3031 1722 3419 
Q 1903 3719 2168 3967 
Q 2434 4216 2757 4364 
Q 3081 4513 3419 4513 
L 3456 4513 
Q 3622 4513 3734 4430 
Q 3847 4347 3905 4208 
Q 3963 4069 3963 3909 
Q 3963 3666 3884 3572 
Q 3663 3331 3359 3291 
L 3322 3291 
Q 3284 3291 3284 3334 
Q 3284 3341 3300 3431 
Q 3316 3522 3316 3584 
Q 3316 3791 3212 3944 
Q 3109 4097 2906 4097 
Q 2669 4097 2669 4056 
Q 2494 3934 2333 3651 
Q 2172 3369 2051 3039 
Q 1931 2709 1837 2376 
Q 1744 2044 1672 1753 
Q 1594 1438 1470 1148 
Q 1347 859 1178 603 
Q 1253 628 1363 628 
L 1403 628 
Q 1625 628 1847 583 
Q 2069 538 2378 450 
Q 2688 363 2894 320 
Q 3100 278 3328 275 
Q 3397 275 3440 337 
Q 3484 400 3526 511 
Q 3569 622 3597 659 
Q 3694 766 3834 844 
Q 3975 922 4116 941 
L 4153 941 
Q 4172 941 4184 928 
Q 4197 916 4197 897 
Q 4197 897 4191 878 
Q 4128 628 3897 386 
Q 3666 144 3370 1 
Q 3075 -141 2828 -141 
L 2791 -141 
Q 2569 -141 2356 -100 
Q 2144 -59 1834 28 
Q 1525 116 1304 162 
Q 1084 209 863 213 
Q 578 -100 275 -141 
L 238 -141 
z
" transform="scale(0.015625)"/>
      <path id="Cmr10-28" d="M 1984 -1588 
Q 1628 -1306 1370 -942 
Q 1113 -578 948 -165 
Q 784 247 703 697 
Q 622 1147 622 1600 
Q 622 2059 703 2509 
Q 784 2959 951 3375 
Q 1119 3791 1378 4153 
Q 1638 4516 1984 4788 
Q 1984 4800 2016 4800 
L 2075 4800 
Q 2094 4800 2109 4783 
Q 2125 4766 2125 4744 
Q 2125 4716 2113 4703 
Q 1800 4397 1592 4047 
Q 1384 3697 1257 3301 
Q 1131 2906 1075 2482 
Q 1019 2059 1019 1600 
Q 1019 -434 2106 -1491 
Q 2125 -1509 2125 -1544 
Q 2125 -1559 2108 -1579 
Q 2091 -1600 2075 -1600 
L 2016 -1600 
Q 1984 -1600 1984 -1588 
z
" transform="scale(0.015625)"/>
      <path id="Cmmi10-3b" d="M 634 -1153 
Q 634 -1125 659 -1100 
Q 891 -878 1019 -587 
Q 1147 -297 1147 25 
L 1147 103 
Q 1044 0 891 0 
Q 744 0 641 103 
Q 538 206 538 353 
Q 538 503 641 603 
Q 744 703 891 703 
Q 1119 703 1216 492 
Q 1313 281 1313 25 
Q 1313 -331 1170 -651 
Q 1028 -972 769 -1228 
Q 744 -1241 728 -1241 
Q 697 -1241 665 -1212 
Q 634 -1184 634 -1153 
z
" transform="scale(0.015625)"/>
      <path id="Cmr10-29" d="M 416 -1600 
Q 359 -1600 359 -1544 
Q 359 -1516 372 -1503 
Q 1466 -434 1466 1600 
Q 1466 3634 384 4691 
Q 359 4706 359 4744 
Q 359 4766 376 4783 
Q 394 4800 416 4800 
L 475 4800 
Q 494 4800 506 4788 
Q 966 4425 1272 3906 
Q 1578 3388 1720 2800 
Q 1863 2213 1863 1600 
Q 1863 1147 1786 708 
Q 1709 269 1542 -157 
Q 1375 -584 1119 -945 
Q 863 -1306 506 -1588 
Q 494 -1600 475 -1600 
L 416 -1600 
z
" transform="scale(0.015625)"/>
     </defs>
     <use xlink:href="#Cmsy10-4c"/>
     <use xlink:href="#Cmr10-28" transform="translate(68.896484 0)"/>
     <use xlink:href="#Cmmi10-b5" transform="translate(107.714844 0)"/>
     <use xlink:href="#Cmr10-31" transform="translate(154.638672 -17.00625) scale(0.7)"/>
     <use xlink:href="#Cmmi10-3b" transform="translate(196.016016 0)"/>
     <use xlink:href="#Cmmi10-b5" transform="translate(241.260156 0)"/>
     <use xlink:href="#Cmr10-32" transform="translate(288.183984 -17.00625) scale(0.7)"/>
     <use xlink:href="#Cmr10-29" transform="translate(329.561328 0)"/>
    </g>
   </g>
  </g>
  <g id="axes_1">
   <g id="Poly3DCollection_1">
    <path d="M 113.986016 102.073493 
L 109.112198 103.648547 
L 115.90925 103.839471 
L 120.765845 102.551559 
z
" clip-path="url(#p8ced165e90)" style="fill: #b5367a; stroke: #000000"/>
    <path d="M 120.765845 102.551559 
L 115.90925 103.839471 
L 122.760209 102.374636 
L 127.600101 101.949435 
z
" clip-path="url(#p8ced165e90)" style="fill: #ae347b; stroke: #000000"/>
    <path d="M 109.112198 103.648547 
L 104.18537 105.476491 
L 111.000133 105.772972 
L 115.90925 103.839471 
z
" clip-path="url(#p8ced165e90)" style="fill: #b5367a; stroke: #000000"/>
    <path d="M 127.600101 101.949435 
L 122.760209 102.374636 
L 129.67382 97.956212 
L 134.495551 99.45785 
z
" clip-path="url(#p8ced165e90)" style="fill: #9e2f7f; stroke: #000000"/>
    <path d="M 115.90925 103.839471 
L 111.000133 105.772972 
L 117.866779 104.252162 
L 122.760209 102.374636 
z
" clip-path="url(#p8ced165e90)" style="fill: #ad347c; stroke: #000000"/>
    <path d="M 104.18537 105.476491 
L 99.206397 107.710711 
L 106.041634 108.75242 
L 111.000133 105.772972 
z
" clip-path="url(#p8ced165e90)" style="fill: #b83779; stroke: #000000"/>
    <path d="M 134.495551 99.45785 
L 129.67382 97.956212 
L 136.665894 89.890125 
L 141.462918 94.659105 
z
" clip-path="url(#p8ced165e90)" style="fill: #812581; stroke: #000000"/>
    <path d="M 122.760209 102.374636 
L 117.866779 104.252162 
L 124.793185 99.311614 
L 129.67382 97.956212 
z
" clip-path="url(#p8ced165e90)" style="fill: #982d80; stroke: #000000"/>
    <path d="M 111.000133 105.772972 
L 106.041634 108.75242 
L 112.926642 108.474646 
L 117.866779 104.252162 
z
" clip-path="url(#p8ced165e90)" style="fill: #b2357b; stroke: #000000"/>
    <path d="M 99.206397 107.710711 
L 94.175235 110.29426 
L 101.034805 112.534173 
L 106.041634 108.75242 
z
" clip-path="url(#p8ced165e90)" style="fill: #bd3977; stroke: #000000"/>
    <path d="M 117.866779 104.252162 
L 112.926642 108.474646 
L 119.865193 105.252009 
L 124.793185 99.311614 
z
" clip-path="url(#p8ced165e90)" style="fill: #a02f7f; stroke: #000000"/>
    <path d="M 141.462918 94.659105 
L 136.665894 89.890125 
L 143.749898 79.506775 
L 148.509976 88.408089 
z
" clip-path="url(#p8ced165e90)" style="fill: #5a167e; stroke: #000000"/>
    <path d="M 106.041634 108.75242 
L 101.034805 112.534173 
L 107.943119 114.261443 
L 112.926642 108.474646 
z
" clip-path="url(#p8ced165e90)" style="fill: #bd3977; stroke: #000000"/>
    <path d="M 129.67382 97.956212 
L 124.793185 99.311614 
L 131.796814 90.043522 
L 136.665894 89.890125 
z
" clip-path="url(#p8ced165e90)" style="fill: #732081; stroke: #000000"/>
    <path d="M 94.175235 110.29426 
L 89.089832 112.969644 
L 95.976085 116.37978 
L 101.034805 112.534173 
z
" clip-path="url(#p8ced165e90)" style="fill: #c53c74; stroke: #000000"/>
    <path d="M 112.926642 108.474646 
L 107.943119 114.261443 
L 114.898259 113.814926 
L 119.865193 105.252009 
z
" clip-path="url(#p8ced165e90)" style="fill: #b5367a; stroke: #000000"/>
    <path d="M 101.034805 112.534173 
L 95.976085 116.37978 
L 102.91034 119.803575 
L 107.943119 114.261443 
z
" clip-path="url(#p8ced165e90)" style="fill: #cc3f71; stroke: #000000"/>
    <path d="M 124.793185 99.311614 
L 119.865193 105.252009 
L 126.871506 98.059915 
L 131.796814 90.043522 
z
" clip-path="url(#p8ced165e90)" style="fill: #7e2482; stroke: #000000"/>
    <path d="M 148.509976 88.408089 
L 143.749898 79.506775 
L 150.918752 70.625602 
L 155.629808 83.12842 
z
" clip-path="url(#p8ced165e90)" style="fill: #2f1163; stroke: #000000"/>
    <path d="M 136.665894 89.890125 
L 131.796814 90.043522 
L 138.89531 78.006864 
L 143.749898 79.506775 
z
" clip-path="url(#p8ced165e90)" style="fill: #400f74; stroke: #000000"/>
    <path d="M 89.089832 112.969644 
L 83.946639 115.447277 
L 90.859427 119.653928 
L 95.976085 116.37978 
z
" clip-path="url(#p8ced165e90)" style="fill: #cc3f71; stroke: #000000"/>
    <path d="M 107.943119 114.261443 
L 102.91034 119.803575 
L 109.884744 121.196748 
L 114.898259 113.814926 
z
" clip-path="url(#p8ced165e90)" style="fill: #cd4071; stroke: #000000"/>
    <path d="M 119.865193 105.252009 
L 114.898259 113.814926 
L 121.909391 109.980815 
L 126.871506 98.059915 
z
" clip-path="url(#p8ced165e90)" style="fill: #9e2f7f; stroke: #000000"/>
    <path d="M 95.976085 116.37978 
L 90.859427 119.653928 
L 97.819023 123.990631 
L 102.91034 119.803575 
z
" clip-path="url(#p8ced165e90)" style="fill: #d6456c; stroke: #000000"/>
    <path d="M 155.629808 83.12842 
L 150.918752 70.625602 
L 158.136981 67.717566 
L 162.796915 81.680611 
z
" clip-path="url(#p8ced165e90)" style="fill: #180f3d; stroke: #000000"/>
    <path d="M 131.796814 90.043522 
L 126.871506 98.059915 
L 133.963427 88.309276 
L 138.89531 78.006864 
z
" clip-path="url(#p8ced165e90)" style="fill: #4e117b; stroke: #000000"/>
    <path d="M 83.946639 115.447277 
L 78.741417 117.499035 
L 85.678334 121.986298 
L 90.859427 119.653928 
z
" clip-path="url(#p8ced165e90)" style="fill: #cf4070; stroke: #000000"/>
    <path d="M 143.749898 79.506775 
L 138.89531 78.006864 
L 146.08518 67.71872 
L 150.918752 70.625602 
z
" clip-path="url(#p8ced165e90)" style="fill: #100b2d; stroke: #000000"/>
    <path d="M 114.898259 113.814926 
L 109.884744 121.196748 
L 116.905364 118.935161 
L 121.909391 109.980815 
z
" clip-path="url(#p8ced165e90)" style="fill: #c03a76; stroke: #000000"/>
    <path d="M 102.91034 119.803575 
L 97.819023 123.990631 
L 104.811647 125.83587 
L 109.884744 121.196748 
z
" clip-path="url(#p8ced165e90)" style="fill: #dc4869; stroke: #000000"/>
    <path d="M 162.796915 81.680611 
L 158.136981 67.717566 
L 165.360952 72.736462 
L 169.981907 85.360304 
z
" clip-path="url(#p8ced165e90)" style="fill: #180f3d; stroke: #000000"/>
    <path d="M 126.871506 98.059915 
L 121.909391 109.980815 
L 128.99316 103.924859 
L 133.963427 88.309276 
z
" clip-path="url(#p8ced165e90)" style="fill: #792282; stroke: #000000"/>
    <path d="M 90.859427 119.653928 
L 85.678334 121.986298 
L 92.661473 126.562055 
L 97.819023 123.990631 
z
" clip-path="url(#p8ced165e90)" style="fill: #dc4869; stroke: #000000"/>
    <path d="M 169.981907 85.360304 
L 165.360952 72.736462 
L 172.573096 83.644488 
L 177.174604 92.897255 
z
" clip-path="url(#p8ced165e90)" style="fill: #2f1163; stroke: #000000"/>
    <path d="M 78.741417 117.499035 
L 73.470379 119.024942 
L 80.426851 123.227058 
L 85.678334 121.986298 
z
" clip-path="url(#p8ced165e90)" style="fill: #cf4070; stroke: #000000"/>
    <path d="M 138.89531 78.006864 
L 133.963427 88.309276 
L 141.142468 80.117807 
L 146.08518 67.71872 
z
" clip-path="url(#p8ced165e90)" style="fill: #1a1042; stroke: #000000"/>
    <path d="M 109.884744 121.196748 
L 104.811647 125.83587 
L 111.841931 123.083287 
L 116.905364 118.935161 
z
" clip-path="url(#p8ced165e90)" style="fill: #d5446d; stroke: #000000"/>
    <path d="M 121.909391 109.980815 
L 116.905364 118.935161 
L 123.991443 114.233935 
L 128.99316 103.924859 
z
" clip-path="url(#p8ced165e90)" style="fill: #a8327d; stroke: #000000"/>
    <path d="M 150.918752 70.625602 
L 146.08518 67.71872 
L 153.331053 64.290102 
L 158.136981 67.717566 
z
" clip-path="url(#p8ced165e90)" style="fill: #000004; stroke: #000000"/>
    <path d="M 97.819023 123.990631 
L 92.661473 126.562055 
L 99.672276 128.300311 
L 104.811647 125.83587 
z
" clip-path="url(#p8ced165e90)" style="fill: #e34e65; stroke: #000000"/>
    <path d="M 177.174604 92.897255 
L 172.573096 83.644488 
L 179.794455 96.137188 
L 184.391762 101.492638 
z
" clip-path="url(#p8ced165e90)" style="fill: #59157e; stroke: #000000"/>
    <path d="M 133.963427 88.309276 
L 128.99316 103.924859 
L 136.155043 99.111819 
L 141.142468 80.117807 
z
" clip-path="url(#p8ced165e90)" style="fill: #54137d; stroke: #000000"/>
    <path d="M 85.678334 121.986298 
L 80.426851 123.227058 
L 87.430513 127.462639 
L 92.661473 126.562055 
z
" clip-path="url(#p8ced165e90)" style="fill: #db476a; stroke: #000000"/>
    <path d="M 184.391762 101.492638 
L 179.794455 96.137188 
L 187.064499 106.629929 
L 191.662263 108.767672 
z
" clip-path="url(#p8ced165e90)" style="fill: #7e2482; stroke: #000000"/>
    <path d="M 158.136981 67.717566 
L 153.331053 64.290102 
L 160.586754 69.718734 
L 165.360952 72.736462 
z
" clip-path="url(#p8ced165e90)" style="fill: #000004; stroke: #000000"/>
    <path d="M 116.905364 118.935161 
L 111.841931 123.083287 
L 118.935659 117.24838 
L 123.991443 114.233935 
z
" clip-path="url(#p8ced165e90)" style="fill: #bd3977; stroke: #000000"/>
    <path d="M 104.811647 125.83587 
L 99.672276 128.300311 
L 106.713499 124.860297 
L 111.841931 123.083287 
z
" clip-path="url(#p8ced165e90)" style="fill: #db476a; stroke: #000000"/>
    <path d="M 146.08518 67.71872 
L 141.142468 80.117807 
L 148.383671 77.675805 
L 153.331053 64.290102 
z
" clip-path="url(#p8ced165e90)" style="fill: #040414; stroke: #000000"/>
    <path d="M 73.470379 119.024942 
L 68.132842 120.19663 
L 75.104783 123.779854 
L 80.426851 123.227058 
z
" clip-path="url(#p8ced165e90)" style="fill: #cc3f71; stroke: #000000"/>
    <path d="M 128.99316 103.924859 
L 123.991443 114.233935 
L 131.153192 110.780521 
L 136.155043 99.111819 
z
" clip-path="url(#p8ced165e90)" style="fill: #8b2981; stroke: #000000"/>
    <path d="M 191.662263 108.767672 
L 187.064499 106.629929 
L 194.413061 113.795783 
L 199.007103 113.835457 
z
" clip-path="url(#p8ced165e90)" style="fill: #9b2e7f; stroke: #000000"/>
    <path d="M 92.661473 126.562055 
L 87.430513 127.462639 
L 94.461229 129.011804 
L 99.672276 128.300311 
z
" clip-path="url(#p8ced165e90)" style="fill: #e24d66; stroke: #000000"/>
    <path d="M 165.360952 72.736462 
L 160.586754 69.718734 
L 167.831762 81.530752 
L 172.573096 83.644488 
z
" clip-path="url(#p8ced165e90)" style="fill: #0e0b2b; stroke: #000000"/>
    <path d="M 141.142468 80.117807 
L 136.155043 99.111819 
L 143.380994 98.251086 
L 148.383671 77.675805 
z
" clip-path="url(#p8ced165e90)" style="fill: #3b0f70; stroke: #000000"/>
    <path d="M 172.573096 83.644488 
L 167.831762 81.530752 
L 175.084234 95.021108 
L 179.794455 96.137188 
z
" clip-path="url(#p8ced165e90)" style="fill: #3b0f70; stroke: #000000"/>
    <path d="M 80.426851 123.227058 
L 75.104783 123.779854 
L 82.127255 127.48148 
L 87.430513 127.462639 
z
" clip-path="url(#p8ced165e90)" style="fill: #d6456c; stroke: #000000"/>
    <path d="M 199.007103 113.835457 
L 194.413061 113.795783 
L 201.849276 118.119763 
L 206.431965 117.033194 
z
" clip-path="url(#p8ced165e90)" style="fill: #ad347c; stroke: #000000"/>
    <path d="M 153.331053 64.290102 
L 148.383671 77.675805 
L 155.654029 82.020356 
L 160.586754 69.718734 
z
" clip-path="url(#p8ced165e90)" style="fill: #040414; stroke: #000000"/>
    <path d="M 179.794455 96.137188 
L 175.084234 95.021108 
L 182.381279 106.447451 
L 187.064499 106.629929 
z
" clip-path="url(#p8ced165e90)" style="fill: #6d1d81; stroke: #000000"/>
    <path d="M 123.991443 114.233935 
L 118.935659 117.24838 
L 126.1108 112.95833 
L 131.153192 110.780521 
z
" clip-path="url(#p8ced165e90)" style="fill: #a3307e; stroke: #000000"/>
    <path d="M 136.155043 99.111819 
L 131.153192 110.780521 
L 138.380773 110.706962 
L 143.380994 98.251086 
z
" clip-path="url(#p8ced165e90)" style="fill: #7b2382; stroke: #000000"/>
    <path d="M 111.841931 123.083287 
L 106.713499 124.860297 
L 113.816138 117.949369 
L 118.935659 117.24838 
z
" clip-path="url(#p8ced165e90)" style="fill: #c03a76; stroke: #000000"/>
    <path d="M 99.672276 128.300311 
L 94.461229 129.011804 
L 101.519426 125.708408 
L 106.713499 124.860297 
z
" clip-path="url(#p8ced165e90)" style="fill: #d9466b; stroke: #000000"/>
    <path d="M 68.132842 120.19663 
L 62.731885 121.390696 
L 69.719798 124.509587 
L 75.104783 123.779854 
z
" clip-path="url(#p8ced165e90)" style="fill: #c73d73; stroke: #000000"/>
    <path d="M 148.383671 77.675805 
L 143.380994 98.251086 
L 150.655285 100.845539 
L 155.654029 82.020356 
z
" clip-path="url(#p8ced165e90)" style="fill: #390f6e; stroke: #000000"/>
    <path d="M 160.586754 69.718734 
L 155.654029 82.020356 
L 162.939623 90.768717 
L 167.831762 81.530752 
z
" clip-path="url(#p8ced165e90)" style="fill: #160f3b; stroke: #000000"/>
    <path d="M 187.064499 106.629929 
L 182.381279 106.447451 
L 189.752548 114.419216 
L 194.413061 113.795783 
z
" clip-path="url(#p8ced165e90)" style="fill: #912b81; stroke: #000000"/>
    <path d="M 87.430513 127.462639 
L 82.127255 127.48148 
L 89.182715 129.286966 
L 94.461229 129.011804 
z
" clip-path="url(#p8ced165e90)" style="fill: #dc4869; stroke: #000000"/>
    <path d="M 206.431965 117.033194 
L 201.849276 118.119763 
L 209.368049 120.70758 
L 213.932549 119.111538 
z
" clip-path="url(#p8ced165e90)" style="fill: #b5367a; stroke: #000000"/>
    <path d="M 167.831762 81.530752 
L 162.939623 90.768717 
L 170.250408 100.598809 
L 175.084234 95.021108 
z
" clip-path="url(#p8ced165e90)" style="fill: #420f75; stroke: #000000"/>
    <path d="M 143.380994 98.251086 
L 138.380773 110.706962 
L 145.665648 112.213219 
L 150.655285 100.845539 
z
" clip-path="url(#p8ced165e90)" style="fill: #792282; stroke: #000000"/>
    <path d="M 75.104783 123.779854 
L 69.719798 124.509587 
L 76.766141 128.249943 
L 82.127255 127.48148 
z
" clip-path="url(#p8ced165e90)" style="fill: #d0416f; stroke: #000000"/>
    <path d="M 131.153192 110.780521 
L 126.1108 112.95833 
L 133.358058 112.738811 
L 138.380773 110.706962 
z
" clip-path="url(#p8ced165e90)" style="fill: #932b80; stroke: #000000"/>
    <path d="M 155.654029 82.020356 
L 150.655285 100.845539 
L 157.976662 104.652616 
L 162.939623 90.768717 
z
" clip-path="url(#p8ced165e90)" style="fill: #4c117a; stroke: #000000"/>
    <path d="M 194.413061 113.795783 
L 189.752548 114.419216 
L 197.209446 119.350003 
L 201.849276 118.119763 
z
" clip-path="url(#p8ced165e90)" style="fill: #a6317d; stroke: #000000"/>
    <path d="M 175.084234 95.021108 
L 170.250408 100.598809 
L 177.605732 109.303462 
L 182.381279 106.447451 
z
" clip-path="url(#p8ced165e90)" style="fill: #6d1d81; stroke: #000000"/>
    <path d="M 118.935659 117.24838 
L 113.816138 117.949369 
L 121.006348 112.783846 
L 126.1108 112.95833 
z
" clip-path="url(#p8ced165e90)" style="fill: #a1307e; stroke: #000000"/>
    <path d="M 106.713499 124.860297 
L 101.519426 125.708408 
L 108.63616 119.157279 
L 113.816138 117.949369 
z
" clip-path="url(#p8ced165e90)" style="fill: #bd3977; stroke: #000000"/>
    <path d="M 94.461229 129.011804 
L 89.182715 129.286966 
L 96.269242 127.574577 
L 101.519426 125.708408 
z
" clip-path="url(#p8ced165e90)" style="fill: #d5446d; stroke: #000000"/>
    <path d="M 62.731885 121.390696 
L 57.270022 122.835688 
L 64.277367 125.839077 
L 69.719798 124.509587 
z
" clip-path="url(#p8ced165e90)" style="fill: #c43c75; stroke: #000000"/>
    <path d="M 162.939623 90.768717 
L 157.976662 104.652616 
L 165.349057 108.558126 
L 170.250408 100.598809 
z
" clip-path="url(#p8ced165e90)" style="fill: #641a80; stroke: #000000"/>
    <path d="M 182.381279 106.447451 
L 177.605732 109.303462 
L 185.022446 116.031742 
L 189.752548 114.419216 
z
" clip-path="url(#p8ced165e90)" style="fill: #8e2a81; stroke: #000000"/>
    <path d="M 150.655285 100.845539 
L 145.665648 112.213219 
L 153.015346 112.677826 
L 157.976662 104.652616 
z
" clip-path="url(#p8ced165e90)" style="fill: #7c2382; stroke: #000000"/>
    <path d="M 82.127255 127.48148 
L 76.766141 128.249943 
L 83.859727 131.715067 
L 89.182715 129.286966 
z
" clip-path="url(#p8ced165e90)" style="fill: #d8456c; stroke: #000000"/>
    <path d="M 201.849276 118.119763 
L 197.209446 119.350003 
L 204.749577 122.314917 
L 209.368049 120.70758 
z
" clip-path="url(#p8ced165e90)" style="fill: #b2357b; stroke: #000000"/>
    <path d="M 138.380773 110.706962 
L 133.358058 112.738811 
L 140.665504 114.067418 
L 145.665648 112.213219 
z
" clip-path="url(#p8ced165e90)" style="fill: #912b81; stroke: #000000"/>
    <path d="M 170.250408 100.598809 
L 165.349057 108.558126 
L 172.769951 112.835246 
L 177.605732 109.303462 
z
" clip-path="url(#p8ced165e90)" style="fill: #7b2382; stroke: #000000"/>
    <path d="M 69.719798 124.509587 
L 64.277367 125.839077 
L 71.355108 130.274832 
L 76.766141 128.249943 
z
" clip-path="url(#p8ced165e90)" style="fill: #cd4071; stroke: #000000"/>
    <path d="M 126.1108 112.95833 
L 121.006348 112.783846 
L 128.276757 112.291847 
L 133.358058 112.738811 
z
" clip-path="url(#p8ced165e90)" style="fill: #902a81; stroke: #000000"/>
    <path d="M 189.752548 114.419216 
L 185.022446 116.031742 
L 192.511335 120.762494 
L 197.209446 119.350003 
z
" clip-path="url(#p8ced165e90)" style="fill: #a5317e; stroke: #000000"/>
    <path d="M 113.816138 117.949369 
L 108.63616 119.157279 
L 115.841684 114.251675 
L 121.006348 112.783846 
z
" clip-path="url(#p8ced165e90)" style="fill: #9c2e7f; stroke: #000000"/>
    <path d="M 101.519426 125.708408 
L 96.269242 127.574577 
L 103.410964 123.506432 
L 108.63616 119.157279 
z
" clip-path="url(#p8ced165e90)" style="fill: #bf3a77; stroke: #000000"/>
    <path d="M 157.976662 104.652616 
L 153.015346 112.677826 
L 160.433185 112.467924 
L 165.349057 108.558126 
z
" clip-path="url(#p8ced165e90)" style="fill: #812581; stroke: #000000"/>
    <path d="M 89.182715 129.286966 
L 83.859727 131.715067 
L 90.995531 134.066672 
L 96.269242 127.574577 
z
" clip-path="url(#p8ced165e90)" style="fill: #d9466b; stroke: #000000"/>
    <path d="M 57.270022 122.835688 
L 51.745715 124.458887 
L 58.772721 127.399212 
L 64.277367 125.839077 
z
" clip-path="url(#p8ced165e90)" style="fill: #c23b75; stroke: #000000"/>
    <path d="M 145.665648 112.213219 
L 140.665504 114.067418 
L 148.041093 113.60103 
L 153.015346 112.677826 
z
" clip-path="url(#p8ced165e90)" style="fill: #8e2a81; stroke: #000000"/>
    <path d="M 177.605732 109.303462 
L 172.769951 112.835246 
L 180.237692 117.524956 
L 185.022446 116.031742 
z
" clip-path="url(#p8ced165e90)" style="fill: #912b81; stroke: #000000"/>
    <path d="M 76.766141 128.249943 
L 71.355108 130.274832 
L 78.500489 136.443757 
L 83.859727 131.715067 
z
" clip-path="url(#p8ced165e90)" style="fill: #db476a; stroke: #000000"/>
    <path d="M 197.209446 119.350003 
L 192.511335 120.762494 
L 200.076501 123.911421 
L 204.749577 122.314917 
z
" clip-path="url(#p8ced165e90)" style="fill: #b0357b; stroke: #000000"/>
    <path d="M 133.358058 112.738811 
L 128.276757 112.291847 
L 135.609934 113.757643 
L 140.665504 114.067418 
z
" clip-path="url(#p8ced165e90)" style="fill: #8c2981; stroke: #000000"/>
    <path d="M 165.349057 108.558126 
L 160.433185 112.467924 
L 167.903129 113.874433 
L 172.769951 112.835246 
z
" clip-path="url(#p8ced165e90)" style="fill: #862781; stroke: #000000"/>
    <path d="M 64.277367 125.839077 
L 58.772721 127.399212 
L 65.879801 132.286854 
L 71.355108 130.274832 
z
" clip-path="url(#p8ced165e90)" style="fill: #cd4071; stroke: #000000"/>
    <path d="M 185.022446 116.031742 
L 180.237692 117.524956 
L 187.760377 121.912342 
L 192.511335 120.762494 
z
" clip-path="url(#p8ced165e90)" style="fill: #a1307e; stroke: #000000"/>
    <path d="M 121.006348 112.783846 
L 115.841684 114.251675 
L 123.132316 113.805076 
L 128.276757 112.291847 
z
" clip-path="url(#p8ced165e90)" style="fill: #892881; stroke: #000000"/>
    <path d="M 96.269242 127.574577 
L 90.995531 134.066672 
L 98.181806 135.6296 
L 103.410964 123.506432 
z
" clip-path="url(#p8ced165e90)" style="fill: #d2426f; stroke: #000000"/>
    <path d="M 83.859727 131.715067 
L 78.500489 136.443757 
L 85.70518 144.276578 
L 90.995531 134.066672 
z
" clip-path="url(#p8ced165e90)" style="fill: #e85362; stroke: #000000"/>
    <path d="M 108.63616 119.157279 
L 103.410964 123.506432 
L 110.634184 120.62344 
L 115.841684 114.251675 
z
" clip-path="url(#p8ced165e90)" style="fill: #a3307e; stroke: #000000"/>
    <path d="M 153.015346 112.677826 
L 148.041093 113.60103 
L 155.489824 112.120638 
L 160.433185 112.467924 
z
" clip-path="url(#p8ced165e90)" style="fill: #862781; stroke: #000000"/>
    <path d="M 51.745715 124.458887 
L 46.155729 126.115284 
L 53.198177 128.75599 
L 58.772721 127.399212 
z
" clip-path="url(#p8ced165e90)" style="fill: #c03a76; stroke: #000000"/>
    <path d="M 140.665504 114.067418 
L 135.609934 113.757643 
L 143.009382 113.433272 
L 148.041093 113.60103 
z
" clip-path="url(#p8ced165e90)" style="fill: #882781; stroke: #000000"/>
    <path d="M 172.769951 112.835246 
L 167.903129 113.874433 
L 175.409792 117.667616 
L 180.237692 117.524956 
z
" clip-path="url(#p8ced165e90)" style="fill: #902a81; stroke: #000000"/>
    <path d="M 71.355108 130.274832 
L 65.879801 132.286854 
L 73.071449 140.176739 
L 78.500489 136.443757 
z
" clip-path="url(#p8ced165e90)" style="fill: #df4a68; stroke: #000000"/>
    <path d="M 192.511335 120.762494 
L 187.760377 121.912342 
L 195.350024 125.344931 
L 200.076501 123.911421 
z
" clip-path="url(#p8ced165e90)" style="fill: #ae347b; stroke: #000000"/>
    <path d="M 90.995531 134.066672 
L 85.70518 144.276578 
L 92.956219 153.082501 
L 98.181806 135.6296 
z
" clip-path="url(#p8ced165e90)" style="fill: #f2645c; stroke: #000000"/>
    <path d="M 128.276757 112.291847 
L 123.132316 113.805076 
L 130.48837 115.385736 
L 135.609934 113.757643 
z
" clip-path="url(#p8ced165e90)" style="fill: #862781; stroke: #000000"/>
    <path d="M 103.410964 123.506432 
L 98.181806 135.6296 
L 105.428647 137.478601 
L 110.634184 120.62344 
z
" clip-path="url(#p8ced165e90)" style="fill: #c73d73; stroke: #000000"/>
    <path d="M 160.433185 112.467924 
L 155.489824 112.120638 
L 162.992169 112.921548 
L 167.903129 113.874433 
z
" clip-path="url(#p8ced165e90)" style="fill: #812581; stroke: #000000"/>
    <path d="M 78.500489 136.443757 
L 73.071449 140.176739 
L 80.338235 151.474388 
L 85.70518 144.276578 
z
" clip-path="url(#p8ced165e90)" style="fill: #f4675c; stroke: #000000"/>
    <path d="M 115.841684 114.251675 
L 110.634184 120.62344 
L 117.938535 120.833779 
L 123.132316 113.805076 
z
" clip-path="url(#p8ced165e90)" style="fill: #942c80; stroke: #000000"/>
    <path d="M 58.772721 127.399212 
L 53.198177 128.75599 
L 60.322148 133.183109 
L 65.879801 132.286854 
z
" clip-path="url(#p8ced165e90)" style="fill: #ca3e72; stroke: #000000"/>
    <path d="M 180.237692 117.524956 
L 175.409792 117.667616 
L 182.959086 122.436489 
L 187.760377 121.912342 
z
" clip-path="url(#p8ced165e90)" style="fill: #9e2f7f; stroke: #000000"/>
    <path d="M 148.041093 113.60103 
L 143.009382 113.433272 
L 150.481268 112.043147 
L 155.489824 112.120638 
z
" clip-path="url(#p8ced165e90)" style="fill: #7e2482; stroke: #000000"/>
    <path d="M 98.181806 135.6296 
L 92.956219 153.082501 
L 100.238037 161.067791 
L 105.428647 137.478601 
z
" clip-path="url(#p8ced165e90)" style="fill: #f8765c; stroke: #000000"/>
    <path d="M 85.70518 144.276578 
L 80.338235 151.474388 
L 87.651792 164.833449 
L 92.956219 153.082501 
z
" clip-path="url(#p8ced165e90)" style="fill: #fd9668; stroke: #000000"/>
    <path d="M 46.155729 126.115284 
L 40.498622 127.789693 
L 47.552681 129.964636 
L 53.198177 128.75599 
z
" clip-path="url(#p8ced165e90)" style="fill: #bd3977; stroke: #000000"/>
    <path d="M 135.609934 113.757643 
L 130.48837 115.385736 
L 137.908173 115.500632 
L 143.009382 113.433272 
z
" clip-path="url(#p8ced165e90)" style="fill: #842681; stroke: #000000"/>
    <path d="M 65.879801 132.286854 
L 60.322148 133.183109 
L 67.535353 140.535121 
L 73.071449 140.176739 
z
" clip-path="url(#p8ced165e90)" style="fill: #df4a68; stroke: #000000"/>
    <path d="M 110.634184 120.62344 
L 105.428647 137.478601 
L 112.734799 139.428281 
L 117.938535 120.833779 
z
" clip-path="url(#p8ced165e90)" style="fill: #c23b75; stroke: #000000"/>
    <path d="M 167.903129 113.874433 
L 162.992169 112.921548 
L 170.526945 117.12502 
L 175.409792 117.667616 
z
" clip-path="url(#p8ced165e90)" style="fill: #862781; stroke: #000000"/>
    <path d="M 92.956219 153.082501 
L 87.651792 164.833449 
L 94.975317 176.659546 
L 100.238037 161.067791 
z
" clip-path="url(#p8ced165e90)" style="fill: #fec488; stroke: #000000"/>
    <path d="M 187.760377 121.912342 
L 182.959086 122.436489 
L 190.569575 126.542019 
L 195.350024 125.344931 
z
" clip-path="url(#p8ced165e90)" style="fill: #aa337d; stroke: #000000"/>
    <path d="M 123.132316 113.805076 
L 117.938535 120.833779 
L 125.308428 122.174373 
L 130.48837 115.385736 
z
" clip-path="url(#p8ced165e90)" style="fill: #912b81; stroke: #000000"/>
    <path d="M 105.428647 137.478601 
L 100.238037 161.067791 
L 107.541766 165.369583 
L 112.734799 139.428281 
z
" clip-path="url(#p8ced165e90)" style="fill: #fb835f; stroke: #000000"/>
    <path d="M 73.071449 140.176739 
L 67.535353 140.535121 
L 74.830446 151.319044 
L 80.338235 151.474388 
z
" clip-path="url(#p8ced165e90)" style="fill: #f56b5c; stroke: #000000"/>
    <path d="M 155.489824 112.120638 
L 150.481268 112.043147 
L 158.008551 113.102819 
L 162.992169 112.921548 
z
" clip-path="url(#p8ced165e90)" style="fill: #782281; stroke: #000000"/>
    <path d="M 53.198177 128.75599 
L 47.552681 129.964636 
L 54.682603 133.324245 
L 60.322148 133.183109 
z
" clip-path="url(#p8ced165e90)" style="fill: #c53c74; stroke: #000000"/>
    <path d="M 175.409792 117.667616 
L 170.526945 117.12502 
L 178.09889 122.82143 
L 182.959086 122.436489 
z
" clip-path="url(#p8ced165e90)" style="fill: #962c80; stroke: #000000"/>
    <path d="M 100.238037 161.067791 
L 94.975317 176.659546 
L 102.290079 182.434566 
L 107.541766 165.369583 
z
" clip-path="url(#p8ced165e90)" style="fill: #fde3a5; stroke: #000000"/>
    <path d="M 80.338235 151.474388 
L 74.830446 151.319044 
L 82.177359 164.197397 
L 87.651792 164.833449 
z
" clip-path="url(#p8ced165e90)" style="fill: #fea16e; stroke: #000000"/>
    <path d="M 143.009382 113.433272 
L 137.908173 115.500632 
L 145.397831 114.688822 
L 150.481268 112.043147 
z
" clip-path="url(#p8ced165e90)" style="fill: #7b2382; stroke: #000000"/>
    <path d="M 117.938535 120.833779 
L 112.734799 139.428281 
L 120.097097 139.591686 
L 125.308428 122.174373 
z
" clip-path="url(#p8ced165e90)" style="fill: #c03a76; stroke: #000000"/>
    <path d="M 130.48837 115.385736 
L 125.308428 122.174373 
L 132.741663 122.083665 
L 137.908173 115.500632 
z
" clip-path="url(#p8ced165e90)" style="fill: #8e2a81; stroke: #000000"/>
    <path d="M 87.651792 164.833449 
L 82.177359 164.197397 
L 89.534648 175.568603 
L 94.975317 176.659546 
z
" clip-path="url(#p8ced165e90)" style="fill: #fdda9c; stroke: #000000"/>
    <path d="M 112.734799 139.428281 
L 107.541766 165.369583 
L 114.879395 163.719192 
L 120.097097 139.591686 
z
" clip-path="url(#p8ced165e90)" style="fill: #fa815f; stroke: #000000"/>
    <path d="M 60.322148 133.183109 
L 54.682603 133.324245 
L 61.895313 138.663673 
L 67.535353 140.535121 
z
" clip-path="url(#p8ced165e90)" style="fill: #d6456c; stroke: #000000"/>
    <path d="M 162.992169 112.921548 
L 158.008551 113.102819 
L 165.569824 117.802862 
L 170.526945 117.12502 
z
" clip-path="url(#p8ced165e90)" style="fill: #7e2482; stroke: #000000"/>
    <path d="M 182.959086 122.436489 
L 178.09889 122.82143 
L 185.730047 127.754077 
L 190.569575 126.542019 
z
" clip-path="url(#p8ced165e90)" style="fill: #a5317e; stroke: #000000"/>
    <path d="M 107.541766 165.369583 
L 102.290079 182.434566 
L 109.616066 179.659607 
L 114.879395 163.719192 
z
" clip-path="url(#p8ced165e90)" style="fill: #fde2a3; stroke: #000000"/>
    <path d="M 94.975317 176.659546 
L 89.534648 175.568603 
L 96.879388 181.113275 
L 102.290079 182.434566 
z
" clip-path="url(#p8ced165e90)" style="fill: #fcfdbf; stroke: #000000"/>
    <path d="M 150.481268 112.043147 
L 145.397831 114.688822 
L 152.945781 116.064362 
L 158.008551 113.102819 
z
" clip-path="url(#p8ced165e90)" style="fill: #762181; stroke: #000000"/>
    <path d="M 125.308428 122.174373 
L 120.097097 139.591686 
L 127.525109 136.945439 
L 132.741663 122.083665 
z
" clip-path="url(#p8ced165e90)" style="fill: #b83779; stroke: #000000"/>
    <path d="M 67.535353 140.535121 
L 61.895313 138.663673 
L 69.186912 146.355884 
L 74.830446 151.319044 
z
" clip-path="url(#p8ced165e90)" style="fill: #ec5860; stroke: #000000"/>
    <path d="M 137.908173 115.500632 
L 132.741663 122.083665 
L 140.244569 121.200283 
L 145.397831 114.688822 
z
" clip-path="url(#p8ced165e90)" style="fill: #862781; stroke: #000000"/>
    <path d="M 170.526945 117.12502 
L 165.569824 117.802862 
L 173.168258 124.053265 
L 178.09889 122.82143 
z
" clip-path="url(#p8ced165e90)" style="fill: #902a81; stroke: #000000"/>
    <path d="M 120.097097 139.591686 
L 114.879395 163.719192 
L 122.282367 156.759565 
L 127.525109 136.945439 
z
" clip-path="url(#p8ced165e90)" style="fill: #f56b5c; stroke: #000000"/>
    <path d="M 74.830446 151.319044 
L 69.186912 146.355884 
L 76.536048 155.498397 
L 82.177359 164.197397 
z
" clip-path="url(#p8ced165e90)" style="fill: #fb835f; stroke: #000000"/>
    <path d="M 102.290079 182.434566 
L 96.879388 181.113275 
L 104.22944 178.683557 
L 109.616066 179.659607 
z
" clip-path="url(#p8ced165e90)" style="fill: #fcfdbf; stroke: #000000"/>
    <path d="M 158.008551 113.102819 
L 152.945781 116.064362 
L 160.534253 120.676581 
L 165.569824 117.802862 
z
" clip-path="url(#p8ced165e90)" style="fill: #7c2382; stroke: #000000"/>
    <path d="M 178.09889 122.82143 
L 173.168258 124.053265 
L 180.825366 129.403967 
L 185.730047 127.754077 
z
" clip-path="url(#p8ced165e90)" style="fill: #a1307e; stroke: #000000"/>
    <path d="M 82.177359 164.197397 
L 76.536048 155.498397 
L 83.911517 163.631957 
L 89.534648 175.568603 
z
" clip-path="url(#p8ced165e90)" style="fill: #feb27a; stroke: #000000"/>
    <path d="M 114.879395 163.719192 
L 109.616066 179.659607 
L 117.001228 170.006336 
L 122.282367 156.759565 
z
" clip-path="url(#p8ced165e90)" style="fill: #febf84; stroke: #000000"/>
    <path d="M 132.741663 122.083665 
L 127.525109 136.945439 
L 135.031241 133.259058 
L 140.244569 121.200283 
z
" clip-path="url(#p8ced165e90)" style="fill: #ab337c; stroke: #000000"/>
    <path d="M 145.397831 114.688822 
L 140.244569 121.200283 
L 147.810862 122.095953 
L 152.945781 116.064362 
z
" clip-path="url(#p8ced165e90)" style="fill: #812581; stroke: #000000"/>
    <path d="M 165.569824 117.802862 
L 160.534253 120.676581 
L 168.164405 126.62553 
L 173.168258 124.053265 
z
" clip-path="url(#p8ced165e90)" style="fill: #8e2a81; stroke: #000000"/>
    <path d="M 89.534648 175.568603 
L 83.911517 163.631957 
L 91.294462 167.837747 
L 96.879388 181.113275 
z
" clip-path="url(#p8ced165e90)" style="fill: #fecf92; stroke: #000000"/>
    <path d="M 127.525109 136.945439 
L 122.282367 156.759565 
L 129.777324 148.14961 
L 135.031241 133.259058 
z
" clip-path="url(#p8ced165e90)" style="fill: #e34e65; stroke: #000000"/>
    <path d="M 152.945781 116.064362 
L 147.810862 122.095953 
L 155.427078 125.647504 
L 160.534253 120.676581 
z
" clip-path="url(#p8ced165e90)" style="fill: #862781; stroke: #000000"/>
    <path d="M 109.616066 179.659607 
L 104.22944 178.683557 
L 111.632331 170.029627 
L 117.001228 170.006336 
z
" clip-path="url(#p8ced165e90)" style="fill: #fed89a; stroke: #000000"/>
    <path d="M 140.244569 121.200283 
L 135.031241 133.259058 
L 142.612768 131.357647 
L 147.810862 122.095953 
z
" clip-path="url(#p8ced165e90)" style="fill: #9e2f7f; stroke: #000000"/>
    <path d="M 173.168258 124.053265 
L 168.164405 126.62553 
L 175.85359 131.70007 
L 180.825366 129.403967 
z
" clip-path="url(#p8ced165e90)" style="fill: #a1307e; stroke: #000000"/>
    <path d="M 122.282367 156.759565 
L 117.001228 170.006336 
L 124.485695 158.30846 
L 129.777324 148.14961 
z
" clip-path="url(#p8ced165e90)" style="fill: #fc8961; stroke: #000000"/>
    <path d="M 96.879388 181.113275 
L 91.294462 167.837747 
L 98.695809 166.715648 
L 104.22944 178.683557 
z
" clip-path="url(#p8ced165e90)" style="fill: #fecf92; stroke: #000000"/>
    <path d="M 160.534253 120.676581 
L 155.427078 125.647504 
L 163.091901 130.379884 
L 168.164405 126.62553 
z
" clip-path="url(#p8ced165e90)" style="fill: #962c80; stroke: #000000"/>
    <path d="M 135.031241 133.259058 
L 129.777324 148.14961 
L 137.366008 141.787488 
L 142.612768 131.357647 
z
" clip-path="url(#p8ced165e90)" style="fill: #c83e73; stroke: #000000"/>
    <path d="M 147.810862 122.095953 
L 142.612768 131.357647 
L 150.256615 132.260388 
L 155.427078 125.647504 
z
" clip-path="url(#p8ced165e90)" style="fill: #9b2e7f; stroke: #000000"/>
    <path d="M 168.164405 126.62553 
L 163.091901 130.379884 
L 170.816658 134.542706 
L 175.85359 131.70007 
z
" clip-path="url(#p8ced165e90)" style="fill: #a5317e; stroke: #000000"/>
    <path d="M 117.001228 170.006336 
L 111.632331 170.029627 
L 119.129941 159.562538 
L 124.485695 158.30846 
z
" clip-path="url(#p8ced165e90)" style="fill: #fd9b6b; stroke: #000000"/>
    <path d="M 104.22944 178.683557 
L 98.695809 166.715648 
L 106.149397 161.486887 
L 111.632331 170.029627 
z
" clip-path="url(#p8ced165e90)" style="fill: #feb27a; stroke: #000000"/>
    <path d="M 129.777324 148.14961 
L 124.485695 158.30846 
L 132.077445 149.142269 
L 137.366008 141.787488 
z
" clip-path="url(#p8ced165e90)" style="fill: #ea5661; stroke: #000000"/>
    <path d="M 155.427078 125.647504 
L 150.256615 132.260388 
L 157.956629 134.864539 
L 163.091901 130.379884 
z
" clip-path="url(#p8ced165e90)" style="fill: #a3307e; stroke: #000000"/>
    <path d="M 142.612768 131.357647 
L 137.366008 141.787488 
L 145.032627 139.153132 
L 150.256615 132.260388 
z
" clip-path="url(#p8ced165e90)" style="fill: #b83779; stroke: #000000"/>
    <path d="M 163.091901 130.379884 
L 157.956629 134.864539 
L 165.71741 137.673693 
L 170.816658 134.542706 
z
" clip-path="url(#p8ced165e90)" style="fill: #ad347c; stroke: #000000"/>
    <path d="M 124.485695 158.30846 
L 119.129941 159.562538 
L 126.734367 151.291575 
L 132.077445 149.142269 
z
" clip-path="url(#p8ced165e90)" style="fill: #f2625d; stroke: #000000"/>
    <path d="M 150.256615 132.260388 
L 145.032627 139.153132 
L 152.764081 139.33254 
L 157.956629 134.864539 
z
" clip-path="url(#p8ced165e90)" style="fill: #b2357b; stroke: #000000"/>
    <path d="M 111.632331 170.029627 
L 106.149397 161.486887 
L 113.686882 155.084667 
L 119.129941 159.562538 
z
" clip-path="url(#p8ced165e90)" style="fill: #fa815f; stroke: #000000"/>
    <path d="M 137.366008 141.787488 
L 132.077445 149.142269 
L 139.760324 144.284074 
L 145.032627 139.153132 
z
" clip-path="url(#p8ced165e90)" style="fill: #cf4070; stroke: #000000"/>
    <path d="M 157.956629 134.864539 
L 152.764081 139.33254 
L 160.558058 140.76012 
L 165.71741 137.673693 
z
" clip-path="url(#p8ced165e90)" style="fill: #b3367a; stroke: #000000"/>
    <path d="M 145.032627 139.153132 
L 139.760324 144.284074 
L 147.516688 142.941376 
L 152.764081 139.33254 
z
" clip-path="url(#p8ced165e90)" style="fill: #bf3a77; stroke: #000000"/>
    <path d="M 132.077445 149.142269 
L 126.734367 151.291575 
L 134.433538 146.776623 
L 139.760324 144.284074 
z
" clip-path="url(#p8ced165e90)" style="fill: #d8456c; stroke: #000000"/>
    <path d="M 119.129941 159.562538 
L 113.686882 155.084667 
L 121.319646 150.122283 
L 126.734367 151.291575 
z
" clip-path="url(#p8ced165e90)" style="fill: #eb5760; stroke: #000000"/>
    <path d="M 152.764081 139.33254 
L 147.516688 142.941376 
L 155.339032 143.505113 
L 160.558058 140.76012 
z
" clip-path="url(#p8ced165e90)" style="fill: #ba3878; stroke: #000000"/>
    <path d="M 139.760324 144.284074 
L 134.433538 146.776623 
L 142.211097 145.404608 
L 147.516688 142.941376 
z
" clip-path="url(#p8ced165e90)" style="fill: #c53c74; stroke: #000000"/>
    <path d="M 126.734367 151.291575 
L 121.319646 150.122283 
L 129.041332 147.608908 
L 134.433538 146.776623 
z
" clip-path="url(#p8ced165e90)" style="fill: #d3436e; stroke: #000000"/>
    <path d="M 147.516688 142.941376 
L 142.211097 145.404608 
L 150.058224 145.836478 
L 155.339032 143.505113 
z
" clip-path="url(#p8ced165e90)" style="fill: #bd3977; stroke: #000000"/>
    <path d="M 134.433538 146.776623 
L 129.041332 147.608908 
L 136.841068 147.160376 
L 142.211097 145.404608 
z
" clip-path="url(#p8ced165e90)" style="fill: #c43c75; stroke: #000000"/>
    <path d="M 142.211097 145.404608 
L 136.841068 147.160376 
L 144.712222 147.921807 
L 150.058224 145.836478 
z
" clip-path="url(#p8ced165e90)" style="fill: #bd3977; stroke: #000000"/>
   </g>
  </g>
 </g>
 <defs>
  <clipPath id="p8ced165e90">
   <rect x="14.4" y="14.4" width="221.76" height="221.76"/>
  </clipPath>
 </defs>
</svg>
