<?xml version="1.0" encoding="utf-8" standalone="no"?>
<!DOCTYPE svg PUBLIC "-//W3C//DTD SVG 1.1//EN"
  "http://www.w3.org/Graphics/SVG/1.1/DTD/svg11.dtd">
<svg xmlns:xlink="http://www.w3.org/1999/xlink" width="434.509375pt" height="171.44175pt" viewBox="0 0 434.509375 171.44175" xmlns="http://www.w3.org/2000/svg" version="1.1">
 <metadata>
  <rdf:RDF xmlns:dc="http://purl.org/dc/elements/1.1/" xmlns:cc="http://creativecommons.org/ns#" xmlns:rdf="http://www.w3.org/1999/02/22-rdf-syntax-ns#">
   <cc:Work>
    <dc:type rdf:resource="http://purl.org/dc/dcmitype/StillImage"/>
    <dc:date>2023-12-09T18:31:24.884674</dc:date>
    <dc:format>image/svg+xml</dc:format>
    <dc:creator>
     <cc:Agent>
      <dc:title>Matplotlib v3.8.2, https://matplotlib.org/</dc:title>
     </cc:Agent>
    </dc:creator>
   </cc:Work>
  </rdf:RDF>
 </metadata>
 <defs>
  <style type="text/css">*{stroke-linejoin: round; stroke-linecap: butt}</style>
 </defs>
 <g id="figure_1">
  <g id="patch_1">
   <path d="M 0 171.44175 
L 434.509375 171.44175 
L 434.509375 0 
L 0 0 
L 0 171.44175 
z
" style="fill: none"/>
  </g>
  <g id="axes_1">
   <g id="patch_2">
    <path d="M 29.509375 141.60975 
L 144.391728 141.60975 
L 144.391728 30.72975 
L 29.509375 30.72975 
z
" style="fill: #ffffff; fill-opacity: 0.333333"/>
   </g>
   <g id="matplotlib.axis_1">
    <g id="text_1">
     <!-- $\theta$ -->
     <g style="fill: #808080" transform="translate(83.230551 154.217875) scale(0.12 -0.12)">
      <defs>
       <path id="DejaVuSans-Oblique-3b8" d="M 2913 2219 
L 925 2219 
Q 791 1284 928 888 
Q 1100 400 1566 400 
Q 2034 400 2391 891 
Q 2703 1322 2913 2219 
z
M 3009 2750 
Q 3094 3638 2984 3950 
Q 2813 4444 2353 4444 
Q 1875 4444 1525 3956 
Q 1250 3563 1034 2750 
L 3009 2750 
z
M 2444 4913 
Q 3194 4913 3494 4250 
Q 3794 3591 3566 2422 
Q 3341 1256 2781 594 
Q 2225 -72 1475 -72 
Q 722 -72 425 594 
Q 128 1256 353 2422 
Q 581 3591 1134 4250 
Q 1691 4913 2444 4913 
z
" transform="scale(0.015625)"/>
      </defs>
      <use xlink:href="#DejaVuSans-Oblique-3b8" transform="translate(0 0.234375)"/>
     </g>
    </g>
   </g>
   <g id="matplotlib.axis_2">
    <g id="text_2">
     <!-- $\mathcal{L}(\theta)$ -->
     <g style="fill: #808080" transform="translate(23.008125 98.70975) rotate(-90) scale(0.12 -0.12)">
      <defs>
       <path id="STIXNonUnicode-Italic-e238" d="M 4070 915 
L 4179 800 
Q 3347 -45 2413 -45 
Q 2157 -45 1850 26 
Q 1395 122 1146 122 
Q 1005 122 672 61 
Q 339 0 192 0 
L 230 154 
Q 582 154 730 749 
L 1178 2566 
Q 1286 3008 1516 3353 
Q 1747 3699 2025 3894 
Q 2304 4090 2585 4189 
Q 2867 4288 3123 4288 
Q 3443 4288 3593 4083 
Q 3744 3878 3744 3584 
Q 3744 3347 3593 3200 
Q 3443 3053 3226 3053 
Q 3085 3053 2995 3149 
Q 2906 3245 2906 3379 
Q 2906 3482 2957 3552 
Q 3008 3622 3065 3644 
Q 3123 3667 3174 3705 
Q 3226 3744 3226 3789 
Q 3226 4032 2854 4032 
Q 2522 4032 2310 3785 
Q 2099 3539 1990 3132 
Q 1882 2726 1795 2284 
Q 1709 1843 1549 1363 
Q 1389 883 1158 589 
L 1158 563 
Q 1363 704 1888 704 
Q 2227 704 2460 544 
Q 2694 384 2963 384 
Q 3507 384 4070 915 
z
" transform="scale(0.015625)"/>
       <path id="DejaVuSans-28" d="M 1984 4856 
Q 1566 4138 1362 3434 
Q 1159 2731 1159 2009 
Q 1159 1288 1364 580 
Q 1569 -128 1984 -844 
L 1484 -844 
Q 1016 -109 783 600 
Q 550 1309 550 2009 
Q 550 2706 781 3412 
Q 1013 4119 1484 4856 
L 1984 4856 
z
" transform="scale(0.015625)"/>
       <path id="DejaVuSans-29" d="M 513 4856 
L 1013 4856 
Q 1481 4119 1714 3412 
Q 1947 2706 1947 2009 
Q 1947 1309 1714 600 
Q 1481 -109 1013 -844 
L 513 -844 
Q 928 -128 1133 580 
Q 1338 1288 1338 2009 
Q 1338 2731 1133 3434 
Q 928 4138 513 4856 
z
" transform="scale(0.015625)"/>
      </defs>
      <use xlink:href="#STIXNonUnicode-Italic-e238" transform="translate(0 0.234375)"/>
      <use xlink:href="#DejaVuSans-28" transform="translate(69.299988 0.234375)"/>
      <use xlink:href="#DejaVuSans-Oblique-3b8" transform="translate(108.31366 0.234375)"/>
      <use xlink:href="#DejaVuSans-29" transform="translate(169.4953 0.234375)"/>
     </g>
    </g>
   </g>
   <g id="line2d_1">
    <path d="M 34.7313 35.76975 
L 35.786235 39.801339 
L 36.841169 43.75065 
L 37.896103 47.617684 
L 38.951038 51.402441 
L 40.005972 55.10492 
L 41.060906 58.725122 
L 42.115841 62.263047 
L 43.170775 65.718694 
L 44.225709 69.092064 
L 45.280644 72.383157 
L 46.335578 75.591972 
L 47.390513 78.71851 
L 48.445447 81.762771 
L 49.500381 84.724755 
L 50.555316 87.604461 
L 51.61025 90.40189 
L 52.665184 93.117041 
L 53.720119 95.749915 
L 54.775053 98.300512 
L 55.829988 100.768832 
L 56.884922 103.154874 
L 57.939856 105.458639 
L 58.994791 107.680126 
L 60.049725 109.819337 
L 61.104659 111.87627 
L 62.159594 113.850925 
L 63.214528 115.743304 
L 64.269463 117.553405 
L 65.324397 119.281228 
L 66.379331 120.926775 
L 67.434266 122.490044 
L 68.4892 123.971036 
L 69.544134 125.36975 
L 70.599069 126.686187 
L 71.654003 127.920347 
L 72.708937 129.072229 
L 73.763872 130.141834 
L 74.818806 131.129162 
L 75.873741 132.034213 
L 76.928675 132.856986 
L 77.983609 133.597482 
L 79.038544 134.2557 
L 80.093478 134.831642 
L 81.148412 135.325306 
L 82.203347 135.736692 
L 83.258281 136.065801 
L 84.313216 136.312633 
L 85.36815 136.477188 
L 86.423084 136.559465 
L 87.478019 136.559465 
L 88.532953 136.477188 
L 89.587887 136.312633 
L 90.642822 136.065801 
L 91.697756 135.736692 
L 92.752691 135.325306 
L 93.807625 134.831642 
L 94.862559 134.2557 
L 95.917494 133.597482 
L 96.972428 132.856986 
L 98.027362 132.034213 
L 99.082297 131.129162 
L 100.137231 130.141834 
L 101.192165 129.072229 
L 102.2471 127.920347 
L 103.302034 126.686187 
L 104.356969 125.36975 
L 105.411903 123.971036 
L 106.466837 122.490044 
L 107.521772 120.926775 
L 108.576706 119.281228 
L 109.63164 117.553405 
L 110.686575 115.743304 
L 111.741509 113.850925 
L 112.796444 111.87627 
L 113.851378 109.819337 
L 114.906312 107.680126 
L 115.961247 105.458639 
L 117.016181 103.154874 
L 118.071115 100.768832 
L 119.12605 98.300512 
L 120.180984 95.749915 
L 121.235919 93.117041 
L 122.290853 90.40189 
L 123.345787 87.604461 
L 124.400722 84.724755 
L 125.455656 81.762771 
L 126.51059 78.71851 
L 127.565525 75.591972 
L 128.620459 72.383157 
L 129.675393 69.092064 
L 130.730328 65.718694 
L 131.785262 62.263047 
L 132.840197 58.725122 
L 133.895131 55.10492 
L 134.950065 51.402441 
L 136.005 47.617684 
L 137.059934 43.75065 
L 138.114868 39.801339 
L 139.169803 35.76975 
" clip-path="url(#p77fd076dd8)" style="fill: none; stroke: #808080; stroke-linecap: square"/>
   </g>
   <g id="LineCollection_1">
    <path d="M 133.947878 136.56975 
L 133.947878 54.92175 
" clip-path="url(#p77fd076dd8)" style="fill: none; stroke-dasharray: 3.7,1.6; stroke-dashoffset: 0; stroke: #ff7f0e"/>
   </g>
   <g id="line2d_2">
    <path d="M 133.947878 54.92175 
" clip-path="url(#p77fd076dd8)" style="fill: none; stroke: #ff7f0e; stroke-linecap: square"/>
    <defs>
     <path id="m9b72869ea2" d="M 0 2.5 
C 0.663008 2.5 1.29895 2.236584 1.767767 1.767767 
C 2.236584 1.29895 2.5 0.663008 2.5 0 
C 2.5 -0.663008 2.236584 -1.29895 1.767767 -1.767767 
C 1.29895 -2.236584 0.663008 -2.5 0 -2.5 
C -0.663008 -2.5 -1.29895 -2.236584 -1.767767 -1.767767 
C -2.236584 -1.29895 -2.5 -0.663008 -2.5 0 
C -2.5 0.663008 -2.236584 1.29895 -1.767767 1.767767 
C -1.29895 2.236584 -0.663008 2.5 0 2.5 
z
" style="stroke: #ff7f0e"/>
    </defs>
    <g clip-path="url(#p77fd076dd8)">
     <use xlink:href="#m9b72869ea2" x="133.947878" y="54.92175" style="fill: #ff7f0e; stroke: #ff7f0e"/>
    </g>
   </g>
   <g id="line2d_3">
    <path d="M 54.66956 98.049155 
" clip-path="url(#p77fd076dd8)" style="fill: none; stroke: #1f77b4; stroke-linecap: square"/>
    <defs>
     <path id="mec27014723" d="M 0 2.5 
C 0.663008 2.5 1.29895 2.236584 1.767767 1.767767 
C 2.236584 1.29895 2.5 0.663008 2.5 0 
C 2.5 -0.663008 2.236584 -1.29895 1.767767 -1.767767 
C 1.29895 -2.236584 0.663008 -2.5 0 -2.5 
C -0.663008 -2.5 -1.29895 -2.236584 -1.767767 -1.767767 
C -2.236584 -1.29895 -2.5 -0.663008 -2.5 0 
C -2.5 0.663008 -2.236584 1.29895 -1.767767 1.767767 
C -1.29895 2.236584 -0.663008 2.5 0 2.5 
z
" style="stroke: #1f77b4"/>
    </defs>
    <g clip-path="url(#p77fd076dd8)">
     <use xlink:href="#mec27014723" x="54.66956" y="98.049155" style="fill: #1f77b4; stroke: #1f77b4"/>
    </g>
   </g>
   <g id="line2d_4">
    <path d="M 117.807382 101.373056 
" clip-path="url(#p77fd076dd8)" style="fill: none; stroke: #1f77b4; stroke-linecap: square"/>
    <g clip-path="url(#p77fd076dd8)">
     <use xlink:href="#mec27014723" x="117.807382" y="101.373056" style="fill: #1f77b4; stroke: #1f77b4"/>
    </g>
   </g>
   <g id="line2d_5">
    <path d="M 67.012292 121.87461 
" clip-path="url(#p77fd076dd8)" style="fill: none; stroke: #1f77b4; stroke-linecap: square"/>
    <g clip-path="url(#p77fd076dd8)">
     <use xlink:href="#mec27014723" x="67.012292" y="121.87461" style="fill: #1f77b4; stroke: #1f77b4"/>
    </g>
   </g>
   <g id="line2d_6">
    <path d="M 107.363532 121.16651 
" clip-path="url(#p77fd076dd8)" style="fill: none; stroke: #1f77b4; stroke-linecap: square"/>
    <g clip-path="url(#p77fd076dd8)">
     <use xlink:href="#mec27014723" x="107.363532" y="121.16651" style="fill: #1f77b4; stroke: #1f77b4"/>
    </g>
   </g>
   <g id="line2d_7">
    <path d="M 75.55726 131.771337 
" clip-path="url(#p77fd076dd8)" style="fill: none; stroke: #1f77b4; stroke-linecap: square"/>
    <g clip-path="url(#p77fd076dd8)">
     <use xlink:href="#mec27014723" x="75.55726" y="131.771337" style="fill: #1f77b4; stroke: #1f77b4"/>
    </g>
   </g>
   <g id="patch_3">
    <path d="M 29.509375 141.60975 
L 29.509375 30.72975 
" style="fill: none; stroke: #808080; stroke-width: 0.8; stroke-linejoin: miter; stroke-linecap: square"/>
   </g>
   <g id="patch_4">
    <path d="M 144.391728 141.60975 
L 144.391728 30.72975 
" style="fill: none; stroke: #808080; stroke-width: 0.8; stroke-linejoin: miter; stroke-linecap: square"/>
   </g>
   <g id="patch_5">
    <path d="M 29.509375 141.60975 
L 144.391728 141.60975 
" style="fill: none; stroke: #808080; stroke-width: 0.8; stroke-linejoin: miter; stroke-linecap: square"/>
   </g>
   <g id="patch_6">
    <path d="M 29.509375 30.72975 
L 144.391728 30.72975 
" style="fill: none; stroke: #808080; stroke-width: 0.8; stroke-linejoin: miter; stroke-linecap: square"/>
   </g>
   <g id="text_3">
    <!-- $\theta_0$ -->
    <g style="fill: #ff7f0e" transform="translate(127.407878 154.5405) scale(0.12 -0.12)">
     <defs>
      <path id="DejaVuSans-30" d="M 2034 4250 
Q 1547 4250 1301 3770 
Q 1056 3291 1056 2328 
Q 1056 1369 1301 889 
Q 1547 409 2034 409 
Q 2525 409 2770 889 
Q 3016 1369 3016 2328 
Q 3016 3291 2770 3770 
Q 2525 4250 2034 4250 
z
M 2034 4750 
Q 2819 4750 3233 4129 
Q 3647 3509 3647 2328 
Q 3647 1150 3233 529 
Q 2819 -91 2034 -91 
Q 1250 -91 836 529 
Q 422 1150 422 2328 
Q 422 3509 836 4129 
Q 1250 4750 2034 4750 
z
" transform="scale(0.015625)"/>
     </defs>
     <use xlink:href="#DejaVuSans-Oblique-3b8" transform="translate(0 0.234375)"/>
     <use xlink:href="#DejaVuSans-30" transform="translate(61.181641 -16.171875) scale(0.7)"/>
    </g>
   </g>
   <g id="patch_7">
    <path d="M 129.00426 54.151003 
Q 78.509442 47.443967 57.186139 92.470953 
" style="fill: none; stroke: #1f77b4; stroke-linecap: round"/>
    <path d="M 61.409608 89.160015 
L 57.186139 92.470953 
L 57.07147 87.105615 
" style="fill: none; stroke: #1f77b4; stroke-linecap: round"/>
   </g>
   <g id="patch_8">
    <path d="M 58.823423 95.264915 
Q 87.41051 77.450516 113.087528 97.480575 
" style="fill: none; stroke: #1f77b4; stroke-linecap: round"/>
    <path d="M 110.779026 92.635906 
L 113.087528 97.480575 
L 107.826692 96.420575 
" style="fill: none; stroke: #1f77b4; stroke-linecap: round"/>
   </g>
   <g id="patch_9">
    <path d="M 112.969804 100.115483 
Q 85.32518 94.0666 70.244047 116.678127 
" style="fill: none; stroke: #1f77b4; stroke-linecap: round"/>
    <path d="M 74.904082 114.016534 
L 70.244047 116.678127 
L 70.910793 111.353144 
" style="fill: none; stroke: #1f77b4; stroke-linecap: round"/>
   </g>
   <g id="patch_10">
    <path d="M 71.017375 118.884592 
Q 86.955967 108.29885 102.303694 117.733448 
" style="fill: none; stroke: #1f77b4; stroke-linecap: round"/>
    <path d="M 99.471379 113.17516 
L 102.303694 117.733448 
L 96.957675 117.264327 
" style="fill: none; stroke: #1f77b4; stroke-linecap: round"/>
   </g>
   <g id="patch_11">
    <path d="M 102.576387 119.735178 
Q 88.129459 116.471568 79.255596 126.898096 
" style="fill: none; stroke: #1f77b4; stroke-linecap: round"/>
    <path d="M 84.194286 124.798253 
L 79.255596 126.898096 
L 80.538935 121.687238 
" style="fill: none; stroke: #1f77b4; stroke-linecap: round"/>
   </g>
   <g id="text_4">
    <!-- Too large -->
    <g style="fill: #808080" transform="translate(56.536176 24.72975) scale(0.144 -0.144)">
     <defs>
      <path id="Helvetica-54" d="M 3828 4591 
L 3828 4044 
L 2281 4044 
L 2281 0 
L 1650 0 
L 1650 4044 
L 103 4044 
L 103 4591 
L 3828 4591 
z
" transform="scale(0.015625)"/>
      <path id="Helvetica-6f" d="M 1741 363 
Q 2300 363 2508 786 
Q 2716 1209 2716 1728 
Q 2716 2197 2566 2491 
Q 2328 2953 1747 2953 
Q 1231 2953 997 2559 
Q 763 2166 763 1609 
Q 763 1075 997 719 
Q 1231 363 1741 363 
z
M 1763 3444 
Q 2409 3444 2856 3012 
Q 3303 2581 3303 1744 
Q 3303 934 2909 406 
Q 2516 -122 1688 -122 
Q 997 -122 590 345 
Q 184 813 184 1600 
Q 184 2444 612 2944 
Q 1041 3444 1763 3444 
z
M 1744 3428 
L 1744 3428 
z
" transform="scale(0.015625)"/>
      <path id="Helvetica-20" transform="scale(0.015625)"/>
      <path id="Helvetica-6c" d="M 428 4591 
L 991 4591 
L 991 0 
L 428 0 
L 428 4591 
z
" transform="scale(0.015625)"/>
      <path id="Helvetica-61" d="M 844 891 
Q 844 647 1022 506 
Q 1200 366 1444 366 
Q 1741 366 2019 503 
Q 2488 731 2488 1250 
L 2488 1703 
Q 2384 1638 2221 1594 
Q 2059 1550 1903 1531 
L 1563 1488 
Q 1256 1447 1103 1359 
Q 844 1213 844 891 
z
M 2206 2028 
Q 2400 2053 2466 2191 
Q 2503 2266 2503 2406 
Q 2503 2694 2298 2823 
Q 2094 2953 1713 2953 
Q 1272 2953 1088 2716 
Q 984 2584 953 2325 
L 428 2325 
Q 444 2944 830 3186 
Q 1216 3428 1725 3428 
Q 2316 3428 2684 3203 
Q 3050 2978 3050 2503 
L 3050 575 
Q 3050 488 3086 434 
Q 3122 381 3238 381 
Q 3275 381 3322 386 
Q 3369 391 3422 400 
L 3422 -16 
Q 3291 -53 3222 -62 
Q 3153 -72 3034 -72 
Q 2744 -72 2613 134 
Q 2544 244 2516 444 
Q 2344 219 2022 53 
Q 1700 -113 1313 -113 
Q 847 -113 551 170 
Q 256 453 256 878 
Q 256 1344 547 1600 
Q 838 1856 1309 1916 
L 2206 2028 
z
M 1741 3428 
L 1741 3428 
z
" transform="scale(0.015625)"/>
      <path id="Helvetica-72" d="M 428 3347 
L 963 3347 
L 963 2769 
Q 1028 2938 1284 3180 
Q 1541 3422 1875 3422 
Q 1891 3422 1928 3419 
Q 1966 3416 2056 3406 
L 2056 2813 
Q 2006 2822 1964 2825 
Q 1922 2828 1872 2828 
Q 1447 2828 1219 2554 
Q 991 2281 991 1925 
L 991 0 
L 428 0 
L 428 3347 
z
" transform="scale(0.015625)"/>
      <path id="Helvetica-67" d="M 1594 3406 
Q 1988 3406 2281 3213 
Q 2441 3103 2606 2894 
L 2606 3316 
L 3125 3316 
L 3125 272 
Q 3125 -366 2938 -734 
Q 2588 -1416 1616 -1416 
Q 1075 -1416 706 -1173 
Q 338 -931 294 -416 
L 866 -416 
Q 906 -641 1028 -763 
Q 1219 -950 1628 -950 
Q 2275 -950 2475 -494 
Q 2594 -225 2584 466 
Q 2416 209 2178 84 
Q 1941 -41 1550 -41 
Q 1006 -41 598 345 
Q 191 731 191 1622 
Q 191 2463 602 2934 
Q 1013 3406 1594 3406 
z
M 2606 1688 
Q 2606 2309 2350 2609 
Q 2094 2909 1697 2909 
Q 1103 2909 884 2353 
Q 769 2056 769 1575 
Q 769 1009 998 714 
Q 1228 419 1616 419 
Q 2222 419 2469 966 
Q 2606 1275 2606 1688 
z
M 1659 3428 
L 1659 3428 
z
" transform="scale(0.015625)"/>
      <path id="Helvetica-65" d="M 1806 3422 
Q 2163 3422 2497 3255 
Q 2831 3088 3006 2822 
Q 3175 2569 3231 2231 
Q 3281 2000 3281 1494 
L 828 1494 
Q 844 984 1069 676 
Q 1294 369 1766 369 
Q 2206 369 2469 659 
Q 2619 828 2681 1050 
L 3234 1050 
Q 3213 866 3089 639 
Q 2966 413 2813 269 
Q 2556 19 2178 -69 
Q 1975 -119 1719 -119 
Q 1094 -119 659 336 
Q 225 791 225 1609 
Q 225 2416 662 2919 
Q 1100 3422 1806 3422 
z
M 2703 1941 
Q 2669 2306 2544 2525 
Q 2313 2931 1772 2931 
Q 1384 2931 1121 2651 
Q 859 2372 844 1941 
L 2703 1941 
z
M 1753 3428 
L 1753 3428 
z
" transform="scale(0.015625)"/>
     </defs>
     <use xlink:href="#Helvetica-54"/>
     <use xlink:href="#Helvetica-6f" x="61.083984"/>
     <use xlink:href="#Helvetica-6f" x="116.699219"/>
     <use xlink:href="#Helvetica-20" x="172.314453"/>
     <use xlink:href="#Helvetica-6c" x="200.097656"/>
     <use xlink:href="#Helvetica-61" x="222.314453"/>
     <use xlink:href="#Helvetica-72" x="277.929688"/>
     <use xlink:href="#Helvetica-67" x="311.230469"/>
     <use xlink:href="#Helvetica-65" x="366.845703"/>
    </g>
   </g>
  </g>
  <g id="axes_2">
   <g id="patch_12">
    <path d="M 167.368199 141.60975 
L 282.250551 141.60975 
L 282.250551 30.72975 
L 167.368199 30.72975 
z
" style="fill: #ffffff; fill-opacity: 0.333333"/>
   </g>
   <g id="matplotlib.axis_3">
    <g id="text_5">
     <!-- $\theta$ -->
     <g style="fill: #808080" transform="translate(221.089375 154.217875) scale(0.12 -0.12)">
      <use xlink:href="#DejaVuSans-Oblique-3b8" transform="translate(0 0.234375)"/>
     </g>
    </g>
   </g>
   <g id="matplotlib.axis_4"/>
   <g id="line2d_8">
    <path d="M 172.590124 35.76975 
L 173.645058 39.801339 
L 174.699992 43.75065 
L 175.754927 47.617684 
L 176.809861 51.402441 
L 177.864796 55.10492 
L 178.91973 58.725122 
L 179.974664 62.263047 
L 181.029599 65.718694 
L 182.084533 69.092064 
L 183.139467 72.383157 
L 184.194402 75.591972 
L 185.249336 78.71851 
L 186.30427 81.762771 
L 187.359205 84.724755 
L 188.414139 87.604461 
L 189.469074 90.40189 
L 190.524008 93.117041 
L 191.578942 95.749915 
L 192.633877 98.300512 
L 193.688811 100.768832 
L 194.743745 103.154874 
L 195.79868 105.458639 
L 196.853614 107.680126 
L 197.908549 109.819337 
L 198.963483 111.87627 
L 200.018417 113.850925 
L 201.073352 115.743304 
L 202.128286 117.553405 
L 203.18322 119.281228 
L 204.238155 120.926775 
L 205.293089 122.490044 
L 206.348024 123.971036 
L 207.402958 125.36975 
L 208.457892 126.686187 
L 209.512827 127.920347 
L 210.567761 129.072229 
L 211.622695 130.141834 
L 212.67763 131.129162 
L 213.732564 132.034213 
L 214.787498 132.856986 
L 215.842433 133.597482 
L 216.897367 134.2557 
L 217.952302 134.831642 
L 219.007236 135.325306 
L 220.06217 135.736692 
L 221.117105 136.065801 
L 222.172039 136.312633 
L 223.226973 136.477188 
L 224.281908 136.559465 
L 225.336842 136.559465 
L 226.391777 136.477188 
L 227.446711 136.312633 
L 228.501645 136.065801 
L 229.55658 135.736692 
L 230.611514 135.325306 
L 231.666448 134.831642 
L 232.721383 134.2557 
L 233.776317 133.597482 
L 234.831252 132.856986 
L 235.886186 132.034213 
L 236.94112 131.129162 
L 237.996055 130.141834 
L 239.050989 129.072229 
L 240.105923 127.920347 
L 241.160858 126.686187 
L 242.215792 125.36975 
L 243.270726 123.971036 
L 244.325661 122.490044 
L 245.380595 120.926775 
L 246.43553 119.281228 
L 247.490464 117.553405 
L 248.545398 115.743304 
L 249.600333 113.850925 
L 250.655267 111.87627 
L 251.710201 109.819337 
L 252.765136 107.680126 
L 253.82007 105.458639 
L 254.875005 103.154874 
L 255.929939 100.768832 
L 256.984873 98.300512 
L 258.039808 95.749915 
L 259.094742 93.117041 
L 260.149676 90.40189 
L 261.204611 87.604461 
L 262.259545 84.724755 
L 263.31448 81.762771 
L 264.369414 78.71851 
L 265.424348 75.591972 
L 266.479283 72.383157 
L 267.534217 69.092064 
L 268.589151 65.718694 
L 269.644086 62.263047 
L 270.69902 58.725122 
L 271.753954 55.10492 
L 272.808889 51.402441 
L 273.863823 47.617684 
L 274.918758 43.75065 
L 275.973692 39.801339 
L 277.028626 35.76975 
" clip-path="url(#pbbd1658041)" style="fill: none; stroke: #808080; stroke-linecap: square"/>
   </g>
   <g id="LineCollection_2">
    <path d="M 271.806701 136.56975 
L 271.806701 54.92175 
" clip-path="url(#pbbd1658041)" style="fill: none; stroke-dasharray: 3.7,1.6; stroke-dashoffset: 0; stroke: #ff7f0e"/>
   </g>
   <g id="line2d_9">
    <path d="M 271.806701 54.92175 
" clip-path="url(#pbbd1658041)" style="fill: none; stroke: #ff7f0e; stroke-linecap: square"/>
    <g clip-path="url(#pbbd1658041)">
     <use xlink:href="#m9b72869ea2" x="271.806701" y="54.92175" style="fill: #ff7f0e; stroke: #ff7f0e"/>
    </g>
   </g>
   <g id="line2d_10">
    <path d="M 265.23446 76.160821 
" clip-path="url(#pbbd1658041)" style="fill: none; stroke: #1f77b4; stroke-linecap: square"/>
    <g clip-path="url(#pbbd1658041)">
     <use xlink:href="#mec27014723" x="265.23446" y="76.160821" style="fill: #1f77b4; stroke: #1f77b4"/>
    </g>
   </g>
   <g id="line2d_11">
    <path d="M 259.548364 91.959609 
" clip-path="url(#pbbd1658041)" style="fill: none; stroke: #1f77b4; stroke-linecap: square"/>
    <g clip-path="url(#pbbd1658041)">
     <use xlink:href="#mec27014723" x="259.548364" y="91.959609" style="fill: #1f77b4; stroke: #1f77b4"/>
    </g>
   </g>
   <g id="line2d_12">
    <path d="M 254.748412 103.43567 
" clip-path="url(#pbbd1658041)" style="fill: none; stroke: #1f77b4; stroke-linecap: square"/>
    <g clip-path="url(#pbbd1658041)">
     <use xlink:href="#mec27014723" x="254.748412" y="103.43567" style="fill: #1f77b4; stroke: #1f77b4"/>
    </g>
   </g>
   <g id="line2d_13">
    <path d="M 250.539224 112.097509 
" clip-path="url(#pbbd1658041)" style="fill: none; stroke: #1f77b4; stroke-linecap: square"/>
    <g clip-path="url(#pbbd1658041)">
     <use xlink:href="#mec27014723" x="250.539224" y="112.097509" style="fill: #1f77b4; stroke: #1f77b4"/>
    </g>
   </g>
   <g id="patch_13">
    <path d="M 167.368199 141.60975 
L 167.368199 30.72975 
" style="fill: none; stroke: #808080; stroke-width: 0.8; stroke-linejoin: miter; stroke-linecap: square"/>
   </g>
   <g id="patch_14">
    <path d="M 282.250551 141.60975 
L 282.250551 30.72975 
" style="fill: none; stroke: #808080; stroke-width: 0.8; stroke-linejoin: miter; stroke-linecap: square"/>
   </g>
   <g id="patch_15">
    <path d="M 167.368199 141.60975 
L 282.250551 141.60975 
" style="fill: none; stroke: #808080; stroke-width: 0.8; stroke-linejoin: miter; stroke-linecap: square"/>
   </g>
   <g id="patch_16">
    <path d="M 167.368199 30.72975 
L 282.250551 30.72975 
" style="fill: none; stroke: #808080; stroke-width: 0.8; stroke-linejoin: miter; stroke-linecap: square"/>
   </g>
   <g id="text_6">
    <!-- $\theta_0$ -->
    <g style="fill: #ff7f0e" transform="translate(265.266701 154.5405) scale(0.12 -0.12)">
     <use xlink:href="#DejaVuSans-Oblique-3b8" transform="translate(0 0.234375)"/>
     <use xlink:href="#DejaVuSans-30" transform="translate(61.181641 -16.171875) scale(0.7)"/>
    </g>
   </g>
   <g id="patch_17">
    <path d="M 265.853591 54.161292 
Q 210.951814 47.631737 258.017964 72.439977 
" style="fill: none; stroke: #1f77b4; stroke-linecap: round"/>
    <path d="M 254.890801 68.078687 
L 258.017964 72.439977 
L 252.652634 72.324933 
" style="fill: none; stroke: #1f77b4; stroke-linecap: round"/>
   </g>
   <g id="patch_18">
    <path d="M 259.322113 75.148798 
Q 221.053013 69.081315 252.525766 87.886386 
" style="fill: none; stroke: #1f77b4; stroke-linecap: round"/>
    <path d="M 249.636274 83.364127 
L 252.525766 87.886386 
L 247.174263 87.484624 
" style="fill: none; stroke: #1f77b4; stroke-linecap: round"/>
   </g>
   <g id="patch_19">
    <path d="M 253.685571 90.675257 
Q 228.665325 85.675588 247.972898 98.967567 
" style="fill: none; stroke: #1f77b4; stroke-linecap: round"/>
    <path d="M 245.380142 94.268884 
L 247.972898 98.967567 
L 242.658298 98.222562 
" style="fill: none; stroke: #1f77b4; stroke-linecap: round"/>
   </g>
   <g id="patch_20">
    <path d="M 248.961943 101.858257 
Q 232.459233 97.83689 244.070425 107.198573 
" style="fill: none; stroke: #1f77b4; stroke-linecap: round"/>
    <path d="M 241.840092 102.317423 
L 244.070425 107.198573 
L 238.827306 106.054149 
" style="fill: none; stroke: #1f77b4; stroke-linecap: round"/>
   </g>
   <g id="text_7">
    <!-- Too small -->
    <g style="fill: #808080" transform="translate(193.603 24.72975) scale(0.144 -0.144)">
     <defs>
      <path id="Helvetica-73" d="M 747 1050 
Q 772 769 888 619 
Q 1100 347 1625 347 
Q 1938 347 2175 483 
Q 2413 619 2413 903 
Q 2413 1119 2222 1231 
Q 2100 1300 1741 1391 
L 1294 1503 
Q 866 1609 663 1741 
Q 300 1969 300 2372 
Q 300 2847 642 3140 
Q 984 3434 1563 3434 
Q 2319 3434 2653 2991 
Q 2863 2709 2856 2384 
L 2325 2384 
Q 2309 2575 2191 2731 
Q 1997 2953 1519 2953 
Q 1200 2953 1036 2831 
Q 872 2709 872 2509 
Q 872 2291 1088 2159 
Q 1213 2081 1456 2022 
L 1828 1931 
Q 2434 1784 2641 1647 
Q 2969 1431 2969 969 
Q 2969 522 2630 197 
Q 2291 -128 1597 -128 
Q 850 -128 539 211 
Q 228 550 206 1050 
L 747 1050 
z
M 1578 3428 
L 1578 3428 
z
" transform="scale(0.015625)"/>
      <path id="Helvetica-6d" d="M 413 3347 
L 969 3347 
L 969 2872 
Q 1169 3119 1331 3231 
Q 1609 3422 1963 3422 
Q 2363 3422 2606 3225 
Q 2744 3113 2856 2894 
Q 3044 3163 3297 3292 
Q 3550 3422 3866 3422 
Q 4541 3422 4784 2934 
Q 4916 2672 4916 2228 
L 4916 0 
L 4331 0 
L 4331 2325 
Q 4331 2659 4164 2784 
Q 3997 2909 3756 2909 
Q 3425 2909 3186 2687 
Q 2947 2466 2947 1947 
L 2947 0 
L 2375 0 
L 2375 2184 
Q 2375 2525 2294 2681 
Q 2166 2916 1816 2916 
Q 1497 2916 1236 2669 
Q 975 2422 975 1775 
L 975 0 
L 413 0 
L 413 3347 
z
" transform="scale(0.015625)"/>
     </defs>
     <use xlink:href="#Helvetica-54"/>
     <use xlink:href="#Helvetica-6f" x="61.083984"/>
     <use xlink:href="#Helvetica-6f" x="116.699219"/>
     <use xlink:href="#Helvetica-20" x="172.314453"/>
     <use xlink:href="#Helvetica-73" x="200.097656"/>
     <use xlink:href="#Helvetica-6d" x="250.097656"/>
     <use xlink:href="#Helvetica-61" x="333.398438"/>
     <use xlink:href="#Helvetica-6c" x="389.013672"/>
     <use xlink:href="#Helvetica-6c" x="411.230469"/>
    </g>
   </g>
  </g>
  <g id="axes_3">
   <g id="patch_21">
    <path d="M 305.227022 141.60975 
L 420.109375 141.60975 
L 420.109375 30.72975 
L 305.227022 30.72975 
z
" style="fill: #ffffff; fill-opacity: 0.333333"/>
   </g>
   <g id="matplotlib.axis_5">
    <g id="text_8">
     <!-- $\theta$ -->
     <g style="fill: #808080" transform="translate(358.948199 154.217875) scale(0.12 -0.12)">
      <use xlink:href="#DejaVuSans-Oblique-3b8" transform="translate(0 0.234375)"/>
     </g>
    </g>
   </g>
   <g id="matplotlib.axis_6"/>
   <g id="line2d_14">
    <path d="M 310.448947 35.76975 
L 311.503882 39.801339 
L 312.558816 43.75065 
L 313.61375 47.617684 
L 314.668685 51.402441 
L 315.723619 55.10492 
L 316.778553 58.725122 
L 317.833488 62.263047 
L 318.888422 65.718694 
L 319.943357 69.092064 
L 320.998291 72.383157 
L 322.053225 75.591972 
L 323.10816 78.71851 
L 324.163094 81.762771 
L 325.218028 84.724755 
L 326.272963 87.604461 
L 327.327897 90.40189 
L 328.382831 93.117041 
L 329.437766 95.749915 
L 330.4927 98.300512 
L 331.547635 100.768832 
L 332.602569 103.154874 
L 333.657503 105.458639 
L 334.712438 107.680126 
L 335.767372 109.819337 
L 336.822306 111.87627 
L 337.877241 113.850925 
L 338.932175 115.743304 
L 339.98711 117.553405 
L 341.042044 119.281228 
L 342.096978 120.926775 
L 343.151913 122.490044 
L 344.206847 123.971036 
L 345.261781 125.36975 
L 346.316716 126.686187 
L 347.37165 127.920347 
L 348.426585 129.072229 
L 349.481519 130.141834 
L 350.536453 131.129162 
L 351.591388 132.034213 
L 352.646322 132.856986 
L 353.701256 133.597482 
L 354.756191 134.2557 
L 355.811125 134.831642 
L 356.866059 135.325306 
L 357.920994 135.736692 
L 358.975928 136.065801 
L 360.030863 136.312633 
L 361.085797 136.477188 
L 362.140731 136.559465 
L 363.195666 136.559465 
L 364.2506 136.477188 
L 365.305534 136.312633 
L 366.360469 136.065801 
L 367.415403 135.736692 
L 368.470338 135.325306 
L 369.525272 134.831642 
L 370.580206 134.2557 
L 371.635141 133.597482 
L 372.690075 132.856986 
L 373.745009 132.034213 
L 374.799944 131.129162 
L 375.854878 130.141834 
L 376.909813 129.072229 
L 377.964747 127.920347 
L 379.019681 126.686187 
L 380.074616 125.36975 
L 381.12955 123.971036 
L 382.184484 122.490044 
L 383.239419 120.926775 
L 384.294353 119.281228 
L 385.349287 117.553405 
L 386.404222 115.743304 
L 387.459156 113.850925 
L 388.514091 111.87627 
L 389.569025 109.819337 
L 390.623959 107.680126 
L 391.678894 105.458639 
L 392.733828 103.154874 
L 393.788762 100.768832 
L 394.843697 98.300512 
L 395.898631 95.749915 
L 396.953566 93.117041 
L 398.0085 90.40189 
L 399.063434 87.604461 
L 400.118369 84.724755 
L 401.173303 81.762771 
L 402.228237 78.71851 
L 403.283172 75.591972 
L 404.338106 72.383157 
L 405.393041 69.092064 
L 406.447975 65.718694 
L 407.502909 62.263047 
L 408.557844 58.725122 
L 409.612778 55.10492 
L 410.667712 51.402441 
L 411.722647 47.617684 
L 412.777581 43.75065 
L 413.832515 39.801339 
L 414.88745 35.76975 
" clip-path="url(#p5c6924fffd)" style="fill: none; stroke: #808080; stroke-linecap: square"/>
   </g>
   <g id="LineCollection_3">
    <path d="M 409.665525 136.56975 
L 409.665525 54.92175 
" clip-path="url(#p5c6924fffd)" style="fill: none; stroke-dasharray: 3.7,1.6; stroke-dashoffset: 0; stroke: #ff7f0e"/>
   </g>
   <g id="line2d_15">
    <path d="M 409.665525 54.92175 
" clip-path="url(#p5c6924fffd)" style="fill: none; stroke: #ff7f0e; stroke-linecap: square"/>
    <g clip-path="url(#p5c6924fffd)">
     <use xlink:href="#m9b72869ea2" x="409.665525" y="54.92175" style="fill: #ff7f0e; stroke: #ff7f0e"/>
    </g>
   </g>
   <g id="line2d_16">
    <path d="M 390.887693 107.132468 
" clip-path="url(#p5c6924fffd)" style="fill: none; stroke: #1f77b4; stroke-linecap: square"/>
    <g clip-path="url(#p5c6924fffd)">
     <use xlink:href="#mec27014723" x="390.887693" y="107.132468" style="fill: #1f77b4; stroke: #1f77b4"/>
    </g>
   </g>
   <g id="line2d_17">
    <path d="M 379.705389 125.839862 
" clip-path="url(#p5c6924fffd)" style="fill: none; stroke: #1f77b4; stroke-linecap: square"/>
    <g clip-path="url(#p5c6924fffd)">
     <use xlink:href="#mec27014723" x="379.705389" y="125.839862" style="fill: #1f77b4; stroke: #1f77b4"/>
    </g>
   </g>
   <g id="line2d_18">
    <path d="M 372.742822 132.817801 
" clip-path="url(#p5c6924fffd)" style="fill: none; stroke: #1f77b4; stroke-linecap: square"/>
    <g clip-path="url(#p5c6924fffd)">
     <use xlink:href="#mec27014723" x="372.742822" y="132.817801" style="fill: #1f77b4; stroke: #1f77b4"/>
    </g>
   </g>
   <g id="patch_22">
    <path d="M 305.227022 141.60975 
L 305.227022 30.72975 
" style="fill: none; stroke: #808080; stroke-width: 0.8; stroke-linejoin: miter; stroke-linecap: square"/>
   </g>
   <g id="patch_23">
    <path d="M 420.109375 141.60975 
L 420.109375 30.72975 
" style="fill: none; stroke: #808080; stroke-width: 0.8; stroke-linejoin: miter; stroke-linecap: square"/>
   </g>
   <g id="patch_24">
    <path d="M 305.227022 141.60975 
L 420.109375 141.60975 
" style="fill: none; stroke: #808080; stroke-width: 0.8; stroke-linejoin: miter; stroke-linecap: square"/>
   </g>
   <g id="patch_25">
    <path d="M 305.227022 30.72975 
L 420.109375 30.72975 
" style="fill: none; stroke: #808080; stroke-width: 0.8; stroke-linejoin: miter; stroke-linecap: square"/>
   </g>
   <g id="text_9">
    <!-- $\theta_0$ -->
    <g style="fill: #ff7f0e" transform="translate(403.125525 154.5405) scale(0.12 -0.12)">
     <use xlink:href="#DejaVuSans-Oblique-3b8" transform="translate(0 0.234375)"/>
     <use xlink:href="#DejaVuSans-30" transform="translate(61.181641 -16.171875) scale(0.7)"/>
    </g>
   </g>
   <g id="patch_26">
    <path d="M 401.721043 54.008781 
Q 290.78307 42.141295 386.589593 104.358755 
" style="fill: none; stroke: #1f77b4; stroke-linecap: round"/>
    <path d="M 383.871108 99.731679 
L 386.589593 104.358755 
L 381.256841 103.757298 
" style="fill: none; stroke: #1f77b4; stroke-linecap: round"/>
   </g>
   <g id="patch_27">
    <path d="M 383.233937 104.812381 
Q 348.971077 95.36178 376.043924 122.260533 
" style="fill: none; stroke: #1f77b4; stroke-linecap: round"/>
    <path d="M 374.330454 117.174865 
L 376.043924 122.260533 
L 370.947307 120.579908 
" style="fill: none; stroke: #1f77b4; stroke-linecap: round"/>
   </g>
   <g id="patch_28">
    <path d="M 372.675595 122.022972 
Q 364.767226 118.805119 370.143664 128.411975 
" style="fill: none; stroke: #1f77b4; stroke-linecap: round"/>
    <path d="M 369.893827 123.051231 
L 370.143664 128.411975 
L 365.705166 125.395398 
" style="fill: none; stroke: #1f77b4; stroke-linecap: round"/>
   </g>
   <g id="text_10">
    <!-- Perfect -->
    <g style="fill: #808080" transform="translate(339.859949 24.72975) scale(0.144 -0.144)">
     <defs>
      <path id="Helvetica-50" d="M 547 4591 
L 2613 4591 
Q 3225 4591 3600 4245 
Q 3975 3900 3975 3275 
Q 3975 2738 3640 2339 
Q 3306 1941 2613 1941 
L 1169 1941 
L 1169 0 
L 547 0 
L 547 4591 
z
M 3347 3272 
Q 3347 3778 2972 3959 
Q 2766 4056 2406 4056 
L 1169 4056 
L 1169 2466 
L 2406 2466 
Q 2825 2466 3086 2644 
Q 3347 2822 3347 3272 
z
" transform="scale(0.015625)"/>
      <path id="Helvetica-66" d="M 553 3856 
Q 566 4206 675 4369 
Q 872 4656 1434 4656 
Q 1488 4656 1544 4653 
Q 1600 4650 1672 4644 
L 1672 4131 
Q 1584 4138 1545 4139 
Q 1506 4141 1472 4141 
Q 1216 4141 1166 4008 
Q 1116 3875 1116 3331 
L 1672 3331 
L 1672 2888 
L 1109 2888 
L 1109 0 
L 553 0 
L 553 2888 
L 88 2888 
L 88 3331 
L 553 3331 
L 553 3856 
z
" transform="scale(0.015625)"/>
      <path id="Helvetica-63" d="M 1703 3444 
Q 2269 3444 2623 3169 
Q 2978 2894 3050 2222 
L 2503 2222 
Q 2453 2531 2275 2736 
Q 2097 2941 1703 2941 
Q 1166 2941 934 2416 
Q 784 2075 784 1575 
Q 784 1072 996 728 
Q 1209 384 1666 384 
Q 2016 384 2220 598 
Q 2425 813 2503 1184 
L 3050 1184 
Q 2956 519 2581 211 
Q 2206 -97 1622 -97 
Q 966 -97 575 383 
Q 184 863 184 1581 
Q 184 2463 612 2953 
Q 1041 3444 1703 3444 
z
M 1616 3428 
L 1616 3428 
z
" transform="scale(0.015625)"/>
      <path id="Helvetica-74" d="M 525 4281 
L 1094 4281 
L 1094 3347 
L 1628 3347 
L 1628 2888 
L 1094 2888 
L 1094 703 
Q 1094 528 1213 469 
Q 1278 434 1431 434 
Q 1472 434 1519 436 
Q 1566 438 1628 444 
L 1628 0 
Q 1531 -28 1426 -40 
Q 1322 -53 1200 -53 
Q 806 -53 665 148 
Q 525 350 525 672 
L 525 2888 
L 72 2888 
L 72 3347 
L 525 3347 
L 525 4281 
z
" transform="scale(0.015625)"/>
     </defs>
     <use xlink:href="#Helvetica-50"/>
     <use xlink:href="#Helvetica-65" x="66.699219"/>
     <use xlink:href="#Helvetica-72" x="122.314453"/>
     <use xlink:href="#Helvetica-66" x="155.615234"/>
     <use xlink:href="#Helvetica-65" x="183.398438"/>
     <use xlink:href="#Helvetica-63" x="239.013672"/>
     <use xlink:href="#Helvetica-74" x="289.013672"/>
    </g>
   </g>
  </g>
 </g>
 <defs>
  <clipPath id="p77fd076dd8">
   <rect x="29.509375" y="30.72975" width="114.882353" height="110.88"/>
  </clipPath>
  <clipPath id="pbbd1658041">
   <rect x="167.368199" y="30.72975" width="114.882353" height="110.88"/>
  </clipPath>
  <clipPath id="p5c6924fffd">
   <rect x="305.227022" y="30.72975" width="114.882353" height="110.88"/>
  </clipPath>
 </defs>
</svg>
