<?xml version="1.0" encoding="utf-8" standalone="no"?>
<!DOCTYPE svg PUBLIC "-//W3C//DTD SVG 1.1//EN"
  "http://www.w3.org/Graphics/SVG/1.1/DTD/svg11.dtd">
<svg xmlns:xlink="http://www.w3.org/1999/xlink" width="433.4pt" height="165.652625pt" viewBox="0 0 433.4 165.652625" xmlns="http://www.w3.org/2000/svg" version="1.1">
 <metadata>
  <rdf:RDF xmlns:dc="http://purl.org/dc/elements/1.1/" xmlns:cc="http://creativecommons.org/ns#" xmlns:rdf="http://www.w3.org/1999/02/22-rdf-syntax-ns#">
   <cc:Work>
    <dc:type rdf:resource="http://purl.org/dc/dcmitype/StillImage"/>
    <dc:date>2026-05-16T14:41:57.663849</dc:date>
    <dc:format>image/svg+xml</dc:format>
    <dc:creator>
     <cc:Agent>
      <dc:title>Matplotlib v3.10.8, https://matplotlib.org/</dc:title>
     </cc:Agent>
    </dc:creator>
   </cc:Work>
  </rdf:RDF>
 </metadata>
 <defs>
  <style type="text/css">*{stroke-linejoin: round; stroke-linecap: butt}</style>
 </defs>
 <g id="figure_1">
  <g id="patch_1">
   <path d="M 0 165.652625 
L 433.4 165.652625 
L 433.4 0 
L 0 0 
L 0 165.652625 
z
" style="fill: none"/>
  </g>
  <g id="axes_1">
   <g id="patch_2">
    <path d="M 28.4 138.220625 
L 143.282353 138.220625 
L 143.282353 27.340625 
L 28.4 27.340625 
z
" style="fill: #ffffff"/>
   </g>
   <g id="matplotlib.axis_1">
    <g id="text_1">
     <!-- $\theta$ -->
     <g style="fill: #808080" transform="translate(83.491176 149.16125) scale(0.1 -0.1)">
      <defs>
       <path id="Cmmi10-b5" d="M 1031 -72 
Q 741 -72 566 140 
Q 391 353 323 653 
Q 256 953 256 1247 
L 256 1253 
Q 256 1572 317 1915 
Q 378 2259 493 2601 
Q 609 2944 744 3213 
Q 838 3400 986 3631 
Q 1134 3863 1317 4064 
Q 1500 4266 1711 4389 
Q 1922 4513 2138 4513 
L 2144 4513 
Q 2375 4513 2529 4384 
Q 2684 4256 2770 4056 
Q 2856 3856 2890 3628 
Q 2925 3400 2925 3194 
Q 2925 2709 2794 2204 
Q 2663 1700 2431 1228 
Q 2344 1050 2189 809 
Q 2034 569 1861 378 
Q 1688 188 1472 58 
Q 1256 -72 1038 -72 
L 1031 -72 
z
M 1044 97 
Q 1256 97 1451 323 
Q 1647 550 1794 873 
Q 1941 1197 2052 1536 
Q 2163 1875 2216 2113 
L 909 2113 
Q 809 1709 753 1417 
Q 697 1125 697 844 
Q 697 97 1044 97 
z
M 959 2338 
L 2272 2338 
Q 2341 2619 2381 2808 
Q 2422 2997 2450 3206 
Q 2478 3416 2478 3597 
Q 2478 4347 2138 4347 
Q 1731 4347 1436 3692 
Q 1141 3038 959 2338 
z
" transform="scale(0.015625)"/>
      </defs>
      <use xlink:href="#Cmmi10-b5" transform="translate(0 0.484375)"/>
     </g>
    </g>
   </g>
   <g id="matplotlib.axis_2">
    <g id="text_2">
     <!-- $\mathcal{L}(\theta)$ -->
     <g style="fill: #808080" transform="translate(21.9 92.480625) rotate(-90) scale(0.1 -0.1)">
      <defs>
       <path id="Cmsy10-4c" d="M 238 -141 
Q 197 -141 197 -97 
Q 197 -72 219 -38 
Q 266 38 359 130 
Q 453 222 494 275 
Q 656 509 750 691 
Q 913 1028 1031 1466 
Q 1206 2163 1348 2597 
Q 1491 3031 1722 3419 
Q 1903 3719 2168 3967 
Q 2434 4216 2757 4364 
Q 3081 4513 3419 4513 
L 3456 4513 
Q 3622 4513 3734 4430 
Q 3847 4347 3905 4208 
Q 3963 4069 3963 3909 
Q 3963 3666 3884 3572 
Q 3663 3331 3359 3291 
L 3322 3291 
Q 3284 3291 3284 3334 
Q 3284 3341 3300 3431 
Q 3316 3522 3316 3584 
Q 3316 3791 3212 3944 
Q 3109 4097 2906 4097 
Q 2669 4097 2669 4056 
Q 2494 3934 2333 3651 
Q 2172 3369 2051 3039 
Q 1931 2709 1837 2376 
Q 1744 2044 1672 1753 
Q 1594 1438 1470 1148 
Q 1347 859 1178 603 
Q 1253 628 1363 628 
L 1403 628 
Q 1625 628 1847 583 
Q 2069 538 2378 450 
Q 2688 363 2894 320 
Q 3100 278 3328 275 
Q 3397 275 3440 337 
Q 3484 400 3526 511 
Q 3569 622 3597 659 
Q 3694 766 3834 844 
Q 3975 922 4116 941 
L 4153 941 
Q 4172 941 4184 928 
Q 4197 916 4197 897 
Q 4197 897 4191 878 
Q 4128 628 3897 386 
Q 3666 144 3370 1 
Q 3075 -141 2828 -141 
L 2791 -141 
Q 2569 -141 2356 -100 
Q 2144 -59 1834 28 
Q 1525 116 1304 162 
Q 1084 209 863 213 
Q 578 -100 275 -141 
L 238 -141 
z
" transform="scale(0.015625)"/>
       <path id="Cmr10-28" d="M 1984 -1588 
Q 1628 -1306 1370 -942 
Q 1113 -578 948 -165 
Q 784 247 703 697 
Q 622 1147 622 1600 
Q 622 2059 703 2509 
Q 784 2959 951 3375 
Q 1119 3791 1378 4153 
Q 1638 4516 1984 4788 
Q 1984 4800 2016 4800 
L 2075 4800 
Q 2094 4800 2109 4783 
Q 2125 4766 2125 4744 
Q 2125 4716 2113 4703 
Q 1800 4397 1592 4047 
Q 1384 3697 1257 3301 
Q 1131 2906 1075 2482 
Q 1019 2059 1019 1600 
Q 1019 -434 2106 -1491 
Q 2125 -1509 2125 -1544 
Q 2125 -1559 2108 -1579 
Q 2091 -1600 2075 -1600 
L 2016 -1600 
Q 1984 -1600 1984 -1588 
z
" transform="scale(0.015625)"/>
       <path id="Cmr10-29" d="M 416 -1600 
Q 359 -1600 359 -1544 
Q 359 -1516 372 -1503 
Q 1466 -434 1466 1600 
Q 1466 3634 384 4691 
Q 359 4706 359 4744 
Q 359 4766 376 4783 
Q 394 4800 416 4800 
L 475 4800 
Q 494 4800 506 4788 
Q 966 4425 1272 3906 
Q 1578 3388 1720 2800 
Q 1863 2213 1863 1600 
Q 1863 1147 1786 708 
Q 1709 269 1542 -157 
Q 1375 -584 1119 -945 
Q 863 -1306 506 -1588 
Q 494 -1600 475 -1600 
L 416 -1600 
z
" transform="scale(0.015625)"/>
      </defs>
      <use xlink:href="#Cmsy10-4c"/>
      <use xlink:href="#Cmr10-28" transform="translate(68.896484 0)"/>
      <use xlink:href="#Cmmi10-b5" transform="translate(107.714844 0)"/>
      <use xlink:href="#Cmr10-29" transform="translate(154.638672 0)"/>
     </g>
    </g>
   </g>
   <g id="line2d_1">
    <path d="M 33.621925 32.380625 
L 34.67686 36.412214 
L 35.731794 40.361525 
L 36.786728 44.228559 
L 37.841663 48.013316 
L 38.896597 51.715795 
L 39.951531 55.335997 
L 41.006466 58.873922 
L 42.0614 62.329569 
L 43.116334 65.702939 
L 44.171269 68.994032 
L 45.226203 72.202847 
L 46.281138 75.329385 
L 47.336072 78.373646 
L 48.391006 81.33563 
L 49.445941 84.215336 
L 50.500875 87.012765 
L 51.555809 89.727916 
L 52.610744 92.36079 
L 53.665678 94.911387 
L 54.720613 97.379707 
L 55.775547 99.765749 
L 56.830481 102.069514 
L 57.885416 104.291001 
L 58.94035 106.430212 
L 59.995284 108.487145 
L 61.050219 110.4618 
L 62.105153 112.354179 
L 63.160088 114.16428 
L 64.215022 115.892103 
L 65.269956 117.53765 
L 66.324891 119.100919 
L 67.379825 120.581911 
L 68.434759 121.980625 
L 69.489694 123.297062 
L 70.544628 124.531222 
L 71.599562 125.683104 
L 72.654497 126.752709 
L 73.709431 127.740037 
L 74.764366 128.645088 
L 75.8193 129.467861 
L 76.874234 130.208357 
L 77.929169 130.866575 
L 78.984103 131.442517 
L 80.039037 131.936181 
L 81.093972 132.347567 
L 82.148906 132.676676 
L 83.203841 132.923508 
L 84.258775 133.088063 
L 85.313709 133.17034 
L 86.368644 133.17034 
L 87.423578 133.088063 
L 88.478512 132.923508 
L 89.533447 132.676676 
L 90.588381 132.347567 
L 91.643316 131.936181 
L 92.69825 131.442517 
L 93.753184 130.866575 
L 94.808119 130.208357 
L 95.863053 129.467861 
L 96.917987 128.645088 
L 97.972922 127.740037 
L 99.027856 126.752709 
L 100.08279 125.683104 
L 101.137725 124.531222 
L 102.192659 123.297062 
L 103.247594 121.980625 
L 104.302528 120.581911 
L 105.357462 119.100919 
L 106.412397 117.53765 
L 107.467331 115.892103 
L 108.522265 114.16428 
L 109.5772 112.354179 
L 110.632134 110.4618 
L 111.687069 108.487145 
L 112.742003 106.430212 
L 113.796937 104.291001 
L 114.851872 102.069514 
L 115.906806 99.765749 
L 116.96174 97.379707 
L 118.016675 94.911387 
L 119.071609 92.36079 
L 120.126544 89.727916 
L 121.181478 87.012765 
L 122.236412 84.215336 
L 123.291347 81.33563 
L 124.346281 78.373646 
L 125.401215 75.329385 
L 126.45615 72.202847 
L 127.511084 68.994032 
L 128.566018 65.702939 
L 129.620953 62.329569 
L 130.675887 58.873922 
L 131.730822 55.335997 
L 132.785756 51.715795 
L 133.84069 48.013316 
L 134.895625 44.228559 
L 135.950559 40.361525 
L 137.005493 36.412214 
L 138.060428 32.380625 
" clip-path="url(#p04ffd04864)" style="fill: none; stroke: #808080; stroke-linecap: square"/>
   </g>
   <g id="LineCollection_1">
    <path d="M 132.838503 133.180625 
L 132.838503 51.532625 
" clip-path="url(#p04ffd04864)" style="fill: none; stroke-dasharray: 3.7,1.6; stroke-dashoffset: 0; stroke: #ff7f0e"/>
   </g>
   <g id="line2d_2">
    <path d="M 132.838503 51.532625 
" clip-path="url(#p04ffd04864)" style="fill: none; stroke: #ff7f0e; stroke-linecap: square"/>
    <defs>
     <path id="medc43f4f40" d="M 0 2.5 
C 0.663008 2.5 1.29895 2.236584 1.767767 1.767767 
C 2.236584 1.29895 2.5 0.663008 2.5 0 
C 2.5 -0.663008 2.236584 -1.29895 1.767767 -1.767767 
C 1.29895 -2.236584 0.663008 -2.5 0 -2.5 
C -0.663008 -2.5 -1.29895 -2.236584 -1.767767 -1.767767 
C -2.236584 -1.29895 -2.5 -0.663008 -2.5 0 
C -2.5 0.663008 -2.236584 1.29895 -1.767767 1.767767 
C -1.29895 2.236584 -0.663008 2.5 0 2.5 
z
" style="stroke: #ff7f0e"/>
    </defs>
    <g clip-path="url(#p04ffd04864)">
     <use xlink:href="#medc43f4f40" x="132.838503" y="51.532625" style="fill: #ff7f0e; stroke: #ff7f0e"/>
    </g>
   </g>
   <g id="line2d_3">
    <path d="M 53.560185 94.66003 
" clip-path="url(#p04ffd04864)" style="fill: none; stroke: #1f77b4; stroke-linecap: square"/>
    <defs>
     <path id="m4038c05695" d="M 0 2.5 
C 0.663008 2.5 1.29895 2.236584 1.767767 1.767767 
C 2.236584 1.29895 2.5 0.663008 2.5 0 
C 2.5 -0.663008 2.236584 -1.29895 1.767767 -1.767767 
C 1.29895 -2.236584 0.663008 -2.5 0 -2.5 
C -0.663008 -2.5 -1.29895 -2.236584 -1.767767 -1.767767 
C -2.236584 -1.29895 -2.5 -0.663008 -2.5 0 
C -2.5 0.663008 -2.236584 1.29895 -1.767767 1.767767 
C -1.29895 2.236584 -0.663008 2.5 0 2.5 
z
" style="stroke: #1f77b4"/>
    </defs>
    <g clip-path="url(#p04ffd04864)">
     <use xlink:href="#m4038c05695" x="53.560185" y="94.66003" style="fill: #1f77b4; stroke: #1f77b4"/>
    </g>
   </g>
   <g id="line2d_4">
    <path d="M 116.698007 97.983931 
" clip-path="url(#p04ffd04864)" style="fill: none; stroke: #1f77b4; stroke-linecap: square"/>
    <g clip-path="url(#p04ffd04864)">
     <use xlink:href="#m4038c05695" x="116.698007" y="97.983931" style="fill: #1f77b4; stroke: #1f77b4"/>
    </g>
   </g>
   <g id="line2d_5">
    <path d="M 65.902917 118.485485 
" clip-path="url(#p04ffd04864)" style="fill: none; stroke: #1f77b4; stroke-linecap: square"/>
    <g clip-path="url(#p04ffd04864)">
     <use xlink:href="#m4038c05695" x="65.902917" y="118.485485" style="fill: #1f77b4; stroke: #1f77b4"/>
    </g>
   </g>
   <g id="line2d_6">
    <path d="M 106.254157 117.777385 
" clip-path="url(#p04ffd04864)" style="fill: none; stroke: #1f77b4; stroke-linecap: square"/>
    <g clip-path="url(#p04ffd04864)">
     <use xlink:href="#m4038c05695" x="106.254157" y="117.777385" style="fill: #1f77b4; stroke: #1f77b4"/>
    </g>
   </g>
   <g id="line2d_7">
    <path d="M 74.447885 128.382212 
" clip-path="url(#p04ffd04864)" style="fill: none; stroke: #1f77b4; stroke-linecap: square"/>
    <g clip-path="url(#p04ffd04864)">
     <use xlink:href="#m4038c05695" x="74.447885" y="128.382212" style="fill: #1f77b4; stroke: #1f77b4"/>
    </g>
   </g>
   <g id="patch_3">
    <path d="M 28.4 138.220625 
L 28.4 27.340625 
" style="fill: none; stroke: #808080; stroke-width: 0.8; stroke-linejoin: miter; stroke-linecap: square"/>
   </g>
   <g id="patch_4">
    <path d="M 143.282353 138.220625 
L 143.282353 27.340625 
" style="fill: none; stroke: #808080; stroke-width: 0.8; stroke-linejoin: miter; stroke-linecap: square"/>
   </g>
   <g id="patch_5">
    <path d="M 28.4 138.220625 
L 143.282353 138.220625 
" style="fill: none; stroke: #808080; stroke-width: 0.8; stroke-linejoin: miter; stroke-linecap: square"/>
   </g>
   <g id="patch_6">
    <path d="M 28.4 27.340625 
L 143.282353 27.340625 
" style="fill: none; stroke: #808080; stroke-width: 0.8; stroke-linejoin: miter; stroke-linecap: square"/>
   </g>
   <g id="text_3">
    <!-- $\theta_0$ -->
    <g style="fill: #ff7f0e" transform="translate(128.388503 149.312) scale(0.1 -0.1)">
     <defs>
      <path id="Cmr10-30" d="M 1600 -141 
Q 816 -141 533 504 
Q 250 1150 250 2041 
Q 250 2597 351 3087 
Q 453 3578 754 3920 
Q 1056 4263 1600 4263 
Q 2022 4263 2290 4056 
Q 2559 3850 2700 3523 
Q 2841 3197 2892 2823 
Q 2944 2450 2944 2041 
Q 2944 1491 2842 1011 
Q 2741 531 2444 195 
Q 2147 -141 1600 -141 
z
M 1600 25 
Q 1956 25 2131 390 
Q 2306 756 2347 1200 
Q 2388 1644 2388 2144 
Q 2388 2625 2347 3031 
Q 2306 3438 2132 3767 
Q 1959 4097 1600 4097 
Q 1238 4097 1063 3765 
Q 888 3434 847 3029 
Q 806 2625 806 2144 
Q 806 1788 823 1472 
Q 841 1156 916 820 
Q 991 484 1158 254 
Q 1325 25 1600 25 
z
" transform="scale(0.015625)"/>
     </defs>
     <use xlink:href="#Cmmi10-b5" transform="translate(0 0.484375)"/>
     <use xlink:href="#Cmr10-30" transform="translate(46.923828 -16.521875) scale(0.7)"/>
    </g>
   </g>
   <g id="patch_7">
    <path d="M 127.894885 50.761878 
Q 77.400067 44.054842 56.076764 89.081828 
" style="fill: none; stroke: #1f77b4; stroke-linecap: round"/>
    <path d="M 59.596321 86.322713 
L 56.076764 89.081828 
L 55.981206 84.610713 
" style="fill: none; stroke: #1f77b4; stroke-linecap: round"/>
   </g>
   <g id="patch_8">
    <path d="M 57.714048 91.87579 
Q 86.301135 74.061391 111.978153 94.09145 
" style="fill: none; stroke: #1f77b4; stroke-linecap: round"/>
    <path d="M 110.054402 90.054226 
L 111.978153 94.09145 
L 107.594123 93.208117 
" style="fill: none; stroke: #1f77b4; stroke-linecap: round"/>
   </g>
   <g id="patch_9">
    <path d="M 111.860429 96.726358 
Q 84.215805 90.677475 69.134672 113.289002 
" style="fill: none; stroke: #1f77b4; stroke-linecap: round"/>
    <path d="M 73.018034 111.071008 
L 69.134672 113.289002 
L 69.690294 108.851516 
" style="fill: none; stroke: #1f77b4; stroke-linecap: round"/>
   </g>
   <g id="patch_10">
    <path d="M 69.908 115.495467 
Q 85.846592 104.909725 101.194319 114.344323 
" style="fill: none; stroke: #1f77b4; stroke-linecap: round"/>
    <path d="M 98.834057 110.54575 
L 101.194319 114.344323 
L 96.739303 113.953389 
" style="fill: none; stroke: #1f77b4; stroke-linecap: round"/>
   </g>
   <g id="patch_11">
    <path d="M 101.467012 116.346053 
Q 87.020084 113.082443 78.146221 123.508971 
" style="fill: none; stroke: #1f77b4; stroke-linecap: round"/>
    <path d="M 82.261796 121.759101 
L 78.146221 123.508971 
L 79.21567 119.166589 
" style="fill: none; stroke: #1f77b4; stroke-linecap: round"/>
   </g>
   <g id="text_4">
    <!-- Too large -->
    <g style="fill: #808080" transform="translate(64.995864 21.340625) scale(0.1 -0.1)">
     <defs>
      <path id="LMRoman10-Regular-54" d="M 4384 2893 
L 4262 4333 
L 352 4333 
L 230 2893 
L 390 2893 
C 480 3923 576 4134 1542 4134 
C 1658 4134 1824 4134 1888 4122 
C 2022 4096 2022 4026 2022 3878 
L 2022 506 
C 2022 288 2022 198 1350 198 
L 1094 198 
L 1094 0 
C 1357 19 2010 19 2304 19 
C 2598 19 3258 19 3520 0 
L 3520 198 
L 3264 198 
C 2592 198 2592 288 2592 506 
L 2592 3878 
C 2592 4006 2592 4096 2707 4122 
C 2778 4134 2950 4134 3072 4134 
C 4038 4134 4134 3923 4224 2893 
L 4384 2893 
z
" transform="scale(0.015625)"/>
      <path id="LMRoman10-Regular-6f" d="M 3014 1370 
C 3014 2189 2374 2867 1600 2867 
C 800 2867 179 2170 179 1370 
C 179 544 845 -70 1594 -70 
C 2368 -70 3014 557 3014 1370 
z
M 2483 1421 
C 2483 1190 2483 845 2342 563 
C 2202 275 1920 90 1600 90 
C 1325 90 1043 224 870 518 
C 710 800 710 1190 710 1421 
C 710 1670 710 2016 864 2298 
C 1037 2592 1338 2726 1594 2726 
C 1875 2726 2150 2586 2317 2310 
C 2483 2035 2483 1664 2483 1421 
z
" transform="scale(0.015625)"/>
      <path id="LMRoman10-Regular-20" transform="scale(0.015625)"/>
      <path id="LMRoman10-Regular-6c" d="M 1632 0 
L 1632 198 
C 1203 198 1133 198 1133 486 
L 1133 4442 
L 211 4371 
L 211 4173 
C 659 4173 710 4128 710 3814 
L 710 486 
C 710 198 640 198 211 198 
L 211 0 
L 922 19 
L 1632 0 
z
" transform="scale(0.015625)"/>
      <path id="LMRoman10-Regular-61" d="M 3091 570 
L 3091 928 
L 2931 928 
L 2931 570 
C 2931 198 2771 160 2701 160 
C 2490 160 2464 448 2464 480 
L 2464 1760 
C 2464 2029 2464 2278 2234 2515 
C 1984 2765 1664 2867 1357 2867 
C 832 2867 390 2566 390 2144 
C 390 1952 518 1843 685 1843 
C 864 1843 979 1971 979 2138 
C 979 2214 947 2426 653 2432 
C 826 2656 1139 2726 1344 2726 
C 1658 2726 2022 2477 2022 1907 
L 2022 1670 
C 1696 1651 1248 1632 845 1440 
C 365 1222 205 890 205 608 
C 205 90 826 -70 1229 -70 
C 1651 -70 1946 186 2067 486 
C 2093 230 2266 -38 2566 -38 
C 2701 -38 3091 51 3091 570 
z
M 2022 896 
C 2022 288 1562 70 1274 70 
C 960 70 698 294 698 614 
C 698 966 966 1498 2022 1536 
L 2022 896 
z
" transform="scale(0.015625)"/>
      <path id="LMRoman10-Regular-72" d="M 2330 2438 
C 2330 2643 2131 2829 1856 2829 
C 1389 2829 1158 2400 1069 2125 
L 1069 2829 
L 179 2758 
L 179 2560 
C 627 2560 678 2515 678 2202 
L 678 486 
C 678 198 608 198 179 198 
L 179 0 
L 909 19 
C 1165 19 1466 19 1722 0 
L 1722 198 
L 1587 198 
C 1114 198 1101 269 1101 499 
L 1101 1485 
C 1101 2118 1370 2688 1856 2688 
C 1901 2688 1914 2688 1926 2682 
C 1907 2675 1779 2598 1779 2432 
C 1779 2253 1914 2157 2054 2157 
C 2170 2157 2330 2234 2330 2438 
z
" transform="scale(0.015625)"/>
      <path id="LMRoman10-Regular-67" d="M 3104 2586 
C 3104 2694 3027 2899 2778 2899 
C 2650 2899 2368 2861 2099 2598 
C 1830 2810 1562 2829 1421 2829 
C 826 2829 384 2387 384 1894 
C 384 1613 525 1370 685 1235 
C 602 1139 486 928 486 704 
C 486 506 570 262 768 134 
C 384 26 179 -250 179 -506 
C 179 -966 813 -1318 1594 -1318 
C 2349 -1318 3014 -992 3014 -493 
C 3014 -269 2925 58 2598 237 
C 2259 416 1888 416 1498 416 
C 1338 416 1062 416 1018 422 
C 813 448 678 646 678 851 
C 678 877 678 1024 787 1152 
C 1037 973 1299 954 1421 954 
C 2016 954 2458 1395 2458 1888 
C 2458 2125 2355 2362 2195 2509 
C 2426 2726 2656 2758 2771 2758 
C 2771 2758 2816 2758 2835 2752 
C 2765 2726 2733 2656 2733 2579 
C 2733 2470 2816 2394 2918 2394 
C 2982 2394 3104 2438 3104 2586 
z
M 1978 1894 
C 1978 1722 1971 1517 1875 1357 
C 1824 1280 1677 1101 1421 1101 
C 864 1101 864 1741 864 1888 
C 864 2061 870 2266 966 2426 
C 1018 2502 1165 2682 1421 2682 
C 1978 2682 1978 2042 1978 1894 
z
M 2682 -506 
C 2682 -851 2227 -1171 1600 -1171 
C 954 -1171 512 -845 512 -506 
C 512 -211 755 26 1037 45 
L 1414 45 
C 1965 45 2682 45 2682 -506 
z
" transform="scale(0.015625)"/>
      <path id="LMRoman10-Regular-65" d="M 2656 762 
C 2656 826 2605 838 2573 838 
C 2515 838 2502 800 2490 749 
C 2266 90 1690 90 1626 90 
C 1306 90 1050 282 902 518 
C 710 826 710 1248 710 1478 
L 2496 1478 
C 2637 1478 2656 1478 2656 1613 
C 2656 2246 2310 2867 1510 2867 
C 768 2867 179 2208 179 1408 
C 179 550 851 -70 1587 -70 
C 2368 -70 2656 640 2656 762 
z
M 2234 1613 
L 717 1613 
C 755 2566 1293 2726 1510 2726 
C 2170 2726 2234 1862 2234 1613 
z
" transform="scale(0.015625)"/>
     </defs>
     <use xlink:href="#LMRoman10-Regular-54"/>
     <use xlink:href="#LMRoman10-Regular-6f" transform="translate(72.199982 0)"/>
     <use xlink:href="#LMRoman10-Regular-6f" transform="translate(122.199966 0)"/>
     <use xlink:href="#LMRoman10-Regular-20" transform="translate(172.199951 0)"/>
     <use xlink:href="#LMRoman10-Regular-6c" transform="translate(205.499939 0)"/>
     <use xlink:href="#LMRoman10-Regular-61" transform="translate(233.299927 0)"/>
     <use xlink:href="#LMRoman10-Regular-72" transform="translate(283.299911 0)"/>
     <use xlink:href="#LMRoman10-Regular-67" transform="translate(322.499908 0)"/>
     <use xlink:href="#LMRoman10-Regular-65" transform="translate(372.499893 0)"/>
    </g>
   </g>
  </g>
  <g id="axes_2">
   <g id="patch_12">
    <path d="M 166.258824 138.220625 
L 281.141176 138.220625 
L 281.141176 27.340625 
L 166.258824 27.340625 
z
" style="fill: #ffffff"/>
   </g>
   <g id="matplotlib.axis_3">
    <g id="text_5">
     <!-- $\theta$ -->
     <g style="fill: #808080" transform="translate(221.35 149.16125) scale(0.1 -0.1)">
      <use xlink:href="#Cmmi10-b5" transform="translate(0 0.484375)"/>
     </g>
    </g>
   </g>
   <g id="matplotlib.axis_4"/>
   <g id="line2d_8">
    <path d="M 171.480749 32.380625 
L 172.535683 36.412214 
L 173.590617 40.361525 
L 174.645552 44.228559 
L 175.700486 48.013316 
L 176.755421 51.715795 
L 177.810355 55.335997 
L 178.865289 58.873922 
L 179.920224 62.329569 
L 180.975158 65.702939 
L 182.030092 68.994032 
L 183.085027 72.202847 
L 184.139961 75.329385 
L 185.194895 78.373646 
L 186.24983 81.33563 
L 187.304764 84.215336 
L 188.359699 87.012765 
L 189.414633 89.727916 
L 190.469567 92.36079 
L 191.524502 94.911387 
L 192.579436 97.379707 
L 193.63437 99.765749 
L 194.689305 102.069514 
L 195.744239 104.291001 
L 196.799174 106.430212 
L 197.854108 108.487145 
L 198.909042 110.4618 
L 199.963977 112.354179 
L 201.018911 114.16428 
L 202.073845 115.892103 
L 203.12878 117.53765 
L 204.183714 119.100919 
L 205.238649 120.581911 
L 206.293583 121.980625 
L 207.348517 123.297062 
L 208.403452 124.531222 
L 209.458386 125.683104 
L 210.51332 126.752709 
L 211.568255 127.740037 
L 212.623189 128.645088 
L 213.678123 129.467861 
L 214.733058 130.208357 
L 215.787992 130.866575 
L 216.842927 131.442517 
L 217.897861 131.936181 
L 218.952795 132.347567 
L 220.00773 132.676676 
L 221.062664 132.923508 
L 222.117598 133.088063 
L 223.172533 133.17034 
L 224.227467 133.17034 
L 225.282402 133.088063 
L 226.337336 132.923508 
L 227.39227 132.676676 
L 228.447205 132.347567 
L 229.502139 131.936181 
L 230.557073 131.442517 
L 231.612008 130.866575 
L 232.666942 130.208357 
L 233.721877 129.467861 
L 234.776811 128.645088 
L 235.831745 127.740037 
L 236.88668 126.752709 
L 237.941614 125.683104 
L 238.996548 124.531222 
L 240.051483 123.297062 
L 241.106417 121.980625 
L 242.161351 120.581911 
L 243.216286 119.100919 
L 244.27122 117.53765 
L 245.326155 115.892103 
L 246.381089 114.16428 
L 247.436023 112.354179 
L 248.490958 110.4618 
L 249.545892 108.487145 
L 250.600826 106.430212 
L 251.655761 104.291001 
L 252.710695 102.069514 
L 253.76563 99.765749 
L 254.820564 97.379707 
L 255.875498 94.911387 
L 256.930433 92.36079 
L 257.985367 89.727916 
L 259.040301 87.012765 
L 260.095236 84.215336 
L 261.15017 81.33563 
L 262.205105 78.373646 
L 263.260039 75.329385 
L 264.314973 72.202847 
L 265.369908 68.994032 
L 266.424842 65.702939 
L 267.479776 62.329569 
L 268.534711 58.873922 
L 269.589645 55.335997 
L 270.644579 51.715795 
L 271.699514 48.013316 
L 272.754448 44.228559 
L 273.809383 40.361525 
L 274.864317 36.412214 
L 275.919251 32.380625 
" clip-path="url(#pd22a4173cf)" style="fill: none; stroke: #808080; stroke-linecap: square"/>
   </g>
   <g id="LineCollection_2">
    <path d="M 270.697326 133.180625 
L 270.697326 51.532625 
" clip-path="url(#pd22a4173cf)" style="fill: none; stroke-dasharray: 3.7,1.6; stroke-dashoffset: 0; stroke: #ff7f0e"/>
   </g>
   <g id="line2d_9">
    <path d="M 270.697326 51.532625 
" clip-path="url(#pd22a4173cf)" style="fill: none; stroke: #ff7f0e; stroke-linecap: square"/>
    <g clip-path="url(#pd22a4173cf)">
     <use xlink:href="#medc43f4f40" x="270.697326" y="51.532625" style="fill: #ff7f0e; stroke: #ff7f0e"/>
    </g>
   </g>
   <g id="line2d_10">
    <path d="M 264.125085 72.771696 
" clip-path="url(#pd22a4173cf)" style="fill: none; stroke: #1f77b4; stroke-linecap: square"/>
    <g clip-path="url(#pd22a4173cf)">
     <use xlink:href="#m4038c05695" x="264.125085" y="72.771696" style="fill: #1f77b4; stroke: #1f77b4"/>
    </g>
   </g>
   <g id="line2d_11">
    <path d="M 258.438989 88.570484 
" clip-path="url(#pd22a4173cf)" style="fill: none; stroke: #1f77b4; stroke-linecap: square"/>
    <g clip-path="url(#pd22a4173cf)">
     <use xlink:href="#m4038c05695" x="258.438989" y="88.570484" style="fill: #1f77b4; stroke: #1f77b4"/>
    </g>
   </g>
   <g id="line2d_12">
    <path d="M 253.639037 100.046545 
" clip-path="url(#pd22a4173cf)" style="fill: none; stroke: #1f77b4; stroke-linecap: square"/>
    <g clip-path="url(#pd22a4173cf)">
     <use xlink:href="#m4038c05695" x="253.639037" y="100.046545" style="fill: #1f77b4; stroke: #1f77b4"/>
    </g>
   </g>
   <g id="line2d_13">
    <path d="M 249.429849 108.708384 
" clip-path="url(#pd22a4173cf)" style="fill: none; stroke: #1f77b4; stroke-linecap: square"/>
    <g clip-path="url(#pd22a4173cf)">
     <use xlink:href="#m4038c05695" x="249.429849" y="108.708384" style="fill: #1f77b4; stroke: #1f77b4"/>
    </g>
   </g>
   <g id="patch_13">
    <path d="M 166.258824 138.220625 
L 166.258824 27.340625 
" style="fill: none; stroke: #808080; stroke-width: 0.8; stroke-linejoin: miter; stroke-linecap: square"/>
   </g>
   <g id="patch_14">
    <path d="M 281.141176 138.220625 
L 281.141176 27.340625 
" style="fill: none; stroke: #808080; stroke-width: 0.8; stroke-linejoin: miter; stroke-linecap: square"/>
   </g>
   <g id="patch_15">
    <path d="M 166.258824 138.220625 
L 281.141176 138.220625 
" style="fill: none; stroke: #808080; stroke-width: 0.8; stroke-linejoin: miter; stroke-linecap: square"/>
   </g>
   <g id="patch_16">
    <path d="M 166.258824 27.340625 
L 281.141176 27.340625 
" style="fill: none; stroke: #808080; stroke-width: 0.8; stroke-linejoin: miter; stroke-linecap: square"/>
   </g>
   <g id="text_6">
    <!-- $\theta_0$ -->
    <g style="fill: #ff7f0e" transform="translate(266.247326 149.312) scale(0.1 -0.1)">
     <use xlink:href="#Cmmi10-b5" transform="translate(0 0.484375)"/>
     <use xlink:href="#Cmr10-30" transform="translate(46.923828 -16.521875) scale(0.7)"/>
    </g>
   </g>
   <g id="patch_17">
    <path d="M 264.744216 50.772167 
Q 209.842439 44.242612 256.908589 69.050852 
" style="fill: none; stroke: #1f77b4; stroke-linecap: round"/>
    <path d="M 254.30262 65.416444 
L 256.908589 69.050852 
L 252.437481 68.954982 
" style="fill: none; stroke: #1f77b4; stroke-linecap: round"/>
   </g>
   <g id="patch_18">
    <path d="M 258.212738 71.759673 
Q 219.943638 65.69219 251.416391 84.497261 
" style="fill: none; stroke: #1f77b4; stroke-linecap: round"/>
    <path d="M 249.008481 80.728711 
L 251.416391 84.497261 
L 246.956805 84.16246 
" style="fill: none; stroke: #1f77b4; stroke-linecap: round"/>
   </g>
   <g id="patch_19">
    <path d="M 252.576196 87.286132 
Q 227.55595 82.286463 246.863523 95.578442 
" style="fill: none; stroke: #1f77b4; stroke-linecap: round"/>
    <path d="M 244.702893 91.662873 
L 246.863523 95.578442 
L 242.43469 94.957605 
" style="fill: none; stroke: #1f77b4; stroke-linecap: round"/>
   </g>
   <g id="patch_20">
    <path d="M 247.852568 98.469132 
Q 231.349858 94.447765 242.96105 103.809448 
" style="fill: none; stroke: #1f77b4; stroke-linecap: round"/>
    <path d="M 241.102439 99.741823 
L 242.96105 103.809448 
L 238.591784 102.855761 
" style="fill: none; stroke: #1f77b4; stroke-linecap: round"/>
   </g>
   <g id="text_7">
    <!-- Too small -->
    <g style="fill: #808080" transform="translate(202.010156 21.340625) scale(0.1 -0.1)">
     <defs>
      <path id="LMRoman10-Regular-73" d="M 2304 819 
C 2304 1158 2112 1350 2035 1427 
C 1824 1632 1574 1683 1306 1734 
C 947 1805 518 1888 518 2259 
C 518 2483 685 2746 1235 2746 
C 1939 2746 1971 2170 1984 1971 
C 1990 1914 2061 1914 2061 1914 
C 2144 1914 2144 1946 2144 2067 
L 2144 2714 
C 2144 2822 2144 2867 2074 2867 
C 2042 2867 2029 2867 1946 2790 
C 1926 2765 1862 2707 1837 2688 
C 1594 2867 1331 2867 1235 2867 
C 454 2867 211 2438 211 2080 
C 211 1856 314 1677 486 1536 
C 691 1370 870 1331 1331 1242 
C 1472 1216 1997 1114 1997 653 
C 1997 326 1773 70 1274 70 
C 736 70 506 435 384 979 
C 365 1062 358 1088 294 1088 
C 211 1088 211 1043 211 928 
L 211 83 
C 211 -26 211 -70 282 -70 
C 314 -70 320 -64 442 58 
C 454 70 454 83 570 205 
C 851 -64 1139 -70 1274 -70 
C 2010 -70 2304 358 2304 819 
z
" transform="scale(0.015625)"/>
      <path id="LMRoman10-Regular-6d" d="M 5203 0 
L 5203 198 
C 4870 198 4710 198 4704 390 
L 4704 1613 
C 4704 2163 4704 2362 4506 2592 
C 4416 2701 4205 2829 3834 2829 
C 3296 2829 3014 2445 2906 2202 
C 2816 2758 2342 2829 2054 2829 
C 1587 2829 1286 2554 1107 2157 
L 1107 2829 
L 205 2758 
L 205 2560 
C 653 2560 704 2515 704 2202 
L 704 486 
C 704 198 634 198 205 198 
L 205 0 
L 928 19 
L 1645 0 
L 1645 198 
C 1216 198 1146 198 1146 486 
L 1146 1664 
C 1146 2330 1600 2688 2010 2688 
C 2413 2688 2483 2342 2483 1978 
L 2483 486 
C 2483 198 2413 198 1984 198 
L 1984 0 
L 2707 19 
L 3424 0 
L 3424 198 
C 2995 198 2925 198 2925 486 
L 2925 1664 
C 2925 2330 3379 2688 3789 2688 
C 4192 2688 4262 2342 4262 1978 
L 4262 486 
C 4262 198 4192 198 3763 198 
L 3763 0 
L 4486 19 
L 5203 0 
z
" transform="scale(0.015625)"/>
     </defs>
     <use xlink:href="#LMRoman10-Regular-54"/>
     <use xlink:href="#LMRoman10-Regular-6f" transform="translate(72.199982 0)"/>
     <use xlink:href="#LMRoman10-Regular-6f" transform="translate(122.199966 0)"/>
     <use xlink:href="#LMRoman10-Regular-20" transform="translate(172.199951 0)"/>
     <use xlink:href="#LMRoman10-Regular-73" transform="translate(205.499939 0)"/>
     <use xlink:href="#LMRoman10-Regular-6d" transform="translate(244.899933 0)"/>
     <use xlink:href="#LMRoman10-Regular-61" transform="translate(328.199921 0)"/>
     <use xlink:href="#LMRoman10-Regular-6c" transform="translate(378.199905 0)"/>
     <use xlink:href="#LMRoman10-Regular-6c" transform="translate(405.999893 0)"/>
    </g>
   </g>
  </g>
  <g id="axes_3">
   <g id="patch_21">
    <path d="M 304.117647 138.220625 
L 419 138.220625 
L 419 27.340625 
L 304.117647 27.340625 
z
" style="fill: #ffffff"/>
   </g>
   <g id="matplotlib.axis_5">
    <g id="text_8">
     <!-- $\theta$ -->
     <g style="fill: #808080" transform="translate(359.208824 149.16125) scale(0.1 -0.1)">
      <use xlink:href="#Cmmi10-b5" transform="translate(0 0.484375)"/>
     </g>
    </g>
   </g>
   <g id="matplotlib.axis_6"/>
   <g id="line2d_14">
    <path d="M 309.339572 32.380625 
L 310.394507 36.412214 
L 311.449441 40.361525 
L 312.504375 44.228559 
L 313.55931 48.013316 
L 314.614244 51.715795 
L 315.669178 55.335997 
L 316.724113 58.873922 
L 317.779047 62.329569 
L 318.833982 65.702939 
L 319.888916 68.994032 
L 320.94385 72.202847 
L 321.998785 75.329385 
L 323.053719 78.373646 
L 324.108653 81.33563 
L 325.163588 84.215336 
L 326.218522 87.012765 
L 327.273456 89.727916 
L 328.328391 92.36079 
L 329.383325 94.911387 
L 330.43826 97.379707 
L 331.493194 99.765749 
L 332.548128 102.069514 
L 333.603063 104.291001 
L 334.657997 106.430212 
L 335.712931 108.487145 
L 336.767866 110.4618 
L 337.8228 112.354179 
L 338.877735 114.16428 
L 339.932669 115.892103 
L 340.987603 117.53765 
L 342.042538 119.100919 
L 343.097472 120.581911 
L 344.152406 121.980625 
L 345.207341 123.297062 
L 346.262275 124.531222 
L 347.31721 125.683104 
L 348.372144 126.752709 
L 349.427078 127.740037 
L 350.482013 128.645088 
L 351.536947 129.467861 
L 352.591881 130.208357 
L 353.646816 130.866575 
L 354.70175 131.442517 
L 355.756684 131.936181 
L 356.811619 132.347567 
L 357.866553 132.676676 
L 358.921488 132.923508 
L 359.976422 133.088063 
L 361.031356 133.17034 
L 362.086291 133.17034 
L 363.141225 133.088063 
L 364.196159 132.923508 
L 365.251094 132.676676 
L 366.306028 132.347567 
L 367.360963 131.936181 
L 368.415897 131.442517 
L 369.470831 130.866575 
L 370.525766 130.208357 
L 371.5807 129.467861 
L 372.635634 128.645088 
L 373.690569 127.740037 
L 374.745503 126.752709 
L 375.800438 125.683104 
L 376.855372 124.531222 
L 377.910306 123.297062 
L 378.965241 121.980625 
L 380.020175 120.581911 
L 381.075109 119.100919 
L 382.130044 117.53765 
L 383.184978 115.892103 
L 384.239912 114.16428 
L 385.294847 112.354179 
L 386.349781 110.4618 
L 387.404716 108.487145 
L 388.45965 106.430212 
L 389.514584 104.291001 
L 390.569519 102.069514 
L 391.624453 99.765749 
L 392.679387 97.379707 
L 393.734322 94.911387 
L 394.789256 92.36079 
L 395.844191 89.727916 
L 396.899125 87.012765 
L 397.954059 84.215336 
L 399.008994 81.33563 
L 400.063928 78.373646 
L 401.118862 75.329385 
L 402.173797 72.202847 
L 403.228731 68.994032 
L 404.283666 65.702939 
L 405.3386 62.329569 
L 406.393534 58.873922 
L 407.448469 55.335997 
L 408.503403 51.715795 
L 409.558337 48.013316 
L 410.613272 44.228559 
L 411.668206 40.361525 
L 412.72314 36.412214 
L 413.778075 32.380625 
" clip-path="url(#p9b77745dcb)" style="fill: none; stroke: #808080; stroke-linecap: square"/>
   </g>
   <g id="LineCollection_3">
    <path d="M 408.55615 133.180625 
L 408.55615 51.532625 
" clip-path="url(#p9b77745dcb)" style="fill: none; stroke-dasharray: 3.7,1.6; stroke-dashoffset: 0; stroke: #ff7f0e"/>
   </g>
   <g id="line2d_15">
    <path d="M 408.55615 51.532625 
" clip-path="url(#p9b77745dcb)" style="fill: none; stroke: #ff7f0e; stroke-linecap: square"/>
    <g clip-path="url(#p9b77745dcb)">
     <use xlink:href="#medc43f4f40" x="408.55615" y="51.532625" style="fill: #ff7f0e; stroke: #ff7f0e"/>
    </g>
   </g>
   <g id="line2d_16">
    <path d="M 389.778318 103.743343 
" clip-path="url(#p9b77745dcb)" style="fill: none; stroke: #1f77b4; stroke-linecap: square"/>
    <g clip-path="url(#p9b77745dcb)">
     <use xlink:href="#m4038c05695" x="389.778318" y="103.743343" style="fill: #1f77b4; stroke: #1f77b4"/>
    </g>
   </g>
   <g id="line2d_17">
    <path d="M 378.596014 122.450737 
" clip-path="url(#p9b77745dcb)" style="fill: none; stroke: #1f77b4; stroke-linecap: square"/>
    <g clip-path="url(#p9b77745dcb)">
     <use xlink:href="#m4038c05695" x="378.596014" y="122.450737" style="fill: #1f77b4; stroke: #1f77b4"/>
    </g>
   </g>
   <g id="line2d_18">
    <path d="M 371.633447 129.428676 
" clip-path="url(#p9b77745dcb)" style="fill: none; stroke: #1f77b4; stroke-linecap: square"/>
    <g clip-path="url(#p9b77745dcb)">
     <use xlink:href="#m4038c05695" x="371.633447" y="129.428676" style="fill: #1f77b4; stroke: #1f77b4"/>
    </g>
   </g>
   <g id="patch_22">
    <path d="M 304.117647 138.220625 
L 304.117647 27.340625 
" style="fill: none; stroke: #808080; stroke-width: 0.8; stroke-linejoin: miter; stroke-linecap: square"/>
   </g>
   <g id="patch_23">
    <path d="M 419 138.220625 
L 419 27.340625 
" style="fill: none; stroke: #808080; stroke-width: 0.8; stroke-linejoin: miter; stroke-linecap: square"/>
   </g>
   <g id="patch_24">
    <path d="M 304.117647 138.220625 
L 419 138.220625 
" style="fill: none; stroke: #808080; stroke-width: 0.8; stroke-linejoin: miter; stroke-linecap: square"/>
   </g>
   <g id="patch_25">
    <path d="M 304.117647 27.340625 
L 419 27.340625 
" style="fill: none; stroke: #808080; stroke-width: 0.8; stroke-linejoin: miter; stroke-linecap: square"/>
   </g>
   <g id="text_9">
    <!-- $\theta_0$ -->
    <g style="fill: #ff7f0e" transform="translate(404.10615 149.312) scale(0.1 -0.1)">
     <use xlink:href="#Cmmi10-b5" transform="translate(0 0.484375)"/>
     <use xlink:href="#Cmr10-30" transform="translate(46.923828 -16.521875) scale(0.7)"/>
    </g>
   </g>
   <g id="patch_26">
    <path d="M 400.611668 50.619656 
Q 289.673695 38.75217 385.480218 100.96963 
" style="fill: none; stroke: #1f77b4; stroke-linecap: round"/>
    <path d="M 383.214814 97.113733 
L 385.480218 100.96963 
L 381.036258 100.468416 
" style="fill: none; stroke: #1f77b4; stroke-linecap: round"/>
   </g>
   <g id="patch_27">
    <path d="M 382.124562 101.423256 
Q 347.861702 91.972655 374.934549 118.871408 
" style="fill: none; stroke: #1f77b4; stroke-linecap: round"/>
    <path d="M 373.506657 114.633351 
L 374.934549 118.871408 
L 370.687368 117.470887 
" style="fill: none; stroke: #1f77b4; stroke-linecap: round"/>
   </g>
   <g id="patch_28">
    <path d="M 371.56622 118.633847 
Q 363.657851 115.415994 369.034289 125.02285 
" style="fill: none; stroke: #1f77b4; stroke-linecap: round"/>
    <path d="M 368.826092 120.555563 
L 369.034289 125.02285 
L 365.335541 122.509036 
" style="fill: none; stroke: #1f77b4; stroke-linecap: round"/>
   </g>
   <g id="text_10">
    <!-- Perfect -->
    <g style="fill: #808080" transform="translate(346.058042 21.340625) scale(0.1 -0.1)">
     <defs>
      <path id="LMRoman10-Regular-50" d="M 3994 3181 
C 3994 3808 3360 4371 2483 4371 
L 224 4371 
L 224 4173 
L 378 4173 
C 870 4173 883 4102 883 3872 
L 883 499 
C 883 269 870 198 378 198 
L 224 198 
L 224 0 
C 448 19 922 19 1165 19 
C 1408 19 1888 19 2112 0 
L 2112 198 
L 1958 198 
C 1466 198 1453 269 1453 499 
L 1453 2022 
L 2534 2022 
C 3302 2022 3994 2541 3994 3181 
z
M 3334 3181 
C 3334 2880 3334 2189 2317 2189 
L 1434 2189 
L 1434 3917 
C 1434 4128 1446 4173 1747 4173 
L 2317 4173 
C 3334 4173 3334 3494 3334 3181 
z
" transform="scale(0.015625)"/>
      <path id="LMRoman10-Regular-66" d="M 2285 4064 
C 2285 4301 2048 4512 1709 4512 
C 1261 4512 717 4173 717 3494 
L 717 2758 
L 211 2758 
L 211 2560 
L 717 2560 
L 717 486 
C 717 198 646 198 218 198 
L 218 0 
L 947 19 
C 1203 19 1504 19 1760 0 
L 1760 198 
L 1626 198 
C 1152 198 1139 269 1139 499 
L 1139 2560 
L 1869 2560 
L 1869 2758 
L 1120 2758 
L 1120 3501 
C 1120 4064 1427 4371 1709 4371 
C 1728 4371 1824 4371 1920 4326 
C 1843 4301 1728 4218 1728 4058 
C 1728 3910 1830 3782 2003 3782 
C 2189 3782 2285 3910 2285 4064 
z
" transform="scale(0.015625)"/>
      <path id="LMRoman10-Regular-63" d="M 2656 762 
C 2656 826 2592 826 2573 826 
C 2515 826 2502 800 2490 762 
C 2304 166 1888 90 1651 90 
C 1312 90 749 365 749 1395 
C 749 2438 1274 2707 1613 2707 
C 1670 2707 2074 2701 2298 2470 
C 2035 2451 1997 2259 1997 2176 
C 1997 2010 2112 1882 2291 1882 
C 2458 1882 2586 1990 2586 2182 
C 2586 2618 2099 2867 1606 2867 
C 806 2867 218 2176 218 1382 
C 218 563 851 -70 1594 -70 
C 2451 -70 2656 698 2656 762 
z
" transform="scale(0.015625)"/>
      <path id="LMRoman10-Regular-74" d="M 2125 794 
L 2125 1158 
L 1965 1158 
L 1965 806 
C 1965 333 1773 90 1536 90 
C 1107 90 1107 672 1107 781 
L 1107 2560 
L 2022 2560 
L 2022 2758 
L 1107 2758 
L 1107 3936 
L 947 3936 
C 941 3411 749 2726 122 2701 
L 122 2560 
L 666 2560 
L 666 794 
C 666 6 1261 -70 1491 -70 
C 1946 -70 2125 384 2125 794 
z
" transform="scale(0.015625)"/>
     </defs>
     <use xlink:href="#LMRoman10-Regular-50"/>
     <use xlink:href="#LMRoman10-Regular-65" transform="translate(68.099991 0)"/>
     <use xlink:href="#LMRoman10-Regular-72" transform="translate(112.499985 0)"/>
     <use xlink:href="#LMRoman10-Regular-66" transform="translate(151.699982 0)"/>
     <use xlink:href="#LMRoman10-Regular-65" transform="translate(182.299973 0)"/>
     <use xlink:href="#LMRoman10-Regular-63" transform="translate(226.699966 0)"/>
     <use xlink:href="#LMRoman10-Regular-74" transform="translate(271.09996 0)"/>
    </g>
   </g>
  </g>
 </g>
 <defs>
  <clipPath id="p04ffd04864">
   <rect x="28.4" y="27.340625" width="114.882353" height="110.88"/>
  </clipPath>
  <clipPath id="pd22a4173cf">
   <rect x="166.258824" y="27.340625" width="114.882353" height="110.88"/>
  </clipPath>
  <clipPath id="p9b77745dcb">
   <rect x="304.117647" y="27.340625" width="114.882353" height="110.88"/>
  </clipPath>
 </defs>
</svg>
