<?xml version="1.0" encoding="utf-8" standalone="no"?>
<!DOCTYPE svg PUBLIC "-//W3C//DTD SVG 1.1//EN"
  "http://www.w3.org/Graphics/SVG/1.1/DTD/svg11.dtd">
<svg xmlns:xlink="http://www.w3.org/1999/xlink" width="116.361813pt" height="138.537813pt" viewBox="0 0 116.361813 138.537813" xmlns="http://www.w3.org/2000/svg" version="1.1">
 <metadata>
  <rdf:RDF xmlns:dc="http://purl.org/dc/elements/1.1/" xmlns:cc="http://creativecommons.org/ns#" xmlns:rdf="http://www.w3.org/1999/02/22-rdf-syntax-ns#">
   <cc:Work>
    <dc:type rdf:resource="http://purl.org/dc/dcmitype/StillImage"/>
    <dc:date>2024-11-08T11:10:32.685286</dc:date>
    <dc:format>image/svg+xml</dc:format>
    <dc:creator>
     <cc:Agent>
      <dc:title>Matplotlib v3.8.2, https://matplotlib.org/</dc:title>
     </cc:Agent>
    </dc:creator>
   </cc:Work>
  </rdf:RDF>
 </metadata>
 <defs>
  <style type="text/css">*{stroke-linejoin: round; stroke-linecap: butt}</style>
 </defs>
 <g id="figure_1">
  <g id="patch_1">
   <path d="M 0 138.537813 
L 116.361813 138.537813 
L 116.361813 0 
L 0 0 
L 0 138.537813 
z
" style="fill: none"/>
  </g>
  <g id="axes_1">
   <g id="patch_2">
    <path d="M 20.457813 118.08 
L 109.161813 118.08 
L 109.161813 7.2 
L 20.457813 7.2 
z
" style="fill: #ffffff; fill-opacity: 0.333333"/>
   </g>
   <g id="matplotlib.axis_1">
    <g id="text_1">
     <!-- Feature #1 -->
     <g style="fill: #808080" transform="translate(40.630125 129.253437) scale(0.1 -0.1)">
      <defs>
       <path id="Helvetica-46" d="M 547 4591 
L 3731 4591 
L 3731 4028 
L 1169 4028 
L 1169 2634 
L 3422 2634 
L 3422 2088 
L 1169 2088 
L 1169 0 
L 547 0 
L 547 4591 
z
" transform="scale(0.015625)"/>
       <path id="Helvetica-65" d="M 1806 3422 
Q 2163 3422 2497 3255 
Q 2831 3088 3006 2822 
Q 3175 2569 3231 2231 
Q 3281 2000 3281 1494 
L 828 1494 
Q 844 984 1069 676 
Q 1294 369 1766 369 
Q 2206 369 2469 659 
Q 2619 828 2681 1050 
L 3234 1050 
Q 3213 866 3089 639 
Q 2966 413 2813 269 
Q 2556 19 2178 -69 
Q 1975 -119 1719 -119 
Q 1094 -119 659 336 
Q 225 791 225 1609 
Q 225 2416 662 2919 
Q 1100 3422 1806 3422 
z
M 2703 1941 
Q 2669 2306 2544 2525 
Q 2313 2931 1772 2931 
Q 1384 2931 1121 2651 
Q 859 2372 844 1941 
L 2703 1941 
z
M 1753 3428 
L 1753 3428 
z
" transform="scale(0.015625)"/>
       <path id="Helvetica-61" d="M 844 891 
Q 844 647 1022 506 
Q 1200 366 1444 366 
Q 1741 366 2019 503 
Q 2488 731 2488 1250 
L 2488 1703 
Q 2384 1638 2221 1594 
Q 2059 1550 1903 1531 
L 1563 1488 
Q 1256 1447 1103 1359 
Q 844 1213 844 891 
z
M 2206 2028 
Q 2400 2053 2466 2191 
Q 2503 2266 2503 2406 
Q 2503 2694 2298 2823 
Q 2094 2953 1713 2953 
Q 1272 2953 1088 2716 
Q 984 2584 953 2325 
L 428 2325 
Q 444 2944 830 3186 
Q 1216 3428 1725 3428 
Q 2316 3428 2684 3203 
Q 3050 2978 3050 2503 
L 3050 575 
Q 3050 488 3086 434 
Q 3122 381 3238 381 
Q 3275 381 3322 386 
Q 3369 391 3422 400 
L 3422 -16 
Q 3291 -53 3222 -62 
Q 3153 -72 3034 -72 
Q 2744 -72 2613 134 
Q 2544 244 2516 444 
Q 2344 219 2022 53 
Q 1700 -113 1313 -113 
Q 847 -113 551 170 
Q 256 453 256 878 
Q 256 1344 547 1600 
Q 838 1856 1309 1916 
L 2206 2028 
z
M 1741 3428 
L 1741 3428 
z
" transform="scale(0.015625)"/>
       <path id="Helvetica-74" d="M 525 4281 
L 1094 4281 
L 1094 3347 
L 1628 3347 
L 1628 2888 
L 1094 2888 
L 1094 703 
Q 1094 528 1213 469 
Q 1278 434 1431 434 
Q 1472 434 1519 436 
Q 1566 438 1628 444 
L 1628 0 
Q 1531 -28 1426 -40 
Q 1322 -53 1200 -53 
Q 806 -53 665 148 
Q 525 350 525 672 
L 525 2888 
L 72 2888 
L 72 3347 
L 525 3347 
L 525 4281 
z
" transform="scale(0.015625)"/>
       <path id="Helvetica-75" d="M 975 3347 
L 975 1125 
Q 975 869 1056 706 
Q 1206 406 1616 406 
Q 2203 406 2416 931 
Q 2531 1213 2531 1703 
L 2531 3347 
L 3094 3347 
L 3094 0 
L 2563 0 
L 2569 494 
Q 2459 303 2297 172 
Q 1975 -91 1516 -91 
Q 800 -91 541 388 
Q 400 644 400 1072 
L 400 3347 
L 975 3347 
z
M 1747 3428 
L 1747 3428 
z
" transform="scale(0.015625)"/>
       <path id="Helvetica-72" d="M 428 3347 
L 963 3347 
L 963 2769 
Q 1028 2938 1284 3180 
Q 1541 3422 1875 3422 
Q 1891 3422 1928 3419 
Q 1966 3416 2056 3406 
L 2056 2813 
Q 2006 2822 1964 2825 
Q 1922 2828 1872 2828 
Q 1447 2828 1219 2554 
Q 991 2281 991 1925 
L 991 0 
L 428 0 
L 428 3347 
z
" transform="scale(0.015625)"/>
       <path id="Helvetica-20" transform="scale(0.015625)"/>
       <path id="Helvetica-23" d="M 94 1753 
L 822 1753 
L 1116 2828 
L 391 2828 
L 488 3191 
L 1213 3191 
L 1584 4591 
L 2050 4591 
L 1672 3191 
L 2363 3191 
L 2747 4591 
L 3206 4591 
L 2828 3191 
L 3553 3191 
L 3456 2828 
L 2731 2828 
L 2434 1753 
L 3163 1753 
L 3066 1391 
L 2347 1391 
L 1963 0 
L 1503 0 
L 1881 1391 
L 1184 1391 
L 813 0 
L 347 0 
L 725 1391 
L 0 1391 
L 94 1753 
z
M 1969 1753 
L 2266 2828 
L 1575 2828 
L 1288 1753 
L 1969 1753 
z
" transform="scale(0.015625)"/>
       <path id="Helvetica-31" d="M 613 3169 
L 613 3600 
Q 1222 3659 1462 3798 
Q 1703 3938 1822 4456 
L 2266 4456 
L 2266 0 
L 1666 0 
L 1666 3169 
L 613 3169 
z
" transform="scale(0.015625)"/>
      </defs>
      <use xlink:href="#Helvetica-46"/>
      <use xlink:href="#Helvetica-65" x="61.083984"/>
      <use xlink:href="#Helvetica-61" x="116.699219"/>
      <use xlink:href="#Helvetica-74" x="172.314453"/>
      <use xlink:href="#Helvetica-75" x="200.097656"/>
      <use xlink:href="#Helvetica-72" x="255.712891"/>
      <use xlink:href="#Helvetica-65" x="289.013672"/>
      <use xlink:href="#Helvetica-20" x="344.628906"/>
      <use xlink:href="#Helvetica-23" x="372.412109"/>
      <use xlink:href="#Helvetica-31" x="428.027344"/>
     </g>
    </g>
   </g>
   <g id="matplotlib.axis_2">
    <g id="text_2">
     <!-- Feature #2 -->
     <g style="fill: #808080" transform="translate(14.373438 86.819688) rotate(-90) scale(0.1 -0.1)">
      <defs>
       <path id="Helvetica-32" d="M 200 0 
Q 231 578 439 1006 
Q 647 1434 1250 1784 
L 1850 2131 
Q 2253 2366 2416 2531 
Q 2672 2791 2672 3125 
Q 2672 3516 2437 3745 
Q 2203 3975 1813 3975 
Q 1234 3975 1013 3538 
Q 894 3303 881 2888 
L 309 2888 
Q 319 3472 525 3841 
Q 891 4491 1816 4491 
Q 2584 4491 2939 4075 
Q 3294 3659 3294 3150 
Q 3294 2613 2916 2231 
Q 2697 2009 2131 1694 
L 1703 1456 
Q 1397 1288 1222 1134 
Q 909 863 828 531 
L 3272 531 
L 3272 0 
L 200 0 
z
" transform="scale(0.015625)"/>
      </defs>
      <use xlink:href="#Helvetica-46"/>
      <use xlink:href="#Helvetica-65" x="61.083984"/>
      <use xlink:href="#Helvetica-61" x="116.699219"/>
      <use xlink:href="#Helvetica-74" x="172.314453"/>
      <use xlink:href="#Helvetica-75" x="200.097656"/>
      <use xlink:href="#Helvetica-72" x="255.712891"/>
      <use xlink:href="#Helvetica-65" x="289.013672"/>
      <use xlink:href="#Helvetica-20" x="344.628906"/>
      <use xlink:href="#Helvetica-23" x="372.412109"/>
      <use xlink:href="#Helvetica-32" x="428.027344"/>
     </g>
    </g>
   </g>
   <g id="line2d_1">
    <defs>
     <path id="mdcc5e43b66" d="M 0 1.5 
C 0.397805 1.5 0.77937 1.341951 1.06066 1.06066 
C 1.341951 0.77937 1.5 0.397805 1.5 0 
C 1.5 -0.397805 1.341951 -0.77937 1.06066 -1.06066 
C 0.77937 -1.341951 0.397805 -1.5 0 -1.5 
C -0.397805 -1.5 -0.77937 -1.341951 -1.06066 -1.06066 
C -1.341951 -0.77937 -1.5 -0.397805 -1.5 0 
C -1.5 0.397805 -1.341951 0.77937 -1.06066 1.06066 
C -0.77937 1.341951 -0.397805 1.5 0 1.5 
z
" style="stroke: #1f77b4"/>
    </defs>
    <g clip-path="url(#p4a4ca6d5da)">
     <use xlink:href="#mdcc5e43b66" x="90.212554" y="43.551155" style="fill: #1f77b4; stroke: #1f77b4"/>
     <use xlink:href="#mdcc5e43b66" x="66.345444" y="48.665076" style="fill: #1f77b4; stroke: #1f77b4"/>
     <use xlink:href="#mdcc5e43b66" x="81.797452" y="62.287461" style="fill: #1f77b4; stroke: #1f77b4"/>
     <use xlink:href="#mdcc5e43b66" x="91.548285" y="45.208262" style="fill: #1f77b4; stroke: #1f77b4"/>
     <use xlink:href="#mdcc5e43b66" x="75.739318" y="39.533019" style="fill: #1f77b4; stroke: #1f77b4"/>
     <use xlink:href="#mdcc5e43b66" x="88.413665" y="59.61084" style="fill: #1f77b4; stroke: #1f77b4"/>
     <use xlink:href="#mdcc5e43b66" x="68.626851" y="41.026395" style="fill: #1f77b4; stroke: #1f77b4"/>
     <use xlink:href="#mdcc5e43b66" x="84.773048" y="48.963594" style="fill: #1f77b4; stroke: #1f77b4"/>
     <use xlink:href="#mdcc5e43b66" x="70.289929" y="46.501694" style="fill: #1f77b4; stroke: #1f77b4"/>
     <use xlink:href="#mdcc5e43b66" x="72.669879" y="30.305745" style="fill: #1f77b4; stroke: #1f77b4"/>
     <use xlink:href="#mdcc5e43b66" x="59.998147" y="24.075304" style="fill: #1f77b4; stroke: #1f77b4"/>
     <use xlink:href="#mdcc5e43b66" x="82.19865" y="31.196343" style="fill: #1f77b4; stroke: #1f77b4"/>
     <use xlink:href="#mdcc5e43b66" x="82.190503" y="44.349175" style="fill: #1f77b4; stroke: #1f77b4"/>
     <use xlink:href="#mdcc5e43b66" x="70.839206" y="47.143811" style="fill: #1f77b4; stroke: #1f77b4"/>
     <use xlink:href="#mdcc5e43b66" x="69.231469" y="30.887419" style="fill: #1f77b4; stroke: #1f77b4"/>
     <use xlink:href="#mdcc5e43b66" x="64.532678" y="41.167203" style="fill: #1f77b4; stroke: #1f77b4"/>
     <use xlink:href="#mdcc5e43b66" x="64.582442" y="46.13964" style="fill: #1f77b4; stroke: #1f77b4"/>
     <use xlink:href="#mdcc5e43b66" x="64.759035" y="36.908425" style="fill: #1f77b4; stroke: #1f77b4"/>
     <use xlink:href="#mdcc5e43b66" x="59.813075" y="34.168799" style="fill: #1f77b4; stroke: #1f77b4"/>
     <use xlink:href="#mdcc5e43b66" x="90.605699" y="28.540214" style="fill: #1f77b4; stroke: #1f77b4"/>
     <use xlink:href="#mdcc5e43b66" x="70.07474" y="46.61003" style="fill: #1f77b4; stroke: #1f77b4"/>
     <use xlink:href="#mdcc5e43b66" x="63.917321" y="18.002063" style="fill: #1f77b4; stroke: #1f77b4"/>
     <use xlink:href="#mdcc5e43b66" x="72.765169" y="43.831008" style="fill: #1f77b4; stroke: #1f77b4"/>
     <use xlink:href="#mdcc5e43b66" x="74.318683" y="13.480371" style="fill: #1f77b4; stroke: #1f77b4"/>
     <use xlink:href="#mdcc5e43b66" x="73.534135" y="29.924452" style="fill: #1f77b4; stroke: #1f77b4"/>
     <use xlink:href="#mdcc5e43b66" x="75.530101" y="40.673746" style="fill: #1f77b4; stroke: #1f77b4"/>
     <use xlink:href="#mdcc5e43b66" x="59.533571" y="40.641512" style="fill: #1f77b4; stroke: #1f77b4"/>
     <use xlink:href="#mdcc5e43b66" x="69.885593" y="30.263522" style="fill: #1f77b4; stroke: #1f77b4"/>
     <use xlink:href="#mdcc5e43b66" x="81.504461" y="26.44394" style="fill: #1f77b4; stroke: #1f77b4"/>
     <use xlink:href="#mdcc5e43b66" x="75.368405" y="26.953555" style="fill: #1f77b4; stroke: #1f77b4"/>
     <use xlink:href="#mdcc5e43b66" x="63.837048" y="22.876198" style="fill: #1f77b4; stroke: #1f77b4"/>
     <use xlink:href="#mdcc5e43b66" x="77.889178" y="40.073253" style="fill: #1f77b4; stroke: #1f77b4"/>
     <use xlink:href="#mdcc5e43b66" x="77.618502" y="37.605939" style="fill: #1f77b4; stroke: #1f77b4"/>
     <use xlink:href="#mdcc5e43b66" x="84.749319" y="19.916271" style="fill: #1f77b4; stroke: #1f77b4"/>
     <use xlink:href="#mdcc5e43b66" x="96.435473" y="52.252351" style="fill: #1f77b4; stroke: #1f77b4"/>
     <use xlink:href="#mdcc5e43b66" x="56.189479" y="42.361517" style="fill: #1f77b4; stroke: #1f77b4"/>
     <use xlink:href="#mdcc5e43b66" x="73.976304" y="27.053039" style="fill: #1f77b4; stroke: #1f77b4"/>
     <use xlink:href="#mdcc5e43b66" x="75.701573" y="59.190167" style="fill: #1f77b4; stroke: #1f77b4"/>
     <use xlink:href="#mdcc5e43b66" x="68.806622" y="27.587417" style="fill: #1f77b4; stroke: #1f77b4"/>
     <use xlink:href="#mdcc5e43b66" x="74.753103" y="28.31882" style="fill: #1f77b4; stroke: #1f77b4"/>
     <use xlink:href="#mdcc5e43b66" x="69.736638" y="38.994005" style="fill: #1f77b4; stroke: #1f77b4"/>
     <use xlink:href="#mdcc5e43b66" x="74.270405" y="32.221347" style="fill: #1f77b4; stroke: #1f77b4"/>
     <use xlink:href="#mdcc5e43b66" x="74.40056" y="35.448432" style="fill: #1f77b4; stroke: #1f77b4"/>
     <use xlink:href="#mdcc5e43b66" x="64.765509" y="32.581573" style="fill: #1f77b4; stroke: #1f77b4"/>
     <use xlink:href="#mdcc5e43b66" x="73.552567" y="24.244282" style="fill: #1f77b4; stroke: #1f77b4"/>
     <use xlink:href="#mdcc5e43b66" x="85.495414" y="34.714986" style="fill: #1f77b4; stroke: #1f77b4"/>
     <use xlink:href="#mdcc5e43b66" x="68.040653" y="43.850243" style="fill: #1f77b4; stroke: #1f77b4"/>
     <use xlink:href="#mdcc5e43b66" x="76.897518" y="35.910453" style="fill: #1f77b4; stroke: #1f77b4"/>
     <use xlink:href="#mdcc5e43b66" x="68.389163" y="36.284598" style="fill: #1f77b4; stroke: #1f77b4"/>
     <use xlink:href="#mdcc5e43b66" x="65.327243" y="29.028221" style="fill: #1f77b4; stroke: #1f77b4"/>
    </g>
   </g>
   <g id="line2d_2">
    <defs>
     <path id="m8d3ad00903" d="M 0 1.5 
C 0.397805 1.5 0.77937 1.341951 1.06066 1.06066 
C 1.341951 0.77937 1.5 0.397805 1.5 0 
C 1.5 -0.397805 1.341951 -0.77937 1.06066 -1.06066 
C 0.77937 -1.341951 0.397805 -1.5 0 -1.5 
C -0.397805 -1.5 -0.77937 -1.341951 -1.06066 -1.06066 
C -1.341951 -0.77937 -1.5 -0.397805 -1.5 0 
C -1.5 0.397805 -1.341951 0.77937 -1.06066 1.06066 
C -0.77937 1.341951 -0.397805 1.5 0 1.5 
z
" style="stroke: #add8e6"/>
    </defs>
    <g clip-path="url(#p4a4ca6d5da)">
     <use xlink:href="#m8d3ad00903" x="49.650406" y="71.762524" style="fill: #add8e6; stroke: #add8e6"/>
     <use xlink:href="#m8d3ad00903" x="30.556718" y="75.853661" style="fill: #add8e6; stroke: #add8e6"/>
     <use xlink:href="#m8d3ad00903" x="42.918324" y="86.751569" style="fill: #add8e6; stroke: #add8e6"/>
     <use xlink:href="#m8d3ad00903" x="50.718991" y="73.08821" style="fill: #add8e6; stroke: #add8e6"/>
     <use xlink:href="#m8d3ad00903" x="38.071817" y="68.548015" style="fill: #add8e6; stroke: #add8e6"/>
     <use xlink:href="#m8d3ad00903" x="48.211295" y="84.610272" style="fill: #add8e6; stroke: #add8e6"/>
     <use xlink:href="#m8d3ad00903" x="32.381843" y="69.742716" style="fill: #add8e6; stroke: #add8e6"/>
     <use xlink:href="#m8d3ad00903" x="45.298801" y="76.092475" style="fill: #add8e6; stroke: #add8e6"/>
     <use xlink:href="#m8d3ad00903" x="33.712305" y="74.122955" style="fill: #add8e6; stroke: #add8e6"/>
     <use xlink:href="#m8d3ad00903" x="35.616265" y="61.166196" style="fill: #add8e6; stroke: #add8e6"/>
     <use xlink:href="#m8d3ad00903" x="25.47888" y="56.181843" style="fill: #add8e6; stroke: #add8e6"/>
     <use xlink:href="#m8d3ad00903" x="43.239283" y="61.878674" style="fill: #add8e6; stroke: #add8e6"/>
     <use xlink:href="#m8d3ad00903" x="43.232765" y="72.40094" style="fill: #add8e6; stroke: #add8e6"/>
     <use xlink:href="#m8d3ad00903" x="34.151727" y="74.636649" style="fill: #add8e6; stroke: #add8e6"/>
     <use xlink:href="#m8d3ad00903" x="32.865538" y="61.631535" style="fill: #add8e6; stroke: #add8e6"/>
     <use xlink:href="#m8d3ad00903" x="29.106505" y="69.855362" style="fill: #add8e6; stroke: #add8e6"/>
     <use xlink:href="#m8d3ad00903" x="29.146316" y="73.833312" style="fill: #add8e6; stroke: #add8e6"/>
     <use xlink:href="#m8d3ad00903" x="29.287591" y="66.44834" style="fill: #add8e6; stroke: #add8e6"/>
     <use xlink:href="#m8d3ad00903" x="25.330823" y="64.256639" style="fill: #add8e6; stroke: #add8e6"/>
     <use xlink:href="#m8d3ad00903" x="49.964922" y="59.753771" style="fill: #add8e6; stroke: #add8e6"/>
     <use xlink:href="#m8d3ad00903" x="33.540154" y="74.209624" style="fill: #add8e6; stroke: #add8e6"/>
     <use xlink:href="#m8d3ad00903" x="28.61422" y="51.323251" style="fill: #add8e6; stroke: #add8e6"/>
     <use xlink:href="#m8d3ad00903" x="35.692498" y="71.986406" style="fill: #add8e6; stroke: #add8e6"/>
     <use xlink:href="#m8d3ad00903" x="36.935309" y="47.705897" style="fill: #add8e6; stroke: #add8e6"/>
     <use xlink:href="#m8d3ad00903" x="36.30767" y="60.861162" style="fill: #add8e6; stroke: #add8e6"/>
     <use xlink:href="#m8d3ad00903" x="37.904443" y="69.460597" style="fill: #add8e6; stroke: #add8e6"/>
     <use xlink:href="#m8d3ad00903" x="25.107219" y="69.43481" style="fill: #add8e6; stroke: #add8e6"/>
     <use xlink:href="#m8d3ad00903" x="33.388837" y="61.132418" style="fill: #add8e6; stroke: #add8e6"/>
     <use xlink:href="#m8d3ad00903" x="42.683931" y="58.076752" style="fill: #add8e6; stroke: #add8e6"/>
     <use xlink:href="#m8d3ad00903" x="37.775086" y="58.484444" style="fill: #add8e6; stroke: #add8e6"/>
     <use xlink:href="#m8d3ad00903" x="28.550001" y="55.222558" style="fill: #add8e6; stroke: #add8e6"/>
     <use xlink:href="#m8d3ad00903" x="39.791705" y="68.980203" style="fill: #add8e6; stroke: #add8e6"/>
     <use xlink:href="#m8d3ad00903" x="39.575164" y="67.006351" style="fill: #add8e6; stroke: #add8e6"/>
     <use xlink:href="#m8d3ad00903" x="45.279818" y="52.854617" style="fill: #add8e6; stroke: #add8e6"/>
     <use xlink:href="#m8d3ad00903" x="54.628741" y="78.723481" style="fill: #add8e6; stroke: #add8e6"/>
     <use xlink:href="#m8d3ad00903" x="22.431945" y="70.810814" style="fill: #add8e6; stroke: #add8e6"/>
     <use xlink:href="#m8d3ad00903" x="36.661405" y="58.564031" style="fill: #add8e6; stroke: #add8e6"/>
     <use xlink:href="#m8d3ad00903" x="38.041621" y="84.273734" style="fill: #add8e6; stroke: #add8e6"/>
     <use xlink:href="#m8d3ad00903" x="32.52566" y="58.991534" style="fill: #add8e6; stroke: #add8e6"/>
     <use xlink:href="#m8d3ad00903" x="37.282845" y="59.576656" style="fill: #add8e6; stroke: #add8e6"/>
     <use xlink:href="#m8d3ad00903" x="33.269673" y="68.116804" style="fill: #add8e6; stroke: #add8e6"/>
     <use xlink:href="#m8d3ad00903" x="36.896687" y="62.698678" style="fill: #add8e6; stroke: #add8e6"/>
     <use xlink:href="#m8d3ad00903" x="37.00081" y="65.280346" style="fill: #add8e6; stroke: #add8e6"/>
     <use xlink:href="#m8d3ad00903" x="29.29277" y="62.986858" style="fill: #add8e6; stroke: #add8e6"/>
     <use xlink:href="#m8d3ad00903" x="36.322416" y="56.317026" style="fill: #add8e6; stroke: #add8e6"/>
     <use xlink:href="#m8d3ad00903" x="45.876694" y="64.693589" style="fill: #add8e6; stroke: #add8e6"/>
     <use xlink:href="#m8d3ad00903" x="31.912885" y="72.001794" style="fill: #add8e6; stroke: #add8e6"/>
     <use xlink:href="#m8d3ad00903" x="38.998377" y="65.649963" style="fill: #add8e6; stroke: #add8e6"/>
     <use xlink:href="#m8d3ad00903" x="32.191693" y="65.949278" style="fill: #add8e6; stroke: #add8e6"/>
     <use xlink:href="#m8d3ad00903" x="29.742157" y="60.144177" style="fill: #add8e6; stroke: #add8e6"/>
    </g>
   </g>
   <g id="line2d_3">
    <path d="M 20.457813 14.592 
L 109.161813 103.296 
" clip-path="url(#p4a4ca6d5da)" style="fill: none; stroke: #ff7f0e; stroke-linecap: square"/>
   </g>
   <g id="patch_3">
    <path d="M 20.457813 118.08 
L 20.457813 7.2 
" style="fill: none; stroke: #808080; stroke-width: 0.8; stroke-linejoin: miter; stroke-linecap: square"/>
   </g>
   <g id="patch_4">
    <path d="M 109.161813 118.08 
L 109.161813 7.2 
" style="fill: none; stroke: #808080; stroke-width: 0.8; stroke-linejoin: miter; stroke-linecap: square"/>
   </g>
   <g id="patch_5">
    <path d="M 20.457813 118.08 
L 109.161813 118.08 
" style="fill: none; stroke: #808080; stroke-width: 0.8; stroke-linejoin: miter; stroke-linecap: square"/>
   </g>
   <g id="patch_6">
    <path d="M 20.457813 7.2 
L 109.161813 7.2 
" style="fill: none; stroke: #808080; stroke-width: 0.8; stroke-linejoin: miter; stroke-linecap: square"/>
   </g>
   <g id="legend_1">
    <g id="patch_7">
     <path d="M 26.288813 113.915 
L 83.96365 113.915 
Q 85.62965 113.915 85.62965 112.249 
L 85.62965 89.115028 
Q 85.62965 87.449028 83.96365 87.449028 
L 26.288813 87.449028 
Q 24.622813 87.449028 24.622813 89.115028 
L 24.622813 112.249 
Q 24.622813 113.915 26.288813 113.915 
z
" style="fill: #ffffff; opacity: 0.8; stroke: #cccccc; stroke-linejoin: miter"/>
    </g>
    <g id="line2d_4">
     <g>
      <use xlink:href="#mdcc5e43b66" x="36.284813" y="93.841002" style="fill: #1f77b4; stroke: #1f77b4"/>
     </g>
    </g>
    <g id="text_3">
     <!-- Target 1 -->
     <g transform="translate(51.278813 96.756502) scale(0.0833 -0.0833)">
      <defs>
       <path id="Helvetica-54" d="M 3828 4591 
L 3828 4044 
L 2281 4044 
L 2281 0 
L 1650 0 
L 1650 4044 
L 103 4044 
L 103 4591 
L 3828 4591 
z
" transform="scale(0.015625)"/>
       <path id="Helvetica-67" d="M 1594 3406 
Q 1988 3406 2281 3213 
Q 2441 3103 2606 2894 
L 2606 3316 
L 3125 3316 
L 3125 272 
Q 3125 -366 2938 -734 
Q 2588 -1416 1616 -1416 
Q 1075 -1416 706 -1173 
Q 338 -931 294 -416 
L 866 -416 
Q 906 -641 1028 -763 
Q 1219 -950 1628 -950 
Q 2275 -950 2475 -494 
Q 2594 -225 2584 466 
Q 2416 209 2178 84 
Q 1941 -41 1550 -41 
Q 1006 -41 598 345 
Q 191 731 191 1622 
Q 191 2463 602 2934 
Q 1013 3406 1594 3406 
z
M 2606 1688 
Q 2606 2309 2350 2609 
Q 2094 2909 1697 2909 
Q 1103 2909 884 2353 
Q 769 2056 769 1575 
Q 769 1009 998 714 
Q 1228 419 1616 419 
Q 2222 419 2469 966 
Q 2606 1275 2606 1688 
z
M 1659 3428 
L 1659 3428 
z
" transform="scale(0.015625)"/>
      </defs>
      <use xlink:href="#Helvetica-54"/>
      <use xlink:href="#Helvetica-61" x="61.083984"/>
      <use xlink:href="#Helvetica-72" x="116.699219"/>
      <use xlink:href="#Helvetica-67" x="150"/>
      <use xlink:href="#Helvetica-65" x="205.615234"/>
      <use xlink:href="#Helvetica-74" x="261.230469"/>
      <use xlink:href="#Helvetica-20" x="289.013672"/>
      <use xlink:href="#Helvetica-31" x="316.796875"/>
     </g>
    </g>
    <g id="line2d_5">
     <g>
      <use xlink:href="#m8d3ad00903" x="36.284813" y="105.824488" style="fill: #add8e6; stroke: #add8e6"/>
     </g>
    </g>
    <g id="text_4">
     <!-- Target 2 -->
     <g transform="translate(51.278813 108.739988) scale(0.0833 -0.0833)">
      <use xlink:href="#Helvetica-54"/>
      <use xlink:href="#Helvetica-61" x="61.083984"/>
      <use xlink:href="#Helvetica-72" x="116.699219"/>
      <use xlink:href="#Helvetica-67" x="150"/>
      <use xlink:href="#Helvetica-65" x="205.615234"/>
      <use xlink:href="#Helvetica-74" x="261.230469"/>
      <use xlink:href="#Helvetica-20" x="289.013672"/>
      <use xlink:href="#Helvetica-32" x="316.796875"/>
     </g>
    </g>
   </g>
  </g>
 </g>
 <defs>
  <clipPath id="p4a4ca6d5da">
   <rect x="20.457813" y="7.2" width="88.704" height="110.88"/>
  </clipPath>
 </defs>
</svg>
