<?xml version="1.0" encoding="utf-8" standalone="no"?>
<!DOCTYPE svg PUBLIC "-//W3C//DTD SVG 1.1//EN"
  "http://www.w3.org/Graphics/SVG/1.1/DTD/svg11.dtd">
<svg xmlns:xlink="http://www.w3.org/1999/xlink" width="116.361813pt" height="138.537813pt" viewBox="0 0 116.361813 138.537813" xmlns="http://www.w3.org/2000/svg" version="1.1">
 <metadata>
  <rdf:RDF xmlns:dc="http://purl.org/dc/elements/1.1/" xmlns:cc="http://creativecommons.org/ns#" xmlns:rdf="http://www.w3.org/1999/02/22-rdf-syntax-ns#">
   <cc:Work>
    <dc:type rdf:resource="http://purl.org/dc/dcmitype/StillImage"/>
    <dc:date>2026-05-16T14:41:58.053795</dc:date>
    <dc:format>image/svg+xml</dc:format>
    <dc:creator>
     <cc:Agent>
      <dc:title>Matplotlib v3.10.8, https://matplotlib.org/</dc:title>
     </cc:Agent>
    </dc:creator>
   </cc:Work>
  </rdf:RDF>
 </metadata>
 <defs>
  <style type="text/css">*{stroke-linejoin: round; stroke-linecap: butt}</style>
 </defs>
 <g id="figure_1">
  <g id="patch_1">
   <path d="M 0 138.537813 
L 116.361813 138.537813 
L 116.361813 0 
L 0 0 
L 0 138.537813 
z
" style="fill: none"/>
  </g>
  <g id="axes_1">
   <g id="patch_2">
    <path d="M 20.457813 118.08 
L 109.161813 118.08 
L 109.161813 7.2 
L 20.457813 7.2 
z
" style="fill: #ffffff"/>
   </g>
   <g id="matplotlib.axis_1">
    <g id="text_1">
     <!-- x -->
     <g style="fill: #808080" transform="translate(62.309813 129.253437) scale(0.1 -0.1)">
      <defs>
       <path id="Helvetica-78" d="M 94 3347 
L 822 3347 
L 1591 2169 
L 2369 3347 
L 3053 3331 
L 1925 1716 
L 3103 0 
L 2384 0 
L 1553 1256 
L 747 0 
L 34 0 
L 1213 1716 
L 94 3347 
z
" transform="scale(0.015625)"/>
      </defs>
      <use xlink:href="#Helvetica-78"/>
     </g>
    </g>
   </g>
   <g id="matplotlib.axis_2">
    <g id="text_2">
     <!-- y -->
     <g style="fill: #808080" transform="translate(14.314063 65.14) rotate(-90) scale(0.1 -0.1)">
      <defs>
       <path id="Helvetica-79" d="M 2503 3347 
L 3125 3347 
Q 3006 3025 2597 1878 
Q 2291 1016 2084 472 
Q 1597 -809 1397 -1090 
Q 1197 -1372 709 -1372 
Q 591 -1372 527 -1362 
Q 463 -1353 369 -1328 
L 369 -816 
Q 516 -856 581 -865 
Q 647 -875 697 -875 
Q 853 -875 926 -823 
Q 1000 -772 1050 -697 
Q 1066 -672 1162 -440 
Q 1259 -209 1303 -97 
L 66 3347 
L 703 3347 
L 1600 622 
L 2503 3347 
z
M 1597 3428 
L 1597 3428 
z
" transform="scale(0.015625)"/>
      </defs>
      <use xlink:href="#Helvetica-79"/>
     </g>
    </g>
   </g>
   <g id="line2d_1">
    <defs>
     <path id="m6b9d090dc5" d="M 0 1.5 
C 0.397805 1.5 0.77937 1.341951 1.06066 1.06066 
C 1.341951 0.77937 1.5 0.397805 1.5 0 
C 1.5 -0.397805 1.341951 -0.77937 1.06066 -1.06066 
C 0.77937 -1.341951 0.397805 -1.5 0 -1.5 
C -0.397805 -1.5 -0.77937 -1.341951 -1.06066 -1.06066 
C -1.341951 -0.77937 -1.5 -0.397805 -1.5 0 
C -1.5 0.397805 -1.341951 0.77937 -1.06066 1.06066 
C -0.77937 1.341951 -0.397805 1.5 0 1.5 
z
" style="stroke: #1f77b4"/>
    </defs>
    <g clip-path="url(#p15db3b45ee)">
     <use xlink:href="#m6b9d090dc5" x="58.676079" y="70.157314" style="fill: #1f77b4; stroke: #1f77b4"/>
     <use xlink:href="#m6b9d090dc5" x="81.096199" y="48.905374" style="fill: #1f77b4; stroke: #1f77b4"/>
     <use xlink:href="#m6b9d090dc5" x="27.858267" y="100.857397" style="fill: #1f77b4; stroke: #1f77b4"/>
     <use xlink:href="#m6b9d090dc5" x="50.198236" y="73.649193" style="fill: #1f77b4; stroke: #1f77b4"/>
     <use xlink:href="#m6b9d090dc5" x="38.698008" y="93.314963" style="fill: #1f77b4; stroke: #1f77b4"/>
     <use xlink:href="#m6b9d090dc5" x="34.675481" y="87.34553" style="fill: #1f77b4; stroke: #1f77b4"/>
     <use xlink:href="#m6b9d090dc5" x="41.618167" y="69.866387" style="fill: #1f77b4; stroke: #1f77b4"/>
     <use xlink:href="#m6b9d090dc5" x="53.393661" y="64.874961" style="fill: #1f77b4; stroke: #1f77b4"/>
     <use xlink:href="#m6b9d090dc5" x="57.178864" y="67.992997" style="fill: #1f77b4; stroke: #1f77b4"/>
     <use xlink:href="#m6b9d090dc5" x="67.679145" y="62.63602" style="fill: #1f77b4; stroke: #1f77b4"/>
     <use xlink:href="#m6b9d090dc5" x="58.836671" y="70.440136" style="fill: #1f77b4; stroke: #1f77b4"/>
     <use xlink:href="#m6b9d090dc5" x="78.501238" y="32.74195" style="fill: #1f77b4; stroke: #1f77b4"/>
     <use xlink:href="#m6b9d090dc5" x="42.962923" y="80.415319" style="fill: #1f77b4; stroke: #1f77b4"/>
     <use xlink:href="#m6b9d090dc5" x="92.760253" y="35.702231" style="fill: #1f77b4; stroke: #1f77b4"/>
     <use xlink:href="#m6b9d090dc5" x="29.874303" y="92.468262" style="fill: #1f77b4; stroke: #1f77b4"/>
     <use xlink:href="#m6b9d090dc5" x="77.410771" y="30.817956" style="fill: #1f77b4; stroke: #1f77b4"/>
     <use xlink:href="#m6b9d090dc5" x="58.696983" y="64.168614" style="fill: #1f77b4; stroke: #1f77b4"/>
     <use xlink:href="#m6b9d090dc5" x="69.148165" y="50.043282" style="fill: #1f77b4; stroke: #1f77b4"/>
     <use xlink:href="#m6b9d090dc5" x="38.227215" y="83.307738" style="fill: #1f77b4; stroke: #1f77b4"/>
     <use xlink:href="#m6b9d090dc5" x="42.493475" y="83.864169" style="fill: #1f77b4; stroke: #1f77b4"/>
     <use xlink:href="#m6b9d090dc5" x="87.040851" y="45.158456" style="fill: #1f77b4; stroke: #1f77b4"/>
     <use xlink:href="#m6b9d090dc5" x="99.423708" y="26.912446" style="fill: #1f77b4; stroke: #1f77b4"/>
     <use xlink:href="#m6b9d090dc5" x="51.018128" y="74.279831" style="fill: #1f77b4; stroke: #1f77b4"/>
     <use xlink:href="#m6b9d090dc5" x="79.0263" y="40.391194" style="fill: #1f77b4; stroke: #1f77b4"/>
     <use xlink:href="#m6b9d090dc5" x="92.632499" y="24.919548" style="fill: #1f77b4; stroke: #1f77b4"/>
     <use xlink:href="#m6b9d090dc5" x="93.979137" y="22.891969" style="fill: #1f77b4; stroke: #1f77b4"/>
     <use xlink:href="#m6b9d090dc5" x="34.136281" y="87.50647" style="fill: #1f77b4; stroke: #1f77b4"/>
     <use xlink:href="#m6b9d090dc5" x="30.736742" y="86.474107" style="fill: #1f77b4; stroke: #1f77b4"/>
     <use xlink:href="#m6b9d090dc5" x="40.403677" y="88.926645" style="fill: #1f77b4; stroke: #1f77b4"/>
     <use xlink:href="#m6b9d090dc5" x="92.762106" y="21.730505" style="fill: #1f77b4; stroke: #1f77b4"/>
     <use xlink:href="#m6b9d090dc5" x="35.11961" y="84.842625" style="fill: #1f77b4; stroke: #1f77b4"/>
     <use xlink:href="#m6b9d090dc5" x="58.978088" y="66.979227" style="fill: #1f77b4; stroke: #1f77b4"/>
     <use xlink:href="#m6b9d090dc5" x="98.657007" y="21.48568" style="fill: #1f77b4; stroke: #1f77b4"/>
     <use xlink:href="#m6b9d090dc5" x="67.26139" y="57.051048" style="fill: #1f77b4; stroke: #1f77b4"/>
     <use xlink:href="#m6b9d090dc5" x="78.993369" y="36.395439" style="fill: #1f77b4; stroke: #1f77b4"/>
     <use xlink:href="#m6b9d090dc5" x="51.172728" y="61.346599" style="fill: #1f77b4; stroke: #1f77b4"/>
     <use xlink:href="#m6b9d090dc5" x="78.595961" y="29.002078" style="fill: #1f77b4; stroke: #1f77b4"/>
     <use xlink:href="#m6b9d090dc5" x="89.545342" y="44.531371" style="fill: #1f77b4; stroke: #1f77b4"/>
     <use xlink:href="#m6b9d090dc5" x="29.201682" y="105.22702" style="fill: #1f77b4; stroke: #1f77b4"/>
     <use xlink:href="#m6b9d090dc5" x="83.30048" y="44.182344" style="fill: #1f77b4; stroke: #1f77b4"/>
     <use xlink:href="#m6b9d090dc5" x="100.946424" y="21.624394" style="fill: #1f77b4; stroke: #1f77b4"/>
     <use xlink:href="#m6b9d090dc5" x="83.154218" y="34.122954" style="fill: #1f77b4; stroke: #1f77b4"/>
     <use xlink:href="#m6b9d090dc5" x="48.580232" y="72.840407" style="fill: #1f77b4; stroke: #1f77b4"/>
     <use xlink:href="#m6b9d090dc5" x="86.19334" y="52.508583" style="fill: #1f77b4; stroke: #1f77b4"/>
     <use xlink:href="#m6b9d090dc5" x="35.480279" y="90.536994" style="fill: #1f77b4; stroke: #1f77b4"/>
     <use xlink:href="#m6b9d090dc5" x="60.958102" y="56.675322" style="fill: #1f77b4; stroke: #1f77b4"/>
     <use xlink:href="#m6b9d090dc5" x="95.013192" y="27.03976" style="fill: #1f77b4; stroke: #1f77b4"/>
     <use xlink:href="#m6b9d090dc5" x="49.55377" y="68.567256" style="fill: #1f77b4; stroke: #1f77b4"/>
     <use xlink:href="#m6b9d090dc5" x="49.122166" y="76.275097" style="fill: #1f77b4; stroke: #1f77b4"/>
     <use xlink:href="#m6b9d090dc5" x="37.461525" y="87.776292" style="fill: #1f77b4; stroke: #1f77b4"/>
    </g>
   </g>
   <g id="line2d_2">
    <path d="M 20.457813 103.296 
L 109.161813 14.592 
" clip-path="url(#p15db3b45ee)" style="fill: none; stroke: #ff7f0e; stroke-linecap: square"/>
   </g>
   <g id="patch_3">
    <path d="M 20.457813 118.08 
L 20.457813 7.2 
" style="fill: none; stroke: #808080; stroke-width: 0.8; stroke-linejoin: miter; stroke-linecap: square"/>
   </g>
   <g id="patch_4">
    <path d="M 109.161813 118.08 
L 109.161813 7.2 
" style="fill: none; stroke: #808080; stroke-width: 0.8; stroke-linejoin: miter; stroke-linecap: square"/>
   </g>
   <g id="patch_5">
    <path d="M 20.457813 118.08 
L 109.161813 118.08 
" style="fill: none; stroke: #808080; stroke-width: 0.8; stroke-linejoin: miter; stroke-linecap: square"/>
   </g>
   <g id="patch_6">
    <path d="M 20.457813 7.2 
L 109.161813 7.2 
" style="fill: none; stroke: #808080; stroke-width: 0.8; stroke-linejoin: miter; stroke-linecap: square"/>
   </g>
   <g id="legend_1">
    <g id="patch_7">
     <path d="M 47.861813 113.08 
L 102.161813 113.08 
Q 104.161813 113.08 104.161813 111.08 
L 104.161813 82.822188 
Q 104.161813 80.822188 102.161813 80.822188 
L 47.861813 80.822188 
Q 45.861813 80.822188 45.861813 82.822188 
L 45.861813 111.08 
Q 45.861813 113.08 47.861813 113.08 
z
" style="fill: #ffffff; opacity: 0.8; stroke: #cccccc; stroke-linejoin: miter"/>
    </g>
    <g id="line2d_3">
     <g>
      <use xlink:href="#m6b9d090dc5" x="59.861813" y="88.495625" style="fill: #1f77b4; stroke: #1f77b4"/>
     </g>
    </g>
    <g id="text_3">
     <!-- $\mathcal{D}$ -->
     <g transform="translate(77.861813 91.995625) scale(0.1 -0.1)">
      <defs>
       <path id="Cmsy10-44" d="M 488 50 
Q 488 141 634 233 
Q 781 325 897 366 
Q 1263 1300 1447 2059 
Q 1694 3056 1766 3994 
Q 1425 3994 1094 3872 
Q 922 3803 833 3695 
Q 744 3588 684 3397 
Q 622 3291 472 3197 
Q 322 3103 206 3103 
L 166 3103 
Q 122 3131 122 3169 
Q 234 3556 581 3828 
Q 928 4100 1387 4236 
Q 1847 4372 2259 4372 
L 2888 4372 
Q 3269 4372 3622 4297 
Q 3975 4222 4267 4048 
Q 4559 3875 4731 3587 
Q 4903 3300 4903 2894 
Q 4903 2266 4572 1728 
Q 4241 1191 3691 802 
Q 3141 413 2506 206 
Q 1872 0 1281 0 
L 531 0 
Q 519 6 503 18 
Q 488 31 488 50 
z
M 1369 378 
L 1691 378 
Q 2194 378 2662 528 
Q 3131 678 3509 968 
Q 3888 1259 4109 1681 
Q 4331 2103 4331 2613 
Q 4331 3119 4053 3430 
Q 3775 3741 3337 3867 
Q 2900 3994 2406 3994 
L 2309 3994 
Q 2238 3200 2016 2316 
Q 1775 1353 1369 378 
z
" transform="scale(0.015625)"/>
      </defs>
      <use xlink:href="#Cmsy10-44" transform="translate(0 0.6875)"/>
     </g>
    </g>
    <g id="line2d_4">
     <path d="M 49.861813 103.08 
L 59.861813 103.08 
L 69.861813 103.08 
" style="fill: none; stroke: #ff7f0e; stroke-linecap: square"/>
    </g>
    <g id="text_4">
     <!-- $f_\theta(x)$ -->
     <g transform="translate(77.861813 106.58) scale(0.1 -0.1)">
      <defs>
       <path id="Cmmi10-66" d="M 622 -1056 
Q 741 -1147 909 -1147 
Q 1138 -1147 1281 -641 
Q 1341 -397 1606 966 
L 1900 2534 
L 1350 2534 
Q 1288 2534 1288 2619 
Q 1313 2759 1369 2759 
L 1941 2759 
L 2016 3175 
Q 2053 3369 2084 3508 
Q 2116 3647 2152 3765 
Q 2188 3884 2259 4031 
Q 2369 4241 2555 4377 
Q 2741 4513 2956 4513 
Q 3097 4513 3230 4461 
Q 3363 4409 3447 4306 
Q 3531 4203 3531 4063 
Q 3531 3900 3423 3779 
Q 3316 3659 3163 3659 
Q 3059 3659 2986 3723 
Q 2913 3788 2913 3891 
Q 2913 4031 3008 4136 
Q 3103 4241 3244 4256 
Q 3125 4347 2950 4347 
Q 2853 4347 2767 4256 
Q 2681 4166 2656 4063 
Q 2616 3900 2478 3181 
L 2400 2759 
L 3059 2759 
Q 3122 2759 3122 2675 
Q 3119 2659 3109 2620 
Q 3100 2581 3083 2557 
Q 3066 2534 3041 2534 
L 2356 2534 
L 2059 972 
Q 2003 631 1929 279 
Q 1856 -72 1723 -442 
Q 1591 -813 1384 -1063 
Q 1178 -1313 897 -1313 
Q 681 -1313 511 -1189 
Q 341 -1066 341 -863 
Q 341 -700 445 -579 
Q 550 -459 709 -459 
Q 816 -459 887 -523 
Q 959 -588 959 -691 
Q 959 -828 857 -942 
Q 756 -1056 622 -1056 
z
" transform="scale(0.015625)"/>
       <path id="Cmmi10-b5" d="M 1031 -72 
Q 741 -72 566 140 
Q 391 353 323 653 
Q 256 953 256 1247 
L 256 1253 
Q 256 1572 317 1915 
Q 378 2259 493 2601 
Q 609 2944 744 3213 
Q 838 3400 986 3631 
Q 1134 3863 1317 4064 
Q 1500 4266 1711 4389 
Q 1922 4513 2138 4513 
L 2144 4513 
Q 2375 4513 2529 4384 
Q 2684 4256 2770 4056 
Q 2856 3856 2890 3628 
Q 2925 3400 2925 3194 
Q 2925 2709 2794 2204 
Q 2663 1700 2431 1228 
Q 2344 1050 2189 809 
Q 2034 569 1861 378 
Q 1688 188 1472 58 
Q 1256 -72 1038 -72 
L 1031 -72 
z
M 1044 97 
Q 1256 97 1451 323 
Q 1647 550 1794 873 
Q 1941 1197 2052 1536 
Q 2163 1875 2216 2113 
L 909 2113 
Q 809 1709 753 1417 
Q 697 1125 697 844 
Q 697 97 1044 97 
z
M 959 2338 
L 2272 2338 
Q 2341 2619 2381 2808 
Q 2422 2997 2450 3206 
Q 2478 3416 2478 3597 
Q 2478 4347 2138 4347 
Q 1731 4347 1436 3692 
Q 1141 3038 959 2338 
z
" transform="scale(0.015625)"/>
       <path id="Cmr10-28" d="M 1984 -1588 
Q 1628 -1306 1370 -942 
Q 1113 -578 948 -165 
Q 784 247 703 697 
Q 622 1147 622 1600 
Q 622 2059 703 2509 
Q 784 2959 951 3375 
Q 1119 3791 1378 4153 
Q 1638 4516 1984 4788 
Q 1984 4800 2016 4800 
L 2075 4800 
Q 2094 4800 2109 4783 
Q 2125 4766 2125 4744 
Q 2125 4716 2113 4703 
Q 1800 4397 1592 4047 
Q 1384 3697 1257 3301 
Q 1131 2906 1075 2482 
Q 1019 2059 1019 1600 
Q 1019 -434 2106 -1491 
Q 2125 -1509 2125 -1544 
Q 2125 -1559 2108 -1579 
Q 2091 -1600 2075 -1600 
L 2016 -1600 
Q 1984 -1600 1984 -1588 
z
" transform="scale(0.015625)"/>
       <path id="Cmmi10-78" d="M 500 184 
Q 613 97 819 97 
Q 1019 97 1172 289 
Q 1325 481 1381 709 
L 1672 1844 
Q 1741 2153 1741 2266 
Q 1741 2425 1652 2544 
Q 1563 2663 1403 2663 
Q 1200 2663 1022 2536 
Q 844 2409 722 2214 
Q 600 2019 550 1819 
Q 538 1778 500 1778 
L 422 1778 
Q 372 1778 372 1838 
L 372 1856 
Q 434 2094 584 2320 
Q 734 2547 951 2687 
Q 1169 2828 1416 2828 
Q 1650 2828 1839 2703 
Q 2028 2578 2106 2363 
Q 2216 2559 2386 2693 
Q 2556 2828 2759 2828 
Q 2897 2828 3040 2779 
Q 3184 2731 3275 2631 
Q 3366 2531 3366 2381 
Q 3366 2219 3261 2101 
Q 3156 1984 2994 1984 
Q 2891 1984 2822 2050 
Q 2753 2116 2753 2216 
Q 2753 2350 2845 2451 
Q 2938 2553 3066 2572 
Q 2950 2663 2747 2663 
Q 2541 2663 2389 2472 
Q 2238 2281 2175 2047 
L 1894 916 
Q 1825 659 1825 494 
Q 1825 331 1917 214 
Q 2009 97 2163 97 
Q 2463 97 2698 361 
Q 2934 625 3009 941 
Q 3022 978 3059 978 
L 3138 978 
Q 3163 978 3178 961 
Q 3194 944 3194 922 
Q 3194 916 3188 903 
Q 3097 522 2806 225 
Q 2516 -72 2150 -72 
Q 1916 -72 1727 54 
Q 1538 181 1459 397 
Q 1359 209 1182 68 
Q 1006 -72 806 -72 
Q 669 -72 523 -23 
Q 378 25 287 125 
Q 197 225 197 378 
Q 197 528 301 651 
Q 406 775 563 775 
Q 669 775 741 711 
Q 813 647 813 544 
Q 813 409 723 309 
Q 634 209 500 184 
z
" transform="scale(0.015625)"/>
       <path id="Cmr10-29" d="M 416 -1600 
Q 359 -1600 359 -1544 
Q 359 -1516 372 -1503 
Q 1466 -434 1466 1600 
Q 1466 3634 384 4691 
Q 359 4706 359 4744 
Q 359 4766 376 4783 
Q 394 4800 416 4800 
L 475 4800 
Q 494 4800 506 4788 
Q 966 4425 1272 3906 
Q 1578 3388 1720 2800 
Q 1863 2213 1863 1600 
Q 1863 1147 1786 708 
Q 1709 269 1542 -157 
Q 1375 -584 1119 -945 
Q 863 -1306 506 -1588 
Q 494 -1600 475 -1600 
L 416 -1600 
z
" transform="scale(0.015625)"/>
      </defs>
      <use xlink:href="#Cmmi10-66"/>
      <use xlink:href="#Cmmi10-b5" transform="translate(48.876953 -17.00625) scale(0.7)"/>
      <use xlink:href="#Cmr10-28" transform="translate(88.100977 0)"/>
      <use xlink:href="#Cmmi10-78" transform="translate(126.919336 0)"/>
      <use xlink:href="#Cmr10-29" transform="translate(183.999414 0)"/>
     </g>
    </g>
   </g>
  </g>
 </g>
 <defs>
  <clipPath id="p15db3b45ee">
   <rect x="20.457813" y="7.2" width="88.704" height="110.88"/>
  </clipPath>
 </defs>
</svg>
