<?xml version="1.0" encoding="utf-8" standalone="no"?>
<!DOCTYPE svg PUBLIC "-//W3C//DTD SVG 1.1//EN"
  "http://www.w3.org/Graphics/SVG/1.1/DTD/svg11.dtd">
<svg xmlns:xlink="http://www.w3.org/1999/xlink" width="116.361813pt" height="138.537813pt" viewBox="0 0 116.361813 138.537813" xmlns="http://www.w3.org/2000/svg" version="1.1">
 <metadata>
  <rdf:RDF xmlns:dc="http://purl.org/dc/elements/1.1/" xmlns:cc="http://creativecommons.org/ns#" xmlns:rdf="http://www.w3.org/1999/02/22-rdf-syntax-ns#">
   <cc:Work>
    <dc:type rdf:resource="http://purl.org/dc/dcmitype/StillImage"/>
    <dc:date>2024-11-08T11:10:32.531934</dc:date>
    <dc:format>image/svg+xml</dc:format>
    <dc:creator>
     <cc:Agent>
      <dc:title>Matplotlib v3.8.2, https://matplotlib.org/</dc:title>
     </cc:Agent>
    </dc:creator>
   </cc:Work>
  </rdf:RDF>
 </metadata>
 <defs>
  <style type="text/css">*{stroke-linejoin: round; stroke-linecap: butt}</style>
 </defs>
 <g id="figure_1">
  <g id="patch_1">
   <path d="M 0 138.537813 
L 116.361813 138.537813 
L 116.361813 0 
L 0 0 
L 0 138.537813 
z
" style="fill: none"/>
  </g>
  <g id="axes_1">
   <g id="patch_2">
    <path d="M 20.457813 118.08 
L 109.161813 118.08 
L 109.161813 7.2 
L 20.457813 7.2 
z
" style="fill: #ffffff; fill-opacity: 0.333333"/>
   </g>
   <g id="matplotlib.axis_1">
    <g id="text_1">
     <!-- x -->
     <g style="fill: #808080" transform="translate(62.309813 129.253437) scale(0.1 -0.1)">
      <defs>
       <path id="Helvetica-78" d="M 94 3347 
L 822 3347 
L 1591 2169 
L 2369 3347 
L 3053 3331 
L 1925 1716 
L 3103 0 
L 2384 0 
L 1553 1256 
L 747 0 
L 34 0 
L 1213 1716 
L 94 3347 
z
" transform="scale(0.015625)"/>
      </defs>
      <use xlink:href="#Helvetica-78"/>
     </g>
    </g>
   </g>
   <g id="matplotlib.axis_2">
    <g id="text_2">
     <!-- y -->
     <g style="fill: #808080" transform="translate(14.314063 65.14) rotate(-90) scale(0.1 -0.1)">
      <defs>
       <path id="Helvetica-79" d="M 2503 3347 
L 3125 3347 
Q 3006 3025 2597 1878 
Q 2291 1016 2084 472 
Q 1597 -809 1397 -1090 
Q 1197 -1372 709 -1372 
Q 591 -1372 527 -1362 
Q 463 -1353 369 -1328 
L 369 -816 
Q 516 -856 581 -865 
Q 647 -875 697 -875 
Q 853 -875 926 -823 
Q 1000 -772 1050 -697 
Q 1066 -672 1162 -440 
Q 1259 -209 1303 -97 
L 66 3347 
L 703 3347 
L 1600 622 
L 2503 3347 
z
M 1597 3428 
L 1597 3428 
z
" transform="scale(0.015625)"/>
      </defs>
      <use xlink:href="#Helvetica-79"/>
     </g>
    </g>
   </g>
   <g id="line2d_1">
    <defs>
     <path id="m509abae9b1" d="M 0 1.5 
C 0.397805 1.5 0.77937 1.341951 1.06066 1.06066 
C 1.341951 0.77937 1.5 0.397805 1.5 0 
C 1.5 -0.397805 1.341951 -0.77937 1.06066 -1.06066 
C 0.77937 -1.341951 0.397805 -1.5 0 -1.5 
C -0.397805 -1.5 -0.77937 -1.341951 -1.06066 -1.06066 
C -1.341951 -0.77937 -1.5 -0.397805 -1.5 0 
C -1.5 0.397805 -1.341951 0.77937 -1.06066 1.06066 
C -0.77937 1.341951 -0.397805 1.5 0 1.5 
z
" style="stroke: #1f77b4"/>
    </defs>
    <g clip-path="url(#pd8f6f04c48)">
     <use xlink:href="#m509abae9b1" x="58.676079" y="70.157314" style="fill: #1f77b4; stroke: #1f77b4"/>
     <use xlink:href="#m509abae9b1" x="81.096199" y="48.905374" style="fill: #1f77b4; stroke: #1f77b4"/>
     <use xlink:href="#m509abae9b1" x="27.858267" y="100.857397" style="fill: #1f77b4; stroke: #1f77b4"/>
     <use xlink:href="#m509abae9b1" x="50.198236" y="73.649193" style="fill: #1f77b4; stroke: #1f77b4"/>
     <use xlink:href="#m509abae9b1" x="38.698008" y="93.314963" style="fill: #1f77b4; stroke: #1f77b4"/>
     <use xlink:href="#m509abae9b1" x="34.675481" y="87.34553" style="fill: #1f77b4; stroke: #1f77b4"/>
     <use xlink:href="#m509abae9b1" x="41.618167" y="69.866387" style="fill: #1f77b4; stroke: #1f77b4"/>
     <use xlink:href="#m509abae9b1" x="53.393661" y="64.874961" style="fill: #1f77b4; stroke: #1f77b4"/>
     <use xlink:href="#m509abae9b1" x="57.178864" y="67.992997" style="fill: #1f77b4; stroke: #1f77b4"/>
     <use xlink:href="#m509abae9b1" x="67.679145" y="62.63602" style="fill: #1f77b4; stroke: #1f77b4"/>
     <use xlink:href="#m509abae9b1" x="58.836671" y="70.440136" style="fill: #1f77b4; stroke: #1f77b4"/>
     <use xlink:href="#m509abae9b1" x="78.501238" y="32.74195" style="fill: #1f77b4; stroke: #1f77b4"/>
     <use xlink:href="#m509abae9b1" x="42.962923" y="80.415319" style="fill: #1f77b4; stroke: #1f77b4"/>
     <use xlink:href="#m509abae9b1" x="92.760253" y="35.702231" style="fill: #1f77b4; stroke: #1f77b4"/>
     <use xlink:href="#m509abae9b1" x="29.874303" y="92.468262" style="fill: #1f77b4; stroke: #1f77b4"/>
     <use xlink:href="#m509abae9b1" x="77.410771" y="30.817956" style="fill: #1f77b4; stroke: #1f77b4"/>
     <use xlink:href="#m509abae9b1" x="58.696983" y="64.168614" style="fill: #1f77b4; stroke: #1f77b4"/>
     <use xlink:href="#m509abae9b1" x="69.148165" y="50.043282" style="fill: #1f77b4; stroke: #1f77b4"/>
     <use xlink:href="#m509abae9b1" x="38.227215" y="83.307738" style="fill: #1f77b4; stroke: #1f77b4"/>
     <use xlink:href="#m509abae9b1" x="42.493475" y="83.864169" style="fill: #1f77b4; stroke: #1f77b4"/>
     <use xlink:href="#m509abae9b1" x="87.040851" y="45.158456" style="fill: #1f77b4; stroke: #1f77b4"/>
     <use xlink:href="#m509abae9b1" x="99.423708" y="26.912446" style="fill: #1f77b4; stroke: #1f77b4"/>
     <use xlink:href="#m509abae9b1" x="51.018128" y="74.279831" style="fill: #1f77b4; stroke: #1f77b4"/>
     <use xlink:href="#m509abae9b1" x="79.0263" y="40.391194" style="fill: #1f77b4; stroke: #1f77b4"/>
     <use xlink:href="#m509abae9b1" x="92.632499" y="24.919548" style="fill: #1f77b4; stroke: #1f77b4"/>
     <use xlink:href="#m509abae9b1" x="93.979137" y="22.891969" style="fill: #1f77b4; stroke: #1f77b4"/>
     <use xlink:href="#m509abae9b1" x="34.136281" y="87.50647" style="fill: #1f77b4; stroke: #1f77b4"/>
     <use xlink:href="#m509abae9b1" x="30.736742" y="86.474107" style="fill: #1f77b4; stroke: #1f77b4"/>
     <use xlink:href="#m509abae9b1" x="40.403677" y="88.926645" style="fill: #1f77b4; stroke: #1f77b4"/>
     <use xlink:href="#m509abae9b1" x="92.762106" y="21.730505" style="fill: #1f77b4; stroke: #1f77b4"/>
     <use xlink:href="#m509abae9b1" x="35.11961" y="84.842625" style="fill: #1f77b4; stroke: #1f77b4"/>
     <use xlink:href="#m509abae9b1" x="58.978088" y="66.979227" style="fill: #1f77b4; stroke: #1f77b4"/>
     <use xlink:href="#m509abae9b1" x="98.657007" y="21.48568" style="fill: #1f77b4; stroke: #1f77b4"/>
     <use xlink:href="#m509abae9b1" x="67.26139" y="57.051048" style="fill: #1f77b4; stroke: #1f77b4"/>
     <use xlink:href="#m509abae9b1" x="78.993369" y="36.395439" style="fill: #1f77b4; stroke: #1f77b4"/>
     <use xlink:href="#m509abae9b1" x="51.172728" y="61.346599" style="fill: #1f77b4; stroke: #1f77b4"/>
     <use xlink:href="#m509abae9b1" x="78.595961" y="29.002078" style="fill: #1f77b4; stroke: #1f77b4"/>
     <use xlink:href="#m509abae9b1" x="89.545342" y="44.531371" style="fill: #1f77b4; stroke: #1f77b4"/>
     <use xlink:href="#m509abae9b1" x="29.201682" y="105.22702" style="fill: #1f77b4; stroke: #1f77b4"/>
     <use xlink:href="#m509abae9b1" x="83.30048" y="44.182344" style="fill: #1f77b4; stroke: #1f77b4"/>
     <use xlink:href="#m509abae9b1" x="100.946424" y="21.624394" style="fill: #1f77b4; stroke: #1f77b4"/>
     <use xlink:href="#m509abae9b1" x="83.154218" y="34.122954" style="fill: #1f77b4; stroke: #1f77b4"/>
     <use xlink:href="#m509abae9b1" x="48.580232" y="72.840407" style="fill: #1f77b4; stroke: #1f77b4"/>
     <use xlink:href="#m509abae9b1" x="86.19334" y="52.508583" style="fill: #1f77b4; stroke: #1f77b4"/>
     <use xlink:href="#m509abae9b1" x="35.480279" y="90.536994" style="fill: #1f77b4; stroke: #1f77b4"/>
     <use xlink:href="#m509abae9b1" x="60.958102" y="56.675322" style="fill: #1f77b4; stroke: #1f77b4"/>
     <use xlink:href="#m509abae9b1" x="95.013192" y="27.03976" style="fill: #1f77b4; stroke: #1f77b4"/>
     <use xlink:href="#m509abae9b1" x="49.55377" y="68.567256" style="fill: #1f77b4; stroke: #1f77b4"/>
     <use xlink:href="#m509abae9b1" x="49.122166" y="76.275097" style="fill: #1f77b4; stroke: #1f77b4"/>
     <use xlink:href="#m509abae9b1" x="37.461525" y="87.776292" style="fill: #1f77b4; stroke: #1f77b4"/>
    </g>
   </g>
   <g id="line2d_2">
    <path d="M 20.457813 103.296 
L 109.161813 14.592 
" clip-path="url(#pd8f6f04c48)" style="fill: none; stroke: #ff7f0e; stroke-linecap: square"/>
   </g>
   <g id="patch_3">
    <path d="M 20.457813 118.08 
L 20.457813 7.2 
" style="fill: none; stroke: #808080; stroke-width: 0.8; stroke-linejoin: miter; stroke-linecap: square"/>
   </g>
   <g id="patch_4">
    <path d="M 109.161813 118.08 
L 109.161813 7.2 
" style="fill: none; stroke: #808080; stroke-width: 0.8; stroke-linejoin: miter; stroke-linecap: square"/>
   </g>
   <g id="patch_5">
    <path d="M 20.457813 118.08 
L 109.161813 118.08 
" style="fill: none; stroke: #808080; stroke-width: 0.8; stroke-linejoin: miter; stroke-linecap: square"/>
   </g>
   <g id="patch_6">
    <path d="M 20.457813 7.2 
L 109.161813 7.2 
" style="fill: none; stroke: #808080; stroke-width: 0.8; stroke-linejoin: miter; stroke-linecap: square"/>
   </g>
   <g id="legend_1">
    <g id="patch_7">
     <path d="M 48.361813 113.08 
L 102.161813 113.08 
Q 104.161813 113.08 104.161813 111.08 
L 104.161813 83.422188 
Q 104.161813 81.422188 102.161813 81.422188 
L 48.361813 81.422188 
Q 46.361813 81.422188 46.361813 83.422188 
L 46.361813 111.08 
Q 46.361813 113.08 48.361813 113.08 
z
" style="fill: #ffffff; opacity: 0.8; stroke: #cccccc; stroke-linejoin: miter"/>
    </g>
    <g id="line2d_3">
     <g>
      <use xlink:href="#m509abae9b1" x="60.361813" y="89.095625" style="fill: #1f77b4; stroke: #1f77b4"/>
     </g>
    </g>
    <g id="text_3">
     <!-- $\mathcal{D}$ -->
     <g transform="translate(78.361813 92.595625) scale(0.1 -0.1)">
      <defs>
       <path id="STIXNonUnicode-Italic-e230" d="M 314 3418 
L 218 3539 
Q 621 3923 1126 4083 
Q 1619 4237 2490 4237 
Q 3475 4237 4028 4080 
Q 4582 3923 4812 3596 
Q 5043 3270 5043 2701 
Q 5043 2349 4950 1993 
Q 4858 1638 4634 1273 
Q 4410 909 4070 630 
Q 3731 352 3190 176 
Q 2650 0 1978 0 
L 333 0 
L 378 154 
Q 576 154 678 275 
Q 781 397 870 710 
L 1491 2867 
Q 1517 2957 1581 3155 
Q 1645 3354 1673 3466 
Q 1702 3578 1702 3642 
Q 1702 3878 1414 3878 
Q 877 3878 314 3418 
z
M 2438 3750 
L 1510 557 
Q 1478 454 1478 390 
Q 1478 307 1568 281 
Q 1658 256 1856 256 
Q 2093 256 2355 297 
Q 2618 339 2989 489 
Q 3360 640 3645 886 
Q 3930 1133 4134 1597 
Q 4339 2061 4339 2675 
Q 4339 3328 3977 3654 
Q 3616 3981 2758 3981 
Q 2643 3981 2553 3913 
Q 2464 3846 2438 3750 
z
" transform="scale(0.015625)"/>
      </defs>
      <use xlink:href="#STIXNonUnicode-Italic-e230" transform="translate(0 0.796875)"/>
     </g>
    </g>
    <g id="line2d_4">
     <path d="M 50.361813 103.495625 
L 60.361813 103.495625 
L 70.361813 103.495625 
" style="fill: none; stroke: #ff7f0e; stroke-linecap: square"/>
    </g>
    <g id="text_4">
     <!-- $f_\theta(x)$ -->
     <g transform="translate(78.361813 106.995625) scale(0.1 -0.1)">
      <defs>
       <path id="DejaVuSans-Oblique-66" d="M 3059 4863 
L 2969 4384 
L 2419 4384 
Q 2106 4384 1964 4261 
Q 1822 4138 1753 3809 
L 1691 3500 
L 2638 3500 
L 2553 3053 
L 1606 3053 
L 1013 0 
L 434 0 
L 1031 3053 
L 481 3053 
L 563 3500 
L 1113 3500 
L 1159 3744 
Q 1278 4363 1576 4613 
Q 1875 4863 2516 4863 
L 3059 4863 
z
" transform="scale(0.015625)"/>
       <path id="DejaVuSans-Oblique-3b8" d="M 2913 2219 
L 925 2219 
Q 791 1284 928 888 
Q 1100 400 1566 400 
Q 2034 400 2391 891 
Q 2703 1322 2913 2219 
z
M 3009 2750 
Q 3094 3638 2984 3950 
Q 2813 4444 2353 4444 
Q 1875 4444 1525 3956 
Q 1250 3563 1034 2750 
L 3009 2750 
z
M 2444 4913 
Q 3194 4913 3494 4250 
Q 3794 3591 3566 2422 
Q 3341 1256 2781 594 
Q 2225 -72 1475 -72 
Q 722 -72 425 594 
Q 128 1256 353 2422 
Q 581 3591 1134 4250 
Q 1691 4913 2444 4913 
z
" transform="scale(0.015625)"/>
       <path id="DejaVuSans-28" d="M 1984 4856 
Q 1566 4138 1362 3434 
Q 1159 2731 1159 2009 
Q 1159 1288 1364 580 
Q 1569 -128 1984 -844 
L 1484 -844 
Q 1016 -109 783 600 
Q 550 1309 550 2009 
Q 550 2706 781 3412 
Q 1013 4119 1484 4856 
L 1984 4856 
z
" transform="scale(0.015625)"/>
       <path id="DejaVuSans-Oblique-78" d="M 3841 3500 
L 2234 1784 
L 3219 0 
L 2559 0 
L 1819 1388 
L 531 0 
L -166 0 
L 1556 1844 
L 641 3500 
L 1300 3500 
L 1972 2234 
L 3144 3500 
L 3841 3500 
z
" transform="scale(0.015625)"/>
       <path id="DejaVuSans-29" d="M 513 4856 
L 1013 4856 
Q 1481 4119 1714 3412 
Q 1947 2706 1947 2009 
Q 1947 1309 1714 600 
Q 1481 -109 1013 -844 
L 513 -844 
Q 928 -128 1133 580 
Q 1338 1288 1338 2009 
Q 1338 2731 1133 3434 
Q 928 4138 513 4856 
z
" transform="scale(0.015625)"/>
      </defs>
      <use xlink:href="#DejaVuSans-Oblique-66" transform="translate(0 0.015625)"/>
      <use xlink:href="#DejaVuSans-Oblique-3b8" transform="translate(35.205078 -16.390625) scale(0.7)"/>
      <use xlink:href="#DejaVuSans-28" transform="translate(80.766602 0.015625)"/>
      <use xlink:href="#DejaVuSans-Oblique-78" transform="translate(119.780273 0.015625)"/>
      <use xlink:href="#DejaVuSans-29" transform="translate(178.959961 0.015625)"/>
     </g>
    </g>
   </g>
  </g>
 </g>
 <defs>
  <clipPath id="pd8f6f04c48">
   <rect x="20.457813" y="7.2" width="88.704" height="110.88"/>
  </clipPath>
 </defs>
</svg>
