<?xml version="1.0" encoding="utf-8" standalone="no"?>
<!DOCTYPE svg PUBLIC "-//W3C//DTD SVG 1.1//EN"
  "http://www.w3.org/Graphics/SVG/1.1/DTD/svg11.dtd">
<svg xmlns:xlink="http://www.w3.org/1999/xlink" width="116.361813pt" height="138.537813pt" viewBox="0 0 116.361813 138.537813" xmlns="http://www.w3.org/2000/svg" version="1.1">
 <metadata>
  <rdf:RDF xmlns:dc="http://purl.org/dc/elements/1.1/" xmlns:cc="http://creativecommons.org/ns#" xmlns:rdf="http://www.w3.org/1999/02/22-rdf-syntax-ns#">
   <cc:Work>
    <dc:type rdf:resource="http://purl.org/dc/dcmitype/StillImage"/>
    <dc:date>2024-11-08T11:10:32.709925</dc:date>
    <dc:format>image/svg+xml</dc:format>
    <dc:creator>
     <cc:Agent>
      <dc:title>Matplotlib v3.8.2, https://matplotlib.org/</dc:title>
     </cc:Agent>
    </dc:creator>
   </cc:Work>
  </rdf:RDF>
 </metadata>
 <defs>
  <style type="text/css">*{stroke-linejoin: round; stroke-linecap: butt}</style>
 </defs>
 <g id="figure_1">
  <g id="patch_1">
   <path d="M 0 138.537813 
L 116.361813 138.537813 
L 116.361813 0 
L 0 0 
L 0 138.537813 
z
" style="fill: none"/>
  </g>
  <g id="axes_1">
   <g id="patch_2">
    <path d="M 20.457813 118.08 
L 109.161813 118.08 
L 109.161813 7.2 
L 20.457813 7.2 
z
" style="fill: #ffffff; fill-opacity: 0.333333"/>
   </g>
   <g id="matplotlib.axis_1">
    <g id="text_1">
     <!-- $x_1$ -->
     <g style="fill: #808080" transform="translate(59.459813 129.253437) scale(0.1 -0.1)">
      <defs>
       <path id="DejaVuSans-Oblique-78" d="M 3841 3500 
L 2234 1784 
L 3219 0 
L 2559 0 
L 1819 1388 
L 531 0 
L -166 0 
L 1556 1844 
L 641 3500 
L 1300 3500 
L 1972 2234 
L 3144 3500 
L 3841 3500 
z
" transform="scale(0.015625)"/>
       <path id="DejaVuSans-31" d="M 794 531 
L 1825 531 
L 1825 4091 
L 703 3866 
L 703 4441 
L 1819 4666 
L 2450 4666 
L 2450 531 
L 3481 531 
L 3481 0 
L 794 0 
L 794 531 
z
" transform="scale(0.015625)"/>
      </defs>
      <use xlink:href="#DejaVuSans-Oblique-78" transform="translate(0 0.3125)"/>
      <use xlink:href="#DejaVuSans-31" transform="translate(59.179688 -16.09375) scale(0.7)"/>
     </g>
    </g>
   </g>
   <g id="matplotlib.axis_2">
    <g id="text_2">
     <!-- $x_2$ -->
     <g style="fill: #808080" transform="translate(14.373438 67.99) rotate(-90) scale(0.1 -0.1)">
      <defs>
       <path id="DejaVuSans-32" d="M 1228 531 
L 3431 531 
L 3431 0 
L 469 0 
L 469 531 
Q 828 903 1448 1529 
Q 2069 2156 2228 2338 
Q 2531 2678 2651 2914 
Q 2772 3150 2772 3378 
Q 2772 3750 2511 3984 
Q 2250 4219 1831 4219 
Q 1534 4219 1204 4116 
Q 875 4013 500 3803 
L 500 4441 
Q 881 4594 1212 4672 
Q 1544 4750 1819 4750 
Q 2544 4750 2975 4387 
Q 3406 4025 3406 3419 
Q 3406 3131 3298 2873 
Q 3191 2616 2906 2266 
Q 2828 2175 2409 1742 
Q 1991 1309 1228 531 
z
" transform="scale(0.015625)"/>
      </defs>
      <use xlink:href="#DejaVuSans-Oblique-78" transform="translate(0 0.3125)"/>
      <use xlink:href="#DejaVuSans-32" transform="translate(59.179688 -16.09375) scale(0.7)"/>
     </g>
    </g>
   </g>
   <g id="line2d_1">
    <defs>
     <path id="m836f1bb1e7" d="M 0 1.5 
C 0.397805 1.5 0.77937 1.341951 1.06066 1.06066 
C 1.341951 0.77937 1.5 0.397805 1.5 0 
C 1.5 -0.397805 1.341951 -0.77937 1.06066 -1.06066 
C 0.77937 -1.341951 0.397805 -1.5 0 -1.5 
C -0.397805 -1.5 -0.77937 -1.341951 -1.06066 -1.06066 
C -1.341951 -0.77937 -1.5 -0.397805 -1.5 0 
C -1.5 0.397805 -1.341951 0.77937 -1.06066 1.06066 
C -0.77937 1.341951 -0.397805 1.5 0 1.5 
z
" style="stroke: #1f77b4"/>
    </defs>
    <g clip-path="url(#pfd4bdeef28)">
     <use xlink:href="#m836f1bb1e7" x="90.212554" y="43.551155" style="fill: #1f77b4; stroke: #1f77b4"/>
     <use xlink:href="#m836f1bb1e7" x="66.345444" y="48.665076" style="fill: #1f77b4; stroke: #1f77b4"/>
     <use xlink:href="#m836f1bb1e7" x="81.797452" y="62.287461" style="fill: #1f77b4; stroke: #1f77b4"/>
     <use xlink:href="#m836f1bb1e7" x="91.548285" y="45.208262" style="fill: #1f77b4; stroke: #1f77b4"/>
     <use xlink:href="#m836f1bb1e7" x="75.739318" y="39.533019" style="fill: #1f77b4; stroke: #1f77b4"/>
     <use xlink:href="#m836f1bb1e7" x="88.413665" y="59.61084" style="fill: #1f77b4; stroke: #1f77b4"/>
     <use xlink:href="#m836f1bb1e7" x="68.626851" y="41.026395" style="fill: #1f77b4; stroke: #1f77b4"/>
     <use xlink:href="#m836f1bb1e7" x="84.773048" y="48.963594" style="fill: #1f77b4; stroke: #1f77b4"/>
     <use xlink:href="#m836f1bb1e7" x="70.289929" y="46.501694" style="fill: #1f77b4; stroke: #1f77b4"/>
     <use xlink:href="#m836f1bb1e7" x="72.669879" y="30.305745" style="fill: #1f77b4; stroke: #1f77b4"/>
     <use xlink:href="#m836f1bb1e7" x="59.998147" y="24.075304" style="fill: #1f77b4; stroke: #1f77b4"/>
     <use xlink:href="#m836f1bb1e7" x="82.19865" y="31.196343" style="fill: #1f77b4; stroke: #1f77b4"/>
     <use xlink:href="#m836f1bb1e7" x="82.190503" y="44.349175" style="fill: #1f77b4; stroke: #1f77b4"/>
     <use xlink:href="#m836f1bb1e7" x="70.839206" y="47.143811" style="fill: #1f77b4; stroke: #1f77b4"/>
     <use xlink:href="#m836f1bb1e7" x="69.231469" y="30.887419" style="fill: #1f77b4; stroke: #1f77b4"/>
     <use xlink:href="#m836f1bb1e7" x="64.532678" y="41.167203" style="fill: #1f77b4; stroke: #1f77b4"/>
     <use xlink:href="#m836f1bb1e7" x="64.582442" y="46.13964" style="fill: #1f77b4; stroke: #1f77b4"/>
     <use xlink:href="#m836f1bb1e7" x="64.759035" y="36.908425" style="fill: #1f77b4; stroke: #1f77b4"/>
     <use xlink:href="#m836f1bb1e7" x="59.813075" y="34.168799" style="fill: #1f77b4; stroke: #1f77b4"/>
     <use xlink:href="#m836f1bb1e7" x="90.605699" y="28.540214" style="fill: #1f77b4; stroke: #1f77b4"/>
     <use xlink:href="#m836f1bb1e7" x="70.07474" y="46.61003" style="fill: #1f77b4; stroke: #1f77b4"/>
     <use xlink:href="#m836f1bb1e7" x="63.917321" y="18.002063" style="fill: #1f77b4; stroke: #1f77b4"/>
     <use xlink:href="#m836f1bb1e7" x="72.765169" y="43.831008" style="fill: #1f77b4; stroke: #1f77b4"/>
     <use xlink:href="#m836f1bb1e7" x="74.318683" y="13.480371" style="fill: #1f77b4; stroke: #1f77b4"/>
     <use xlink:href="#m836f1bb1e7" x="73.534135" y="29.924452" style="fill: #1f77b4; stroke: #1f77b4"/>
     <use xlink:href="#m836f1bb1e7" x="75.530101" y="40.673746" style="fill: #1f77b4; stroke: #1f77b4"/>
     <use xlink:href="#m836f1bb1e7" x="59.533571" y="40.641512" style="fill: #1f77b4; stroke: #1f77b4"/>
     <use xlink:href="#m836f1bb1e7" x="69.885593" y="30.263522" style="fill: #1f77b4; stroke: #1f77b4"/>
     <use xlink:href="#m836f1bb1e7" x="81.504461" y="26.44394" style="fill: #1f77b4; stroke: #1f77b4"/>
     <use xlink:href="#m836f1bb1e7" x="75.368405" y="26.953555" style="fill: #1f77b4; stroke: #1f77b4"/>
     <use xlink:href="#m836f1bb1e7" x="63.837048" y="22.876198" style="fill: #1f77b4; stroke: #1f77b4"/>
     <use xlink:href="#m836f1bb1e7" x="77.889178" y="40.073253" style="fill: #1f77b4; stroke: #1f77b4"/>
     <use xlink:href="#m836f1bb1e7" x="77.618502" y="37.605939" style="fill: #1f77b4; stroke: #1f77b4"/>
     <use xlink:href="#m836f1bb1e7" x="84.749319" y="19.916271" style="fill: #1f77b4; stroke: #1f77b4"/>
     <use xlink:href="#m836f1bb1e7" x="96.435473" y="52.252351" style="fill: #1f77b4; stroke: #1f77b4"/>
     <use xlink:href="#m836f1bb1e7" x="56.189479" y="42.361517" style="fill: #1f77b4; stroke: #1f77b4"/>
     <use xlink:href="#m836f1bb1e7" x="73.976304" y="27.053039" style="fill: #1f77b4; stroke: #1f77b4"/>
     <use xlink:href="#m836f1bb1e7" x="75.701573" y="59.190167" style="fill: #1f77b4; stroke: #1f77b4"/>
     <use xlink:href="#m836f1bb1e7" x="68.806622" y="27.587417" style="fill: #1f77b4; stroke: #1f77b4"/>
     <use xlink:href="#m836f1bb1e7" x="74.753103" y="28.31882" style="fill: #1f77b4; stroke: #1f77b4"/>
     <use xlink:href="#m836f1bb1e7" x="69.736638" y="38.994005" style="fill: #1f77b4; stroke: #1f77b4"/>
     <use xlink:href="#m836f1bb1e7" x="74.270405" y="32.221347" style="fill: #1f77b4; stroke: #1f77b4"/>
     <use xlink:href="#m836f1bb1e7" x="74.40056" y="35.448432" style="fill: #1f77b4; stroke: #1f77b4"/>
     <use xlink:href="#m836f1bb1e7" x="64.765509" y="32.581573" style="fill: #1f77b4; stroke: #1f77b4"/>
     <use xlink:href="#m836f1bb1e7" x="73.552567" y="24.244282" style="fill: #1f77b4; stroke: #1f77b4"/>
     <use xlink:href="#m836f1bb1e7" x="85.495414" y="34.714986" style="fill: #1f77b4; stroke: #1f77b4"/>
     <use xlink:href="#m836f1bb1e7" x="68.040653" y="43.850243" style="fill: #1f77b4; stroke: #1f77b4"/>
     <use xlink:href="#m836f1bb1e7" x="76.897518" y="35.910453" style="fill: #1f77b4; stroke: #1f77b4"/>
     <use xlink:href="#m836f1bb1e7" x="68.389163" y="36.284598" style="fill: #1f77b4; stroke: #1f77b4"/>
     <use xlink:href="#m836f1bb1e7" x="65.327243" y="29.028221" style="fill: #1f77b4; stroke: #1f77b4"/>
    </g>
   </g>
   <g id="line2d_2">
    <defs>
     <path id="mc1bd093ff5" d="M 0 1.5 
C 0.397805 1.5 0.77937 1.341951 1.06066 1.06066 
C 1.341951 0.77937 1.5 0.397805 1.5 0 
C 1.5 -0.397805 1.341951 -0.77937 1.06066 -1.06066 
C 0.77937 -1.341951 0.397805 -1.5 0 -1.5 
C -0.397805 -1.5 -0.77937 -1.341951 -1.06066 -1.06066 
C -1.341951 -0.77937 -1.5 -0.397805 -1.5 0 
C -1.5 0.397805 -1.341951 0.77937 -1.06066 1.06066 
C -0.77937 1.341951 -0.397805 1.5 0 1.5 
z
" style="stroke: #add8e6"/>
    </defs>
    <g clip-path="url(#pfd4bdeef28)">
     <use xlink:href="#mc1bd093ff5" x="49.650406" y="71.762524" style="fill: #add8e6; stroke: #add8e6"/>
     <use xlink:href="#mc1bd093ff5" x="30.556718" y="75.853661" style="fill: #add8e6; stroke: #add8e6"/>
     <use xlink:href="#mc1bd093ff5" x="42.918324" y="86.751569" style="fill: #add8e6; stroke: #add8e6"/>
     <use xlink:href="#mc1bd093ff5" x="50.718991" y="73.08821" style="fill: #add8e6; stroke: #add8e6"/>
     <use xlink:href="#mc1bd093ff5" x="38.071817" y="68.548015" style="fill: #add8e6; stroke: #add8e6"/>
     <use xlink:href="#mc1bd093ff5" x="48.211295" y="84.610272" style="fill: #add8e6; stroke: #add8e6"/>
     <use xlink:href="#mc1bd093ff5" x="32.381843" y="69.742716" style="fill: #add8e6; stroke: #add8e6"/>
     <use xlink:href="#mc1bd093ff5" x="45.298801" y="76.092475" style="fill: #add8e6; stroke: #add8e6"/>
     <use xlink:href="#mc1bd093ff5" x="33.712305" y="74.122955" style="fill: #add8e6; stroke: #add8e6"/>
     <use xlink:href="#mc1bd093ff5" x="35.616265" y="61.166196" style="fill: #add8e6; stroke: #add8e6"/>
     <use xlink:href="#mc1bd093ff5" x="25.47888" y="56.181843" style="fill: #add8e6; stroke: #add8e6"/>
     <use xlink:href="#mc1bd093ff5" x="43.239283" y="61.878674" style="fill: #add8e6; stroke: #add8e6"/>
     <use xlink:href="#mc1bd093ff5" x="43.232765" y="72.40094" style="fill: #add8e6; stroke: #add8e6"/>
     <use xlink:href="#mc1bd093ff5" x="34.151727" y="74.636649" style="fill: #add8e6; stroke: #add8e6"/>
     <use xlink:href="#mc1bd093ff5" x="32.865538" y="61.631535" style="fill: #add8e6; stroke: #add8e6"/>
     <use xlink:href="#mc1bd093ff5" x="29.106505" y="69.855362" style="fill: #add8e6; stroke: #add8e6"/>
     <use xlink:href="#mc1bd093ff5" x="29.146316" y="73.833312" style="fill: #add8e6; stroke: #add8e6"/>
     <use xlink:href="#mc1bd093ff5" x="29.287591" y="66.44834" style="fill: #add8e6; stroke: #add8e6"/>
     <use xlink:href="#mc1bd093ff5" x="25.330823" y="64.256639" style="fill: #add8e6; stroke: #add8e6"/>
     <use xlink:href="#mc1bd093ff5" x="49.964922" y="59.753771" style="fill: #add8e6; stroke: #add8e6"/>
     <use xlink:href="#mc1bd093ff5" x="33.540154" y="74.209624" style="fill: #add8e6; stroke: #add8e6"/>
     <use xlink:href="#mc1bd093ff5" x="28.61422" y="51.323251" style="fill: #add8e6; stroke: #add8e6"/>
     <use xlink:href="#mc1bd093ff5" x="35.692498" y="71.986406" style="fill: #add8e6; stroke: #add8e6"/>
     <use xlink:href="#mc1bd093ff5" x="36.935309" y="47.705897" style="fill: #add8e6; stroke: #add8e6"/>
     <use xlink:href="#mc1bd093ff5" x="36.30767" y="60.861162" style="fill: #add8e6; stroke: #add8e6"/>
     <use xlink:href="#mc1bd093ff5" x="37.904443" y="69.460597" style="fill: #add8e6; stroke: #add8e6"/>
     <use xlink:href="#mc1bd093ff5" x="25.107219" y="69.43481" style="fill: #add8e6; stroke: #add8e6"/>
     <use xlink:href="#mc1bd093ff5" x="33.388837" y="61.132418" style="fill: #add8e6; stroke: #add8e6"/>
     <use xlink:href="#mc1bd093ff5" x="42.683931" y="58.076752" style="fill: #add8e6; stroke: #add8e6"/>
     <use xlink:href="#mc1bd093ff5" x="37.775086" y="58.484444" style="fill: #add8e6; stroke: #add8e6"/>
     <use xlink:href="#mc1bd093ff5" x="28.550001" y="55.222558" style="fill: #add8e6; stroke: #add8e6"/>
     <use xlink:href="#mc1bd093ff5" x="39.791705" y="68.980203" style="fill: #add8e6; stroke: #add8e6"/>
     <use xlink:href="#mc1bd093ff5" x="39.575164" y="67.006351" style="fill: #add8e6; stroke: #add8e6"/>
     <use xlink:href="#mc1bd093ff5" x="45.279818" y="52.854617" style="fill: #add8e6; stroke: #add8e6"/>
     <use xlink:href="#mc1bd093ff5" x="54.628741" y="78.723481" style="fill: #add8e6; stroke: #add8e6"/>
     <use xlink:href="#mc1bd093ff5" x="22.431945" y="70.810814" style="fill: #add8e6; stroke: #add8e6"/>
     <use xlink:href="#mc1bd093ff5" x="36.661405" y="58.564031" style="fill: #add8e6; stroke: #add8e6"/>
     <use xlink:href="#mc1bd093ff5" x="38.041621" y="84.273734" style="fill: #add8e6; stroke: #add8e6"/>
     <use xlink:href="#mc1bd093ff5" x="32.52566" y="58.991534" style="fill: #add8e6; stroke: #add8e6"/>
     <use xlink:href="#mc1bd093ff5" x="37.282845" y="59.576656" style="fill: #add8e6; stroke: #add8e6"/>
     <use xlink:href="#mc1bd093ff5" x="33.269673" y="68.116804" style="fill: #add8e6; stroke: #add8e6"/>
     <use xlink:href="#mc1bd093ff5" x="36.896687" y="62.698678" style="fill: #add8e6; stroke: #add8e6"/>
     <use xlink:href="#mc1bd093ff5" x="37.00081" y="65.280346" style="fill: #add8e6; stroke: #add8e6"/>
     <use xlink:href="#mc1bd093ff5" x="29.29277" y="62.986858" style="fill: #add8e6; stroke: #add8e6"/>
     <use xlink:href="#mc1bd093ff5" x="36.322416" y="56.317026" style="fill: #add8e6; stroke: #add8e6"/>
     <use xlink:href="#mc1bd093ff5" x="45.876694" y="64.693589" style="fill: #add8e6; stroke: #add8e6"/>
     <use xlink:href="#mc1bd093ff5" x="31.912885" y="72.001794" style="fill: #add8e6; stroke: #add8e6"/>
     <use xlink:href="#mc1bd093ff5" x="38.998377" y="65.649963" style="fill: #add8e6; stroke: #add8e6"/>
     <use xlink:href="#mc1bd093ff5" x="32.191693" y="65.949278" style="fill: #add8e6; stroke: #add8e6"/>
     <use xlink:href="#mc1bd093ff5" x="29.742157" y="60.144177" style="fill: #add8e6; stroke: #add8e6"/>
    </g>
   </g>
   <g id="line2d_3">
    <path d="M 20.457813 14.592 
L 109.161813 103.296 
" clip-path="url(#pfd4bdeef28)" style="fill: none; stroke: #ff7f0e; stroke-linecap: square"/>
   </g>
   <g id="patch_3">
    <path d="M 20.457813 118.08 
L 20.457813 7.2 
" style="fill: none; stroke: #808080; stroke-width: 0.8; stroke-linejoin: miter; stroke-linecap: square"/>
   </g>
   <g id="patch_4">
    <path d="M 109.161813 118.08 
L 109.161813 7.2 
" style="fill: none; stroke: #808080; stroke-width: 0.8; stroke-linejoin: miter; stroke-linecap: square"/>
   </g>
   <g id="patch_5">
    <path d="M 20.457813 118.08 
L 109.161813 118.08 
" style="fill: none; stroke: #808080; stroke-width: 0.8; stroke-linejoin: miter; stroke-linecap: square"/>
   </g>
   <g id="patch_6">
    <path d="M 20.457813 7.2 
L 109.161813 7.2 
" style="fill: none; stroke: #808080; stroke-width: 0.8; stroke-linejoin: miter; stroke-linecap: square"/>
   </g>
   <g id="legend_1">
    <g id="patch_7">
     <path d="M 26.288813 113.915 
L 73.436613 113.915 
Q 75.102613 113.915 75.102613 112.249 
L 75.102613 88.925 
Q 75.102613 87.259 73.436613 87.259 
L 26.288813 87.259 
Q 24.622813 87.259 24.622813 88.925 
L 24.622813 112.249 
Q 24.622813 113.915 26.288813 113.915 
z
" style="fill: #ffffff; opacity: 0.8; stroke: #cccccc; stroke-linejoin: miter"/>
    </g>
    <g id="line2d_4">
     <g>
      <use xlink:href="#m836f1bb1e7" x="36.284813" y="93.923" style="fill: #1f77b4; stroke: #1f77b4"/>
     </g>
    </g>
    <g id="text_3">
     <!-- $y=0$ -->
     <g transform="translate(51.278813 96.8385) scale(0.0833 -0.0833)">
      <defs>
       <path id="DejaVuSans-Oblique-79" d="M 1588 -325 
Q 1188 -997 936 -1164 
Q 684 -1331 294 -1331 
L -159 -1331 
L -63 -850 
L 269 -850 
Q 509 -850 678 -719 
Q 847 -588 1056 -206 
L 1234 128 
L 459 3500 
L 1069 3500 
L 1650 819 
L 3256 3500 
L 3859 3500 
L 1588 -325 
z
" transform="scale(0.015625)"/>
       <path id="DejaVuSans-3d" d="M 678 2906 
L 4684 2906 
L 4684 2381 
L 678 2381 
L 678 2906 
z
M 678 1631 
L 4684 1631 
L 4684 1100 
L 678 1100 
L 678 1631 
z
" transform="scale(0.015625)"/>
       <path id="DejaVuSans-30" d="M 2034 4250 
Q 1547 4250 1301 3770 
Q 1056 3291 1056 2328 
Q 1056 1369 1301 889 
Q 1547 409 2034 409 
Q 2525 409 2770 889 
Q 3016 1369 3016 2328 
Q 3016 3291 2770 3770 
Q 2525 4250 2034 4250 
z
M 2034 4750 
Q 2819 4750 3233 4129 
Q 3647 3509 3647 2328 
Q 3647 1150 3233 529 
Q 2819 -91 2034 -91 
Q 1250 -91 836 529 
Q 422 1150 422 2328 
Q 422 3509 836 4129 
Q 1250 4750 2034 4750 
z
" transform="scale(0.015625)"/>
      </defs>
      <use xlink:href="#DejaVuSans-Oblique-79" transform="translate(0 0.78125)"/>
      <use xlink:href="#DejaVuSans-3d" transform="translate(78.662109 0.78125)"/>
      <use xlink:href="#DejaVuSans-30" transform="translate(181.933594 0.78125)"/>
     </g>
    </g>
    <g id="line2d_5">
     <g>
      <use xlink:href="#mc1bd093ff5" x="36.284813" y="105.9182" style="fill: #add8e6; stroke: #add8e6"/>
     </g>
    </g>
    <g id="text_4">
     <!-- $y=1$ -->
     <g transform="translate(51.278813 108.8337) scale(0.0833 -0.0833)">
      <use xlink:href="#DejaVuSans-Oblique-79" transform="translate(0 0.09375)"/>
      <use xlink:href="#DejaVuSans-3d" transform="translate(78.662109 0.09375)"/>
      <use xlink:href="#DejaVuSans-31" transform="translate(181.933594 0.09375)"/>
     </g>
    </g>
   </g>
  </g>
 </g>
 <defs>
  <clipPath id="pfd4bdeef28">
   <rect x="20.457813" y="7.2" width="88.704" height="110.88"/>
  </clipPath>
 </defs>
</svg>
