<?xml version="1.0" encoding="utf-8" standalone="no"?>
<!DOCTYPE svg PUBLIC "-//W3C//DTD SVG 1.1//EN"
  "http://www.w3.org/Graphics/SVG/1.1/DTD/svg11.dtd">
<svg xmlns:xlink="http://www.w3.org/1999/xlink" width="116.361813pt" height="138.537813pt" viewBox="0 0 116.361813 138.537813" xmlns="http://www.w3.org/2000/svg" version="1.1">
 <metadata>
  <rdf:RDF xmlns:dc="http://purl.org/dc/elements/1.1/" xmlns:cc="http://creativecommons.org/ns#" xmlns:rdf="http://www.w3.org/1999/02/22-rdf-syntax-ns#">
   <cc:Work>
    <dc:type rdf:resource="http://purl.org/dc/dcmitype/StillImage"/>
    <dc:date>2026-05-16T14:41:58.197577</dc:date>
    <dc:format>image/svg+xml</dc:format>
    <dc:creator>
     <cc:Agent>
      <dc:title>Matplotlib v3.10.8, https://matplotlib.org/</dc:title>
     </cc:Agent>
    </dc:creator>
   </cc:Work>
  </rdf:RDF>
 </metadata>
 <defs>
  <style type="text/css">*{stroke-linejoin: round; stroke-linecap: butt}</style>
 </defs>
 <g id="figure_1">
  <g id="patch_1">
   <path d="M 0 138.537813 
L 116.361813 138.537813 
L 116.361813 0 
L 0 0 
L 0 138.537813 
z
" style="fill: none"/>
  </g>
  <g id="axes_1">
   <g id="patch_2">
    <path d="M 20.457813 118.08 
L 109.161813 118.08 
L 109.161813 7.2 
L 20.457813 7.2 
z
" style="fill: #ffffff"/>
   </g>
   <g id="matplotlib.axis_1">
    <g id="text_1">
     <!-- $x_1$ -->
     <g style="fill: #808080" transform="translate(59.859813 129.253437) scale(0.1 -0.1)">
      <defs>
       <path id="Cmmi10-78" d="M 500 184 
Q 613 97 819 97 
Q 1019 97 1172 289 
Q 1325 481 1381 709 
L 1672 1844 
Q 1741 2153 1741 2266 
Q 1741 2425 1652 2544 
Q 1563 2663 1403 2663 
Q 1200 2663 1022 2536 
Q 844 2409 722 2214 
Q 600 2019 550 1819 
Q 538 1778 500 1778 
L 422 1778 
Q 372 1778 372 1838 
L 372 1856 
Q 434 2094 584 2320 
Q 734 2547 951 2687 
Q 1169 2828 1416 2828 
Q 1650 2828 1839 2703 
Q 2028 2578 2106 2363 
Q 2216 2559 2386 2693 
Q 2556 2828 2759 2828 
Q 2897 2828 3040 2779 
Q 3184 2731 3275 2631 
Q 3366 2531 3366 2381 
Q 3366 2219 3261 2101 
Q 3156 1984 2994 1984 
Q 2891 1984 2822 2050 
Q 2753 2116 2753 2216 
Q 2753 2350 2845 2451 
Q 2938 2553 3066 2572 
Q 2950 2663 2747 2663 
Q 2541 2663 2389 2472 
Q 2238 2281 2175 2047 
L 1894 916 
Q 1825 659 1825 494 
Q 1825 331 1917 214 
Q 2009 97 2163 97 
Q 2463 97 2698 361 
Q 2934 625 3009 941 
Q 3022 978 3059 978 
L 3138 978 
Q 3163 978 3178 961 
Q 3194 944 3194 922 
Q 3194 916 3188 903 
Q 3097 522 2806 225 
Q 2516 -72 2150 -72 
Q 1916 -72 1727 54 
Q 1538 181 1459 397 
Q 1359 209 1182 68 
Q 1006 -72 806 -72 
Q 669 -72 523 -23 
Q 378 25 287 125 
Q 197 225 197 378 
Q 197 528 301 651 
Q 406 775 563 775 
Q 669 775 741 711 
Q 813 647 813 544 
Q 813 409 723 309 
Q 634 209 500 184 
z
" transform="scale(0.015625)"/>
       <path id="Cmr10-31" d="M 594 0 
L 594 225 
Q 1394 225 1394 428 
L 1394 3788 
Q 1063 3628 556 3628 
L 556 3853 
Q 1341 3853 1741 4263 
L 1831 4263 
Q 1853 4263 1873 4245 
Q 1894 4228 1894 4206 
L 1894 428 
Q 1894 225 2694 225 
L 2694 0 
L 594 0 
z
" transform="scale(0.015625)"/>
      </defs>
      <use xlink:href="#Cmmi10-78" transform="translate(0 0.8125)"/>
      <use xlink:href="#Cmr10-31" transform="translate(57.080078 -16.19375) scale(0.7)"/>
     </g>
    </g>
   </g>
   <g id="matplotlib.axis_2">
    <g id="text_2">
     <!-- $x_2$ -->
     <g style="fill: #808080" transform="translate(14.373438 67.59) rotate(-90) scale(0.1 -0.1)">
      <defs>
       <path id="Cmr10-32" d="M 319 0 
L 319 172 
Q 319 188 331 206 
L 1325 1306 
Q 1550 1550 1690 1715 
Q 1831 1881 1968 2097 
Q 2106 2313 2186 2536 
Q 2266 2759 2266 3009 
Q 2266 3272 2169 3511 
Q 2072 3750 1880 3894 
Q 1688 4038 1416 4038 
Q 1138 4038 916 3870 
Q 694 3703 603 3438 
Q 628 3444 672 3444 
Q 816 3444 917 3347 
Q 1019 3250 1019 3097 
Q 1019 2950 917 2848 
Q 816 2747 672 2747 
Q 522 2747 420 2851 
Q 319 2956 319 3097 
Q 319 3338 409 3548 
Q 500 3759 670 3923 
Q 841 4088 1055 4175 
Q 1269 4263 1509 4263 
Q 1875 4263 2190 4108 
Q 2506 3953 2690 3670 
Q 2875 3388 2875 3009 
Q 2875 2731 2753 2481 
Q 2631 2231 2440 2026 
Q 2250 1822 1953 1562 
Q 1656 1303 1563 1216 
L 838 519 
L 1453 519 
Q 1906 519 2211 526 
Q 2516 534 2534 550 
Q 2609 631 2688 1141 
L 2875 1141 
L 2694 0 
L 319 0 
z
" transform="scale(0.015625)"/>
      </defs>
      <use xlink:href="#Cmmi10-78" transform="translate(0 0.8125)"/>
      <use xlink:href="#Cmr10-32" transform="translate(57.080078 -16.19375) scale(0.7)"/>
     </g>
    </g>
   </g>
   <g id="line2d_1">
    <defs>
     <path id="m636897374b" d="M 0 1.5 
C 0.397805 1.5 0.77937 1.341951 1.06066 1.06066 
C 1.341951 0.77937 1.5 0.397805 1.5 0 
C 1.5 -0.397805 1.341951 -0.77937 1.06066 -1.06066 
C 0.77937 -1.341951 0.397805 -1.5 0 -1.5 
C -0.397805 -1.5 -0.77937 -1.341951 -1.06066 -1.06066 
C -1.341951 -0.77937 -1.5 -0.397805 -1.5 0 
C -1.5 0.397805 -1.341951 0.77937 -1.06066 1.06066 
C -0.77937 1.341951 -0.397805 1.5 0 1.5 
z
" style="stroke: #1f77b4"/>
    </defs>
    <g clip-path="url(#p49b4b9869d)">
     <use xlink:href="#m636897374b" x="90.212554" y="43.551155" style="fill: #1f77b4; stroke: #1f77b4"/>
     <use xlink:href="#m636897374b" x="66.345444" y="48.665076" style="fill: #1f77b4; stroke: #1f77b4"/>
     <use xlink:href="#m636897374b" x="81.797452" y="62.287461" style="fill: #1f77b4; stroke: #1f77b4"/>
     <use xlink:href="#m636897374b" x="91.548285" y="45.208262" style="fill: #1f77b4; stroke: #1f77b4"/>
     <use xlink:href="#m636897374b" x="75.739318" y="39.533019" style="fill: #1f77b4; stroke: #1f77b4"/>
     <use xlink:href="#m636897374b" x="88.413665" y="59.61084" style="fill: #1f77b4; stroke: #1f77b4"/>
     <use xlink:href="#m636897374b" x="68.626851" y="41.026395" style="fill: #1f77b4; stroke: #1f77b4"/>
     <use xlink:href="#m636897374b" x="84.773048" y="48.963594" style="fill: #1f77b4; stroke: #1f77b4"/>
     <use xlink:href="#m636897374b" x="70.289929" y="46.501694" style="fill: #1f77b4; stroke: #1f77b4"/>
     <use xlink:href="#m636897374b" x="72.669879" y="30.305745" style="fill: #1f77b4; stroke: #1f77b4"/>
     <use xlink:href="#m636897374b" x="59.998147" y="24.075304" style="fill: #1f77b4; stroke: #1f77b4"/>
     <use xlink:href="#m636897374b" x="82.19865" y="31.196343" style="fill: #1f77b4; stroke: #1f77b4"/>
     <use xlink:href="#m636897374b" x="82.190503" y="44.349175" style="fill: #1f77b4; stroke: #1f77b4"/>
     <use xlink:href="#m636897374b" x="70.839206" y="47.143811" style="fill: #1f77b4; stroke: #1f77b4"/>
     <use xlink:href="#m636897374b" x="69.231469" y="30.887419" style="fill: #1f77b4; stroke: #1f77b4"/>
     <use xlink:href="#m636897374b" x="64.532678" y="41.167203" style="fill: #1f77b4; stroke: #1f77b4"/>
     <use xlink:href="#m636897374b" x="64.582442" y="46.13964" style="fill: #1f77b4; stroke: #1f77b4"/>
     <use xlink:href="#m636897374b" x="64.759035" y="36.908425" style="fill: #1f77b4; stroke: #1f77b4"/>
     <use xlink:href="#m636897374b" x="59.813075" y="34.168799" style="fill: #1f77b4; stroke: #1f77b4"/>
     <use xlink:href="#m636897374b" x="90.605699" y="28.540214" style="fill: #1f77b4; stroke: #1f77b4"/>
     <use xlink:href="#m636897374b" x="70.07474" y="46.61003" style="fill: #1f77b4; stroke: #1f77b4"/>
     <use xlink:href="#m636897374b" x="63.917321" y="18.002063" style="fill: #1f77b4; stroke: #1f77b4"/>
     <use xlink:href="#m636897374b" x="72.765169" y="43.831008" style="fill: #1f77b4; stroke: #1f77b4"/>
     <use xlink:href="#m636897374b" x="74.318683" y="13.480371" style="fill: #1f77b4; stroke: #1f77b4"/>
     <use xlink:href="#m636897374b" x="73.534135" y="29.924452" style="fill: #1f77b4; stroke: #1f77b4"/>
     <use xlink:href="#m636897374b" x="75.530101" y="40.673746" style="fill: #1f77b4; stroke: #1f77b4"/>
     <use xlink:href="#m636897374b" x="59.533571" y="40.641512" style="fill: #1f77b4; stroke: #1f77b4"/>
     <use xlink:href="#m636897374b" x="69.885593" y="30.263522" style="fill: #1f77b4; stroke: #1f77b4"/>
     <use xlink:href="#m636897374b" x="81.504461" y="26.44394" style="fill: #1f77b4; stroke: #1f77b4"/>
     <use xlink:href="#m636897374b" x="75.368405" y="26.953555" style="fill: #1f77b4; stroke: #1f77b4"/>
     <use xlink:href="#m636897374b" x="63.837048" y="22.876198" style="fill: #1f77b4; stroke: #1f77b4"/>
     <use xlink:href="#m636897374b" x="77.889178" y="40.073253" style="fill: #1f77b4; stroke: #1f77b4"/>
     <use xlink:href="#m636897374b" x="77.618502" y="37.605939" style="fill: #1f77b4; stroke: #1f77b4"/>
     <use xlink:href="#m636897374b" x="84.749319" y="19.916271" style="fill: #1f77b4; stroke: #1f77b4"/>
     <use xlink:href="#m636897374b" x="96.435473" y="52.252351" style="fill: #1f77b4; stroke: #1f77b4"/>
     <use xlink:href="#m636897374b" x="56.189479" y="42.361517" style="fill: #1f77b4; stroke: #1f77b4"/>
     <use xlink:href="#m636897374b" x="73.976304" y="27.053039" style="fill: #1f77b4; stroke: #1f77b4"/>
     <use xlink:href="#m636897374b" x="75.701573" y="59.190167" style="fill: #1f77b4; stroke: #1f77b4"/>
     <use xlink:href="#m636897374b" x="68.806622" y="27.587417" style="fill: #1f77b4; stroke: #1f77b4"/>
     <use xlink:href="#m636897374b" x="74.753103" y="28.31882" style="fill: #1f77b4; stroke: #1f77b4"/>
     <use xlink:href="#m636897374b" x="69.736638" y="38.994005" style="fill: #1f77b4; stroke: #1f77b4"/>
     <use xlink:href="#m636897374b" x="74.270405" y="32.221347" style="fill: #1f77b4; stroke: #1f77b4"/>
     <use xlink:href="#m636897374b" x="74.40056" y="35.448432" style="fill: #1f77b4; stroke: #1f77b4"/>
     <use xlink:href="#m636897374b" x="64.765509" y="32.581573" style="fill: #1f77b4; stroke: #1f77b4"/>
     <use xlink:href="#m636897374b" x="73.552567" y="24.244282" style="fill: #1f77b4; stroke: #1f77b4"/>
     <use xlink:href="#m636897374b" x="85.495414" y="34.714986" style="fill: #1f77b4; stroke: #1f77b4"/>
     <use xlink:href="#m636897374b" x="68.040653" y="43.850243" style="fill: #1f77b4; stroke: #1f77b4"/>
     <use xlink:href="#m636897374b" x="76.897518" y="35.910453" style="fill: #1f77b4; stroke: #1f77b4"/>
     <use xlink:href="#m636897374b" x="68.389163" y="36.284598" style="fill: #1f77b4; stroke: #1f77b4"/>
     <use xlink:href="#m636897374b" x="65.327243" y="29.028221" style="fill: #1f77b4; stroke: #1f77b4"/>
    </g>
   </g>
   <g id="line2d_2">
    <defs>
     <path id="md42d893c0a" d="M 0 1.5 
C 0.397805 1.5 0.77937 1.341951 1.06066 1.06066 
C 1.341951 0.77937 1.5 0.397805 1.5 0 
C 1.5 -0.397805 1.341951 -0.77937 1.06066 -1.06066 
C 0.77937 -1.341951 0.397805 -1.5 0 -1.5 
C -0.397805 -1.5 -0.77937 -1.341951 -1.06066 -1.06066 
C -1.341951 -0.77937 -1.5 -0.397805 -1.5 0 
C -1.5 0.397805 -1.341951 0.77937 -1.06066 1.06066 
C -0.77937 1.341951 -0.397805 1.5 0 1.5 
z
" style="stroke: #add8e6"/>
    </defs>
    <g clip-path="url(#p49b4b9869d)">
     <use xlink:href="#md42d893c0a" x="49.650406" y="71.762524" style="fill: #add8e6; stroke: #add8e6"/>
     <use xlink:href="#md42d893c0a" x="30.556718" y="75.853661" style="fill: #add8e6; stroke: #add8e6"/>
     <use xlink:href="#md42d893c0a" x="42.918324" y="86.751569" style="fill: #add8e6; stroke: #add8e6"/>
     <use xlink:href="#md42d893c0a" x="50.718991" y="73.08821" style="fill: #add8e6; stroke: #add8e6"/>
     <use xlink:href="#md42d893c0a" x="38.071817" y="68.548015" style="fill: #add8e6; stroke: #add8e6"/>
     <use xlink:href="#md42d893c0a" x="48.211295" y="84.610272" style="fill: #add8e6; stroke: #add8e6"/>
     <use xlink:href="#md42d893c0a" x="32.381843" y="69.742716" style="fill: #add8e6; stroke: #add8e6"/>
     <use xlink:href="#md42d893c0a" x="45.298801" y="76.092475" style="fill: #add8e6; stroke: #add8e6"/>
     <use xlink:href="#md42d893c0a" x="33.712305" y="74.122955" style="fill: #add8e6; stroke: #add8e6"/>
     <use xlink:href="#md42d893c0a" x="35.616265" y="61.166196" style="fill: #add8e6; stroke: #add8e6"/>
     <use xlink:href="#md42d893c0a" x="25.47888" y="56.181843" style="fill: #add8e6; stroke: #add8e6"/>
     <use xlink:href="#md42d893c0a" x="43.239283" y="61.878674" style="fill: #add8e6; stroke: #add8e6"/>
     <use xlink:href="#md42d893c0a" x="43.232765" y="72.40094" style="fill: #add8e6; stroke: #add8e6"/>
     <use xlink:href="#md42d893c0a" x="34.151727" y="74.636649" style="fill: #add8e6; stroke: #add8e6"/>
     <use xlink:href="#md42d893c0a" x="32.865538" y="61.631535" style="fill: #add8e6; stroke: #add8e6"/>
     <use xlink:href="#md42d893c0a" x="29.106505" y="69.855362" style="fill: #add8e6; stroke: #add8e6"/>
     <use xlink:href="#md42d893c0a" x="29.146316" y="73.833312" style="fill: #add8e6; stroke: #add8e6"/>
     <use xlink:href="#md42d893c0a" x="29.287591" y="66.44834" style="fill: #add8e6; stroke: #add8e6"/>
     <use xlink:href="#md42d893c0a" x="25.330823" y="64.256639" style="fill: #add8e6; stroke: #add8e6"/>
     <use xlink:href="#md42d893c0a" x="49.964922" y="59.753771" style="fill: #add8e6; stroke: #add8e6"/>
     <use xlink:href="#md42d893c0a" x="33.540154" y="74.209624" style="fill: #add8e6; stroke: #add8e6"/>
     <use xlink:href="#md42d893c0a" x="28.61422" y="51.323251" style="fill: #add8e6; stroke: #add8e6"/>
     <use xlink:href="#md42d893c0a" x="35.692498" y="71.986406" style="fill: #add8e6; stroke: #add8e6"/>
     <use xlink:href="#md42d893c0a" x="36.935309" y="47.705897" style="fill: #add8e6; stroke: #add8e6"/>
     <use xlink:href="#md42d893c0a" x="36.30767" y="60.861162" style="fill: #add8e6; stroke: #add8e6"/>
     <use xlink:href="#md42d893c0a" x="37.904443" y="69.460597" style="fill: #add8e6; stroke: #add8e6"/>
     <use xlink:href="#md42d893c0a" x="25.107219" y="69.43481" style="fill: #add8e6; stroke: #add8e6"/>
     <use xlink:href="#md42d893c0a" x="33.388837" y="61.132418" style="fill: #add8e6; stroke: #add8e6"/>
     <use xlink:href="#md42d893c0a" x="42.683931" y="58.076752" style="fill: #add8e6; stroke: #add8e6"/>
     <use xlink:href="#md42d893c0a" x="37.775086" y="58.484444" style="fill: #add8e6; stroke: #add8e6"/>
     <use xlink:href="#md42d893c0a" x="28.550001" y="55.222558" style="fill: #add8e6; stroke: #add8e6"/>
     <use xlink:href="#md42d893c0a" x="39.791705" y="68.980203" style="fill: #add8e6; stroke: #add8e6"/>
     <use xlink:href="#md42d893c0a" x="39.575164" y="67.006351" style="fill: #add8e6; stroke: #add8e6"/>
     <use xlink:href="#md42d893c0a" x="45.279818" y="52.854617" style="fill: #add8e6; stroke: #add8e6"/>
     <use xlink:href="#md42d893c0a" x="54.628741" y="78.723481" style="fill: #add8e6; stroke: #add8e6"/>
     <use xlink:href="#md42d893c0a" x="22.431945" y="70.810814" style="fill: #add8e6; stroke: #add8e6"/>
     <use xlink:href="#md42d893c0a" x="36.661405" y="58.564031" style="fill: #add8e6; stroke: #add8e6"/>
     <use xlink:href="#md42d893c0a" x="38.041621" y="84.273734" style="fill: #add8e6; stroke: #add8e6"/>
     <use xlink:href="#md42d893c0a" x="32.52566" y="58.991534" style="fill: #add8e6; stroke: #add8e6"/>
     <use xlink:href="#md42d893c0a" x="37.282845" y="59.576656" style="fill: #add8e6; stroke: #add8e6"/>
     <use xlink:href="#md42d893c0a" x="33.269673" y="68.116804" style="fill: #add8e6; stroke: #add8e6"/>
     <use xlink:href="#md42d893c0a" x="36.896687" y="62.698678" style="fill: #add8e6; stroke: #add8e6"/>
     <use xlink:href="#md42d893c0a" x="37.00081" y="65.280346" style="fill: #add8e6; stroke: #add8e6"/>
     <use xlink:href="#md42d893c0a" x="29.29277" y="62.986858" style="fill: #add8e6; stroke: #add8e6"/>
     <use xlink:href="#md42d893c0a" x="36.322416" y="56.317026" style="fill: #add8e6; stroke: #add8e6"/>
     <use xlink:href="#md42d893c0a" x="45.876694" y="64.693589" style="fill: #add8e6; stroke: #add8e6"/>
     <use xlink:href="#md42d893c0a" x="31.912885" y="72.001794" style="fill: #add8e6; stroke: #add8e6"/>
     <use xlink:href="#md42d893c0a" x="38.998377" y="65.649963" style="fill: #add8e6; stroke: #add8e6"/>
     <use xlink:href="#md42d893c0a" x="32.191693" y="65.949278" style="fill: #add8e6; stroke: #add8e6"/>
     <use xlink:href="#md42d893c0a" x="29.742157" y="60.144177" style="fill: #add8e6; stroke: #add8e6"/>
    </g>
   </g>
   <g id="line2d_3">
    <path d="M 20.457813 14.592 
L 109.161813 103.296 
" clip-path="url(#p49b4b9869d)" style="fill: none; stroke: #ff7f0e; stroke-linecap: square"/>
   </g>
   <g id="patch_3">
    <path d="M 20.457813 118.08 
L 20.457813 7.2 
" style="fill: none; stroke: #808080; stroke-width: 0.8; stroke-linejoin: miter; stroke-linecap: square"/>
   </g>
   <g id="patch_4">
    <path d="M 109.161813 118.08 
L 109.161813 7.2 
" style="fill: none; stroke: #808080; stroke-width: 0.8; stroke-linejoin: miter; stroke-linecap: square"/>
   </g>
   <g id="patch_5">
    <path d="M 20.457813 118.08 
L 109.161813 118.08 
" style="fill: none; stroke: #808080; stroke-width: 0.8; stroke-linejoin: miter; stroke-linecap: square"/>
   </g>
   <g id="patch_6">
    <path d="M 20.457813 7.2 
L 109.161813 7.2 
" style="fill: none; stroke: #808080; stroke-width: 0.8; stroke-linejoin: miter; stroke-linecap: square"/>
   </g>
   <g id="legend_1">
    <g id="patch_7">
     <path d="M 26.288813 113.915 
L 70.604413 113.915 
Q 72.270413 113.915 72.270413 112.249 
L 72.270413 89.302453 
Q 72.270413 87.636453 70.604413 87.636453 
L 26.288813 87.636453 
Q 24.622813 87.636453 24.622813 89.302453 
L 24.622813 112.249 
Q 24.622813 113.915 26.288813 113.915 
z
" style="fill: #ffffff; opacity: 0.8; stroke: #cccccc; stroke-linejoin: miter"/>
    </g>
    <g id="line2d_4">
     <g>
      <use xlink:href="#m636897374b" x="36.284813" y="94.028427" style="fill: #1f77b4; stroke: #1f77b4"/>
     </g>
    </g>
    <g id="text_3">
     <!-- $y=0$ -->
     <g transform="translate(51.278813 96.943927) scale(0.0833 -0.0833)">
      <defs>
       <path id="Cmmi10-79" d="M 538 -916 
Q 672 -1147 1006 -1147 
Q 1309 -1147 1531 -934 
Q 1753 -722 1889 -420 
Q 2025 -119 2100 197 
Q 1816 -72 1484 -72 
Q 1231 -72 1053 15 
Q 875 103 776 276 
Q 678 450 678 697 
Q 678 906 734 1126 
Q 791 1347 892 1617 
Q 994 1888 1069 2088 
Q 1153 2322 1153 2472 
Q 1153 2663 1013 2663 
Q 759 2663 595 2402 
Q 431 2141 353 1819 
Q 341 1778 300 1778 
L 225 1778 
Q 172 1778 172 1838 
L 172 1856 
Q 275 2238 487 2533 
Q 700 2828 1025 2828 
Q 1253 2828 1411 2678 
Q 1569 2528 1569 2297 
Q 1569 2178 1516 2047 
Q 1488 1969 1388 1706 
Q 1288 1444 1234 1272 
Q 1181 1100 1147 934 
Q 1113 769 1113 603 
Q 1113 391 1203 244 
Q 1294 97 1491 97 
Q 1888 97 2203 581 
L 2688 2553 
Q 2709 2638 2787 2698 
Q 2866 2759 2956 2759 
Q 3034 2759 3092 2709 
Q 3150 2659 3150 2578 
Q 3150 2541 3144 2528 
L 2509 -19 
Q 2425 -347 2200 -647 
Q 1975 -947 1658 -1130 
Q 1341 -1313 997 -1313 
Q 831 -1313 668 -1248 
Q 506 -1184 406 -1056 
Q 306 -928 306 -756 
Q 306 -581 409 -453 
Q 513 -325 684 -325 
Q 788 -325 858 -389 
Q 928 -453 928 -556 
Q 928 -703 818 -812 
Q 709 -922 563 -922 
Q 556 -919 550 -917 
Q 544 -916 538 -916 
z
" transform="scale(0.015625)"/>
       <path id="Cmr10-3d" d="M 481 850 
Q 428 850 393 890 
Q 359 931 359 978 
Q 359 1031 393 1068 
Q 428 1106 481 1106 
L 4500 1106 
Q 4547 1106 4581 1068 
Q 4616 1031 4616 978 
Q 4616 931 4581 890 
Q 4547 850 4500 850 
L 481 850 
z
M 481 2094 
Q 428 2094 393 2131 
Q 359 2169 359 2222 
Q 359 2269 393 2309 
Q 428 2350 481 2350 
L 4500 2350 
Q 4547 2350 4581 2309 
Q 4616 2269 4616 2222 
Q 4616 2169 4581 2131 
Q 4547 2094 4500 2094 
L 481 2094 
z
" transform="scale(0.015625)"/>
       <path id="Cmr10-30" d="M 1600 -141 
Q 816 -141 533 504 
Q 250 1150 250 2041 
Q 250 2597 351 3087 
Q 453 3578 754 3920 
Q 1056 4263 1600 4263 
Q 2022 4263 2290 4056 
Q 2559 3850 2700 3523 
Q 2841 3197 2892 2823 
Q 2944 2450 2944 2041 
Q 2944 1491 2842 1011 
Q 2741 531 2444 195 
Q 2147 -141 1600 -141 
z
M 1600 25 
Q 1956 25 2131 390 
Q 2306 756 2347 1200 
Q 2388 1644 2388 2144 
Q 2388 2625 2347 3031 
Q 2306 3438 2132 3767 
Q 1959 4097 1600 4097 
Q 1238 4097 1063 3765 
Q 888 3434 847 3029 
Q 806 2625 806 2144 
Q 806 1788 823 1472 
Q 841 1156 916 820 
Q 991 484 1158 254 
Q 1325 25 1600 25 
z
" transform="scale(0.015625)"/>
      </defs>
      <use xlink:href="#Cmmi10-79" transform="translate(0 0.390625)"/>
      <use xlink:href="#Cmr10-3d" transform="translate(66.582031 0.390625)"/>
      <use xlink:href="#Cmr10-30" transform="translate(161.826172 0.390625)"/>
     </g>
    </g>
    <g id="line2d_5">
     <g>
      <use xlink:href="#md42d893c0a" x="36.284813" y="105.9182" style="fill: #add8e6; stroke: #add8e6"/>
     </g>
    </g>
    <g id="text_4">
     <!-- $y=1$ -->
     <g transform="translate(51.278813 108.8337) scale(0.0833 -0.0833)">
      <use xlink:href="#Cmmi10-79" transform="translate(0 0.390625)"/>
      <use xlink:href="#Cmr10-3d" transform="translate(66.582031 0.390625)"/>
      <use xlink:href="#Cmr10-31" transform="translate(161.826172 0.390625)"/>
     </g>
    </g>
   </g>
  </g>
 </g>
 <defs>
  <clipPath id="p49b4b9869d">
   <rect x="20.457813" y="7.2" width="88.704" height="110.88"/>
  </clipPath>
 </defs>
</svg>
