<?xml version="1.0" encoding="utf-8" standalone="no"?>
<!DOCTYPE svg PUBLIC "-//W3C//DTD SVG 1.1//EN"
  "http://www.w3.org/Graphics/SVG/1.1/DTD/svg11.dtd">
<svg xmlns:xlink="http://www.w3.org/1999/xlink" width="407.719654pt" height="153.380312pt" viewBox="0 0 407.719654 153.380312" xmlns="http://www.w3.org/2000/svg" version="1.1">
 <metadata>
  <rdf:RDF xmlns:dc="http://purl.org/dc/elements/1.1/" xmlns:cc="http://creativecommons.org/ns#" xmlns:rdf="http://www.w3.org/1999/02/22-rdf-syntax-ns#">
   <cc:Work>
    <dc:type rdf:resource="http://purl.org/dc/dcmitype/StillImage"/>
    <dc:date>2023-12-09T01:18:07.956390</dc:date>
    <dc:format>image/svg+xml</dc:format>
    <dc:creator>
     <cc:Agent>
      <dc:title>Matplotlib v3.8.2, https://matplotlib.org/</dc:title>
     </cc:Agent>
    </dc:creator>
   </cc:Work>
  </rdf:RDF>
 </metadata>
 <defs>
  <style type="text/css">*{stroke-linejoin: round; stroke-linecap: butt}</style>
 </defs>
 <g id="figure_1">
  <g id="patch_1">
   <path d="M 0 153.380312 
L 407.719654 153.380312 
L 407.719654 0 
L 0 0 
z
" style="fill: #ffffff"/>
  </g>
  <g id="axes_1">
   <g id="patch_2">
    <path d="M 20.457812 132.9225 
L 124.802007 132.9225 
L 124.802007 22.0425 
L 20.457812 22.0425 
z
" style="fill: #ffffff"/>
   </g>
   <g id="PathCollection_1">
    <defs>
     <path id="m045eb73384" d="M 0 1.118034 
C 0.296506 1.118034 0.580908 1.000231 0.790569 0.790569 
C 1.000231 0.580908 1.118034 0.296506 1.118034 0 
C 1.118034 -0.296506 1.000231 -0.580908 0.790569 -0.790569 
C 0.580908 -1.000231 0.296506 -1.118034 0 -1.118034 
C -0.296506 -1.118034 -0.580908 -1.000231 -0.790569 -0.790569 
C -1.000231 -0.580908 -1.118034 -0.296506 -1.118034 0 
C -1.118034 0.296506 -1.000231 0.580908 -0.790569 0.790569 
C -0.580908 1.000231 -0.296506 1.118034 0 1.118034 
z
" style="stroke: #1f77b4"/>
    </defs>
    <g clip-path="url(#paec5f23c72)">
     <use xlink:href="#m045eb73384" x="25.20073" y="125.979767" style="fill: #1f77b4; stroke: #1f77b4"/>
     <use xlink:href="#m045eb73384" x="30.193276" y="109.103847" style="fill: #1f77b4; stroke: #1f77b4"/>
     <use xlink:href="#m045eb73384" x="35.185821" y="118.198625" style="fill: #1f77b4; stroke: #1f77b4"/>
     <use xlink:href="#m045eb73384" x="40.178366" y="74.229949" style="fill: #1f77b4; stroke: #1f77b4"/>
     <use xlink:href="#m045eb73384" x="45.170911" y="100.813235" style="fill: #1f77b4; stroke: #1f77b4"/>
     <use xlink:href="#m045eb73384" x="50.163456" y="87.622918" style="fill: #1f77b4; stroke: #1f77b4"/>
     <use xlink:href="#m045eb73384" x="55.156002" y="72.198845" style="fill: #1f77b4; stroke: #1f77b4"/>
     <use xlink:href="#m045eb73384" x="60.148547" y="87.27425" style="fill: #1f77b4; stroke: #1f77b4"/>
     <use xlink:href="#m045eb73384" x="65.141092" y="84.819554" style="fill: #1f77b4; stroke: #1f77b4"/>
     <use xlink:href="#m045eb73384" x="70.133637" y="83.226903" style="fill: #1f77b4; stroke: #1f77b4"/>
     <use xlink:href="#m045eb73384" x="75.126182" y="69.359374" style="fill: #1f77b4; stroke: #1f77b4"/>
     <use xlink:href="#m045eb73384" x="80.118727" y="52.667081" style="fill: #1f77b4; stroke: #1f77b4"/>
     <use xlink:href="#m045eb73384" x="85.111273" y="73.338895" style="fill: #1f77b4; stroke: #1f77b4"/>
     <use xlink:href="#m045eb73384" x="90.103818" y="82.829944" style="fill: #1f77b4; stroke: #1f77b4"/>
     <use xlink:href="#m045eb73384" x="95.096363" y="64.442923" style="fill: #1f77b4; stroke: #1f77b4"/>
     <use xlink:href="#m045eb73384" x="100.088908" y="71.048656" style="fill: #1f77b4; stroke: #1f77b4"/>
     <use xlink:href="#m045eb73384" x="105.081453" y="59.586763" style="fill: #1f77b4; stroke: #1f77b4"/>
     <use xlink:href="#m045eb73384" x="110.073999" y="40.113694" style="fill: #1f77b4; stroke: #1f77b4"/>
     <use xlink:href="#m045eb73384" x="115.066544" y="47.718655" style="fill: #1f77b4; stroke: #1f77b4"/>
     <use xlink:href="#m045eb73384" x="120.059089" y="27.0825" style="fill: #1f77b4; stroke: #1f77b4"/>
    </g>
   </g>
   <g id="matplotlib.axis_1">
    <g id="text_1">
     <!-- $x$ -->
     <g transform="translate(69.62991 144.095937) scale(0.1 -0.1)">
      <defs>
       <path id="DejaVuSans-Oblique-78" d="M 3841 3500 
L 2234 1784 
L 3219 0 
L 2559 0 
L 1819 1388 
L 531 0 
L -166 0 
L 1556 1844 
L 641 3500 
L 1300 3500 
L 1972 2234 
L 3144 3500 
L 3841 3500 
z
" transform="scale(0.015625)"/>
      </defs>
      <use xlink:href="#DejaVuSans-Oblique-78" transform="translate(0 0.3125)"/>
     </g>
    </g>
   </g>
   <g id="matplotlib.axis_2">
    <g id="text_2">
     <!-- $y$ -->
     <g transform="translate(14.357812 80.4825) rotate(-90) scale(0.1 -0.1)">
      <defs>
       <path id="DejaVuSans-Oblique-79" d="M 1588 -325 
Q 1188 -997 936 -1164 
Q 684 -1331 294 -1331 
L -159 -1331 
L -63 -850 
L 269 -850 
Q 509 -850 678 -719 
Q 847 -588 1056 -206 
L 1234 128 
L 459 3500 
L 1069 3500 
L 1650 819 
L 3256 3500 
L 3859 3500 
L 1588 -325 
z
" transform="scale(0.015625)"/>
      </defs>
      <use xlink:href="#DejaVuSans-Oblique-79" transform="translate(0 0.3125)"/>
     </g>
    </g>
   </g>
   <g id="line2d_1">
    <path d="M 25.20073 111.767434 
L 26.158896 111.056634 
L 27.117061 110.345833 
L 28.075226 109.635033 
L 29.033391 108.924233 
L 29.991557 108.213432 
L 30.949722 107.502632 
L 31.907887 106.791832 
L 32.866052 106.081031 
L 33.824218 105.370231 
L 34.782383 104.659431 
L 35.740548 103.948631 
L 36.698713 103.23783 
L 37.656879 102.52703 
L 38.615044 101.81623 
L 39.573209 101.105429 
L 40.531374 100.394629 
L 41.489539 99.683829 
L 42.447705 98.973028 
L 43.40587 98.262228 
L 44.364035 97.551428 
L 45.3222 96.840628 
L 46.280366 96.129827 
L 47.238531 95.419027 
L 48.196696 94.708227 
L 49.154861 93.997426 
L 50.113027 93.286626 
L 51.071192 92.575826 
L 52.029357 91.865025 
L 52.987522 91.154225 
L 53.945688 90.443425 
L 54.903853 89.732624 
L 55.862018 89.021824 
L 56.820183 88.311024 
L 57.778348 87.600224 
L 58.736514 86.889423 
L 59.694679 86.178623 
L 60.652844 85.467823 
L 61.611009 84.757022 
L 62.569175 84.046222 
L 63.52734 83.335422 
L 64.485505 82.624621 
L 65.44367 81.913821 
L 66.401836 81.203021 
L 67.360001 80.492221 
L 68.318166 79.78142 
L 69.276331 79.07062 
L 70.234497 78.35982 
L 71.192662 77.649019 
L 72.150827 76.938219 
L 73.108992 76.227419 
L 74.067158 75.516618 
L 75.025323 74.805818 
L 75.983488 74.095018 
L 76.941653 73.384218 
L 77.899818 72.673417 
L 78.857984 71.962617 
L 79.816149 71.251817 
L 80.774314 70.541016 
L 81.732479 69.830216 
L 82.690645 69.119416 
L 83.64881 68.408615 
L 84.606975 67.697815 
L 85.56514 66.987015 
L 86.523306 66.276215 
L 87.481471 65.565414 
L 88.439636 64.854614 
L 89.397801 64.143814 
L 90.355967 63.433013 
L 91.314132 62.722213 
L 92.272297 62.011413 
L 93.230462 61.300612 
L 94.188627 60.589812 
L 95.146793 59.879012 
L 96.104958 59.168212 
L 97.063123 58.457411 
L 98.021288 57.746611 
L 98.979454 57.035811 
L 99.937619 56.32501 
L 100.895784 55.61421 
L 101.853949 54.90341 
L 102.812115 54.192609 
L 103.77028 53.481809 
L 104.728445 52.771009 
L 105.68661 52.060208 
L 106.644776 51.349408 
L 107.602941 50.638608 
L 108.561106 49.927808 
L 109.519271 49.217007 
L 110.477437 48.506207 
L 111.435602 47.795407 
L 112.393767 47.084606 
L 113.351932 46.373806 
L 114.310097 45.663006 
L 115.268263 44.952205 
L 116.226428 44.241405 
L 117.184593 43.530605 
L 118.142758 42.819805 
L 119.100924 42.109004 
L 120.059089 41.398204 
" clip-path="url(#paec5f23c72)" style="fill: none; stroke: #ff7f0e; stroke-linecap: square"/>
   </g>
   <g id="patch_3">
    <path d="M 20.457812 132.9225 
L 20.457812 22.0425 
" style="fill: none; stroke: #000000; stroke-width: 0.8; stroke-linejoin: miter; stroke-linecap: square"/>
   </g>
   <g id="patch_4">
    <path d="M 124.802007 132.9225 
L 124.802007 22.0425 
" style="fill: none; stroke: #000000; stroke-width: 0.8; stroke-linejoin: miter; stroke-linecap: square"/>
   </g>
   <g id="patch_5">
    <path d="M 20.457812 132.9225 
L 124.802007 132.9225 
" style="fill: none; stroke: #000000; stroke-width: 0.8; stroke-linejoin: miter; stroke-linecap: square"/>
   </g>
   <g id="patch_6">
    <path d="M 20.457812 22.0425 
L 124.802007 22.0425 
" style="fill: none; stroke: #000000; stroke-width: 0.8; stroke-linejoin: miter; stroke-linecap: square"/>
   </g>
   <g id="text_3">
    <!-- Loss: 0.06 -->
    <g transform="translate(52.297878 31.91103) scale(0.0694 -0.0694)">
     <defs>
      <path id="CascadiaCode-Regular-4c" d="M 500 0 
L 500 4438 
L 1150 4438 
L 1150 0 
L 500 0 
z
M 500 0 
L 500 594 
L 3438 594 
L 3438 0 
L 500 0 
z
" transform="scale(0.015625)"/>
      <path id="CascadiaCode-Regular-6f" d="M 1875 -63 
Q 1188 -63 806 387 
Q 425 838 425 1656 
Q 425 2478 806 2926 
Q 1188 3375 1875 3375 
Q 2566 3375 2945 2926 
Q 3325 2478 3325 1656 
Q 3325 838 2945 387 
Q 2566 -63 1875 -63 
z
M 1875 531 
Q 2241 531 2439 825 
Q 2638 1119 2638 1656 
Q 2638 2197 2439 2489 
Q 2241 2781 1875 2781 
Q 1509 2781 1311 2489 
Q 1113 2197 1113 1656 
Q 1113 1119 1311 825 
Q 1509 531 1875 531 
z
" transform="scale(0.015625)"/>
      <path id="CascadiaCode-Regular-73" d="M 1619 -63 
Q 1244 -63 976 -41 
Q 709 -19 488 31 
L 563 631 
Q 891 581 1142 556 
Q 1394 531 1619 531 
Q 2122 531 2348 629 
Q 2575 728 2575 944 
Q 2575 1094 2495 1167 
Q 2416 1241 2250 1281 
L 1488 1475 
Q 997 1600 767 1784 
Q 538 1969 538 2344 
Q 538 2888 955 3131 
Q 1372 3375 2300 3375 
Q 2541 3375 2748 3361 
Q 2956 3347 3175 3313 
L 3106 2738 
Q 2853 2763 2659 2772 
Q 2466 2781 2281 2781 
Q 1725 2781 1475 2686 
Q 1225 2591 1225 2375 
Q 1225 2231 1328 2167 
Q 1431 2103 1644 2050 
L 2256 1900 
Q 2778 1775 3020 1565 
Q 3263 1356 3263 956 
Q 3263 422 2872 179 
Q 2481 -63 1619 -63 
z
" transform="scale(0.015625)"/>
      <path id="CascadiaCode-Regular-3a" d="M 1875 2450 
Q 1684 2450 1548 2586 
Q 1413 2722 1413 2913 
Q 1413 3106 1548 3240 
Q 1684 3375 1875 3375 
Q 2069 3375 2203 3240 
Q 2338 3106 2338 2913 
Q 2338 2722 2203 2586 
Q 2069 2450 1875 2450 
z
M 1875 -63 
Q 1684 -63 1548 73 
Q 1413 209 1413 400 
Q 1413 594 1548 728 
Q 1684 863 1875 863 
Q 2069 863 2203 728 
Q 2338 594 2338 400 
Q 2338 209 2203 73 
Q 2069 -63 1875 -63 
z
" transform="scale(0.015625)"/>
      <path id="CascadiaCode-Regular-20" transform="scale(0.015625)"/>
      <path id="CascadiaCode-Regular-30" d="M 1875 -63 
Q 363 -63 363 2188 
Q 363 4500 1875 4500 
Q 3388 4500 3388 2188 
Q 3388 -63 1875 -63 
z
M 1875 1719 
Q 1666 1719 1536 1848 
Q 1406 1978 1406 2188 
Q 1406 2400 1536 2528 
Q 1666 2656 1875 2656 
Q 2088 2656 2216 2528 
Q 2344 2400 2344 2188 
Q 2344 1978 2216 1848 
Q 2088 1719 1875 1719 
z
M 1875 513 
Q 2719 513 2719 2188 
Q 2719 3925 1875 3925 
Q 1031 3925 1031 2188 
Q 1031 513 1875 513 
z
" transform="scale(0.015625)"/>
      <path id="CascadiaCode-Regular-2e" d="M 1875 -63 
Q 1684 -63 1548 73 
Q 1413 209 1413 400 
Q 1413 594 1548 728 
Q 1684 863 1875 863 
Q 2069 863 2203 728 
Q 2338 594 2338 400 
Q 2338 209 2203 73 
Q 2069 -63 1875 -63 
z
" transform="scale(0.015625)"/>
      <path id="CascadiaCode-Regular-36" d="M 1900 -63 
Q 1128 -63 764 321 
Q 400 706 400 1519 
L 919 2088 
L 1150 2088 
Q 1244 2434 1523 2623 
Q 1803 2813 2206 2813 
Q 2788 2813 3103 2453 
Q 3419 2094 3419 1438 
Q 3419 731 3017 334 
Q 2616 -63 1900 -63 
z
M 1922 513 
Q 2319 513 2541 758 
Q 2763 1003 2763 1438 
Q 2763 1822 2558 2030 
Q 2353 2238 1972 2238 
Q 1538 2238 1303 2013 
Q 1069 1788 1069 1375 
Q 1069 969 1294 741 
Q 1519 513 1922 513 
z
M 400 1519 
L 400 1794 
Q 400 3066 1045 3728 
Q 1691 4391 3013 4456 
L 3075 3863 
Q 1094 3778 1094 2081 
L 1094 1725 
L 400 1519 
z
" transform="scale(0.015625)"/>
     </defs>
     <use xlink:href="#CascadiaCode-Regular-4c"/>
     <use xlink:href="#CascadiaCode-Regular-6f" x="58.59375"/>
     <use xlink:href="#CascadiaCode-Regular-73" x="117.1875"/>
     <use xlink:href="#CascadiaCode-Regular-73" x="175.78125"/>
     <use xlink:href="#CascadiaCode-Regular-3a" x="234.375"/>
     <use xlink:href="#CascadiaCode-Regular-20" x="292.96875"/>
     <use xlink:href="#CascadiaCode-Regular-30" x="351.5625"/>
     <use xlink:href="#CascadiaCode-Regular-2e" x="410.15625"/>
     <use xlink:href="#CascadiaCode-Regular-30" x="468.75"/>
     <use xlink:href="#CascadiaCode-Regular-36" x="527.34375"/>
    </g>
   </g>
   <g id="text_4">
    <!-- Underfitting -->
    <g transform="translate(41.949285 16.0425) scale(0.12 -0.12)">
     <defs>
      <path id="Helvetica-55" d="M 1163 4591 
L 1163 1753 
Q 1163 1253 1350 922 
Q 1628 422 2288 422 
Q 3078 422 3363 963 
Q 3516 1256 3516 1753 
L 3516 4591 
L 4147 4591 
L 4147 2013 
Q 4147 1166 3919 709 
Q 3500 -122 2338 -122 
Q 1175 -122 759 709 
Q 531 1166 531 2013 
L 531 4591 
L 1163 4591 
z
M 2341 4591 
L 2341 4591 
z
" transform="scale(0.015625)"/>
      <path id="Helvetica-6e" d="M 413 3347 
L 947 3347 
L 947 2872 
Q 1184 3166 1450 3294 
Q 1716 3422 2041 3422 
Q 2753 3422 3003 2925 
Q 3141 2653 3141 2147 
L 3141 0 
L 2569 0 
L 2569 2109 
Q 2569 2416 2478 2603 
Q 2328 2916 1934 2916 
Q 1734 2916 1606 2875 
Q 1375 2806 1200 2600 
Q 1059 2434 1017 2257 
Q 975 2081 975 1753 
L 975 0 
L 413 0 
L 413 3347 
z
M 1734 3428 
L 1734 3428 
z
" transform="scale(0.015625)"/>
      <path id="Helvetica-64" d="M 769 1634 
Q 769 1097 997 734 
Q 1225 372 1728 372 
Q 2119 372 2370 708 
Q 2622 1044 2622 1672 
Q 2622 2306 2362 2611 
Q 2103 2916 1722 2916 
Q 1297 2916 1033 2591 
Q 769 2266 769 1634 
z
M 1616 3406 
Q 2000 3406 2259 3244 
Q 2409 3150 2600 2916 
L 2600 4606 
L 3141 4606 
L 3141 0 
L 2634 0 
L 2634 466 
Q 2438 156 2169 18 
Q 1900 -119 1553 -119 
Q 994 -119 584 351 
Q 175 822 175 1603 
Q 175 2334 548 2870 
Q 922 3406 1616 3406 
z
" transform="scale(0.015625)"/>
      <path id="Helvetica-65" d="M 1806 3422 
Q 2163 3422 2497 3255 
Q 2831 3088 3006 2822 
Q 3175 2569 3231 2231 
Q 3281 2000 3281 1494 
L 828 1494 
Q 844 984 1069 676 
Q 1294 369 1766 369 
Q 2206 369 2469 659 
Q 2619 828 2681 1050 
L 3234 1050 
Q 3213 866 3089 639 
Q 2966 413 2813 269 
Q 2556 19 2178 -69 
Q 1975 -119 1719 -119 
Q 1094 -119 659 336 
Q 225 791 225 1609 
Q 225 2416 662 2919 
Q 1100 3422 1806 3422 
z
M 2703 1941 
Q 2669 2306 2544 2525 
Q 2313 2931 1772 2931 
Q 1384 2931 1121 2651 
Q 859 2372 844 1941 
L 2703 1941 
z
M 1753 3428 
L 1753 3428 
z
" transform="scale(0.015625)"/>
      <path id="Helvetica-72" d="M 428 3347 
L 963 3347 
L 963 2769 
Q 1028 2938 1284 3180 
Q 1541 3422 1875 3422 
Q 1891 3422 1928 3419 
Q 1966 3416 2056 3406 
L 2056 2813 
Q 2006 2822 1964 2825 
Q 1922 2828 1872 2828 
Q 1447 2828 1219 2554 
Q 991 2281 991 1925 
L 991 0 
L 428 0 
L 428 3347 
z
" transform="scale(0.015625)"/>
      <path id="Helvetica-66" d="M 553 3856 
Q 566 4206 675 4369 
Q 872 4656 1434 4656 
Q 1488 4656 1544 4653 
Q 1600 4650 1672 4644 
L 1672 4131 
Q 1584 4138 1545 4139 
Q 1506 4141 1472 4141 
Q 1216 4141 1166 4008 
Q 1116 3875 1116 3331 
L 1672 3331 
L 1672 2888 
L 1109 2888 
L 1109 0 
L 553 0 
L 553 2888 
L 88 2888 
L 88 3331 
L 553 3331 
L 553 3856 
z
" transform="scale(0.015625)"/>
      <path id="Helvetica-69" d="M 413 3331 
L 984 3331 
L 984 0 
L 413 0 
L 413 3331 
z
M 413 4591 
L 984 4591 
L 984 3953 
L 413 3953 
L 413 4591 
z
" transform="scale(0.015625)"/>
      <path id="Helvetica-74" d="M 525 4281 
L 1094 4281 
L 1094 3347 
L 1628 3347 
L 1628 2888 
L 1094 2888 
L 1094 703 
Q 1094 528 1213 469 
Q 1278 434 1431 434 
Q 1472 434 1519 436 
Q 1566 438 1628 444 
L 1628 0 
Q 1531 -28 1426 -40 
Q 1322 -53 1200 -53 
Q 806 -53 665 148 
Q 525 350 525 672 
L 525 2888 
L 72 2888 
L 72 3347 
L 525 3347 
L 525 4281 
z
" transform="scale(0.015625)"/>
      <path id="Helvetica-67" d="M 1594 3406 
Q 1988 3406 2281 3213 
Q 2441 3103 2606 2894 
L 2606 3316 
L 3125 3316 
L 3125 272 
Q 3125 -366 2938 -734 
Q 2588 -1416 1616 -1416 
Q 1075 -1416 706 -1173 
Q 338 -931 294 -416 
L 866 -416 
Q 906 -641 1028 -763 
Q 1219 -950 1628 -950 
Q 2275 -950 2475 -494 
Q 2594 -225 2584 466 
Q 2416 209 2178 84 
Q 1941 -41 1550 -41 
Q 1006 -41 598 345 
Q 191 731 191 1622 
Q 191 2463 602 2934 
Q 1013 3406 1594 3406 
z
M 2606 1688 
Q 2606 2309 2350 2609 
Q 2094 2909 1697 2909 
Q 1103 2909 884 2353 
Q 769 2056 769 1575 
Q 769 1009 998 714 
Q 1228 419 1616 419 
Q 2222 419 2469 966 
Q 2606 1275 2606 1688 
z
M 1659 3428 
L 1659 3428 
z
" transform="scale(0.015625)"/>
     </defs>
     <use xlink:href="#Helvetica-55"/>
     <use xlink:href="#Helvetica-6e" x="72.216797"/>
     <use xlink:href="#Helvetica-64" x="127.832031"/>
     <use xlink:href="#Helvetica-65" x="183.447266"/>
     <use xlink:href="#Helvetica-72" x="239.0625"/>
     <use xlink:href="#Helvetica-66" x="272.363281"/>
     <use xlink:href="#Helvetica-69" x="300.146484"/>
     <use xlink:href="#Helvetica-74" x="322.363281"/>
     <use xlink:href="#Helvetica-74" x="350.146484"/>
     <use xlink:href="#Helvetica-69" x="377.929688"/>
     <use xlink:href="#Helvetica-6e" x="400.146484"/>
     <use xlink:href="#Helvetica-67" x="455.761719"/>
    </g>
   </g>
  </g>
  <g id="axes_2">
   <g id="patch_7">
    <path d="M 158.316636 132.9225 
L 262.66083 132.9225 
L 262.66083 22.0425 
L 158.316636 22.0425 
z
" style="fill: #ffffff"/>
   </g>
   <g id="PathCollection_2">
    <g clip-path="url(#pb22be0283b)">
     <use xlink:href="#m045eb73384" x="163.059554" y="125.979767" style="fill: #1f77b4; stroke: #1f77b4"/>
     <use xlink:href="#m045eb73384" x="168.052099" y="109.103847" style="fill: #1f77b4; stroke: #1f77b4"/>
     <use xlink:href="#m045eb73384" x="173.044644" y="118.198625" style="fill: #1f77b4; stroke: #1f77b4"/>
     <use xlink:href="#m045eb73384" x="178.03719" y="74.229949" style="fill: #1f77b4; stroke: #1f77b4"/>
     <use xlink:href="#m045eb73384" x="183.029735" y="100.813235" style="fill: #1f77b4; stroke: #1f77b4"/>
     <use xlink:href="#m045eb73384" x="188.02228" y="87.622918" style="fill: #1f77b4; stroke: #1f77b4"/>
     <use xlink:href="#m045eb73384" x="193.014825" y="72.198845" style="fill: #1f77b4; stroke: #1f77b4"/>
     <use xlink:href="#m045eb73384" x="198.00737" y="87.27425" style="fill: #1f77b4; stroke: #1f77b4"/>
     <use xlink:href="#m045eb73384" x="202.999915" y="84.819554" style="fill: #1f77b4; stroke: #1f77b4"/>
     <use xlink:href="#m045eb73384" x="207.992461" y="83.226903" style="fill: #1f77b4; stroke: #1f77b4"/>
     <use xlink:href="#m045eb73384" x="212.985006" y="69.359374" style="fill: #1f77b4; stroke: #1f77b4"/>
     <use xlink:href="#m045eb73384" x="217.977551" y="52.667081" style="fill: #1f77b4; stroke: #1f77b4"/>
     <use xlink:href="#m045eb73384" x="222.970096" y="73.338895" style="fill: #1f77b4; stroke: #1f77b4"/>
     <use xlink:href="#m045eb73384" x="227.962641" y="82.829944" style="fill: #1f77b4; stroke: #1f77b4"/>
     <use xlink:href="#m045eb73384" x="232.955187" y="64.442923" style="fill: #1f77b4; stroke: #1f77b4"/>
     <use xlink:href="#m045eb73384" x="237.947732" y="71.048656" style="fill: #1f77b4; stroke: #1f77b4"/>
     <use xlink:href="#m045eb73384" x="242.940277" y="59.586763" style="fill: #1f77b4; stroke: #1f77b4"/>
     <use xlink:href="#m045eb73384" x="247.932822" y="40.113694" style="fill: #1f77b4; stroke: #1f77b4"/>
     <use xlink:href="#m045eb73384" x="252.925367" y="47.718655" style="fill: #1f77b4; stroke: #1f77b4"/>
     <use xlink:href="#m045eb73384" x="257.917912" y="27.0825" style="fill: #1f77b4; stroke: #1f77b4"/>
    </g>
   </g>
   <g id="matplotlib.axis_3">
    <g id="text_5">
     <!-- $x$ -->
     <g transform="translate(207.488733 144.095937) scale(0.1 -0.1)">
      <use xlink:href="#DejaVuSans-Oblique-78" transform="translate(0 0.3125)"/>
     </g>
    </g>
   </g>
   <g id="matplotlib.axis_4"/>
   <g id="line2d_2">
    <path d="M 163.059554 127.8825 
L 164.017719 124.944405 
L 164.975884 122.125005 
L 165.93405 119.421852 
L 166.892215 116.832499 
L 167.85038 114.354498 
L 168.808545 111.985403 
L 169.766711 109.722765 
L 170.724876 107.564138 
L 171.683041 105.507074 
L 172.641206 103.549126 
L 173.599372 101.687847 
L 174.557537 99.920789 
L 175.515702 98.245505 
L 176.473867 96.659548 
L 177.432033 95.16047 
L 178.390198 93.745824 
L 179.348363 92.413163 
L 180.306528 91.16004 
L 181.264693 89.984007 
L 182.222859 88.882616 
L 183.181024 87.853422 
L 184.139189 86.893975 
L 185.097354 86.00183 
L 186.05552 85.174538 
L 187.013685 84.409652 
L 187.97185 83.704726 
L 188.930015 83.057311 
L 189.888181 82.464961 
L 190.846346 81.925227 
L 191.804511 81.435664 
L 192.762676 80.993823 
L 193.720842 80.597257 
L 194.679007 80.243519 
L 195.637172 79.930162 
L 196.595337 79.654738 
L 197.553502 79.4148 
L 198.511668 79.2079 
L 199.469833 79.031592 
L 200.427998 78.883428 
L 201.386163 78.760961 
L 202.344329 78.661743 
L 203.302494 78.583327 
L 204.260659 78.523266 
L 205.218824 78.479113 
L 206.17699 78.448419 
L 207.135155 78.428739 
L 208.09332 78.417624 
L 209.051485 78.412627 
L 210.009651 78.411302 
L 210.967816 78.4112 
L 211.925981 78.409874 
L 212.884146 78.404878 
L 213.842312 78.393763 
L 214.800477 78.374082 
L 215.758642 78.343389 
L 216.716807 78.299235 
L 217.674972 78.239174 
L 218.633138 78.160759 
L 219.591303 78.061541 
L 220.549468 77.939073 
L 221.507633 77.790909 
L 222.465799 77.614601 
L 223.423964 77.407702 
L 224.382129 77.167764 
L 225.340294 76.89234 
L 226.29846 76.578982 
L 227.256625 76.225244 
L 228.21479 75.828679 
L 229.172955 75.386838 
L 230.131121 74.897274 
L 231.089286 74.357541 
L 232.047451 73.765191 
L 233.005616 73.117776 
L 233.963781 72.412849 
L 234.921947 71.647964 
L 235.880112 70.820672 
L 236.838277 69.928526 
L 237.796442 68.96908 
L 238.754608 67.939885 
L 239.712773 66.838495 
L 240.670938 65.662462 
L 241.629103 64.409338 
L 242.587269 63.076677 
L 243.545434 61.662032 
L 244.503599 60.162954 
L 245.461764 58.576997 
L 246.41993 56.901713 
L 247.378095 55.134655 
L 248.33626 53.273375 
L 249.294425 51.315428 
L 250.252591 49.258364 
L 251.210756 47.099737 
L 252.168921 44.837099 
L 253.127086 42.468003 
L 254.085251 39.990003 
L 255.043417 37.400649 
L 256.001582 34.697496 
L 256.959747 31.878096 
L 257.917912 28.940002 
" clip-path="url(#pb22be0283b)" style="fill: none; stroke: #ff7f0e; stroke-linecap: square"/>
   </g>
   <g id="patch_8">
    <path d="M 158.316636 132.9225 
L 158.316636 22.0425 
" style="fill: none; stroke: #000000; stroke-width: 0.8; stroke-linejoin: miter; stroke-linecap: square"/>
   </g>
   <g id="patch_9">
    <path d="M 262.66083 132.9225 
L 262.66083 22.0425 
" style="fill: none; stroke: #000000; stroke-width: 0.8; stroke-linejoin: miter; stroke-linecap: square"/>
   </g>
   <g id="patch_10">
    <path d="M 158.316636 132.9225 
L 262.66083 132.9225 
" style="fill: none; stroke: #000000; stroke-width: 0.8; stroke-linejoin: miter; stroke-linecap: square"/>
   </g>
   <g id="patch_11">
    <path d="M 158.316636 22.0425 
L 262.66083 22.0425 
" style="fill: none; stroke: #000000; stroke-width: 0.8; stroke-linejoin: miter; stroke-linecap: square"/>
   </g>
   <g id="text_6">
    <!-- Loss: 0.05 -->
    <g transform="translate(190.156702 31.91103) scale(0.0694 -0.0694)">
     <defs>
      <path id="CascadiaCode-Regular-35" d="M 1919 -63 
Q 1200 -63 806 279 
Q 413 622 413 1244 
L 1081 1244 
Q 1081 897 1300 705 
Q 1519 513 1925 513 
Q 2325 513 2544 753 
Q 2763 994 2763 1431 
Q 2763 1859 2525 2095 
Q 2288 2331 1850 2331 
Q 1413 2331 1031 2125 
L 1088 2656 
Q 1334 2797 1578 2845 
Q 1822 2894 2069 2894 
Q 2713 2894 3066 2512 
Q 3419 2131 3419 1431 
Q 3419 956 3242 622 
Q 3066 288 2731 112 
Q 2397 -63 1919 -63 
z
M 681 2125 
L 744 4438 
L 1413 4438 
L 1350 2513 
L 1031 2125 
L 681 2125 
z
M 1044 3856 
L 988 4438 
L 3138 4438 
L 3138 3856 
L 1044 3856 
z
" transform="scale(0.015625)"/>
     </defs>
     <use xlink:href="#CascadiaCode-Regular-4c"/>
     <use xlink:href="#CascadiaCode-Regular-6f" x="58.59375"/>
     <use xlink:href="#CascadiaCode-Regular-73" x="117.1875"/>
     <use xlink:href="#CascadiaCode-Regular-73" x="175.78125"/>
     <use xlink:href="#CascadiaCode-Regular-3a" x="234.375"/>
     <use xlink:href="#CascadiaCode-Regular-20" x="292.96875"/>
     <use xlink:href="#CascadiaCode-Regular-30" x="351.5625"/>
     <use xlink:href="#CascadiaCode-Regular-2e" x="410.15625"/>
     <use xlink:href="#CascadiaCode-Regular-30" x="468.75"/>
     <use xlink:href="#CascadiaCode-Regular-35" x="527.34375"/>
    </g>
   </g>
   <g id="text_7">
    <!-- Just right -->
    <g transform="translate(186.147483 16.0425) scale(0.12 -0.12)">
     <defs>
      <path id="Helvetica-4a" d="M 2741 1369 
Q 2741 788 2569 466 
Q 2250 -122 1356 -122 
Q 841 -122 475 158 
Q 109 438 109 1153 
L 109 1481 
L 694 1481 
L 694 1153 
Q 694 778 861 589 
Q 1028 400 1381 400 
Q 1878 400 2031 741 
Q 2125 950 2125 1531 
L 2125 4591 
L 2741 4591 
L 2741 1369 
z
" transform="scale(0.015625)"/>
      <path id="Helvetica-75" d="M 975 3347 
L 975 1125 
Q 975 869 1056 706 
Q 1206 406 1616 406 
Q 2203 406 2416 931 
Q 2531 1213 2531 1703 
L 2531 3347 
L 3094 3347 
L 3094 0 
L 2563 0 
L 2569 494 
Q 2459 303 2297 172 
Q 1975 -91 1516 -91 
Q 800 -91 541 388 
Q 400 644 400 1072 
L 400 3347 
L 975 3347 
z
M 1747 3428 
L 1747 3428 
z
" transform="scale(0.015625)"/>
      <path id="Helvetica-73" d="M 747 1050 
Q 772 769 888 619 
Q 1100 347 1625 347 
Q 1938 347 2175 483 
Q 2413 619 2413 903 
Q 2413 1119 2222 1231 
Q 2100 1300 1741 1391 
L 1294 1503 
Q 866 1609 663 1741 
Q 300 1969 300 2372 
Q 300 2847 642 3140 
Q 984 3434 1563 3434 
Q 2319 3434 2653 2991 
Q 2863 2709 2856 2384 
L 2325 2384 
Q 2309 2575 2191 2731 
Q 1997 2953 1519 2953 
Q 1200 2953 1036 2831 
Q 872 2709 872 2509 
Q 872 2291 1088 2159 
Q 1213 2081 1456 2022 
L 1828 1931 
Q 2434 1784 2641 1647 
Q 2969 1431 2969 969 
Q 2969 522 2630 197 
Q 2291 -128 1597 -128 
Q 850 -128 539 211 
Q 228 550 206 1050 
L 747 1050 
z
M 1578 3428 
L 1578 3428 
z
" transform="scale(0.015625)"/>
      <path id="Helvetica-20" transform="scale(0.015625)"/>
      <path id="Helvetica-68" d="M 413 4606 
L 975 4606 
L 975 2894 
Q 1175 3147 1334 3250 
Q 1606 3428 2013 3428 
Q 2741 3428 3000 2919 
Q 3141 2641 3141 2147 
L 3141 0 
L 2563 0 
L 2563 2109 
Q 2563 2478 2469 2650 
Q 2316 2925 1894 2925 
Q 1544 2925 1259 2684 
Q 975 2444 975 1775 
L 975 0 
L 413 0 
L 413 4606 
z
" transform="scale(0.015625)"/>
     </defs>
     <use xlink:href="#Helvetica-4a"/>
     <use xlink:href="#Helvetica-75" x="50"/>
     <use xlink:href="#Helvetica-73" x="105.615234"/>
     <use xlink:href="#Helvetica-74" x="155.615234"/>
     <use xlink:href="#Helvetica-20" x="183.398438"/>
     <use xlink:href="#Helvetica-72" x="211.181641"/>
     <use xlink:href="#Helvetica-69" x="244.482422"/>
     <use xlink:href="#Helvetica-67" x="266.699219"/>
     <use xlink:href="#Helvetica-68" x="322.314453"/>
     <use xlink:href="#Helvetica-74" x="377.929688"/>
    </g>
   </g>
  </g>
  <g id="axes_3">
   <g id="patch_12">
    <path d="M 296.17546 132.9225 
L 400.519654 132.9225 
L 400.519654 22.0425 
L 296.17546 22.0425 
z
" style="fill: #ffffff"/>
   </g>
   <g id="PathCollection_3">
    <g clip-path="url(#p1d0ffb3056)">
     <use xlink:href="#m045eb73384" x="300.918377" y="125.979767" style="fill: #1f77b4; stroke: #1f77b4"/>
     <use xlink:href="#m045eb73384" x="305.910923" y="109.103847" style="fill: #1f77b4; stroke: #1f77b4"/>
     <use xlink:href="#m045eb73384" x="310.903468" y="118.198625" style="fill: #1f77b4; stroke: #1f77b4"/>
     <use xlink:href="#m045eb73384" x="315.896013" y="74.229949" style="fill: #1f77b4; stroke: #1f77b4"/>
     <use xlink:href="#m045eb73384" x="320.888558" y="100.813235" style="fill: #1f77b4; stroke: #1f77b4"/>
     <use xlink:href="#m045eb73384" x="325.881103" y="87.622918" style="fill: #1f77b4; stroke: #1f77b4"/>
     <use xlink:href="#m045eb73384" x="330.873649" y="72.198845" style="fill: #1f77b4; stroke: #1f77b4"/>
     <use xlink:href="#m045eb73384" x="335.866194" y="87.27425" style="fill: #1f77b4; stroke: #1f77b4"/>
     <use xlink:href="#m045eb73384" x="340.858739" y="84.819554" style="fill: #1f77b4; stroke: #1f77b4"/>
     <use xlink:href="#m045eb73384" x="345.851284" y="83.226903" style="fill: #1f77b4; stroke: #1f77b4"/>
     <use xlink:href="#m045eb73384" x="350.843829" y="69.359374" style="fill: #1f77b4; stroke: #1f77b4"/>
     <use xlink:href="#m045eb73384" x="355.836374" y="52.667081" style="fill: #1f77b4; stroke: #1f77b4"/>
     <use xlink:href="#m045eb73384" x="360.82892" y="73.338895" style="fill: #1f77b4; stroke: #1f77b4"/>
     <use xlink:href="#m045eb73384" x="365.821465" y="82.829944" style="fill: #1f77b4; stroke: #1f77b4"/>
     <use xlink:href="#m045eb73384" x="370.81401" y="64.442923" style="fill: #1f77b4; stroke: #1f77b4"/>
     <use xlink:href="#m045eb73384" x="375.806555" y="71.048656" style="fill: #1f77b4; stroke: #1f77b4"/>
     <use xlink:href="#m045eb73384" x="380.7991" y="59.586763" style="fill: #1f77b4; stroke: #1f77b4"/>
     <use xlink:href="#m045eb73384" x="385.791646" y="40.113694" style="fill: #1f77b4; stroke: #1f77b4"/>
     <use xlink:href="#m045eb73384" x="390.784191" y="47.718655" style="fill: #1f77b4; stroke: #1f77b4"/>
     <use xlink:href="#m045eb73384" x="395.776736" y="27.0825" style="fill: #1f77b4; stroke: #1f77b4"/>
    </g>
   </g>
   <g id="matplotlib.axis_5">
    <g id="text_8">
     <!-- $x$ -->
     <g transform="translate(345.347557 144.095937) scale(0.1 -0.1)">
      <use xlink:href="#DejaVuSans-Oblique-78" transform="translate(0 0.3125)"/>
     </g>
    </g>
   </g>
   <g id="matplotlib.axis_6"/>
   <g id="line2d_3">
    <path d="M 300.918377 119.732622 
L 301.876543 119.732622 
L 302.834708 119.732622 
L 303.792873 113.657291 
L 304.751038 113.657291 
L 305.709204 113.657291 
L 306.667369 112.451214 
L 307.625534 112.451214 
L 308.583699 109.850958 
L 309.541865 109.850958 
L 310.50003 109.850958 
L 311.458195 102.944493 
L 312.41636 102.944493 
L 313.374526 102.944493 
L 314.332691 85.834444 
L 315.290856 85.834444 
L 316.249021 83.579359 
L 317.207187 83.579359 
L 318.165352 83.579359 
L 319.123517 93.429779 
L 320.081682 93.429779 
L 321.039847 95.007831 
L 321.998013 95.007831 
L 322.956178 95.007831 
L 323.914343 89.313157 
L 324.872508 89.313157 
L 325.830674 89.313157 
L 326.788839 85.544205 
L 327.747004 85.544205 
L 328.705169 79.044309 
L 329.663335 79.044309 
L 330.6215 79.044309 
L 331.579665 78.508253 
L 332.53783 78.508253 
L 333.495996 83.997714 
L 334.454161 83.997714 
L 335.412326 83.997714 
L 336.370491 85.33295 
L 337.328656 85.33295 
L 338.286822 85.33295 
L 339.244987 84.872524 
L 340.203152 84.872524 
L 341.161317 83.918472 
L 342.119483 83.918472 
L 343.077648 83.918472 
L 344.035813 81.89588 
L 344.993978 81.89588 
L 345.952144 78.597505 
L 346.910309 78.597505 
L 347.868474 78.597505 
L 348.826639 71.764394 
L 349.784805 71.764394 
L 350.74297 71.764394 
L 351.701135 67.199003 
L 352.6593 67.199003 
L 353.617466 60.11403 
L 354.575631 60.11403 
L 355.533796 60.11403 
L 356.491961 60.94973 
L 357.450126 60.94973 
L 358.408292 69.146563 
L 359.366457 69.146563 
L 360.324622 69.146563 
L 361.282787 74.074271 
L 362.240953 74.074271 
L 363.199118 74.074271 
L 364.157283 78.88316 
L 365.115448 78.88316 
L 366.073614 77.64362 
L 367.031779 77.64362 
L 367.989944 77.64362 
L 368.948109 68.990595 
L 369.906275 68.990595 
L 370.86444 66.77164 
L 371.822605 66.77164 
L 372.78077 66.77164 
L 373.738936 68.831622 
L 374.697101 68.831622 
L 375.655266 68.831622 
L 376.613431 67.42653 
L 377.571596 67.42653 
L 378.529762 61.112926 
L 379.487927 61.112926 
L 380.446092 61.112926 
L 381.404257 57.053677 
L 382.362423 57.053677 
L 383.320588 46.012223 
L 384.278753 46.012223 
L 385.236918 46.012223 
L 386.195084 44.232006 
L 387.153249 44.232006 
L 388.111414 44.232006 
L 389.069579 45.28571 
L 390.027745 45.28571 
L 390.98591 43.200719 
L 391.944075 43.200719 
L 392.90224 43.200719 
L 393.860405 34.120811 
L 394.818571 34.120811 
L 395.776736 34.120811 
" clip-path="url(#p1d0ffb3056)" style="fill: none; stroke: #ff7f0e; stroke-linecap: square"/>
   </g>
   <g id="patch_13">
    <path d="M 296.17546 132.9225 
L 296.17546 22.0425 
" style="fill: none; stroke: #000000; stroke-width: 0.8; stroke-linejoin: miter; stroke-linecap: square"/>
   </g>
   <g id="patch_14">
    <path d="M 400.519654 132.9225 
L 400.519654 22.0425 
" style="fill: none; stroke: #000000; stroke-width: 0.8; stroke-linejoin: miter; stroke-linecap: square"/>
   </g>
   <g id="patch_15">
    <path d="M 296.17546 132.9225 
L 400.519654 132.9225 
" style="fill: none; stroke: #000000; stroke-width: 0.8; stroke-linejoin: miter; stroke-linecap: square"/>
   </g>
   <g id="patch_16">
    <path d="M 296.17546 22.0425 
L 400.519654 22.0425 
" style="fill: none; stroke: #000000; stroke-width: 0.8; stroke-linejoin: miter; stroke-linecap: square"/>
   </g>
   <g id="text_9">
    <!-- Loss: 0.01 -->
    <g transform="translate(328.015525 31.91103) scale(0.0694 -0.0694)">
     <defs>
      <path id="CascadiaCode-Regular-31" d="M 1644 0 
L 1644 4438 
L 2294 4438 
L 2294 0 
L 1644 0 
z
M 531 0 
L 531 594 
L 1706 594 
L 1706 0 
L 531 0 
z
M 2231 0 
L 2231 594 
L 3288 594 
L 3288 0 
L 2231 0 
z
M 594 3431 
L 594 4063 
L 1644 4438 
L 1644 3794 
L 594 3431 
z
" transform="scale(0.015625)"/>
     </defs>
     <use xlink:href="#CascadiaCode-Regular-4c"/>
     <use xlink:href="#CascadiaCode-Regular-6f" x="58.59375"/>
     <use xlink:href="#CascadiaCode-Regular-73" x="117.1875"/>
     <use xlink:href="#CascadiaCode-Regular-73" x="175.78125"/>
     <use xlink:href="#CascadiaCode-Regular-3a" x="234.375"/>
     <use xlink:href="#CascadiaCode-Regular-20" x="292.96875"/>
     <use xlink:href="#CascadiaCode-Regular-30" x="351.5625"/>
     <use xlink:href="#CascadiaCode-Regular-2e" x="410.15625"/>
     <use xlink:href="#CascadiaCode-Regular-30" x="468.75"/>
     <use xlink:href="#CascadiaCode-Regular-31" x="527.34375"/>
    </g>
   </g>
   <g id="text_10">
    <!-- Overfitting -->
    <g transform="translate(321.006307 16.0425) scale(0.12 -0.12)">
     <defs>
      <path id="Helvetica-4f" d="M 2469 4716 
Q 3684 4716 4269 3934 
Q 4725 3325 4725 2375 
Q 4725 1347 4203 666 
Q 3591 -134 2456 -134 
Q 1397 -134 791 566 
Q 250 1241 250 2272 
Q 250 3203 713 3866 
Q 1306 4716 2469 4716 
z
M 2531 422 
Q 3353 422 3720 1011 
Q 4088 1600 4088 2366 
Q 4088 3175 3664 3669 
Q 3241 4163 2506 4163 
Q 1794 4163 1344 3673 
Q 894 3184 894 2231 
Q 894 1469 1280 945 
Q 1666 422 2531 422 
z
M 2488 4716 
L 2488 4716 
z
" transform="scale(0.015625)"/>
      <path id="Helvetica-76" d="M 688 3347 
L 1581 622 
L 2516 3347 
L 3131 3347 
L 1869 0 
L 1269 0 
L 34 3347 
L 688 3347 
z
" transform="scale(0.015625)"/>
     </defs>
     <use xlink:href="#Helvetica-4f"/>
     <use xlink:href="#Helvetica-76" x="77.783203"/>
     <use xlink:href="#Helvetica-65" x="127.783203"/>
     <use xlink:href="#Helvetica-72" x="183.398438"/>
     <use xlink:href="#Helvetica-66" x="216.699219"/>
     <use xlink:href="#Helvetica-69" x="244.482422"/>
     <use xlink:href="#Helvetica-74" x="266.699219"/>
     <use xlink:href="#Helvetica-74" x="294.482422"/>
     <use xlink:href="#Helvetica-69" x="322.265625"/>
     <use xlink:href="#Helvetica-6e" x="344.482422"/>
     <use xlink:href="#Helvetica-67" x="400.097656"/>
    </g>
   </g>
  </g>
 </g>
 <defs>
  <clipPath id="paec5f23c72">
   <rect x="20.457812" y="22.0425" width="104.344194" height="110.88"/>
  </clipPath>
  <clipPath id="pb22be0283b">
   <rect x="158.316636" y="22.0425" width="104.344194" height="110.88"/>
  </clipPath>
  <clipPath id="p1d0ffb3056">
   <rect x="296.17546" y="22.0425" width="104.344194" height="110.88"/>
  </clipPath>
 </defs>
</svg>
