<?xml version="1.0" encoding="utf-8" standalone="no"?>
<!DOCTYPE svg PUBLIC "-//W3C//DTD SVG 1.1//EN"
  "http://www.w3.org/Graphics/SVG/1.1/DTD/svg11.dtd">
<svg xmlns:xlink="http://www.w3.org/1999/xlink" width="407.719654pt" height="151.906562pt" viewBox="0 0 407.719654 151.906562" xmlns="http://www.w3.org/2000/svg" version="1.1">
 <metadata>
  <rdf:RDF xmlns:dc="http://purl.org/dc/elements/1.1/" xmlns:cc="http://creativecommons.org/ns#" xmlns:rdf="http://www.w3.org/1999/02/22-rdf-syntax-ns#">
   <cc:Work>
    <dc:type rdf:resource="http://purl.org/dc/dcmitype/StillImage"/>
    <dc:date>2026-05-16T14:41:59.227168</dc:date>
    <dc:format>image/svg+xml</dc:format>
    <dc:creator>
     <cc:Agent>
      <dc:title>Matplotlib v3.10.8, https://matplotlib.org/</dc:title>
     </cc:Agent>
    </dc:creator>
   </cc:Work>
  </rdf:RDF>
 </metadata>
 <defs>
  <style type="text/css">*{stroke-linejoin: round; stroke-linecap: butt}</style>
 </defs>
 <g id="figure_1">
  <g id="patch_1">
   <path d="M 0 151.906562 
L 407.719654 151.906562 
L 407.719654 0 
L 0 0 
L 0 151.906562 
z
" style="fill: none"/>
  </g>
  <g id="axes_1">
   <g id="patch_2">
    <path d="M 20.457812 131.44875 
L 124.802007 131.44875 
L 124.802007 20.56875 
L 20.457812 20.56875 
z
" style="fill: #ffffff"/>
   </g>
   <g id="PathCollection_1">
    <defs>
     <path id="ma7d1083443" d="M 0 1.118034 
C 0.296506 1.118034 0.580908 1.000231 0.790569 0.790569 
C 1.000231 0.580908 1.118034 0.296506 1.118034 0 
C 1.118034 -0.296506 1.000231 -0.580908 0.790569 -0.790569 
C 0.580908 -1.000231 0.296506 -1.118034 0 -1.118034 
C -0.296506 -1.118034 -0.580908 -1.000231 -0.790569 -0.790569 
C -1.000231 -0.580908 -1.118034 -0.296506 -1.118034 0 
C -1.118034 0.296506 -1.000231 0.580908 -0.790569 0.790569 
C -0.580908 1.000231 -0.296506 1.118034 0 1.118034 
z
" style="stroke: #1f77b4"/>
    </defs>
    <g clip-path="url(#p805a950d59)">
     <use xlink:href="#ma7d1083443" x="25.20073" y="124.506017" style="fill: #1f77b4; stroke: #1f77b4"/>
     <use xlink:href="#ma7d1083443" x="30.193276" y="107.630097" style="fill: #1f77b4; stroke: #1f77b4"/>
     <use xlink:href="#ma7d1083443" x="35.185821" y="116.724875" style="fill: #1f77b4; stroke: #1f77b4"/>
     <use xlink:href="#ma7d1083443" x="40.178366" y="72.756199" style="fill: #1f77b4; stroke: #1f77b4"/>
     <use xlink:href="#ma7d1083443" x="45.170911" y="99.339485" style="fill: #1f77b4; stroke: #1f77b4"/>
     <use xlink:href="#ma7d1083443" x="50.163456" y="86.149168" style="fill: #1f77b4; stroke: #1f77b4"/>
     <use xlink:href="#ma7d1083443" x="55.156002" y="70.725095" style="fill: #1f77b4; stroke: #1f77b4"/>
     <use xlink:href="#ma7d1083443" x="60.148547" y="85.8005" style="fill: #1f77b4; stroke: #1f77b4"/>
     <use xlink:href="#ma7d1083443" x="65.141092" y="83.345804" style="fill: #1f77b4; stroke: #1f77b4"/>
     <use xlink:href="#ma7d1083443" x="70.133637" y="81.753153" style="fill: #1f77b4; stroke: #1f77b4"/>
     <use xlink:href="#ma7d1083443" x="75.126182" y="67.885624" style="fill: #1f77b4; stroke: #1f77b4"/>
     <use xlink:href="#ma7d1083443" x="80.118727" y="51.193331" style="fill: #1f77b4; stroke: #1f77b4"/>
     <use xlink:href="#ma7d1083443" x="85.111273" y="71.865145" style="fill: #1f77b4; stroke: #1f77b4"/>
     <use xlink:href="#ma7d1083443" x="90.103818" y="81.356194" style="fill: #1f77b4; stroke: #1f77b4"/>
     <use xlink:href="#ma7d1083443" x="95.096363" y="62.969173" style="fill: #1f77b4; stroke: #1f77b4"/>
     <use xlink:href="#ma7d1083443" x="100.088908" y="69.574906" style="fill: #1f77b4; stroke: #1f77b4"/>
     <use xlink:href="#ma7d1083443" x="105.081453" y="58.113013" style="fill: #1f77b4; stroke: #1f77b4"/>
     <use xlink:href="#ma7d1083443" x="110.073999" y="38.639944" style="fill: #1f77b4; stroke: #1f77b4"/>
     <use xlink:href="#ma7d1083443" x="115.066544" y="46.244905" style="fill: #1f77b4; stroke: #1f77b4"/>
     <use xlink:href="#ma7d1083443" x="120.059089" y="25.60875" style="fill: #1f77b4; stroke: #1f77b4"/>
    </g>
   </g>
   <g id="matplotlib.axis_1">
    <g id="text_1">
     <!-- $x$ -->
     <g style="fill: #808080" transform="translate(69.72991 142.622187) scale(0.1 -0.1)">
      <defs>
       <path id="Cmmi10-78" d="M 500 184 
Q 613 97 819 97 
Q 1019 97 1172 289 
Q 1325 481 1381 709 
L 1672 1844 
Q 1741 2153 1741 2266 
Q 1741 2425 1652 2544 
Q 1563 2663 1403 2663 
Q 1200 2663 1022 2536 
Q 844 2409 722 2214 
Q 600 2019 550 1819 
Q 538 1778 500 1778 
L 422 1778 
Q 372 1778 372 1838 
L 372 1856 
Q 434 2094 584 2320 
Q 734 2547 951 2687 
Q 1169 2828 1416 2828 
Q 1650 2828 1839 2703 
Q 2028 2578 2106 2363 
Q 2216 2559 2386 2693 
Q 2556 2828 2759 2828 
Q 2897 2828 3040 2779 
Q 3184 2731 3275 2631 
Q 3366 2531 3366 2381 
Q 3366 2219 3261 2101 
Q 3156 1984 2994 1984 
Q 2891 1984 2822 2050 
Q 2753 2116 2753 2216 
Q 2753 2350 2845 2451 
Q 2938 2553 3066 2572 
Q 2950 2663 2747 2663 
Q 2541 2663 2389 2472 
Q 2238 2281 2175 2047 
L 1894 916 
Q 1825 659 1825 494 
Q 1825 331 1917 214 
Q 2009 97 2163 97 
Q 2463 97 2698 361 
Q 2934 625 3009 941 
Q 3022 978 3059 978 
L 3138 978 
Q 3163 978 3178 961 
Q 3194 944 3194 922 
Q 3194 916 3188 903 
Q 3097 522 2806 225 
Q 2516 -72 2150 -72 
Q 1916 -72 1727 54 
Q 1538 181 1459 397 
Q 1359 209 1182 68 
Q 1006 -72 806 -72 
Q 669 -72 523 -23 
Q 378 25 287 125 
Q 197 225 197 378 
Q 197 528 301 651 
Q 406 775 563 775 
Q 669 775 741 711 
Q 813 647 813 544 
Q 813 409 723 309 
Q 634 209 500 184 
z
" transform="scale(0.015625)"/>
      </defs>
      <use xlink:href="#Cmmi10-78" transform="translate(0 0.8125)"/>
     </g>
    </g>
   </g>
   <g id="matplotlib.axis_2">
    <g id="text_2">
     <!-- $y$ -->
     <g style="fill: #808080" transform="translate(14.357812 78.50875) rotate(-90) scale(0.1 -0.1)">
      <defs>
       <path id="Cmmi10-79" d="M 538 -916 
Q 672 -1147 1006 -1147 
Q 1309 -1147 1531 -934 
Q 1753 -722 1889 -420 
Q 2025 -119 2100 197 
Q 1816 -72 1484 -72 
Q 1231 -72 1053 15 
Q 875 103 776 276 
Q 678 450 678 697 
Q 678 906 734 1126 
Q 791 1347 892 1617 
Q 994 1888 1069 2088 
Q 1153 2322 1153 2472 
Q 1153 2663 1013 2663 
Q 759 2663 595 2402 
Q 431 2141 353 1819 
Q 341 1778 300 1778 
L 225 1778 
Q 172 1778 172 1838 
L 172 1856 
Q 275 2238 487 2533 
Q 700 2828 1025 2828 
Q 1253 2828 1411 2678 
Q 1569 2528 1569 2297 
Q 1569 2178 1516 2047 
Q 1488 1969 1388 1706 
Q 1288 1444 1234 1272 
Q 1181 1100 1147 934 
Q 1113 769 1113 603 
Q 1113 391 1203 244 
Q 1294 97 1491 97 
Q 1888 97 2203 581 
L 2688 2553 
Q 2709 2638 2787 2698 
Q 2866 2759 2956 2759 
Q 3034 2759 3092 2709 
Q 3150 2659 3150 2578 
Q 3150 2541 3144 2528 
L 2509 -19 
Q 2425 -347 2200 -647 
Q 1975 -947 1658 -1130 
Q 1341 -1313 997 -1313 
Q 831 -1313 668 -1248 
Q 506 -1184 406 -1056 
Q 306 -928 306 -756 
Q 306 -581 409 -453 
Q 513 -325 684 -325 
Q 788 -325 858 -389 
Q 928 -453 928 -556 
Q 928 -703 818 -812 
Q 709 -922 563 -922 
Q 556 -919 550 -917 
Q 544 -916 538 -916 
z
" transform="scale(0.015625)"/>
      </defs>
      <use xlink:href="#Cmmi10-79" transform="translate(0 0.8125)"/>
     </g>
    </g>
   </g>
   <g id="line2d_1">
    <path d="M 25.20073 110.293684 
L 26.158896 109.582884 
L 27.117061 108.872083 
L 28.075226 108.161283 
L 29.033391 107.450483 
L 29.991557 106.739682 
L 30.949722 106.028882 
L 31.907887 105.318082 
L 32.866052 104.607281 
L 33.824218 103.896481 
L 34.782383 103.185681 
L 35.740548 102.474881 
L 36.698713 101.76408 
L 37.656879 101.05328 
L 38.615044 100.34248 
L 39.573209 99.631679 
L 40.531374 98.920879 
L 41.489539 98.210079 
L 42.447705 97.499278 
L 43.40587 96.788478 
L 44.364035 96.077678 
L 45.3222 95.366878 
L 46.280366 94.656077 
L 47.238531 93.945277 
L 48.196696 93.234477 
L 49.154861 92.523676 
L 50.113027 91.812876 
L 51.071192 91.102076 
L 52.029357 90.391275 
L 52.987522 89.680475 
L 53.945688 88.969675 
L 54.903853 88.258874 
L 55.862018 87.548074 
L 56.820183 86.837274 
L 57.778348 86.126474 
L 58.736514 85.415673 
L 59.694679 84.704873 
L 60.652844 83.994073 
L 61.611009 83.283272 
L 62.569175 82.572472 
L 63.52734 81.861672 
L 64.485505 81.150871 
L 65.44367 80.440071 
L 66.401836 79.729271 
L 67.360001 79.018471 
L 68.318166 78.30767 
L 69.276331 77.59687 
L 70.234497 76.88607 
L 71.192662 76.175269 
L 72.150827 75.464469 
L 73.108992 74.753669 
L 74.067158 74.042868 
L 75.025323 73.332068 
L 75.983488 72.621268 
L 76.941653 71.910468 
L 77.899818 71.199667 
L 78.857984 70.488867 
L 79.816149 69.778067 
L 80.774314 69.067266 
L 81.732479 68.356466 
L 82.690645 67.645666 
L 83.64881 66.934865 
L 84.606975 66.224065 
L 85.56514 65.513265 
L 86.523306 64.802465 
L 87.481471 64.091664 
L 88.439636 63.380864 
L 89.397801 62.670064 
L 90.355967 61.959263 
L 91.314132 61.248463 
L 92.272297 60.537663 
L 93.230462 59.826862 
L 94.188627 59.116062 
L 95.146793 58.405262 
L 96.104958 57.694462 
L 97.063123 56.983661 
L 98.021288 56.272861 
L 98.979454 55.562061 
L 99.937619 54.85126 
L 100.895784 54.14046 
L 101.853949 53.42966 
L 102.812115 52.718859 
L 103.77028 52.008059 
L 104.728445 51.297259 
L 105.68661 50.586458 
L 106.644776 49.875658 
L 107.602941 49.164858 
L 108.561106 48.454058 
L 109.519271 47.743257 
L 110.477437 47.032457 
L 111.435602 46.321657 
L 112.393767 45.610856 
L 113.351932 44.900056 
L 114.310097 44.189256 
L 115.268263 43.478455 
L 116.226428 42.767655 
L 117.184593 42.056855 
L 118.142758 41.346055 
L 119.100924 40.635254 
L 120.059089 39.924454 
" clip-path="url(#p805a950d59)" style="fill: none; stroke: #ff7f0e; stroke-linecap: square"/>
   </g>
   <g id="patch_3">
    <path d="M 20.457812 131.44875 
L 20.457812 20.56875 
" style="fill: none; stroke: #808080; stroke-width: 0.8; stroke-linejoin: miter; stroke-linecap: square"/>
   </g>
   <g id="patch_4">
    <path d="M 124.802007 131.44875 
L 124.802007 20.56875 
" style="fill: none; stroke: #808080; stroke-width: 0.8; stroke-linejoin: miter; stroke-linecap: square"/>
   </g>
   <g id="patch_5">
    <path d="M 20.457812 131.44875 
L 124.802007 131.44875 
" style="fill: none; stroke: #808080; stroke-width: 0.8; stroke-linejoin: miter; stroke-linecap: square"/>
   </g>
   <g id="patch_6">
    <path d="M 20.457812 20.56875 
L 124.802007 20.56875 
" style="fill: none; stroke: #808080; stroke-width: 0.8; stroke-linejoin: miter; stroke-linecap: square"/>
   </g>
   <g id="text_3">
    <!-- Loss: 0.06 -->
    <g transform="translate(52.297878 30.43728) scale(0.0694 -0.0694)">
     <defs>
      <path id="CascadiaCode-Regular-4c" d="M 500 0 
L 500 4438 
L 1150 4438 
L 1150 0 
L 500 0 
z
M 500 0 
L 500 594 
L 3438 594 
L 3438 0 
L 500 0 
z
" transform="scale(0.015625)"/>
      <path id="CascadiaCode-Regular-6f" d="M 1875 -63 
Q 1188 -63 806 387 
Q 425 838 425 1656 
Q 425 2478 806 2926 
Q 1188 3375 1875 3375 
Q 2566 3375 2945 2926 
Q 3325 2478 3325 1656 
Q 3325 838 2945 387 
Q 2566 -63 1875 -63 
z
M 1875 531 
Q 2241 531 2439 825 
Q 2638 1119 2638 1656 
Q 2638 2197 2439 2489 
Q 2241 2781 1875 2781 
Q 1509 2781 1311 2489 
Q 1113 2197 1113 1656 
Q 1113 1119 1311 825 
Q 1509 531 1875 531 
z
" transform="scale(0.015625)"/>
      <path id="CascadiaCode-Regular-73" d="M 1619 -63 
Q 1244 -63 976 -41 
Q 709 -19 488 31 
L 563 631 
Q 891 581 1142 556 
Q 1394 531 1619 531 
Q 2122 531 2348 629 
Q 2575 728 2575 944 
Q 2575 1094 2495 1167 
Q 2416 1241 2250 1281 
L 1488 1475 
Q 997 1600 767 1784 
Q 538 1969 538 2344 
Q 538 2888 955 3131 
Q 1372 3375 2300 3375 
Q 2541 3375 2748 3361 
Q 2956 3347 3175 3313 
L 3106 2738 
Q 2853 2763 2659 2772 
Q 2466 2781 2281 2781 
Q 1725 2781 1475 2686 
Q 1225 2591 1225 2375 
Q 1225 2231 1328 2167 
Q 1431 2103 1644 2050 
L 2256 1900 
Q 2778 1775 3020 1565 
Q 3263 1356 3263 956 
Q 3263 422 2872 179 
Q 2481 -63 1619 -63 
z
" transform="scale(0.015625)"/>
      <path id="CascadiaCode-Regular-3a" d="M 1875 2450 
Q 1684 2450 1548 2586 
Q 1413 2722 1413 2913 
Q 1413 3106 1548 3240 
Q 1684 3375 1875 3375 
Q 2069 3375 2203 3240 
Q 2338 3106 2338 2913 
Q 2338 2722 2203 2586 
Q 2069 2450 1875 2450 
z
M 1875 -63 
Q 1684 -63 1548 73 
Q 1413 209 1413 400 
Q 1413 594 1548 728 
Q 1684 863 1875 863 
Q 2069 863 2203 728 
Q 2338 594 2338 400 
Q 2338 209 2203 73 
Q 2069 -63 1875 -63 
z
" transform="scale(0.015625)"/>
      <path id="CascadiaCode-Regular-20" transform="scale(0.015625)"/>
      <path id="CascadiaCode-Regular-30" d="M 1875 -63 
Q 363 -63 363 2188 
Q 363 4500 1875 4500 
Q 3388 4500 3388 2188 
Q 3388 -63 1875 -63 
z
M 1875 1719 
Q 1666 1719 1536 1848 
Q 1406 1978 1406 2188 
Q 1406 2400 1536 2528 
Q 1666 2656 1875 2656 
Q 2088 2656 2216 2528 
Q 2344 2400 2344 2188 
Q 2344 1978 2216 1848 
Q 2088 1719 1875 1719 
z
M 1875 513 
Q 2719 513 2719 2188 
Q 2719 3925 1875 3925 
Q 1031 3925 1031 2188 
Q 1031 513 1875 513 
z
" transform="scale(0.015625)"/>
      <path id="CascadiaCode-Regular-2e" d="M 1875 -63 
Q 1684 -63 1548 73 
Q 1413 209 1413 400 
Q 1413 594 1548 728 
Q 1684 863 1875 863 
Q 2069 863 2203 728 
Q 2338 594 2338 400 
Q 2338 209 2203 73 
Q 2069 -63 1875 -63 
z
" transform="scale(0.015625)"/>
      <path id="CascadiaCode-Regular-36" d="M 1900 -63 
Q 1128 -63 764 321 
Q 400 706 400 1519 
L 919 2088 
L 1150 2088 
Q 1244 2434 1523 2623 
Q 1803 2813 2206 2813 
Q 2788 2813 3103 2453 
Q 3419 2094 3419 1438 
Q 3419 731 3017 334 
Q 2616 -63 1900 -63 
z
M 1922 513 
Q 2319 513 2541 758 
Q 2763 1003 2763 1438 
Q 2763 1822 2558 2030 
Q 2353 2238 1972 2238 
Q 1538 2238 1303 2013 
Q 1069 1788 1069 1375 
Q 1069 969 1294 741 
Q 1519 513 1922 513 
z
M 400 1519 
L 400 1794 
Q 400 3066 1045 3728 
Q 1691 4391 3013 4456 
L 3075 3863 
Q 1094 3778 1094 2081 
L 1094 1725 
L 400 1519 
z
" transform="scale(0.015625)"/>
     </defs>
     <use xlink:href="#CascadiaCode-Regular-4c"/>
     <use xlink:href="#CascadiaCode-Regular-6f" transform="translate(58.59375 0)"/>
     <use xlink:href="#CascadiaCode-Regular-73" transform="translate(117.1875 0)"/>
     <use xlink:href="#CascadiaCode-Regular-73" transform="translate(175.78125 0)"/>
     <use xlink:href="#CascadiaCode-Regular-3a" transform="translate(234.375 0)"/>
     <use xlink:href="#CascadiaCode-Regular-20" transform="translate(292.96875 0)"/>
     <use xlink:href="#CascadiaCode-Regular-30" transform="translate(351.5625 0)"/>
     <use xlink:href="#CascadiaCode-Regular-2e" transform="translate(410.15625 0)"/>
     <use xlink:href="#CascadiaCode-Regular-30" transform="translate(468.75 0)"/>
     <use xlink:href="#CascadiaCode-Regular-36" transform="translate(527.34375 0)"/>
    </g>
   </g>
   <g id="text_4">
    <!-- Underfitting -->
    <g style="fill: #808080" transform="translate(47.062722 14.56875) scale(0.1 -0.1)">
     <defs>
      <path id="Helvetica-55" d="M 1163 4591 
L 1163 1753 
Q 1163 1253 1350 922 
Q 1628 422 2288 422 
Q 3078 422 3363 963 
Q 3516 1256 3516 1753 
L 3516 4591 
L 4147 4591 
L 4147 2013 
Q 4147 1166 3919 709 
Q 3500 -122 2338 -122 
Q 1175 -122 759 709 
Q 531 1166 531 2013 
L 531 4591 
L 1163 4591 
z
M 2341 4591 
L 2341 4591 
z
" transform="scale(0.015625)"/>
      <path id="Helvetica-6e" d="M 413 3347 
L 947 3347 
L 947 2872 
Q 1184 3166 1450 3294 
Q 1716 3422 2041 3422 
Q 2753 3422 3003 2925 
Q 3141 2653 3141 2147 
L 3141 0 
L 2569 0 
L 2569 2109 
Q 2569 2416 2478 2603 
Q 2328 2916 1934 2916 
Q 1734 2916 1606 2875 
Q 1375 2806 1200 2600 
Q 1059 2434 1017 2257 
Q 975 2081 975 1753 
L 975 0 
L 413 0 
L 413 3347 
z
M 1734 3428 
L 1734 3428 
z
" transform="scale(0.015625)"/>
      <path id="Helvetica-64" d="M 769 1634 
Q 769 1097 997 734 
Q 1225 372 1728 372 
Q 2119 372 2370 708 
Q 2622 1044 2622 1672 
Q 2622 2306 2362 2611 
Q 2103 2916 1722 2916 
Q 1297 2916 1033 2591 
Q 769 2266 769 1634 
z
M 1616 3406 
Q 2000 3406 2259 3244 
Q 2409 3150 2600 2916 
L 2600 4606 
L 3141 4606 
L 3141 0 
L 2634 0 
L 2634 466 
Q 2438 156 2169 18 
Q 1900 -119 1553 -119 
Q 994 -119 584 351 
Q 175 822 175 1603 
Q 175 2334 548 2870 
Q 922 3406 1616 3406 
z
" transform="scale(0.015625)"/>
      <path id="Helvetica-65" d="M 1806 3422 
Q 2163 3422 2497 3255 
Q 2831 3088 3006 2822 
Q 3175 2569 3231 2231 
Q 3281 2000 3281 1494 
L 828 1494 
Q 844 984 1069 676 
Q 1294 369 1766 369 
Q 2206 369 2469 659 
Q 2619 828 2681 1050 
L 3234 1050 
Q 3213 866 3089 639 
Q 2966 413 2813 269 
Q 2556 19 2178 -69 
Q 1975 -119 1719 -119 
Q 1094 -119 659 336 
Q 225 791 225 1609 
Q 225 2416 662 2919 
Q 1100 3422 1806 3422 
z
M 2703 1941 
Q 2669 2306 2544 2525 
Q 2313 2931 1772 2931 
Q 1384 2931 1121 2651 
Q 859 2372 844 1941 
L 2703 1941 
z
M 1753 3428 
L 1753 3428 
z
" transform="scale(0.015625)"/>
      <path id="Helvetica-72" d="M 428 3347 
L 963 3347 
L 963 2769 
Q 1028 2938 1284 3180 
Q 1541 3422 1875 3422 
Q 1891 3422 1928 3419 
Q 1966 3416 2056 3406 
L 2056 2813 
Q 2006 2822 1964 2825 
Q 1922 2828 1872 2828 
Q 1447 2828 1219 2554 
Q 991 2281 991 1925 
L 991 0 
L 428 0 
L 428 3347 
z
" transform="scale(0.015625)"/>
      <path id="Helvetica-66" d="M 553 3856 
Q 566 4206 675 4369 
Q 872 4656 1434 4656 
Q 1488 4656 1544 4653 
Q 1600 4650 1672 4644 
L 1672 4131 
Q 1584 4138 1545 4139 
Q 1506 4141 1472 4141 
Q 1216 4141 1166 4008 
Q 1116 3875 1116 3331 
L 1672 3331 
L 1672 2888 
L 1109 2888 
L 1109 0 
L 553 0 
L 553 2888 
L 88 2888 
L 88 3331 
L 553 3331 
L 553 3856 
z
" transform="scale(0.015625)"/>
      <path id="Helvetica-69" d="M 413 3331 
L 984 3331 
L 984 0 
L 413 0 
L 413 3331 
z
M 413 4591 
L 984 4591 
L 984 3953 
L 413 3953 
L 413 4591 
z
" transform="scale(0.015625)"/>
      <path id="Helvetica-74" d="M 525 4281 
L 1094 4281 
L 1094 3347 
L 1628 3347 
L 1628 2888 
L 1094 2888 
L 1094 703 
Q 1094 528 1213 469 
Q 1278 434 1431 434 
Q 1472 434 1519 436 
Q 1566 438 1628 444 
L 1628 0 
Q 1531 -28 1426 -40 
Q 1322 -53 1200 -53 
Q 806 -53 665 148 
Q 525 350 525 672 
L 525 2888 
L 72 2888 
L 72 3347 
L 525 3347 
L 525 4281 
z
" transform="scale(0.015625)"/>
      <path id="Helvetica-67" d="M 1594 3406 
Q 1988 3406 2281 3213 
Q 2441 3103 2606 2894 
L 2606 3316 
L 3125 3316 
L 3125 272 
Q 3125 -366 2938 -734 
Q 2588 -1416 1616 -1416 
Q 1075 -1416 706 -1173 
Q 338 -931 294 -416 
L 866 -416 
Q 906 -641 1028 -763 
Q 1219 -950 1628 -950 
Q 2275 -950 2475 -494 
Q 2594 -225 2584 466 
Q 2416 209 2178 84 
Q 1941 -41 1550 -41 
Q 1006 -41 598 345 
Q 191 731 191 1622 
Q 191 2463 602 2934 
Q 1013 3406 1594 3406 
z
M 2606 1688 
Q 2606 2309 2350 2609 
Q 2094 2909 1697 2909 
Q 1103 2909 884 2353 
Q 769 2056 769 1575 
Q 769 1009 998 714 
Q 1228 419 1616 419 
Q 2222 419 2469 966 
Q 2606 1275 2606 1688 
z
M 1659 3428 
L 1659 3428 
z
" transform="scale(0.015625)"/>
     </defs>
     <use xlink:href="#Helvetica-55"/>
     <use xlink:href="#Helvetica-6e" transform="translate(72.216797 0)"/>
     <use xlink:href="#Helvetica-64" transform="translate(127.832031 0)"/>
     <use xlink:href="#Helvetica-65" transform="translate(183.447266 0)"/>
     <use xlink:href="#Helvetica-72" transform="translate(239.0625 0)"/>
     <use xlink:href="#Helvetica-66" transform="translate(272.363281 0)"/>
     <use xlink:href="#Helvetica-69" transform="translate(300.146484 0)"/>
     <use xlink:href="#Helvetica-74" transform="translate(322.363281 0)"/>
     <use xlink:href="#Helvetica-74" transform="translate(350.146484 0)"/>
     <use xlink:href="#Helvetica-69" transform="translate(377.929688 0)"/>
     <use xlink:href="#Helvetica-6e" transform="translate(400.146484 0)"/>
     <use xlink:href="#Helvetica-67" transform="translate(455.761719 0)"/>
    </g>
   </g>
  </g>
  <g id="axes_2">
   <g id="patch_7">
    <path d="M 158.316636 131.44875 
L 262.66083 131.44875 
L 262.66083 20.56875 
L 158.316636 20.56875 
z
" style="fill: #ffffff"/>
   </g>
   <g id="PathCollection_2">
    <g clip-path="url(#p1718cea755)">
     <use xlink:href="#ma7d1083443" x="163.059554" y="124.506017" style="fill: #1f77b4; stroke: #1f77b4"/>
     <use xlink:href="#ma7d1083443" x="168.052099" y="107.630097" style="fill: #1f77b4; stroke: #1f77b4"/>
     <use xlink:href="#ma7d1083443" x="173.044644" y="116.724875" style="fill: #1f77b4; stroke: #1f77b4"/>
     <use xlink:href="#ma7d1083443" x="178.03719" y="72.756199" style="fill: #1f77b4; stroke: #1f77b4"/>
     <use xlink:href="#ma7d1083443" x="183.029735" y="99.339485" style="fill: #1f77b4; stroke: #1f77b4"/>
     <use xlink:href="#ma7d1083443" x="188.02228" y="86.149168" style="fill: #1f77b4; stroke: #1f77b4"/>
     <use xlink:href="#ma7d1083443" x="193.014825" y="70.725095" style="fill: #1f77b4; stroke: #1f77b4"/>
     <use xlink:href="#ma7d1083443" x="198.00737" y="85.8005" style="fill: #1f77b4; stroke: #1f77b4"/>
     <use xlink:href="#ma7d1083443" x="202.999915" y="83.345804" style="fill: #1f77b4; stroke: #1f77b4"/>
     <use xlink:href="#ma7d1083443" x="207.992461" y="81.753153" style="fill: #1f77b4; stroke: #1f77b4"/>
     <use xlink:href="#ma7d1083443" x="212.985006" y="67.885624" style="fill: #1f77b4; stroke: #1f77b4"/>
     <use xlink:href="#ma7d1083443" x="217.977551" y="51.193331" style="fill: #1f77b4; stroke: #1f77b4"/>
     <use xlink:href="#ma7d1083443" x="222.970096" y="71.865145" style="fill: #1f77b4; stroke: #1f77b4"/>
     <use xlink:href="#ma7d1083443" x="227.962641" y="81.356194" style="fill: #1f77b4; stroke: #1f77b4"/>
     <use xlink:href="#ma7d1083443" x="232.955187" y="62.969173" style="fill: #1f77b4; stroke: #1f77b4"/>
     <use xlink:href="#ma7d1083443" x="237.947732" y="69.574906" style="fill: #1f77b4; stroke: #1f77b4"/>
     <use xlink:href="#ma7d1083443" x="242.940277" y="58.113013" style="fill: #1f77b4; stroke: #1f77b4"/>
     <use xlink:href="#ma7d1083443" x="247.932822" y="38.639944" style="fill: #1f77b4; stroke: #1f77b4"/>
     <use xlink:href="#ma7d1083443" x="252.925367" y="46.244905" style="fill: #1f77b4; stroke: #1f77b4"/>
     <use xlink:href="#ma7d1083443" x="257.917912" y="25.60875" style="fill: #1f77b4; stroke: #1f77b4"/>
    </g>
   </g>
   <g id="matplotlib.axis_3">
    <g id="text_5">
     <!-- $x$ -->
     <g style="fill: #808080" transform="translate(207.588733 142.622187) scale(0.1 -0.1)">
      <use xlink:href="#Cmmi10-78" transform="translate(0 0.8125)"/>
     </g>
    </g>
   </g>
   <g id="matplotlib.axis_4"/>
   <g id="line2d_2">
    <path d="M 163.059554 126.40875 
L 164.017719 123.470655 
L 164.975884 120.651255 
L 165.93405 117.948102 
L 166.892215 115.358749 
L 167.85038 112.880748 
L 168.808545 110.511653 
L 169.766711 108.249015 
L 170.724876 106.090388 
L 171.683041 104.033324 
L 172.641206 102.075376 
L 173.599372 100.214097 
L 174.557537 98.447039 
L 175.515702 96.771755 
L 176.473867 95.185798 
L 177.432033 93.68672 
L 178.390198 92.272074 
L 179.348363 90.939413 
L 180.306528 89.68629 
L 181.264693 88.510257 
L 182.222859 87.408866 
L 183.181024 86.379672 
L 184.139189 85.420225 
L 185.097354 84.52808 
L 186.05552 83.700788 
L 187.013685 82.935902 
L 187.97185 82.230976 
L 188.930015 81.583561 
L 189.888181 80.991211 
L 190.846346 80.451477 
L 191.804511 79.961914 
L 192.762676 79.520073 
L 193.720842 79.123507 
L 194.679007 78.769769 
L 195.637172 78.456412 
L 196.595337 78.180988 
L 197.553502 77.94105 
L 198.511668 77.73415 
L 199.469833 77.557842 
L 200.427998 77.409678 
L 201.386163 77.287211 
L 202.344329 77.187993 
L 203.302494 77.109577 
L 204.260659 77.049516 
L 205.218824 77.005363 
L 206.17699 76.974669 
L 207.135155 76.954989 
L 208.09332 76.943874 
L 209.051485 76.938877 
L 210.009651 76.937552 
L 210.967816 76.93745 
L 211.925981 76.936124 
L 212.884146 76.931128 
L 213.842312 76.920013 
L 214.800477 76.900332 
L 215.758642 76.869639 
L 216.716807 76.825485 
L 217.674972 76.765424 
L 218.633138 76.687009 
L 219.591303 76.587791 
L 220.549468 76.465323 
L 221.507633 76.317159 
L 222.465799 76.140851 
L 223.423964 75.933952 
L 224.382129 75.694014 
L 225.340294 75.41859 
L 226.29846 75.105232 
L 227.256625 74.751494 
L 228.21479 74.354929 
L 229.172955 73.913088 
L 230.131121 73.423524 
L 231.089286 72.883791 
L 232.047451 72.291441 
L 233.005616 71.644026 
L 233.963781 70.939099 
L 234.921947 70.174214 
L 235.880112 69.346922 
L 236.838277 68.454776 
L 237.796442 67.49533 
L 238.754608 66.466135 
L 239.712773 65.364745 
L 240.670938 64.188712 
L 241.629103 62.935588 
L 242.587269 61.602927 
L 243.545434 60.188282 
L 244.503599 58.689204 
L 245.461764 57.103247 
L 246.41993 55.427963 
L 247.378095 53.660905 
L 248.33626 51.799625 
L 249.294425 49.841678 
L 250.252591 47.784614 
L 251.210756 45.625987 
L 252.168921 43.363349 
L 253.127086 40.994253 
L 254.085251 38.516253 
L 255.043417 35.926899 
L 256.001582 33.223746 
L 256.959747 30.404346 
L 257.917912 27.466252 
" clip-path="url(#p1718cea755)" style="fill: none; stroke: #ff7f0e; stroke-linecap: square"/>
   </g>
   <g id="patch_8">
    <path d="M 158.316636 131.44875 
L 158.316636 20.56875 
" style="fill: none; stroke: #808080; stroke-width: 0.8; stroke-linejoin: miter; stroke-linecap: square"/>
   </g>
   <g id="patch_9">
    <path d="M 262.66083 131.44875 
L 262.66083 20.56875 
" style="fill: none; stroke: #808080; stroke-width: 0.8; stroke-linejoin: miter; stroke-linecap: square"/>
   </g>
   <g id="patch_10">
    <path d="M 158.316636 131.44875 
L 262.66083 131.44875 
" style="fill: none; stroke: #808080; stroke-width: 0.8; stroke-linejoin: miter; stroke-linecap: square"/>
   </g>
   <g id="patch_11">
    <path d="M 158.316636 20.56875 
L 262.66083 20.56875 
" style="fill: none; stroke: #808080; stroke-width: 0.8; stroke-linejoin: miter; stroke-linecap: square"/>
   </g>
   <g id="text_6">
    <!-- Loss: 0.05 -->
    <g transform="translate(190.156702 30.43728) scale(0.0694 -0.0694)">
     <defs>
      <path id="CascadiaCode-Regular-35" d="M 1919 -63 
Q 1200 -63 806 279 
Q 413 622 413 1244 
L 1081 1244 
Q 1081 897 1300 705 
Q 1519 513 1925 513 
Q 2325 513 2544 753 
Q 2763 994 2763 1431 
Q 2763 1859 2525 2095 
Q 2288 2331 1850 2331 
Q 1413 2331 1031 2125 
L 1088 2656 
Q 1334 2797 1578 2845 
Q 1822 2894 2069 2894 
Q 2713 2894 3066 2512 
Q 3419 2131 3419 1431 
Q 3419 956 3242 622 
Q 3066 288 2731 112 
Q 2397 -63 1919 -63 
z
M 681 2125 
L 744 4438 
L 1413 4438 
L 1350 2513 
L 1031 2125 
L 681 2125 
z
M 1044 3856 
L 988 4438 
L 3138 4438 
L 3138 3856 
L 1044 3856 
z
" transform="scale(0.015625)"/>
     </defs>
     <use xlink:href="#CascadiaCode-Regular-4c"/>
     <use xlink:href="#CascadiaCode-Regular-6f" transform="translate(58.59375 0)"/>
     <use xlink:href="#CascadiaCode-Regular-73" transform="translate(117.1875 0)"/>
     <use xlink:href="#CascadiaCode-Regular-73" transform="translate(175.78125 0)"/>
     <use xlink:href="#CascadiaCode-Regular-3a" transform="translate(234.375 0)"/>
     <use xlink:href="#CascadiaCode-Regular-20" transform="translate(292.96875 0)"/>
     <use xlink:href="#CascadiaCode-Regular-30" transform="translate(351.5625 0)"/>
     <use xlink:href="#CascadiaCode-Regular-2e" transform="translate(410.15625 0)"/>
     <use xlink:href="#CascadiaCode-Regular-30" transform="translate(468.75 0)"/>
     <use xlink:href="#CascadiaCode-Regular-35" transform="translate(527.34375 0)"/>
    </g>
   </g>
   <g id="text_7">
    <!-- Just right -->
    <g style="fill: #808080" transform="translate(190.204358 14.56875) scale(0.1 -0.1)">
     <defs>
      <path id="Helvetica-4a" d="M 2741 1369 
Q 2741 788 2569 466 
Q 2250 -122 1356 -122 
Q 841 -122 475 158 
Q 109 438 109 1153 
L 109 1481 
L 694 1481 
L 694 1153 
Q 694 778 861 589 
Q 1028 400 1381 400 
Q 1878 400 2031 741 
Q 2125 950 2125 1531 
L 2125 4591 
L 2741 4591 
L 2741 1369 
z
" transform="scale(0.015625)"/>
      <path id="Helvetica-75" d="M 975 3347 
L 975 1125 
Q 975 869 1056 706 
Q 1206 406 1616 406 
Q 2203 406 2416 931 
Q 2531 1213 2531 1703 
L 2531 3347 
L 3094 3347 
L 3094 0 
L 2563 0 
L 2569 494 
Q 2459 303 2297 172 
Q 1975 -91 1516 -91 
Q 800 -91 541 388 
Q 400 644 400 1072 
L 400 3347 
L 975 3347 
z
M 1747 3428 
L 1747 3428 
z
" transform="scale(0.015625)"/>
      <path id="Helvetica-73" d="M 747 1050 
Q 772 769 888 619 
Q 1100 347 1625 347 
Q 1938 347 2175 483 
Q 2413 619 2413 903 
Q 2413 1119 2222 1231 
Q 2100 1300 1741 1391 
L 1294 1503 
Q 866 1609 663 1741 
Q 300 1969 300 2372 
Q 300 2847 642 3140 
Q 984 3434 1563 3434 
Q 2319 3434 2653 2991 
Q 2863 2709 2856 2384 
L 2325 2384 
Q 2309 2575 2191 2731 
Q 1997 2953 1519 2953 
Q 1200 2953 1036 2831 
Q 872 2709 872 2509 
Q 872 2291 1088 2159 
Q 1213 2081 1456 2022 
L 1828 1931 
Q 2434 1784 2641 1647 
Q 2969 1431 2969 969 
Q 2969 522 2630 197 
Q 2291 -128 1597 -128 
Q 850 -128 539 211 
Q 228 550 206 1050 
L 747 1050 
z
M 1578 3428 
L 1578 3428 
z
" transform="scale(0.015625)"/>
      <path id="Helvetica-20" transform="scale(0.015625)"/>
      <path id="Helvetica-68" d="M 413 4606 
L 975 4606 
L 975 2894 
Q 1175 3147 1334 3250 
Q 1606 3428 2013 3428 
Q 2741 3428 3000 2919 
Q 3141 2641 3141 2147 
L 3141 0 
L 2563 0 
L 2563 2109 
Q 2563 2478 2469 2650 
Q 2316 2925 1894 2925 
Q 1544 2925 1259 2684 
Q 975 2444 975 1775 
L 975 0 
L 413 0 
L 413 4606 
z
" transform="scale(0.015625)"/>
     </defs>
     <use xlink:href="#Helvetica-4a"/>
     <use xlink:href="#Helvetica-75" transform="translate(50 0)"/>
     <use xlink:href="#Helvetica-73" transform="translate(105.615234 0)"/>
     <use xlink:href="#Helvetica-74" transform="translate(155.615234 0)"/>
     <use xlink:href="#Helvetica-20" transform="translate(183.398438 0)"/>
     <use xlink:href="#Helvetica-72" transform="translate(211.181641 0)"/>
     <use xlink:href="#Helvetica-69" transform="translate(244.482422 0)"/>
     <use xlink:href="#Helvetica-67" transform="translate(266.699219 0)"/>
     <use xlink:href="#Helvetica-68" transform="translate(322.314453 0)"/>
     <use xlink:href="#Helvetica-74" transform="translate(377.929688 0)"/>
    </g>
   </g>
  </g>
  <g id="axes_3">
   <g id="patch_12">
    <path d="M 296.17546 131.44875 
L 400.519654 131.44875 
L 400.519654 20.56875 
L 296.17546 20.56875 
z
" style="fill: #ffffff"/>
   </g>
   <g id="PathCollection_3">
    <g clip-path="url(#pd5164e0409)">
     <use xlink:href="#ma7d1083443" x="300.918377" y="124.506017" style="fill: #1f77b4; stroke: #1f77b4"/>
     <use xlink:href="#ma7d1083443" x="305.910923" y="107.630097" style="fill: #1f77b4; stroke: #1f77b4"/>
     <use xlink:href="#ma7d1083443" x="310.903468" y="116.724875" style="fill: #1f77b4; stroke: #1f77b4"/>
     <use xlink:href="#ma7d1083443" x="315.896013" y="72.756199" style="fill: #1f77b4; stroke: #1f77b4"/>
     <use xlink:href="#ma7d1083443" x="320.888558" y="99.339485" style="fill: #1f77b4; stroke: #1f77b4"/>
     <use xlink:href="#ma7d1083443" x="325.881103" y="86.149168" style="fill: #1f77b4; stroke: #1f77b4"/>
     <use xlink:href="#ma7d1083443" x="330.873649" y="70.725095" style="fill: #1f77b4; stroke: #1f77b4"/>
     <use xlink:href="#ma7d1083443" x="335.866194" y="85.8005" style="fill: #1f77b4; stroke: #1f77b4"/>
     <use xlink:href="#ma7d1083443" x="340.858739" y="83.345804" style="fill: #1f77b4; stroke: #1f77b4"/>
     <use xlink:href="#ma7d1083443" x="345.851284" y="81.753153" style="fill: #1f77b4; stroke: #1f77b4"/>
     <use xlink:href="#ma7d1083443" x="350.843829" y="67.885624" style="fill: #1f77b4; stroke: #1f77b4"/>
     <use xlink:href="#ma7d1083443" x="355.836374" y="51.193331" style="fill: #1f77b4; stroke: #1f77b4"/>
     <use xlink:href="#ma7d1083443" x="360.82892" y="71.865145" style="fill: #1f77b4; stroke: #1f77b4"/>
     <use xlink:href="#ma7d1083443" x="365.821465" y="81.356194" style="fill: #1f77b4; stroke: #1f77b4"/>
     <use xlink:href="#ma7d1083443" x="370.81401" y="62.969173" style="fill: #1f77b4; stroke: #1f77b4"/>
     <use xlink:href="#ma7d1083443" x="375.806555" y="69.574906" style="fill: #1f77b4; stroke: #1f77b4"/>
     <use xlink:href="#ma7d1083443" x="380.7991" y="58.113013" style="fill: #1f77b4; stroke: #1f77b4"/>
     <use xlink:href="#ma7d1083443" x="385.791646" y="38.639944" style="fill: #1f77b4; stroke: #1f77b4"/>
     <use xlink:href="#ma7d1083443" x="390.784191" y="46.244905" style="fill: #1f77b4; stroke: #1f77b4"/>
     <use xlink:href="#ma7d1083443" x="395.776736" y="25.60875" style="fill: #1f77b4; stroke: #1f77b4"/>
    </g>
   </g>
   <g id="matplotlib.axis_5">
    <g id="text_8">
     <!-- $x$ -->
     <g style="fill: #808080" transform="translate(345.447557 142.622187) scale(0.1 -0.1)">
      <use xlink:href="#Cmmi10-78" transform="translate(0 0.8125)"/>
     </g>
    </g>
   </g>
   <g id="matplotlib.axis_6"/>
   <g id="line2d_3">
    <path d="M 300.918377 118.258872 
L 301.876543 118.258872 
L 302.834708 118.258872 
L 303.792873 112.183541 
L 304.751038 112.183541 
L 305.709204 112.183541 
L 306.667369 110.977464 
L 307.625534 110.977464 
L 308.583699 108.377208 
L 309.541865 108.377208 
L 310.50003 108.377208 
L 311.458195 101.470743 
L 312.41636 101.470743 
L 313.374526 101.470743 
L 314.332691 84.360694 
L 315.290856 84.360694 
L 316.249021 82.105609 
L 317.207187 82.105609 
L 318.165352 82.105609 
L 319.123517 91.956029 
L 320.081682 91.956029 
L 321.039847 93.534081 
L 321.998013 93.534081 
L 322.956178 93.534081 
L 323.914343 87.839407 
L 324.872508 87.839407 
L 325.830674 87.839407 
L 326.788839 84.070455 
L 327.747004 84.070455 
L 328.705169 77.570559 
L 329.663335 77.570559 
L 330.6215 77.570559 
L 331.579665 77.034503 
L 332.53783 77.034503 
L 333.495996 82.523964 
L 334.454161 82.523964 
L 335.412326 82.523964 
L 336.370491 83.8592 
L 337.328656 83.8592 
L 338.286822 83.8592 
L 339.244987 83.398774 
L 340.203152 83.398774 
L 341.161317 82.444722 
L 342.119483 82.444722 
L 343.077648 82.444722 
L 344.035813 80.42213 
L 344.993978 80.42213 
L 345.952144 77.123755 
L 346.910309 77.123755 
L 347.868474 77.123755 
L 348.826639 70.290644 
L 349.784805 70.290644 
L 350.74297 70.290644 
L 351.701135 65.725253 
L 352.6593 65.725253 
L 353.617466 58.64028 
L 354.575631 58.64028 
L 355.533796 58.64028 
L 356.491961 59.47598 
L 357.450126 59.47598 
L 358.408292 67.672813 
L 359.366457 67.672813 
L 360.324622 67.672813 
L 361.282787 72.600521 
L 362.240953 72.600521 
L 363.199118 72.600521 
L 364.157283 77.40941 
L 365.115448 77.40941 
L 366.073614 76.16987 
L 367.031779 76.16987 
L 367.989944 76.16987 
L 368.948109 67.516845 
L 369.906275 67.516845 
L 370.86444 65.29789 
L 371.822605 65.29789 
L 372.78077 65.29789 
L 373.738936 67.357872 
L 374.697101 67.357872 
L 375.655266 67.357872 
L 376.613431 65.95278 
L 377.571596 65.95278 
L 378.529762 59.639176 
L 379.487927 59.639176 
L 380.446092 59.639176 
L 381.404257 55.579927 
L 382.362423 55.579927 
L 383.320588 44.538473 
L 384.278753 44.538473 
L 385.236918 44.538473 
L 386.195084 42.758256 
L 387.153249 42.758256 
L 388.111414 42.758256 
L 389.069579 43.81196 
L 390.027745 43.81196 
L 390.98591 41.726969 
L 391.944075 41.726969 
L 392.90224 41.726969 
L 393.860405 32.647061 
L 394.818571 32.647061 
L 395.776736 32.647061 
" clip-path="url(#pd5164e0409)" style="fill: none; stroke: #ff7f0e; stroke-linecap: square"/>
   </g>
   <g id="patch_13">
    <path d="M 296.17546 131.44875 
L 296.17546 20.56875 
" style="fill: none; stroke: #808080; stroke-width: 0.8; stroke-linejoin: miter; stroke-linecap: square"/>
   </g>
   <g id="patch_14">
    <path d="M 400.519654 131.44875 
L 400.519654 20.56875 
" style="fill: none; stroke: #808080; stroke-width: 0.8; stroke-linejoin: miter; stroke-linecap: square"/>
   </g>
   <g id="patch_15">
    <path d="M 296.17546 131.44875 
L 400.519654 131.44875 
" style="fill: none; stroke: #808080; stroke-width: 0.8; stroke-linejoin: miter; stroke-linecap: square"/>
   </g>
   <g id="patch_16">
    <path d="M 296.17546 20.56875 
L 400.519654 20.56875 
" style="fill: none; stroke: #808080; stroke-width: 0.8; stroke-linejoin: miter; stroke-linecap: square"/>
   </g>
   <g id="text_9">
    <!-- Loss: 0.01 -->
    <g transform="translate(328.015525 30.43728) scale(0.0694 -0.0694)">
     <defs>
      <path id="CascadiaCode-Regular-31" d="M 1644 0 
L 1644 4438 
L 2294 4438 
L 2294 0 
L 1644 0 
z
M 531 0 
L 531 594 
L 1706 594 
L 1706 0 
L 531 0 
z
M 2231 0 
L 2231 594 
L 3288 594 
L 3288 0 
L 2231 0 
z
M 594 3431 
L 594 4063 
L 1644 4438 
L 1644 3794 
L 594 3431 
z
" transform="scale(0.015625)"/>
     </defs>
     <use xlink:href="#CascadiaCode-Regular-4c"/>
     <use xlink:href="#CascadiaCode-Regular-6f" transform="translate(58.59375 0)"/>
     <use xlink:href="#CascadiaCode-Regular-73" transform="translate(117.1875 0)"/>
     <use xlink:href="#CascadiaCode-Regular-73" transform="translate(175.78125 0)"/>
     <use xlink:href="#CascadiaCode-Regular-3a" transform="translate(234.375 0)"/>
     <use xlink:href="#CascadiaCode-Regular-20" transform="translate(292.96875 0)"/>
     <use xlink:href="#CascadiaCode-Regular-30" transform="translate(351.5625 0)"/>
     <use xlink:href="#CascadiaCode-Regular-2e" transform="translate(410.15625 0)"/>
     <use xlink:href="#CascadiaCode-Regular-30" transform="translate(468.75 0)"/>
     <use xlink:href="#CascadiaCode-Regular-31" transform="translate(527.34375 0)"/>
    </g>
   </g>
   <g id="text_10">
    <!-- Overfitting -->
    <g style="fill: #808080" transform="translate(325.563182 14.56875) scale(0.1 -0.1)">
     <defs>
      <path id="Helvetica-4f" d="M 2469 4716 
Q 3684 4716 4269 3934 
Q 4725 3325 4725 2375 
Q 4725 1347 4203 666 
Q 3591 -134 2456 -134 
Q 1397 -134 791 566 
Q 250 1241 250 2272 
Q 250 3203 713 3866 
Q 1306 4716 2469 4716 
z
M 2531 422 
Q 3353 422 3720 1011 
Q 4088 1600 4088 2366 
Q 4088 3175 3664 3669 
Q 3241 4163 2506 4163 
Q 1794 4163 1344 3673 
Q 894 3184 894 2231 
Q 894 1469 1280 945 
Q 1666 422 2531 422 
z
M 2488 4716 
L 2488 4716 
z
" transform="scale(0.015625)"/>
      <path id="Helvetica-76" d="M 688 3347 
L 1581 622 
L 2516 3347 
L 3131 3347 
L 1869 0 
L 1269 0 
L 34 3347 
L 688 3347 
z
" transform="scale(0.015625)"/>
     </defs>
     <use xlink:href="#Helvetica-4f"/>
     <use xlink:href="#Helvetica-76" transform="translate(77.783203 0)"/>
     <use xlink:href="#Helvetica-65" transform="translate(127.783203 0)"/>
     <use xlink:href="#Helvetica-72" transform="translate(183.398438 0)"/>
     <use xlink:href="#Helvetica-66" transform="translate(216.699219 0)"/>
     <use xlink:href="#Helvetica-69" transform="translate(244.482422 0)"/>
     <use xlink:href="#Helvetica-74" transform="translate(266.699219 0)"/>
     <use xlink:href="#Helvetica-74" transform="translate(294.482422 0)"/>
     <use xlink:href="#Helvetica-69" transform="translate(322.265625 0)"/>
     <use xlink:href="#Helvetica-6e" transform="translate(344.482422 0)"/>
     <use xlink:href="#Helvetica-67" transform="translate(400.097656 0)"/>
    </g>
   </g>
  </g>
 </g>
 <defs>
  <clipPath id="p805a950d59">
   <rect x="20.457812" y="20.56875" width="104.344194" height="110.88"/>
  </clipPath>
  <clipPath id="p1718cea755">
   <rect x="158.316636" y="20.56875" width="104.344194" height="110.88"/>
  </clipPath>
  <clipPath id="pd5164e0409">
   <rect x="296.17546" y="20.56875" width="104.344194" height="110.88"/>
  </clipPath>
 </defs>
</svg>
