<?xml version="1.0" encoding="utf-8" standalone="no"?>
<!DOCTYPE svg PUBLIC "-//W3C//DTD SVG 1.1//EN"
  "http://www.w3.org/Graphics/SVG/1.1/DTD/svg11.dtd">
<svg xmlns:xlink="http://www.w3.org/1999/xlink" width="415.839264pt" height="151.734687pt" viewBox="0 0 415.839264 151.734687" xmlns="http://www.w3.org/2000/svg" version="1.1">
 <metadata>
  <rdf:RDF xmlns:dc="http://purl.org/dc/elements/1.1/" xmlns:cc="http://creativecommons.org/ns#" xmlns:rdf="http://www.w3.org/1999/02/22-rdf-syntax-ns#">
   <cc:Work>
    <dc:type rdf:resource="http://purl.org/dc/dcmitype/StillImage"/>
    <dc:date>2026-05-16T14:42:00.356764</dc:date>
    <dc:format>image/svg+xml</dc:format>
    <dc:creator>
     <cc:Agent>
      <dc:title>Matplotlib v3.10.8, https://matplotlib.org/</dc:title>
     </cc:Agent>
    </dc:creator>
   </cc:Work>
  </rdf:RDF>
 </metadata>
 <defs>
  <style type="text/css">*{stroke-linejoin: round; stroke-linecap: butt}</style>
 </defs>
 <g id="figure_1">
  <g id="patch_1">
   <path d="M 0 151.734687 
L 415.839264 151.734687 
L 415.839264 0 
L 0 0 
L 0 151.734687 
z
" style="fill: none"/>
  </g>
  <g id="axes_1">
   <g id="patch_2">
    <path d="M 20.457813 131.276875 
L 132.921617 131.276875 
L 132.921617 20.396875 
L 20.457813 20.396875 
z
" style="fill: #ffffff"/>
   </g>
   <g id="PathCollection_1">
    <defs>
     <path id="mdb081cf4d2" d="M 0 1.118034 
C 0.296506 1.118034 0.580908 1.000231 0.790569 0.790569 
C 1.000231 0.580908 1.118034 0.296506 1.118034 0 
C 1.118034 -0.296506 1.000231 -0.580908 0.790569 -0.790569 
C 0.580908 -1.000231 0.296506 -1.118034 0 -1.118034 
C -0.296506 -1.118034 -0.580908 -1.000231 -0.790569 -0.790569 
C -1.000231 -0.580908 -1.118034 -0.296506 -1.118034 0 
C -1.118034 0.296506 -1.000231 0.580908 -0.790569 0.790569 
C -0.580908 1.000231 -0.296506 1.118034 0 1.118034 
z
" style="stroke: #1f77b4"/>
    </defs>
    <g clip-path="url(#pb3c44dfab6)">
     <use xlink:href="#mdb081cf4d2" x="46.294092" y="90.509824" style="fill: #1f77b4; stroke: #1f77b4"/>
     <use xlink:href="#mdb081cf4d2" x="35.241138" y="111.971508" style="fill: #1f77b4; stroke: #1f77b4"/>
     <use xlink:href="#mdb081cf4d2" x="122.283149" y="39.452683" style="fill: #1f77b4; stroke: #1f77b4"/>
     <use xlink:href="#mdb081cf4d2" x="76.689715" y="70.882043" style="fill: #1f77b4; stroke: #1f77b4"/>
     <use xlink:href="#mdb081cf4d2" x="33.859519" y="103.527075" style="fill: #1f77b4; stroke: #1f77b4"/>
     <use xlink:href="#mdb081cf4d2" x="75.308096" y="70.597692" style="fill: #1f77b4; stroke: #1f77b4"/>
     <use xlink:href="#mdb081cf4d2" x="112.611815" y="83.086623" style="fill: #1f77b4; stroke: #1f77b4"/>
     <use xlink:href="#mdb081cf4d2" x="62.873523" y="86.098135" style="fill: #1f77b4; stroke: #1f77b4"/>
     <use xlink:href="#mdb081cf4d2" x="90.505907" y="74.216888" style="fill: #1f77b4; stroke: #1f77b4"/>
     <use xlink:href="#mdb081cf4d2" x="107.085338" y="76.137661" style="fill: #1f77b4; stroke: #1f77b4"/>
     <use xlink:href="#mdb081cf4d2" x="71.163238" y="103.491371" style="fill: #1f77b4; stroke: #1f77b4"/>
     <use xlink:href="#mdb081cf4d2" x="120.90153" y="49.574014" style="fill: #1f77b4; stroke: #1f77b4"/>
     <use xlink:href="#mdb081cf4d2" x="105.703719" y="80.314085" style="fill: #1f77b4; stroke: #1f77b4"/>
     <use xlink:href="#mdb081cf4d2" x="60.110284" y="99.78849" style="fill: #1f77b4; stroke: #1f77b4"/>
     <use xlink:href="#mdb081cf4d2" x="54.583807" y="80.626324" style="fill: #1f77b4; stroke: #1f77b4"/>
     <use xlink:href="#mdb081cf4d2" x="65.636761" y="68.669175" style="fill: #1f77b4; stroke: #1f77b4"/>
     <use xlink:href="#mdb081cf4d2" x="116.756672" y="75.228458" style="fill: #1f77b4; stroke: #1f77b4"/>
     <use xlink:href="#mdb081cf4d2" x="47.675711" y="77.246082" style="fill: #1f77b4; stroke: #1f77b4"/>
     <use xlink:href="#mdb081cf4d2" x="94.650765" y="90.113136" style="fill: #1f77b4; stroke: #1f77b4"/>
     <use xlink:href="#mdb081cf4d2" x="119.519911" y="62.385747" style="fill: #1f77b4; stroke: #1f77b4"/>
     <use xlink:href="#mdb081cf4d2" x="55.965427" y="77.743283" style="fill: #1f77b4; stroke: #1f77b4"/>
     <use xlink:href="#mdb081cf4d2" x="40.767615" y="86.044699" style="fill: #1f77b4; stroke: #1f77b4"/>
     <use xlink:href="#mdb081cf4d2" x="87.742669" y="87.137297" style="fill: #1f77b4; stroke: #1f77b4"/>
     <use xlink:href="#mdb081cf4d2" x="96.032384" y="76.450175" style="fill: #1f77b4; stroke: #1f77b4"/>
     <use xlink:href="#mdb081cf4d2" x="31.096281" y="100.349535" style="fill: #1f77b4; stroke: #1f77b4"/>
     <use xlink:href="#mdb081cf4d2" x="69.781619" y="92.378011" style="fill: #1f77b4; stroke: #1f77b4"/>
     <use xlink:href="#mdb081cf4d2" x="44.912473" y="90.916257" style="fill: #1f77b4; stroke: #1f77b4"/>
     <use xlink:href="#mdb081cf4d2" x="86.361049" y="88.039666" style="fill: #1f77b4; stroke: #1f77b4"/>
     <use xlink:href="#mdb081cf4d2" x="113.993434" y="61.496717" style="fill: #1f77b4; stroke: #1f77b4"/>
     <use xlink:href="#mdb081cf4d2" x="115.375053" y="65.128604" style="fill: #1f77b4; stroke: #1f77b4"/>
     <use xlink:href="#mdb081cf4d2" x="61.491903" y="84.050588" style="fill: #1f77b4; stroke: #1f77b4"/>
     <use xlink:href="#mdb081cf4d2" x="104.322099" y="72.008943" style="fill: #1f77b4; stroke: #1f77b4"/>
     <use xlink:href="#mdb081cf4d2" x="68.4" y="79.526817" style="fill: #1f77b4; stroke: #1f77b4"/>
     <use xlink:href="#mdb081cf4d2" x="125.046388" y="28.255726" style="fill: #1f77b4; stroke: #1f77b4"/>
     <use xlink:href="#mdb081cf4d2" x="36.622757" y="108.844275" style="fill: #1f77b4; stroke: #1f77b4"/>
     <use xlink:href="#mdb081cf4d2" x="80.834573" y="93.868291" style="fill: #1f77b4; stroke: #1f77b4"/>
     <use xlink:href="#mdb081cf4d2" x="91.887526" y="98.332347" style="fill: #1f77b4; stroke: #1f77b4"/>
     <use xlink:href="#mdb081cf4d2" x="43.530854" y="95.882577" style="fill: #1f77b4; stroke: #1f77b4"/>
     <use xlink:href="#mdb081cf4d2" x="84.97943" y="63.012469" style="fill: #1f77b4; stroke: #1f77b4"/>
     <use xlink:href="#mdb081cf4d2" x="72.544857" y="86.75945" style="fill: #1f77b4; stroke: #1f77b4"/>
     <use xlink:href="#mdb081cf4d2" x="118.138292" y="51.194794" style="fill: #1f77b4; stroke: #1f77b4"/>
     <use xlink:href="#mdb081cf4d2" x="29.714661" y="99.930599" style="fill: #1f77b4; stroke: #1f77b4"/>
     <use xlink:href="#mdb081cf4d2" x="28.333042" y="116.438768" style="fill: #1f77b4; stroke: #1f77b4"/>
     <use xlink:href="#mdb081cf4d2" x="58.728665" y="62.186474" style="fill: #1f77b4; stroke: #1f77b4"/>
     <use xlink:href="#mdb081cf4d2" x="67.01838" y="81.937135" style="fill: #1f77b4; stroke: #1f77b4"/>
     <use xlink:href="#mdb081cf4d2" x="108.466957" y="77.771223" style="fill: #1f77b4; stroke: #1f77b4"/>
     <use xlink:href="#mdb081cf4d2" x="102.94048" y="75.572857" style="fill: #1f77b4; stroke: #1f77b4"/>
     <use xlink:href="#mdb081cf4d2" x="83.597811" y="100.493877" style="fill: #1f77b4; stroke: #1f77b4"/>
     <use xlink:href="#mdb081cf4d2" x="89.124288" y="95.247991" style="fill: #1f77b4; stroke: #1f77b4"/>
     <use xlink:href="#mdb081cf4d2" x="51.820569" y="97.793171" style="fill: #1f77b4; stroke: #1f77b4"/>
     <use xlink:href="#mdb081cf4d2" x="78.071334" y="87.134166" style="fill: #1f77b4; stroke: #1f77b4"/>
     <use xlink:href="#mdb081cf4d2" x="25.569804" y="116.259425" style="fill: #1f77b4; stroke: #1f77b4"/>
    </g>
   </g>
   <g id="PathCollection_2">
    <defs>
     <path id="m57a4f0859b" d="M 0 1.118034 
C 0.296506 1.118034 0.580908 1.000231 0.790569 0.790569 
C 1.000231 0.580908 1.118034 0.296506 1.118034 0 
C 1.118034 -0.296506 1.000231 -0.580908 0.790569 -0.790569 
C 0.580908 -1.000231 0.296506 -1.118034 0 -1.118034 
C -0.296506 -1.118034 -0.580908 -1.000231 -0.790569 -0.790569 
C -1.000231 -0.580908 -1.118034 -0.296506 -1.118034 0 
C -1.118034 0.296506 -1.000231 0.580908 -0.790569 0.790569 
C -0.580908 1.000231 -0.296506 1.118034 0 1.118034 
z
" style="stroke: #1f77b4; stroke-opacity: 0.2"/>
    </defs>
    <g clip-path="url(#pb3c44dfab6)">
     <use xlink:href="#m57a4f0859b" x="73.926476" y="81.584718" style="fill: #1f77b4; fill-opacity: 0.2; stroke: #1f77b4; stroke-opacity: 0.2"/>
     <use xlink:href="#m57a4f0859b" x="127.809626" y="27.941708" style="fill: #1f77b4; fill-opacity: 0.2; stroke: #1f77b4; stroke-opacity: 0.2"/>
     <use xlink:href="#m57a4f0859b" x="42.149234" y="91.163346" style="fill: #1f77b4; fill-opacity: 0.2; stroke: #1f77b4; stroke-opacity: 0.2"/>
     <use xlink:href="#m57a4f0859b" x="32.4779" y="126.236875" style="fill: #1f77b4; fill-opacity: 0.2; stroke: #1f77b4; stroke-opacity: 0.2"/>
     <use xlink:href="#m57a4f0859b" x="101.558861" y="72.910137" style="fill: #1f77b4; fill-opacity: 0.2; stroke: #1f77b4; stroke-opacity: 0.2"/>
     <use xlink:href="#m57a4f0859b" x="39.385996" y="101.566889" style="fill: #1f77b4; fill-opacity: 0.2; stroke: #1f77b4; stroke-opacity: 0.2"/>
     <use xlink:href="#m57a4f0859b" x="93.269146" y="83.606278" style="fill: #1f77b4; fill-opacity: 0.2; stroke: #1f77b4; stroke-opacity: 0.2"/>
     <use xlink:href="#m57a4f0859b" x="79.452953" y="86.257817" style="fill: #1f77b4; fill-opacity: 0.2; stroke: #1f77b4; stroke-opacity: 0.2"/>
     <use xlink:href="#m57a4f0859b" x="97.414003" y="84.991506" style="fill: #1f77b4; fill-opacity: 0.2; stroke: #1f77b4; stroke-opacity: 0.2"/>
     <use xlink:href="#m57a4f0859b" x="123.664768" y="42.190136" style="fill: #1f77b4; fill-opacity: 0.2; stroke: #1f77b4; stroke-opacity: 0.2"/>
     <use xlink:href="#m57a4f0859b" x="98.795622" y="91.112159" style="fill: #1f77b4; fill-opacity: 0.2; stroke: #1f77b4; stroke-opacity: 0.2"/>
     <use xlink:href="#m57a4f0859b" x="53.202188" y="114.235163" style="fill: #1f77b4; fill-opacity: 0.2; stroke: #1f77b4; stroke-opacity: 0.2"/>
     <use xlink:href="#m57a4f0859b" x="49.05733" y="93.34643" style="fill: #1f77b4; fill-opacity: 0.2; stroke: #1f77b4; stroke-opacity: 0.2"/>
     <use xlink:href="#m57a4f0859b" x="26.951423" y="126.17002" style="fill: #1f77b4; fill-opacity: 0.2; stroke: #1f77b4; stroke-opacity: 0.2"/>
     <use xlink:href="#m57a4f0859b" x="109.848576" y="72.899791" style="fill: #1f77b4; fill-opacity: 0.2; stroke: #1f77b4; stroke-opacity: 0.2"/>
     <use xlink:href="#m57a4f0859b" x="64.255142" y="68.239765" style="fill: #1f77b4; fill-opacity: 0.2; stroke: #1f77b4; stroke-opacity: 0.2"/>
     <use xlink:href="#m57a4f0859b" x="111.230195" y="75.719718" style="fill: #1f77b4; fill-opacity: 0.2; stroke: #1f77b4; stroke-opacity: 0.2"/>
     <use xlink:href="#m57a4f0859b" x="126.428007" y="48.713923" style="fill: #1f77b4; fill-opacity: 0.2; stroke: #1f77b4; stroke-opacity: 0.2"/>
     <use xlink:href="#m57a4f0859b" x="82.216192" y="97.628801" style="fill: #1f77b4; fill-opacity: 0.2; stroke: #1f77b4; stroke-opacity: 0.2"/>
     <use xlink:href="#m57a4f0859b" x="57.347046" y="93.532329" style="fill: #1f77b4; fill-opacity: 0.2; stroke: #1f77b4; stroke-opacity: 0.2"/>
     <use xlink:href="#m57a4f0859b" x="100.177242" y="78.505" style="fill: #1f77b4; fill-opacity: 0.2; stroke: #1f77b4; stroke-opacity: 0.2"/>
     <use xlink:href="#m57a4f0859b" x="50.43895" y="86.89658" style="fill: #1f77b4; fill-opacity: 0.2; stroke: #1f77b4; stroke-opacity: 0.2"/>
     <use xlink:href="#m57a4f0859b" x="38.004377" y="101.131551" style="fill: #1f77b4; fill-opacity: 0.2; stroke: #1f77b4; stroke-opacity: 0.2"/>
    </g>
   </g>
   <g id="matplotlib.axis_1">
    <g id="text_1">
     <!-- $x$ -->
     <g style="fill: #808080" transform="translate(73.789715 142.450312) scale(0.1 -0.1)">
      <defs>
       <path id="Cmmi10-78" d="M 500 184 
Q 613 97 819 97 
Q 1019 97 1172 289 
Q 1325 481 1381 709 
L 1672 1844 
Q 1741 2153 1741 2266 
Q 1741 2425 1652 2544 
Q 1563 2663 1403 2663 
Q 1200 2663 1022 2536 
Q 844 2409 722 2214 
Q 600 2019 550 1819 
Q 538 1778 500 1778 
L 422 1778 
Q 372 1778 372 1838 
L 372 1856 
Q 434 2094 584 2320 
Q 734 2547 951 2687 
Q 1169 2828 1416 2828 
Q 1650 2828 1839 2703 
Q 2028 2578 2106 2363 
Q 2216 2559 2386 2693 
Q 2556 2828 2759 2828 
Q 2897 2828 3040 2779 
Q 3184 2731 3275 2631 
Q 3366 2531 3366 2381 
Q 3366 2219 3261 2101 
Q 3156 1984 2994 1984 
Q 2891 1984 2822 2050 
Q 2753 2116 2753 2216 
Q 2753 2350 2845 2451 
Q 2938 2553 3066 2572 
Q 2950 2663 2747 2663 
Q 2541 2663 2389 2472 
Q 2238 2281 2175 2047 
L 1894 916 
Q 1825 659 1825 494 
Q 1825 331 1917 214 
Q 2009 97 2163 97 
Q 2463 97 2698 361 
Q 2934 625 3009 941 
Q 3022 978 3059 978 
L 3138 978 
Q 3163 978 3178 961 
Q 3194 944 3194 922 
Q 3194 916 3188 903 
Q 3097 522 2806 225 
Q 2516 -72 2150 -72 
Q 1916 -72 1727 54 
Q 1538 181 1459 397 
Q 1359 209 1182 68 
Q 1006 -72 806 -72 
Q 669 -72 523 -23 
Q 378 25 287 125 
Q 197 225 197 378 
Q 197 528 301 651 
Q 406 775 563 775 
Q 669 775 741 711 
Q 813 647 813 544 
Q 813 409 723 309 
Q 634 209 500 184 
z
" transform="scale(0.015625)"/>
      </defs>
      <use xlink:href="#Cmmi10-78" transform="translate(0 0.8125)"/>
     </g>
    </g>
   </g>
   <g id="matplotlib.axis_2">
    <g id="text_2">
     <!-- $y$ -->
     <g style="fill: #808080" transform="translate(14.357813 78.336875) rotate(-90) scale(0.1 -0.1)">
      <defs>
       <path id="Cmmi10-79" d="M 538 -916 
Q 672 -1147 1006 -1147 
Q 1309 -1147 1531 -934 
Q 1753 -722 1889 -420 
Q 2025 -119 2100 197 
Q 1816 -72 1484 -72 
Q 1231 -72 1053 15 
Q 875 103 776 276 
Q 678 450 678 697 
Q 678 906 734 1126 
Q 791 1347 892 1617 
Q 994 1888 1069 2088 
Q 1153 2322 1153 2472 
Q 1153 2663 1013 2663 
Q 759 2663 595 2402 
Q 431 2141 353 1819 
Q 341 1778 300 1778 
L 225 1778 
Q 172 1778 172 1838 
L 172 1856 
Q 275 2238 487 2533 
Q 700 2828 1025 2828 
Q 1253 2828 1411 2678 
Q 1569 2528 1569 2297 
Q 1569 2178 1516 2047 
Q 1488 1969 1388 1706 
Q 1288 1444 1234 1272 
Q 1181 1100 1147 934 
Q 1113 769 1113 603 
Q 1113 391 1203 244 
Q 1294 97 1491 97 
Q 1888 97 2203 581 
L 2688 2553 
Q 2709 2638 2787 2698 
Q 2866 2759 2956 2759 
Q 3034 2759 3092 2709 
Q 3150 2659 3150 2578 
Q 3150 2541 3144 2528 
L 2509 -19 
Q 2425 -347 2200 -647 
Q 1975 -947 1658 -1130 
Q 1341 -1313 997 -1313 
Q 831 -1313 668 -1248 
Q 506 -1184 406 -1056 
Q 306 -928 306 -756 
Q 306 -581 409 -453 
Q 513 -325 684 -325 
Q 788 -325 858 -389 
Q 928 -453 928 -556 
Q 928 -703 818 -812 
Q 709 -922 563 -922 
Q 556 -919 550 -917 
Q 544 -916 538 -916 
z
" transform="scale(0.015625)"/>
      </defs>
      <use xlink:href="#Cmmi10-79" transform="translate(0 0.8125)"/>
     </g>
    </g>
   </g>
   <g id="line2d_1">
    <path d="M 25.569804 105.6972 
L 26.602529 105.232372 
L 27.635255 104.7748 
L 28.66798 104.317228 
L 29.700706 103.859656 
L 30.733431 103.402084 
L 31.766156 102.944513 
L 32.798882 102.499154 
L 33.831607 102.054737 
L 34.864333 101.609609 
L 35.897058 101.145173 
L 36.929784 100.677596 
L 37.962509 100.199607 
L 38.995235 99.681525 
L 40.02796 99.138012 
L 41.060686 98.57334 
L 42.093411 98.008669 
L 43.126137 97.443997 
L 44.158862 96.87852 
L 45.191588 96.305723 
L 46.224313 95.730896 
L 47.257039 95.154659 
L 48.289764 94.578423 
L 49.32249 94.002187 
L 50.355215 93.425951 
L 51.387941 92.85352 
L 52.420666 92.264196 
L 53.453392 91.671672 
L 54.486117 91.079148 
L 55.518843 90.486624 
L 56.551568 89.8941 
L 57.584293 89.304909 
L 58.617019 88.728654 
L 59.649744 88.235241 
L 60.68247 87.781894 
L 61.715195 87.328547 
L 62.747921 86.906159 
L 63.780646 86.502364 
L 64.813372 86.107913 
L 65.846097 85.713463 
L 66.878823 85.319013 
L 67.911548 84.944505 
L 68.944274 84.579975 
L 69.976999 84.215444 
L 71.009725 83.850913 
L 72.04245 83.486383 
L 73.075176 83.121852 
L 74.107901 82.807177 
L 75.140627 82.524599 
L 76.173352 82.231172 
L 77.206078 81.926651 
L 78.238803 81.641973 
L 79.271529 81.362815 
L 80.304254 81.078186 
L 81.33698 80.770293 
L 82.369705 80.438221 
L 83.40243 80.106696 
L 84.435156 79.761885 
L 85.467881 79.382418 
L 86.500607 78.969839 
L 87.533332 78.549487 
L 88.566058 78.102349 
L 89.598783 77.65521 
L 90.631509 77.210219 
L 91.664234 76.748586 
L 92.69696 76.285234 
L 93.729685 75.821882 
L 94.762411 75.358529 
L 95.795136 74.874746 
L 96.827862 74.344367 
L 97.860587 73.787466 
L 98.893313 73.284432 
L 99.926038 72.753989 
L 100.958764 72.184034 
L 101.991489 71.614078 
L 103.024215 71.044123 
L 104.05694 70.474168 
L 105.089666 69.916747 
L 106.122391 69.397092 
L 107.155116 68.879387 
L 108.187842 68.361682 
L 109.220567 67.841492 
L 110.253293 67.315306 
L 111.286018 66.789121 
L 112.318744 66.26766 
L 113.351469 65.794909 
L 114.384195 65.322159 
L 115.41692 64.849409 
L 116.449646 64.417778 
L 117.482371 63.993263 
L 118.515097 63.571983 
L 119.547822 63.174337 
L 120.580548 62.785989 
L 121.613273 62.40224 
L 122.645999 62.026515 
L 123.678724 61.65079 
L 124.71145 61.275065 
L 125.744175 60.89934 
L 126.776901 60.523615 
L 127.809626 60.14789 
" clip-path="url(#pb3c44dfab6)" style="fill: none; stroke: #ff7f0e; stroke-linecap: square"/>
   </g>
   <g id="patch_3">
    <path d="M 20.457813 131.276875 
L 20.457813 20.396875 
" style="fill: none; stroke: #808080; stroke-width: 0.8; stroke-linejoin: miter; stroke-linecap: square"/>
   </g>
   <g id="patch_4">
    <path d="M 132.921617 131.276875 
L 132.921617 20.396875 
" style="fill: none; stroke: #808080; stroke-width: 0.8; stroke-linejoin: miter; stroke-linecap: square"/>
   </g>
   <g id="patch_5">
    <path d="M 20.457812 131.276875 
L 132.921617 131.276875 
" style="fill: none; stroke: #808080; stroke-width: 0.8; stroke-linejoin: miter; stroke-linecap: square"/>
   </g>
   <g id="patch_6">
    <path d="M 20.457812 20.396875 
L 132.921617 20.396875 
" style="fill: none; stroke: #808080; stroke-width: 0.8; stroke-linejoin: miter; stroke-linecap: square"/>
   </g>
   <g id="text_3">
    <!-- Train loss: 0.06 -->
    <g transform="translate(44.158465 33.07764) scale(0.0694 -0.0694)">
     <defs>
      <path id="CascadiaCode-Regular-54" d="M 1550 0 
L 1550 4438 
L 2200 4438 
L 2200 0 
L 1550 0 
z
M 250 3844 
L 250 4438 
L 3500 4438 
L 3500 3844 
L 250 3844 
z
" transform="scale(0.015625)"/>
      <path id="CascadiaCode-Regular-72" d="M 1650 1425 
L 1456 2463 
L 1713 2463 
Q 1769 3375 2625 3375 
Q 3138 3375 3369 3081 
Q 3600 2788 3600 2131 
L 2944 2131 
Q 2944 2494 2836 2653 
Q 2728 2813 2488 2813 
Q 2066 2813 1858 2452 
Q 1650 2091 1650 1425 
z
M 250 0 
L 250 581 
L 2463 581 
L 2463 0 
L 250 0 
z
M 988 0 
L 988 3313 
L 1525 3313 
L 1650 2363 
L 1650 0 
L 988 0 
z
M 375 2731 
L 375 3313 
L 1481 3313 
L 1544 2731 
L 375 2731 
z
" transform="scale(0.015625)"/>
      <path id="CascadiaCode-Regular-61" d="M 2556 -31 
L 2513 950 
L 2425 1225 
L 2425 2081 
Q 2425 2413 2192 2567 
Q 1959 2722 1500 2734 
L 706 2756 
L 769 3344 
L 1438 3334 
Q 2259 3322 2657 2980 
Q 3056 2638 3056 1981 
L 3056 600 
L 3619 531 
L 3619 0 
L 2556 -31 
z
M 1388 -63 
Q 869 -63 584 187 
Q 300 438 300 894 
Q 300 1419 692 1700 
Q 1084 1981 1800 1981 
Q 2097 1981 2330 1945 
Q 2563 1909 2744 1838 
L 2606 1388 
Q 2397 1434 2197 1442 
Q 1997 1450 1788 1450 
Q 925 1450 925 925 
Q 925 706 1073 587 
Q 1222 469 1494 469 
Q 1803 469 2011 575 
Q 2219 681 2322 847 
Q 2425 1013 2425 1188 
L 2425 1550 
L 2619 700 
L 2356 700 
L 2463 800 
Q 2463 513 2330 320 
Q 2197 128 1956 32 
Q 1716 -63 1388 -63 
z
" transform="scale(0.015625)"/>
      <path id="CascadiaCode-Regular-69" d="M 1763 0 
L 1763 3125 
L 2425 3125 
L 2425 0 
L 1763 0 
z
M 500 0 
L 500 581 
L 1825 581 
L 1825 0 
L 500 0 
z
M 2363 0 
L 2363 581 
L 3444 581 
L 3444 0 
L 2363 0 
z
M 688 2731 
L 688 3313 
L 2425 3313 
L 2425 2731 
L 688 2731 
z
M 2072 3838 
Q 1881 3838 1745 3973 
Q 1609 4109 1609 4300 
Q 1609 4494 1745 4628 
Q 1881 4763 2072 4763 
Q 2266 4763 2400 4628 
Q 2534 4494 2534 4300 
Q 2534 4109 2400 3973 
Q 2266 3838 2072 3838 
z
" transform="scale(0.015625)"/>
      <path id="CascadiaCode-Regular-6e" d="M 2563 0 
L 2563 2156 
Q 2563 2456 2406 2618 
Q 2250 2781 1969 2781 
Q 1188 2781 1188 1863 
L 994 2713 
L 1250 2713 
Q 1278 3047 1493 3211 
Q 1709 3375 2125 3375 
Q 2650 3375 2937 3056 
Q 3225 2738 3225 2156 
L 3225 0 
L 2563 0 
z
M 525 0 
L 525 3313 
L 1125 3313 
L 1188 2613 
L 1188 0 
L 525 0 
z
" transform="scale(0.015625)"/>
      <path id="CascadiaCode-Regular-20" transform="scale(0.015625)"/>
      <path id="CascadiaCode-Regular-6c" d="M 2369 -63 
Q 1794 -63 1537 250 
Q 1281 563 1281 1250 
L 1281 4688 
L 1944 4688 
L 1944 1281 
Q 1944 1019 1994 853 
Q 2044 688 2189 609 
Q 2334 531 2619 531 
Q 2878 531 3281 650 
L 3356 69 
Q 3103 0 2870 -31 
Q 2638 -63 2369 -63 
z
M 306 4106 
L 306 4688 
L 1338 4688 
L 1338 4106 
L 306 4106 
z
" transform="scale(0.015625)"/>
      <path id="CascadiaCode-Regular-6f" d="M 1875 -63 
Q 1188 -63 806 387 
Q 425 838 425 1656 
Q 425 2478 806 2926 
Q 1188 3375 1875 3375 
Q 2566 3375 2945 2926 
Q 3325 2478 3325 1656 
Q 3325 838 2945 387 
Q 2566 -63 1875 -63 
z
M 1875 531 
Q 2241 531 2439 825 
Q 2638 1119 2638 1656 
Q 2638 2197 2439 2489 
Q 2241 2781 1875 2781 
Q 1509 2781 1311 2489 
Q 1113 2197 1113 1656 
Q 1113 1119 1311 825 
Q 1509 531 1875 531 
z
" transform="scale(0.015625)"/>
      <path id="CascadiaCode-Regular-73" d="M 1619 -63 
Q 1244 -63 976 -41 
Q 709 -19 488 31 
L 563 631 
Q 891 581 1142 556 
Q 1394 531 1619 531 
Q 2122 531 2348 629 
Q 2575 728 2575 944 
Q 2575 1094 2495 1167 
Q 2416 1241 2250 1281 
L 1488 1475 
Q 997 1600 767 1784 
Q 538 1969 538 2344 
Q 538 2888 955 3131 
Q 1372 3375 2300 3375 
Q 2541 3375 2748 3361 
Q 2956 3347 3175 3313 
L 3106 2738 
Q 2853 2763 2659 2772 
Q 2466 2781 2281 2781 
Q 1725 2781 1475 2686 
Q 1225 2591 1225 2375 
Q 1225 2231 1328 2167 
Q 1431 2103 1644 2050 
L 2256 1900 
Q 2778 1775 3020 1565 
Q 3263 1356 3263 956 
Q 3263 422 2872 179 
Q 2481 -63 1619 -63 
z
" transform="scale(0.015625)"/>
      <path id="CascadiaCode-Regular-3a" d="M 1875 2450 
Q 1684 2450 1548 2586 
Q 1413 2722 1413 2913 
Q 1413 3106 1548 3240 
Q 1684 3375 1875 3375 
Q 2069 3375 2203 3240 
Q 2338 3106 2338 2913 
Q 2338 2722 2203 2586 
Q 2069 2450 1875 2450 
z
M 1875 -63 
Q 1684 -63 1548 73 
Q 1413 209 1413 400 
Q 1413 594 1548 728 
Q 1684 863 1875 863 
Q 2069 863 2203 728 
Q 2338 594 2338 400 
Q 2338 209 2203 73 
Q 2069 -63 1875 -63 
z
" transform="scale(0.015625)"/>
      <path id="CascadiaCode-Regular-30" d="M 1875 -63 
Q 363 -63 363 2188 
Q 363 4500 1875 4500 
Q 3388 4500 3388 2188 
Q 3388 -63 1875 -63 
z
M 1875 1719 
Q 1666 1719 1536 1848 
Q 1406 1978 1406 2188 
Q 1406 2400 1536 2528 
Q 1666 2656 1875 2656 
Q 2088 2656 2216 2528 
Q 2344 2400 2344 2188 
Q 2344 1978 2216 1848 
Q 2088 1719 1875 1719 
z
M 1875 513 
Q 2719 513 2719 2188 
Q 2719 3925 1875 3925 
Q 1031 3925 1031 2188 
Q 1031 513 1875 513 
z
" transform="scale(0.015625)"/>
      <path id="CascadiaCode-Regular-2e" d="M 1875 -63 
Q 1684 -63 1548 73 
Q 1413 209 1413 400 
Q 1413 594 1548 728 
Q 1684 863 1875 863 
Q 2069 863 2203 728 
Q 2338 594 2338 400 
Q 2338 209 2203 73 
Q 2069 -63 1875 -63 
z
" transform="scale(0.015625)"/>
      <path id="CascadiaCode-Regular-36" d="M 1900 -63 
Q 1128 -63 764 321 
Q 400 706 400 1519 
L 919 2088 
L 1150 2088 
Q 1244 2434 1523 2623 
Q 1803 2813 2206 2813 
Q 2788 2813 3103 2453 
Q 3419 2094 3419 1438 
Q 3419 731 3017 334 
Q 2616 -63 1900 -63 
z
M 1922 513 
Q 2319 513 2541 758 
Q 2763 1003 2763 1438 
Q 2763 1822 2558 2030 
Q 2353 2238 1972 2238 
Q 1538 2238 1303 2013 
Q 1069 1788 1069 1375 
Q 1069 969 1294 741 
Q 1519 513 1922 513 
z
M 400 1519 
L 400 1794 
Q 400 3066 1045 3728 
Q 1691 4391 3013 4456 
L 3075 3863 
Q 1094 3778 1094 2081 
L 1094 1725 
L 400 1519 
z
" transform="scale(0.015625)"/>
     </defs>
     <use xlink:href="#CascadiaCode-Regular-54"/>
     <use xlink:href="#CascadiaCode-Regular-72" transform="translate(58.59375 0)"/>
     <use xlink:href="#CascadiaCode-Regular-61" transform="translate(117.1875 0)"/>
     <use xlink:href="#CascadiaCode-Regular-69" transform="translate(175.78125 0)"/>
     <use xlink:href="#CascadiaCode-Regular-6e" transform="translate(234.375 0)"/>
     <use xlink:href="#CascadiaCode-Regular-20" transform="translate(292.96875 0)"/>
     <use xlink:href="#CascadiaCode-Regular-6c" transform="translate(351.5625 0)"/>
     <use xlink:href="#CascadiaCode-Regular-6f" transform="translate(410.15625 0)"/>
     <use xlink:href="#CascadiaCode-Regular-73" transform="translate(468.75 0)"/>
     <use xlink:href="#CascadiaCode-Regular-73" transform="translate(527.34375 0)"/>
     <use xlink:href="#CascadiaCode-Regular-3a" transform="translate(585.9375 0)"/>
     <use xlink:href="#CascadiaCode-Regular-20" transform="translate(644.53125 0)"/>
     <use xlink:href="#CascadiaCode-Regular-30" transform="translate(703.125 0)"/>
     <use xlink:href="#CascadiaCode-Regular-2e" transform="translate(761.71875 0)"/>
     <use xlink:href="#CascadiaCode-Regular-30" transform="translate(820.3125 0)"/>
     <use xlink:href="#CascadiaCode-Regular-36" transform="translate(878.90625 0)"/>
    </g>
   </g>
   <g id="text_4">
    <!-- Test loss: 0.07 -->
    <g transform="translate(46.191668 40.745627) scale(0.0694 -0.0694)">
     <defs>
      <path id="CascadiaCode-Regular-65" d="M 2163 -63 
Q 1316 -63 855 382 
Q 394 828 394 1663 
Q 394 2475 784 2925 
Q 1175 3375 1888 3375 
Q 2559 3375 2926 2969 
Q 3294 2563 3294 1788 
Q 3294 1559 3275 1363 
L 950 1363 
L 950 1869 
L 2694 1869 
Q 2694 2316 2481 2555 
Q 2269 2794 1894 2794 
Q 1472 2794 1239 2506 
Q 1006 2219 1006 1694 
Q 1006 1119 1326 819 
Q 1647 519 2238 519 
Q 2444 519 2644 542 
Q 2844 566 3050 606 
L 3131 25 
Q 2838 -31 2594 -47 
Q 2350 -63 2163 -63 
z
" transform="scale(0.015625)"/>
      <path id="CascadiaCode-Regular-74" d="M 2475 -63 
Q 1722 -63 1386 250 
Q 1050 563 1050 1250 
L 1050 1813 
L 1713 1813 
L 1713 1281 
Q 1713 888 1905 709 
Q 2097 531 2538 531 
Q 2694 531 2869 548 
Q 3044 566 3269 594 
L 3344 13 
Q 3125 -25 2917 -44 
Q 2709 -63 2475 -63 
z
M 1050 1563 
L 1050 4313 
L 1713 4313 
L 1713 1563 
L 1050 1563 
z
M 219 2731 
L 219 3313 
L 3219 3313 
L 3219 2731 
L 219 2731 
z
" transform="scale(0.015625)"/>
      <path id="CascadiaCode-Regular-37" d="M 1366 0 
L 2891 4438 
L 3606 4438 
L 2081 0 
L 1366 0 
z
M 350 2881 
L 350 4344 
L 1019 4344 
L 1019 2881 
L 350 2881 
z
M 350 3844 
L 350 4438 
L 3606 4438 
L 3163 3844 
L 350 3844 
z
" transform="scale(0.015625)"/>
     </defs>
     <use xlink:href="#CascadiaCode-Regular-54"/>
     <use xlink:href="#CascadiaCode-Regular-65" transform="translate(58.59375 0)"/>
     <use xlink:href="#CascadiaCode-Regular-73" transform="translate(117.1875 0)"/>
     <use xlink:href="#CascadiaCode-Regular-74" transform="translate(175.78125 0)"/>
     <use xlink:href="#CascadiaCode-Regular-20" transform="translate(234.375 0)"/>
     <use xlink:href="#CascadiaCode-Regular-6c" transform="translate(292.96875 0)"/>
     <use xlink:href="#CascadiaCode-Regular-6f" transform="translate(351.5625 0)"/>
     <use xlink:href="#CascadiaCode-Regular-73" transform="translate(410.15625 0)"/>
     <use xlink:href="#CascadiaCode-Regular-73" transform="translate(468.75 0)"/>
     <use xlink:href="#CascadiaCode-Regular-3a" transform="translate(527.34375 0)"/>
     <use xlink:href="#CascadiaCode-Regular-20" transform="translate(585.9375 0)"/>
     <use xlink:href="#CascadiaCode-Regular-30" transform="translate(644.53125 0)"/>
     <use xlink:href="#CascadiaCode-Regular-2e" transform="translate(703.125 0)"/>
     <use xlink:href="#CascadiaCode-Regular-30" transform="translate(761.71875 0)"/>
     <use xlink:href="#CascadiaCode-Regular-37" transform="translate(820.3125 0)"/>
    </g>
   </g>
   <g id="text_5">
    <!-- Too simple -->
    <g style="fill: #808080" transform="translate(52.238152 14.396875) scale(0.1 -0.1)">
     <defs>
      <path id="Helvetica-54" d="M 3828 4591 
L 3828 4044 
L 2281 4044 
L 2281 0 
L 1650 0 
L 1650 4044 
L 103 4044 
L 103 4591 
L 3828 4591 
z
" transform="scale(0.015625)"/>
      <path id="Helvetica-6f" d="M 1741 363 
Q 2300 363 2508 786 
Q 2716 1209 2716 1728 
Q 2716 2197 2566 2491 
Q 2328 2953 1747 2953 
Q 1231 2953 997 2559 
Q 763 2166 763 1609 
Q 763 1075 997 719 
Q 1231 363 1741 363 
z
M 1763 3444 
Q 2409 3444 2856 3012 
Q 3303 2581 3303 1744 
Q 3303 934 2909 406 
Q 2516 -122 1688 -122 
Q 997 -122 590 345 
Q 184 813 184 1600 
Q 184 2444 612 2944 
Q 1041 3444 1763 3444 
z
M 1744 3428 
L 1744 3428 
z
" transform="scale(0.015625)"/>
      <path id="Helvetica-20" transform="scale(0.015625)"/>
      <path id="Helvetica-73" d="M 747 1050 
Q 772 769 888 619 
Q 1100 347 1625 347 
Q 1938 347 2175 483 
Q 2413 619 2413 903 
Q 2413 1119 2222 1231 
Q 2100 1300 1741 1391 
L 1294 1503 
Q 866 1609 663 1741 
Q 300 1969 300 2372 
Q 300 2847 642 3140 
Q 984 3434 1563 3434 
Q 2319 3434 2653 2991 
Q 2863 2709 2856 2384 
L 2325 2384 
Q 2309 2575 2191 2731 
Q 1997 2953 1519 2953 
Q 1200 2953 1036 2831 
Q 872 2709 872 2509 
Q 872 2291 1088 2159 
Q 1213 2081 1456 2022 
L 1828 1931 
Q 2434 1784 2641 1647 
Q 2969 1431 2969 969 
Q 2969 522 2630 197 
Q 2291 -128 1597 -128 
Q 850 -128 539 211 
Q 228 550 206 1050 
L 747 1050 
z
M 1578 3428 
L 1578 3428 
z
" transform="scale(0.015625)"/>
      <path id="Helvetica-69" d="M 413 3331 
L 984 3331 
L 984 0 
L 413 0 
L 413 3331 
z
M 413 4591 
L 984 4591 
L 984 3953 
L 413 3953 
L 413 4591 
z
" transform="scale(0.015625)"/>
      <path id="Helvetica-6d" d="M 413 3347 
L 969 3347 
L 969 2872 
Q 1169 3119 1331 3231 
Q 1609 3422 1963 3422 
Q 2363 3422 2606 3225 
Q 2744 3113 2856 2894 
Q 3044 3163 3297 3292 
Q 3550 3422 3866 3422 
Q 4541 3422 4784 2934 
Q 4916 2672 4916 2228 
L 4916 0 
L 4331 0 
L 4331 2325 
Q 4331 2659 4164 2784 
Q 3997 2909 3756 2909 
Q 3425 2909 3186 2687 
Q 2947 2466 2947 1947 
L 2947 0 
L 2375 0 
L 2375 2184 
Q 2375 2525 2294 2681 
Q 2166 2916 1816 2916 
Q 1497 2916 1236 2669 
Q 975 2422 975 1775 
L 975 0 
L 413 0 
L 413 3347 
z
" transform="scale(0.015625)"/>
      <path id="Helvetica-70" d="M 1825 378 
Q 2219 378 2480 708 
Q 2741 1038 2741 1694 
Q 2741 2094 2625 2381 
Q 2406 2934 1825 2934 
Q 1241 2934 1025 2350 
Q 909 2038 909 1556 
Q 909 1169 1025 897 
Q 1244 378 1825 378 
z
M 369 3331 
L 916 3331 
L 916 2888 
Q 1084 3116 1284 3241 
Q 1569 3428 1953 3428 
Q 2522 3428 2919 2992 
Q 3316 2556 3316 1747 
Q 3316 653 2744 184 
Q 2381 -113 1900 -113 
Q 1522 -113 1266 53 
Q 1116 147 931 375 
L 931 -1334 
L 369 -1334 
L 369 3331 
z
" transform="scale(0.015625)"/>
      <path id="Helvetica-6c" d="M 428 4591 
L 991 4591 
L 991 0 
L 428 0 
L 428 4591 
z
" transform="scale(0.015625)"/>
      <path id="Helvetica-65" d="M 1806 3422 
Q 2163 3422 2497 3255 
Q 2831 3088 3006 2822 
Q 3175 2569 3231 2231 
Q 3281 2000 3281 1494 
L 828 1494 
Q 844 984 1069 676 
Q 1294 369 1766 369 
Q 2206 369 2469 659 
Q 2619 828 2681 1050 
L 3234 1050 
Q 3213 866 3089 639 
Q 2966 413 2813 269 
Q 2556 19 2178 -69 
Q 1975 -119 1719 -119 
Q 1094 -119 659 336 
Q 225 791 225 1609 
Q 225 2416 662 2919 
Q 1100 3422 1806 3422 
z
M 2703 1941 
Q 2669 2306 2544 2525 
Q 2313 2931 1772 2931 
Q 1384 2931 1121 2651 
Q 859 2372 844 1941 
L 2703 1941 
z
M 1753 3428 
L 1753 3428 
z
" transform="scale(0.015625)"/>
     </defs>
     <use xlink:href="#Helvetica-54"/>
     <use xlink:href="#Helvetica-6f" transform="translate(61.083984 0)"/>
     <use xlink:href="#Helvetica-6f" transform="translate(116.699219 0)"/>
     <use xlink:href="#Helvetica-20" transform="translate(172.314453 0)"/>
     <use xlink:href="#Helvetica-73" transform="translate(200.097656 0)"/>
     <use xlink:href="#Helvetica-69" transform="translate(250.097656 0)"/>
     <use xlink:href="#Helvetica-6d" transform="translate(272.314453 0)"/>
     <use xlink:href="#Helvetica-70" transform="translate(355.615234 0)"/>
     <use xlink:href="#Helvetica-6c" transform="translate(411.230469 0)"/>
     <use xlink:href="#Helvetica-65" transform="translate(433.447266 0)"/>
    </g>
   </g>
  </g>
  <g id="axes_2">
   <g id="patch_7">
    <path d="M 158.316636 131.276875 
L 270.780441 131.276875 
L 270.780441 20.396875 
L 158.316636 20.396875 
z
" style="fill: #ffffff"/>
   </g>
   <g id="PathCollection_3">
    <g clip-path="url(#pfea133179d)">
     <use xlink:href="#mdb081cf4d2" x="184.152915" y="90.509824" style="fill: #1f77b4; stroke: #1f77b4"/>
     <use xlink:href="#mdb081cf4d2" x="173.099962" y="111.971508" style="fill: #1f77b4; stroke: #1f77b4"/>
     <use xlink:href="#mdb081cf4d2" x="260.141973" y="39.452683" style="fill: #1f77b4; stroke: #1f77b4"/>
     <use xlink:href="#mdb081cf4d2" x="214.548538" y="70.882043" style="fill: #1f77b4; stroke: #1f77b4"/>
     <use xlink:href="#mdb081cf4d2" x="171.718342" y="103.527075" style="fill: #1f77b4; stroke: #1f77b4"/>
     <use xlink:href="#mdb081cf4d2" x="213.166919" y="70.597692" style="fill: #1f77b4; stroke: #1f77b4"/>
     <use xlink:href="#mdb081cf4d2" x="250.470638" y="83.086623" style="fill: #1f77b4; stroke: #1f77b4"/>
     <use xlink:href="#mdb081cf4d2" x="200.732346" y="86.098135" style="fill: #1f77b4; stroke: #1f77b4"/>
     <use xlink:href="#mdb081cf4d2" x="228.364731" y="74.216888" style="fill: #1f77b4; stroke: #1f77b4"/>
     <use xlink:href="#mdb081cf4d2" x="244.944161" y="76.137661" style="fill: #1f77b4; stroke: #1f77b4"/>
     <use xlink:href="#mdb081cf4d2" x="209.022061" y="103.491371" style="fill: #1f77b4; stroke: #1f77b4"/>
     <use xlink:href="#mdb081cf4d2" x="258.760353" y="49.574014" style="fill: #1f77b4; stroke: #1f77b4"/>
     <use xlink:href="#mdb081cf4d2" x="243.562542" y="80.314085" style="fill: #1f77b4; stroke: #1f77b4"/>
     <use xlink:href="#mdb081cf4d2" x="197.969108" y="99.78849" style="fill: #1f77b4; stroke: #1f77b4"/>
     <use xlink:href="#mdb081cf4d2" x="192.442631" y="80.626324" style="fill: #1f77b4; stroke: #1f77b4"/>
     <use xlink:href="#mdb081cf4d2" x="203.495585" y="68.669175" style="fill: #1f77b4; stroke: #1f77b4"/>
     <use xlink:href="#mdb081cf4d2" x="254.615496" y="75.228458" style="fill: #1f77b4; stroke: #1f77b4"/>
     <use xlink:href="#mdb081cf4d2" x="185.534535" y="77.246082" style="fill: #1f77b4; stroke: #1f77b4"/>
     <use xlink:href="#mdb081cf4d2" x="232.509588" y="90.113136" style="fill: #1f77b4; stroke: #1f77b4"/>
     <use xlink:href="#mdb081cf4d2" x="257.378734" y="62.385747" style="fill: #1f77b4; stroke: #1f77b4"/>
     <use xlink:href="#mdb081cf4d2" x="193.82425" y="77.743283" style="fill: #1f77b4; stroke: #1f77b4"/>
     <use xlink:href="#mdb081cf4d2" x="178.626439" y="86.044699" style="fill: #1f77b4; stroke: #1f77b4"/>
     <use xlink:href="#mdb081cf4d2" x="225.601492" y="87.137297" style="fill: #1f77b4; stroke: #1f77b4"/>
     <use xlink:href="#mdb081cf4d2" x="233.891207" y="76.450175" style="fill: #1f77b4; stroke: #1f77b4"/>
     <use xlink:href="#mdb081cf4d2" x="168.955104" y="100.349535" style="fill: #1f77b4; stroke: #1f77b4"/>
     <use xlink:href="#mdb081cf4d2" x="207.640442" y="92.378011" style="fill: #1f77b4; stroke: #1f77b4"/>
     <use xlink:href="#mdb081cf4d2" x="182.771296" y="90.916257" style="fill: #1f77b4; stroke: #1f77b4"/>
     <use xlink:href="#mdb081cf4d2" x="224.219873" y="88.039666" style="fill: #1f77b4; stroke: #1f77b4"/>
     <use xlink:href="#mdb081cf4d2" x="251.852257" y="61.496717" style="fill: #1f77b4; stroke: #1f77b4"/>
     <use xlink:href="#mdb081cf4d2" x="253.233877" y="65.128604" style="fill: #1f77b4; stroke: #1f77b4"/>
     <use xlink:href="#mdb081cf4d2" x="199.350727" y="84.050588" style="fill: #1f77b4; stroke: #1f77b4"/>
     <use xlink:href="#mdb081cf4d2" x="242.180923" y="72.008943" style="fill: #1f77b4; stroke: #1f77b4"/>
     <use xlink:href="#mdb081cf4d2" x="206.258823" y="79.526817" style="fill: #1f77b4; stroke: #1f77b4"/>
     <use xlink:href="#mdb081cf4d2" x="262.905211" y="28.255726" style="fill: #1f77b4; stroke: #1f77b4"/>
     <use xlink:href="#mdb081cf4d2" x="174.481581" y="108.844275" style="fill: #1f77b4; stroke: #1f77b4"/>
     <use xlink:href="#mdb081cf4d2" x="218.693396" y="93.868291" style="fill: #1f77b4; stroke: #1f77b4"/>
     <use xlink:href="#mdb081cf4d2" x="229.74635" y="98.332347" style="fill: #1f77b4; stroke: #1f77b4"/>
     <use xlink:href="#mdb081cf4d2" x="181.389677" y="95.882577" style="fill: #1f77b4; stroke: #1f77b4"/>
     <use xlink:href="#mdb081cf4d2" x="222.838254" y="63.012469" style="fill: #1f77b4; stroke: #1f77b4"/>
     <use xlink:href="#mdb081cf4d2" x="210.403681" y="86.75945" style="fill: #1f77b4; stroke: #1f77b4"/>
     <use xlink:href="#mdb081cf4d2" x="255.997115" y="51.194794" style="fill: #1f77b4; stroke: #1f77b4"/>
     <use xlink:href="#mdb081cf4d2" x="167.573485" y="99.930599" style="fill: #1f77b4; stroke: #1f77b4"/>
     <use xlink:href="#mdb081cf4d2" x="166.191866" y="116.438768" style="fill: #1f77b4; stroke: #1f77b4"/>
     <use xlink:href="#mdb081cf4d2" x="196.587488" y="62.186474" style="fill: #1f77b4; stroke: #1f77b4"/>
     <use xlink:href="#mdb081cf4d2" x="204.877204" y="81.937135" style="fill: #1f77b4; stroke: #1f77b4"/>
     <use xlink:href="#mdb081cf4d2" x="246.32578" y="77.771223" style="fill: #1f77b4; stroke: #1f77b4"/>
     <use xlink:href="#mdb081cf4d2" x="240.799304" y="75.572857" style="fill: #1f77b4; stroke: #1f77b4"/>
     <use xlink:href="#mdb081cf4d2" x="221.456634" y="100.493877" style="fill: #1f77b4; stroke: #1f77b4"/>
     <use xlink:href="#mdb081cf4d2" x="226.983111" y="95.247991" style="fill: #1f77b4; stroke: #1f77b4"/>
     <use xlink:href="#mdb081cf4d2" x="189.679392" y="97.793171" style="fill: #1f77b4; stroke: #1f77b4"/>
     <use xlink:href="#mdb081cf4d2" x="215.930158" y="87.134166" style="fill: #1f77b4; stroke: #1f77b4"/>
     <use xlink:href="#mdb081cf4d2" x="163.428627" y="116.259425" style="fill: #1f77b4; stroke: #1f77b4"/>
    </g>
   </g>
   <g id="PathCollection_4">
    <g clip-path="url(#pfea133179d)">
     <use xlink:href="#m57a4f0859b" x="211.7853" y="81.584718" style="fill: #1f77b4; fill-opacity: 0.2; stroke: #1f77b4; stroke-opacity: 0.2"/>
     <use xlink:href="#m57a4f0859b" x="265.66845" y="27.941708" style="fill: #1f77b4; fill-opacity: 0.2; stroke: #1f77b4; stroke-opacity: 0.2"/>
     <use xlink:href="#m57a4f0859b" x="180.008058" y="91.163346" style="fill: #1f77b4; fill-opacity: 0.2; stroke: #1f77b4; stroke-opacity: 0.2"/>
     <use xlink:href="#m57a4f0859b" x="170.336723" y="126.236875" style="fill: #1f77b4; fill-opacity: 0.2; stroke: #1f77b4; stroke-opacity: 0.2"/>
     <use xlink:href="#m57a4f0859b" x="239.417684" y="72.910137" style="fill: #1f77b4; fill-opacity: 0.2; stroke: #1f77b4; stroke-opacity: 0.2"/>
     <use xlink:href="#m57a4f0859b" x="177.244819" y="101.566889" style="fill: #1f77b4; fill-opacity: 0.2; stroke: #1f77b4; stroke-opacity: 0.2"/>
     <use xlink:href="#m57a4f0859b" x="231.127969" y="83.606278" style="fill: #1f77b4; fill-opacity: 0.2; stroke: #1f77b4; stroke-opacity: 0.2"/>
     <use xlink:href="#m57a4f0859b" x="217.311777" y="86.257817" style="fill: #1f77b4; fill-opacity: 0.2; stroke: #1f77b4; stroke-opacity: 0.2"/>
     <use xlink:href="#m57a4f0859b" x="235.272827" y="84.991506" style="fill: #1f77b4; fill-opacity: 0.2; stroke: #1f77b4; stroke-opacity: 0.2"/>
     <use xlink:href="#m57a4f0859b" x="261.523592" y="42.190136" style="fill: #1f77b4; fill-opacity: 0.2; stroke: #1f77b4; stroke-opacity: 0.2"/>
     <use xlink:href="#m57a4f0859b" x="236.654446" y="91.112159" style="fill: #1f77b4; fill-opacity: 0.2; stroke: #1f77b4; stroke-opacity: 0.2"/>
     <use xlink:href="#m57a4f0859b" x="191.061012" y="114.235163" style="fill: #1f77b4; fill-opacity: 0.2; stroke: #1f77b4; stroke-opacity: 0.2"/>
     <use xlink:href="#m57a4f0859b" x="186.916154" y="93.34643" style="fill: #1f77b4; fill-opacity: 0.2; stroke: #1f77b4; stroke-opacity: 0.2"/>
     <use xlink:href="#m57a4f0859b" x="164.810246" y="126.17002" style="fill: #1f77b4; fill-opacity: 0.2; stroke: #1f77b4; stroke-opacity: 0.2"/>
     <use xlink:href="#m57a4f0859b" x="247.7074" y="72.899791" style="fill: #1f77b4; fill-opacity: 0.2; stroke: #1f77b4; stroke-opacity: 0.2"/>
     <use xlink:href="#m57a4f0859b" x="202.113965" y="68.239765" style="fill: #1f77b4; fill-opacity: 0.2; stroke: #1f77b4; stroke-opacity: 0.2"/>
     <use xlink:href="#m57a4f0859b" x="249.089019" y="75.719718" style="fill: #1f77b4; fill-opacity: 0.2; stroke: #1f77b4; stroke-opacity: 0.2"/>
     <use xlink:href="#m57a4f0859b" x="264.28683" y="48.713923" style="fill: #1f77b4; fill-opacity: 0.2; stroke: #1f77b4; stroke-opacity: 0.2"/>
     <use xlink:href="#m57a4f0859b" x="220.075015" y="97.628801" style="fill: #1f77b4; fill-opacity: 0.2; stroke: #1f77b4; stroke-opacity: 0.2"/>
     <use xlink:href="#m57a4f0859b" x="195.205869" y="93.532329" style="fill: #1f77b4; fill-opacity: 0.2; stroke: #1f77b4; stroke-opacity: 0.2"/>
     <use xlink:href="#m57a4f0859b" x="238.036065" y="78.505" style="fill: #1f77b4; fill-opacity: 0.2; stroke: #1f77b4; stroke-opacity: 0.2"/>
     <use xlink:href="#m57a4f0859b" x="188.297773" y="86.89658" style="fill: #1f77b4; fill-opacity: 0.2; stroke: #1f77b4; stroke-opacity: 0.2"/>
     <use xlink:href="#m57a4f0859b" x="175.8632" y="101.131551" style="fill: #1f77b4; fill-opacity: 0.2; stroke: #1f77b4; stroke-opacity: 0.2"/>
    </g>
   </g>
   <g id="matplotlib.axis_3">
    <g id="text_6">
     <!-- $x$ -->
     <g style="fill: #808080" transform="translate(211.648538 142.450312) scale(0.1 -0.1)">
      <use xlink:href="#Cmmi10-78" transform="translate(0 0.8125)"/>
     </g>
    </g>
   </g>
   <g id="matplotlib.axis_4"/>
   <g id="line2d_2">
    <path d="M 163.428627 114.692542 
L 164.461353 113.3877 
L 165.494078 112.081476 
L 166.526804 110.774983 
L 167.559529 109.467944 
L 168.592255 108.173485 
L 169.62498 106.885026 
L 170.657706 105.599651 
L 171.690431 104.314277 
L 172.723156 103.028902 
L 173.755882 101.740994 
L 174.788607 100.408655 
L 175.821333 99.031749 
L 176.854058 97.654843 
L 177.886784 96.277937 
L 178.919509 94.933687 
L 179.952235 93.591859 
L 180.98496 92.254193 
L 182.017686 90.918222 
L 183.050411 89.582785 
L 184.083137 88.247348 
L 185.115862 86.911898 
L 186.148588 86.096625 
L 187.181313 85.613855 
L 188.214039 85.131085 
L 189.246764 84.648315 
L 190.27949 84.157869 
L 191.312215 83.661684 
L 192.344941 83.165499 
L 193.377666 82.669314 
L 194.410392 82.173129 
L 195.443117 81.683758 
L 196.475842 81.50373 
L 197.508568 81.669925 
L 198.541293 81.839761 
L 199.574019 82.023222 
L 200.606744 82.209728 
L 201.63947 82.386971 
L 202.672195 82.562273 
L 203.704921 82.746825 
L 204.737646 82.957935 
L 205.770372 83.169026 
L 206.803097 83.380074 
L 207.835823 83.591052 
L 208.868548 83.801728 
L 209.901274 83.994706 
L 210.933999 84.185192 
L 211.966725 84.375678 
L 212.99945 84.566164 
L 214.032176 84.760433 
L 215.064901 84.959657 
L 216.097627 85.158882 
L 217.130352 85.358106 
L 218.163078 85.557331 
L 219.195803 85.755625 
L 220.228529 85.951923 
L 221.261254 86.086868 
L 222.293979 86.125419 
L 223.326705 86.160025 
L 224.35943 86.194631 
L 225.392156 86.229236 
L 226.424881 86.263842 
L 227.457607 86.287192 
L 228.490332 86.302718 
L 229.523058 86.316667 
L 230.555783 85.985717 
L 231.588509 85.539091 
L 232.621234 85.072781 
L 233.65396 84.606472 
L 234.686685 84.140163 
L 235.719411 83.643741 
L 236.752136 83.109229 
L 237.784862 82.524572 
L 238.817587 81.861367 
L 239.850313 81.137193 
L 240.883038 80.330231 
L 241.915764 79.508641 
L 242.948489 78.68705 
L 243.981215 77.86546 
L 245.01394 77.043869 
L 246.046666 76.222279 
L 247.079391 75.400688 
L 248.112116 74.594558 
L 249.144842 73.789127 
L 250.177567 72.931005 
L 251.210293 71.100687 
L 252.243018 68.681297 
L 253.275744 66.261502 
L 254.308469 63.831602 
L 255.341195 60.754721 
L 256.37392 57.051813 
L 257.406646 53.348904 
L 258.439371 49.645352 
L 259.472097 45.941609 
L 260.504822 42.237867 
L 261.537548 38.534125 
L 262.570273 34.830383 
L 263.602999 31.258042 
L 264.635724 28.16724 
L 265.66845 25.436875 
" clip-path="url(#pfea133179d)" style="fill: none; stroke: #ff7f0e; stroke-linecap: square"/>
   </g>
   <g id="patch_8">
    <path d="M 158.316636 131.276875 
L 158.316636 20.396875 
" style="fill: none; stroke: #808080; stroke-width: 0.8; stroke-linejoin: miter; stroke-linecap: square"/>
   </g>
   <g id="patch_9">
    <path d="M 270.780441 131.276875 
L 270.780441 20.396875 
" style="fill: none; stroke: #808080; stroke-width: 0.8; stroke-linejoin: miter; stroke-linecap: square"/>
   </g>
   <g id="patch_10">
    <path d="M 158.316636 131.276875 
L 270.780441 131.276875 
" style="fill: none; stroke: #808080; stroke-width: 0.8; stroke-linejoin: miter; stroke-linecap: square"/>
   </g>
   <g id="patch_11">
    <path d="M 158.316636 20.396875 
L 270.780441 20.396875 
" style="fill: none; stroke: #808080; stroke-width: 0.8; stroke-linejoin: miter; stroke-linecap: square"/>
   </g>
   <g id="text_7">
    <!-- Train loss: 0.03 -->
    <g transform="translate(182.017288 33.07764) scale(0.0694 -0.0694)">
     <defs>
      <path id="CascadiaCode-Regular-33" d="M 1606 -63 
Q 1263 -63 977 -22 
Q 691 19 469 88 
L 547 684 
Q 738 631 977 572 
Q 1216 513 1581 513 
Q 2069 513 2337 706 
Q 2606 900 2606 1250 
Q 2606 1500 2451 1675 
Q 2297 1850 2003 1940 
Q 1709 2031 1288 2031 
L 1188 2031 
L 1113 2438 
L 2069 2363 
Q 2600 2322 2931 2017 
Q 3263 1713 3263 1188 
Q 3263 594 2830 265 
Q 2397 -63 1606 -63 
z
M 1188 2031 
L 1113 2438 
Q 1606 2503 1914 2631 
Q 2222 2759 2367 2942 
Q 2513 3125 2513 3350 
Q 2513 3622 2336 3773 
Q 2159 3925 1831 3925 
Q 1594 3925 1326 3806 
Q 1059 3688 822 3450 
L 391 3878 
Q 678 4203 1056 4351 
Q 1434 4500 1900 4500 
Q 2506 4500 2837 4242 
Q 3169 3984 3169 3506 
Q 3169 3106 2912 2811 
Q 2656 2516 2244 2406 
L 2244 2031 
L 1188 2031 
z
" transform="scale(0.015625)"/>
     </defs>
     <use xlink:href="#CascadiaCode-Regular-54"/>
     <use xlink:href="#CascadiaCode-Regular-72" transform="translate(58.59375 0)"/>
     <use xlink:href="#CascadiaCode-Regular-61" transform="translate(117.1875 0)"/>
     <use xlink:href="#CascadiaCode-Regular-69" transform="translate(175.78125 0)"/>
     <use xlink:href="#CascadiaCode-Regular-6e" transform="translate(234.375 0)"/>
     <use xlink:href="#CascadiaCode-Regular-20" transform="translate(292.96875 0)"/>
     <use xlink:href="#CascadiaCode-Regular-6c" transform="translate(351.5625 0)"/>
     <use xlink:href="#CascadiaCode-Regular-6f" transform="translate(410.15625 0)"/>
     <use xlink:href="#CascadiaCode-Regular-73" transform="translate(468.75 0)"/>
     <use xlink:href="#CascadiaCode-Regular-73" transform="translate(527.34375 0)"/>
     <use xlink:href="#CascadiaCode-Regular-3a" transform="translate(585.9375 0)"/>
     <use xlink:href="#CascadiaCode-Regular-20" transform="translate(644.53125 0)"/>
     <use xlink:href="#CascadiaCode-Regular-30" transform="translate(703.125 0)"/>
     <use xlink:href="#CascadiaCode-Regular-2e" transform="translate(761.71875 0)"/>
     <use xlink:href="#CascadiaCode-Regular-30" transform="translate(820.3125 0)"/>
     <use xlink:href="#CascadiaCode-Regular-33" transform="translate(878.90625 0)"/>
    </g>
   </g>
   <g id="text_8">
    <!-- Test loss: 0.04 -->
    <g transform="translate(184.050492 40.745627) scale(0.0694 -0.0694)">
     <defs>
      <path id="CascadiaCode-Regular-34" d="M 231 994 
L 856 4188 
L 1531 4188 
L 900 994 
L 231 994 
z
M 231 994 
L 669 1575 
L 2494 1575 
L 2494 994 
L 231 994 
z
M 3019 994 
L 3019 1575 
L 3500 1575 
L 3500 994 
L 3019 994 
z
M 2431 0 
L 2431 4438 
L 3081 4438 
L 3081 0 
L 2431 0 
z
" transform="scale(0.015625)"/>
     </defs>
     <use xlink:href="#CascadiaCode-Regular-54"/>
     <use xlink:href="#CascadiaCode-Regular-65" transform="translate(58.59375 0)"/>
     <use xlink:href="#CascadiaCode-Regular-73" transform="translate(117.1875 0)"/>
     <use xlink:href="#CascadiaCode-Regular-74" transform="translate(175.78125 0)"/>
     <use xlink:href="#CascadiaCode-Regular-20" transform="translate(234.375 0)"/>
     <use xlink:href="#CascadiaCode-Regular-6c" transform="translate(292.96875 0)"/>
     <use xlink:href="#CascadiaCode-Regular-6f" transform="translate(351.5625 0)"/>
     <use xlink:href="#CascadiaCode-Regular-73" transform="translate(410.15625 0)"/>
     <use xlink:href="#CascadiaCode-Regular-73" transform="translate(468.75 0)"/>
     <use xlink:href="#CascadiaCode-Regular-3a" transform="translate(527.34375 0)"/>
     <use xlink:href="#CascadiaCode-Regular-20" transform="translate(585.9375 0)"/>
     <use xlink:href="#CascadiaCode-Regular-30" transform="translate(644.53125 0)"/>
     <use xlink:href="#CascadiaCode-Regular-2e" transform="translate(703.125 0)"/>
     <use xlink:href="#CascadiaCode-Regular-30" transform="translate(761.71875 0)"/>
     <use xlink:href="#CascadiaCode-Regular-34" transform="translate(820.3125 0)"/>
    </g>
   </g>
   <g id="text_9">
    <!-- Just right -->
    <g style="fill: #808080" transform="translate(194.264163 14.396875) scale(0.1 -0.1)">
     <defs>
      <path id="Helvetica-4a" d="M 2741 1369 
Q 2741 788 2569 466 
Q 2250 -122 1356 -122 
Q 841 -122 475 158 
Q 109 438 109 1153 
L 109 1481 
L 694 1481 
L 694 1153 
Q 694 778 861 589 
Q 1028 400 1381 400 
Q 1878 400 2031 741 
Q 2125 950 2125 1531 
L 2125 4591 
L 2741 4591 
L 2741 1369 
z
" transform="scale(0.015625)"/>
      <path id="Helvetica-75" d="M 975 3347 
L 975 1125 
Q 975 869 1056 706 
Q 1206 406 1616 406 
Q 2203 406 2416 931 
Q 2531 1213 2531 1703 
L 2531 3347 
L 3094 3347 
L 3094 0 
L 2563 0 
L 2569 494 
Q 2459 303 2297 172 
Q 1975 -91 1516 -91 
Q 800 -91 541 388 
Q 400 644 400 1072 
L 400 3347 
L 975 3347 
z
M 1747 3428 
L 1747 3428 
z
" transform="scale(0.015625)"/>
      <path id="Helvetica-74" d="M 525 4281 
L 1094 4281 
L 1094 3347 
L 1628 3347 
L 1628 2888 
L 1094 2888 
L 1094 703 
Q 1094 528 1213 469 
Q 1278 434 1431 434 
Q 1472 434 1519 436 
Q 1566 438 1628 444 
L 1628 0 
Q 1531 -28 1426 -40 
Q 1322 -53 1200 -53 
Q 806 -53 665 148 
Q 525 350 525 672 
L 525 2888 
L 72 2888 
L 72 3347 
L 525 3347 
L 525 4281 
z
" transform="scale(0.015625)"/>
      <path id="Helvetica-72" d="M 428 3347 
L 963 3347 
L 963 2769 
Q 1028 2938 1284 3180 
Q 1541 3422 1875 3422 
Q 1891 3422 1928 3419 
Q 1966 3416 2056 3406 
L 2056 2813 
Q 2006 2822 1964 2825 
Q 1922 2828 1872 2828 
Q 1447 2828 1219 2554 
Q 991 2281 991 1925 
L 991 0 
L 428 0 
L 428 3347 
z
" transform="scale(0.015625)"/>
      <path id="Helvetica-67" d="M 1594 3406 
Q 1988 3406 2281 3213 
Q 2441 3103 2606 2894 
L 2606 3316 
L 3125 3316 
L 3125 272 
Q 3125 -366 2938 -734 
Q 2588 -1416 1616 -1416 
Q 1075 -1416 706 -1173 
Q 338 -931 294 -416 
L 866 -416 
Q 906 -641 1028 -763 
Q 1219 -950 1628 -950 
Q 2275 -950 2475 -494 
Q 2594 -225 2584 466 
Q 2416 209 2178 84 
Q 1941 -41 1550 -41 
Q 1006 -41 598 345 
Q 191 731 191 1622 
Q 191 2463 602 2934 
Q 1013 3406 1594 3406 
z
M 2606 1688 
Q 2606 2309 2350 2609 
Q 2094 2909 1697 2909 
Q 1103 2909 884 2353 
Q 769 2056 769 1575 
Q 769 1009 998 714 
Q 1228 419 1616 419 
Q 2222 419 2469 966 
Q 2606 1275 2606 1688 
z
M 1659 3428 
L 1659 3428 
z
" transform="scale(0.015625)"/>
      <path id="Helvetica-68" d="M 413 4606 
L 975 4606 
L 975 2894 
Q 1175 3147 1334 3250 
Q 1606 3428 2013 3428 
Q 2741 3428 3000 2919 
Q 3141 2641 3141 2147 
L 3141 0 
L 2563 0 
L 2563 2109 
Q 2563 2478 2469 2650 
Q 2316 2925 1894 2925 
Q 1544 2925 1259 2684 
Q 975 2444 975 1775 
L 975 0 
L 413 0 
L 413 4606 
z
" transform="scale(0.015625)"/>
     </defs>
     <use xlink:href="#Helvetica-4a"/>
     <use xlink:href="#Helvetica-75" transform="translate(50 0)"/>
     <use xlink:href="#Helvetica-73" transform="translate(105.615234 0)"/>
     <use xlink:href="#Helvetica-74" transform="translate(155.615234 0)"/>
     <use xlink:href="#Helvetica-20" transform="translate(183.398438 0)"/>
     <use xlink:href="#Helvetica-72" transform="translate(211.181641 0)"/>
     <use xlink:href="#Helvetica-69" transform="translate(244.482422 0)"/>
     <use xlink:href="#Helvetica-67" transform="translate(266.699219 0)"/>
     <use xlink:href="#Helvetica-68" transform="translate(322.314453 0)"/>
     <use xlink:href="#Helvetica-74" transform="translate(377.929688 0)"/>
    </g>
   </g>
  </g>
  <g id="axes_3">
   <g id="patch_12">
    <path d="M 296.17546 131.276875 
L 408.639264 131.276875 
L 408.639264 20.396875 
L 296.17546 20.396875 
z
" style="fill: #ffffff"/>
   </g>
   <g id="PathCollection_5">
    <g clip-path="url(#p8d9d9ca8d6)">
     <use xlink:href="#mdb081cf4d2" x="322.011739" y="90.509824" style="fill: #1f77b4; stroke: #1f77b4"/>
     <use xlink:href="#mdb081cf4d2" x="310.958785" y="111.971508" style="fill: #1f77b4; stroke: #1f77b4"/>
     <use xlink:href="#mdb081cf4d2" x="398.000796" y="39.452683" style="fill: #1f77b4; stroke: #1f77b4"/>
     <use xlink:href="#mdb081cf4d2" x="352.407362" y="70.882043" style="fill: #1f77b4; stroke: #1f77b4"/>
     <use xlink:href="#mdb081cf4d2" x="309.577166" y="103.527075" style="fill: #1f77b4; stroke: #1f77b4"/>
     <use xlink:href="#mdb081cf4d2" x="351.025743" y="70.597692" style="fill: #1f77b4; stroke: #1f77b4"/>
     <use xlink:href="#mdb081cf4d2" x="388.329462" y="83.086623" style="fill: #1f77b4; stroke: #1f77b4"/>
     <use xlink:href="#mdb081cf4d2" x="338.59117" y="86.098135" style="fill: #1f77b4; stroke: #1f77b4"/>
     <use xlink:href="#mdb081cf4d2" x="366.223554" y="74.216888" style="fill: #1f77b4; stroke: #1f77b4"/>
     <use xlink:href="#mdb081cf4d2" x="382.802985" y="76.137661" style="fill: #1f77b4; stroke: #1f77b4"/>
     <use xlink:href="#mdb081cf4d2" x="346.880885" y="103.491371" style="fill: #1f77b4; stroke: #1f77b4"/>
     <use xlink:href="#mdb081cf4d2" x="396.619177" y="49.574014" style="fill: #1f77b4; stroke: #1f77b4"/>
     <use xlink:href="#mdb081cf4d2" x="381.421366" y="80.314085" style="fill: #1f77b4; stroke: #1f77b4"/>
     <use xlink:href="#mdb081cf4d2" x="335.827931" y="99.78849" style="fill: #1f77b4; stroke: #1f77b4"/>
     <use xlink:href="#mdb081cf4d2" x="330.301454" y="80.626324" style="fill: #1f77b4; stroke: #1f77b4"/>
     <use xlink:href="#mdb081cf4d2" x="341.354408" y="68.669175" style="fill: #1f77b4; stroke: #1f77b4"/>
     <use xlink:href="#mdb081cf4d2" x="392.474319" y="75.228458" style="fill: #1f77b4; stroke: #1f77b4"/>
     <use xlink:href="#mdb081cf4d2" x="323.393358" y="77.246082" style="fill: #1f77b4; stroke: #1f77b4"/>
     <use xlink:href="#mdb081cf4d2" x="370.368412" y="90.113136" style="fill: #1f77b4; stroke: #1f77b4"/>
     <use xlink:href="#mdb081cf4d2" x="395.237558" y="62.385747" style="fill: #1f77b4; stroke: #1f77b4"/>
     <use xlink:href="#mdb081cf4d2" x="331.683074" y="77.743283" style="fill: #1f77b4; stroke: #1f77b4"/>
     <use xlink:href="#mdb081cf4d2" x="316.485262" y="86.044699" style="fill: #1f77b4; stroke: #1f77b4"/>
     <use xlink:href="#mdb081cf4d2" x="363.460316" y="87.137297" style="fill: #1f77b4; stroke: #1f77b4"/>
     <use xlink:href="#mdb081cf4d2" x="371.750031" y="76.450175" style="fill: #1f77b4; stroke: #1f77b4"/>
     <use xlink:href="#mdb081cf4d2" x="306.813928" y="100.349535" style="fill: #1f77b4; stroke: #1f77b4"/>
     <use xlink:href="#mdb081cf4d2" x="345.499266" y="92.378011" style="fill: #1f77b4; stroke: #1f77b4"/>
     <use xlink:href="#mdb081cf4d2" x="320.63012" y="90.916257" style="fill: #1f77b4; stroke: #1f77b4"/>
     <use xlink:href="#mdb081cf4d2" x="362.078696" y="88.039666" style="fill: #1f77b4; stroke: #1f77b4"/>
     <use xlink:href="#mdb081cf4d2" x="389.711081" y="61.496717" style="fill: #1f77b4; stroke: #1f77b4"/>
     <use xlink:href="#mdb081cf4d2" x="391.0927" y="65.128604" style="fill: #1f77b4; stroke: #1f77b4"/>
     <use xlink:href="#mdb081cf4d2" x="337.20955" y="84.050588" style="fill: #1f77b4; stroke: #1f77b4"/>
     <use xlink:href="#mdb081cf4d2" x="380.039746" y="72.008943" style="fill: #1f77b4; stroke: #1f77b4"/>
     <use xlink:href="#mdb081cf4d2" x="344.117647" y="79.526817" style="fill: #1f77b4; stroke: #1f77b4"/>
     <use xlink:href="#mdb081cf4d2" x="400.764035" y="28.255726" style="fill: #1f77b4; stroke: #1f77b4"/>
     <use xlink:href="#mdb081cf4d2" x="312.340404" y="108.844275" style="fill: #1f77b4; stroke: #1f77b4"/>
     <use xlink:href="#mdb081cf4d2" x="356.55222" y="93.868291" style="fill: #1f77b4; stroke: #1f77b4"/>
     <use xlink:href="#mdb081cf4d2" x="367.605173" y="98.332347" style="fill: #1f77b4; stroke: #1f77b4"/>
     <use xlink:href="#mdb081cf4d2" x="319.248501" y="95.882577" style="fill: #1f77b4; stroke: #1f77b4"/>
     <use xlink:href="#mdb081cf4d2" x="360.697077" y="63.012469" style="fill: #1f77b4; stroke: #1f77b4"/>
     <use xlink:href="#mdb081cf4d2" x="348.262504" y="86.75945" style="fill: #1f77b4; stroke: #1f77b4"/>
     <use xlink:href="#mdb081cf4d2" x="393.855939" y="51.194794" style="fill: #1f77b4; stroke: #1f77b4"/>
     <use xlink:href="#mdb081cf4d2" x="305.432308" y="99.930599" style="fill: #1f77b4; stroke: #1f77b4"/>
     <use xlink:href="#mdb081cf4d2" x="304.050689" y="116.438768" style="fill: #1f77b4; stroke: #1f77b4"/>
     <use xlink:href="#mdb081cf4d2" x="334.446312" y="62.186474" style="fill: #1f77b4; stroke: #1f77b4"/>
     <use xlink:href="#mdb081cf4d2" x="342.736027" y="81.937135" style="fill: #1f77b4; stroke: #1f77b4"/>
     <use xlink:href="#mdb081cf4d2" x="384.184604" y="77.771223" style="fill: #1f77b4; stroke: #1f77b4"/>
     <use xlink:href="#mdb081cf4d2" x="378.658127" y="75.572857" style="fill: #1f77b4; stroke: #1f77b4"/>
     <use xlink:href="#mdb081cf4d2" x="359.315458" y="100.493877" style="fill: #1f77b4; stroke: #1f77b4"/>
     <use xlink:href="#mdb081cf4d2" x="364.841935" y="95.247991" style="fill: #1f77b4; stroke: #1f77b4"/>
     <use xlink:href="#mdb081cf4d2" x="327.538216" y="97.793171" style="fill: #1f77b4; stroke: #1f77b4"/>
     <use xlink:href="#mdb081cf4d2" x="353.788981" y="87.134166" style="fill: #1f77b4; stroke: #1f77b4"/>
     <use xlink:href="#mdb081cf4d2" x="301.287451" y="116.259425" style="fill: #1f77b4; stroke: #1f77b4"/>
    </g>
   </g>
   <g id="PathCollection_6">
    <g clip-path="url(#p8d9d9ca8d6)">
     <use xlink:href="#m57a4f0859b" x="349.644123" y="81.584718" style="fill: #1f77b4; fill-opacity: 0.2; stroke: #1f77b4; stroke-opacity: 0.2"/>
     <use xlink:href="#m57a4f0859b" x="403.527273" y="27.941708" style="fill: #1f77b4; fill-opacity: 0.2; stroke: #1f77b4; stroke-opacity: 0.2"/>
     <use xlink:href="#m57a4f0859b" x="317.866881" y="91.163346" style="fill: #1f77b4; fill-opacity: 0.2; stroke: #1f77b4; stroke-opacity: 0.2"/>
     <use xlink:href="#m57a4f0859b" x="308.195547" y="126.236875" style="fill: #1f77b4; fill-opacity: 0.2; stroke: #1f77b4; stroke-opacity: 0.2"/>
     <use xlink:href="#m57a4f0859b" x="377.276508" y="72.910137" style="fill: #1f77b4; fill-opacity: 0.2; stroke: #1f77b4; stroke-opacity: 0.2"/>
     <use xlink:href="#m57a4f0859b" x="315.103643" y="101.566889" style="fill: #1f77b4; fill-opacity: 0.2; stroke: #1f77b4; stroke-opacity: 0.2"/>
     <use xlink:href="#m57a4f0859b" x="368.986793" y="83.606278" style="fill: #1f77b4; fill-opacity: 0.2; stroke: #1f77b4; stroke-opacity: 0.2"/>
     <use xlink:href="#m57a4f0859b" x="355.1706" y="86.257817" style="fill: #1f77b4; fill-opacity: 0.2; stroke: #1f77b4; stroke-opacity: 0.2"/>
     <use xlink:href="#m57a4f0859b" x="373.13165" y="84.991506" style="fill: #1f77b4; fill-opacity: 0.2; stroke: #1f77b4; stroke-opacity: 0.2"/>
     <use xlink:href="#m57a4f0859b" x="399.382415" y="42.190136" style="fill: #1f77b4; fill-opacity: 0.2; stroke: #1f77b4; stroke-opacity: 0.2"/>
     <use xlink:href="#m57a4f0859b" x="374.513269" y="91.112159" style="fill: #1f77b4; fill-opacity: 0.2; stroke: #1f77b4; stroke-opacity: 0.2"/>
     <use xlink:href="#m57a4f0859b" x="328.919835" y="114.235163" style="fill: #1f77b4; fill-opacity: 0.2; stroke: #1f77b4; stroke-opacity: 0.2"/>
     <use xlink:href="#m57a4f0859b" x="324.774977" y="93.34643" style="fill: #1f77b4; fill-opacity: 0.2; stroke: #1f77b4; stroke-opacity: 0.2"/>
     <use xlink:href="#m57a4f0859b" x="302.66907" y="126.17002" style="fill: #1f77b4; fill-opacity: 0.2; stroke: #1f77b4; stroke-opacity: 0.2"/>
     <use xlink:href="#m57a4f0859b" x="385.566223" y="72.899791" style="fill: #1f77b4; fill-opacity: 0.2; stroke: #1f77b4; stroke-opacity: 0.2"/>
     <use xlink:href="#m57a4f0859b" x="339.972789" y="68.239765" style="fill: #1f77b4; fill-opacity: 0.2; stroke: #1f77b4; stroke-opacity: 0.2"/>
     <use xlink:href="#m57a4f0859b" x="386.947842" y="75.719718" style="fill: #1f77b4; fill-opacity: 0.2; stroke: #1f77b4; stroke-opacity: 0.2"/>
     <use xlink:href="#m57a4f0859b" x="402.145654" y="48.713923" style="fill: #1f77b4; fill-opacity: 0.2; stroke: #1f77b4; stroke-opacity: 0.2"/>
     <use xlink:href="#m57a4f0859b" x="357.933839" y="97.628801" style="fill: #1f77b4; fill-opacity: 0.2; stroke: #1f77b4; stroke-opacity: 0.2"/>
     <use xlink:href="#m57a4f0859b" x="333.064693" y="93.532329" style="fill: #1f77b4; fill-opacity: 0.2; stroke: #1f77b4; stroke-opacity: 0.2"/>
     <use xlink:href="#m57a4f0859b" x="375.894889" y="78.505" style="fill: #1f77b4; fill-opacity: 0.2; stroke: #1f77b4; stroke-opacity: 0.2"/>
     <use xlink:href="#m57a4f0859b" x="326.156597" y="86.89658" style="fill: #1f77b4; fill-opacity: 0.2; stroke: #1f77b4; stroke-opacity: 0.2"/>
     <use xlink:href="#m57a4f0859b" x="313.722024" y="101.131551" style="fill: #1f77b4; fill-opacity: 0.2; stroke: #1f77b4; stroke-opacity: 0.2"/>
    </g>
   </g>
   <g id="matplotlib.axis_5">
    <g id="text_10">
     <!-- $x$ -->
     <g style="fill: #808080" transform="translate(349.507362 142.450312) scale(0.1 -0.1)">
      <use xlink:href="#Cmmi10-78" transform="translate(0 0.8125)"/>
     </g>
    </g>
   </g>
   <g id="matplotlib.axis_6"/>
   <g id="line2d_3">
    <path d="M 301.287451 114.051205 
L 302.320176 114.051205 
L 303.352902 114.133703 
L 304.385627 111.219651 
L 305.418353 103.790975 
L 306.451078 101.307221 
L 307.483804 100.790753 
L 308.516529 103.136154 
L 309.549255 104.736147 
L 310.58198 108.708552 
L 311.614705 109.665648 
L 312.647431 107.927171 
L 313.680156 107.577523 
L 314.712882 96.103714 
L 315.745607 94.8166 
L 316.778333 89.865762 
L 317.811058 89.865762 
L 318.843784 94.140027 
L 319.876509 94.318632 
L 320.909235 91.244469 
L 321.94196 89.931192 
L 322.974686 83.097589 
L 324.007411 83.135801 
L 325.040137 85.288291 
L 326.072862 92.787814 
L 327.105588 92.301356 
L 328.138313 92.053835 
L 329.171039 84.753266 
L 330.203764 81.770708 
L 331.23649 77.653917 
L 332.269215 77.713776 
L 333.301941 71.111692 
L 334.334666 74.638925 
L 335.367392 89.393444 
L 336.400117 91.678925 
L 337.432842 84.960333 
L 338.465568 85.926081 
L 339.498293 82.515074 
L 340.531019 75.607712 
L 341.563744 74.114752 
L 342.59647 79.680214 
L 343.629195 81.471665 
L 344.661921 83.177201 
L 345.694646 93.062534 
L 346.727372 98.613925 
L 347.760097 90.664285 
L 348.792823 89.620177 
L 349.825548 76.314998 
L 350.858274 73.279099 
L 351.890999 73.316115 
L 352.923725 75.961951 
L 353.95645 82.813724 
L 354.989176 87.181111 
L 356.021901 91.909501 
L 357.054627 93.488872 
L 358.087352 95.831101 
L 359.120078 90.8942 
L 360.152803 73.110129 
L 361.185528 71.36654 
L 362.218254 85.633816 
L 363.250979 87.125786 
L 364.283705 91.329231 
L 365.31643 89.932081 
L 366.349156 82.545526 
L 367.381881 93.793656 
L 368.414607 94.824263 
L 369.447332 91.072898 
L 370.480058 88.009394 
L 371.512783 82.27095 
L 372.545509 82.27095 
L 373.578234 79.885005 
L 374.61096 76.768858 
L 375.643685 75.702537 
L 376.676411 75.369165 
L 377.709136 75.366039 
L 378.741862 75.37925 
L 379.774587 73.739849 
L 380.807313 77.831321 
L 381.840038 78.5139 
L 382.872764 76.848925 
L 383.905489 77.50235 
L 384.938215 77.86831 
L 385.97094 78.325838 
L 387.003665 76.977392 
L 388.036391 76.345261 
L 389.069116 67.417116 
L 390.101842 63.825513 
L 391.134567 66.825628 
L 392.167293 69.942438 
L 393.200018 57.549857 
L 394.232744 55.312359 
L 395.265469 58.128842 
L 396.298195 52.566553 
L 397.33092 43.994591 
L 398.363646 41.94679 
L 399.396371 34.830112 
L 400.429097 34.830112 
L 401.461822 34.830112 
L 402.494548 34.830112 
L 403.527273 34.830112 
" clip-path="url(#p8d9d9ca8d6)" style="fill: none; stroke: #ff7f0e; stroke-linecap: square"/>
   </g>
   <g id="patch_13">
    <path d="M 296.17546 131.276875 
L 296.17546 20.396875 
" style="fill: none; stroke: #808080; stroke-width: 0.8; stroke-linejoin: miter; stroke-linecap: square"/>
   </g>
   <g id="patch_14">
    <path d="M 408.639264 131.276875 
L 408.639264 20.396875 
" style="fill: none; stroke: #808080; stroke-width: 0.8; stroke-linejoin: miter; stroke-linecap: square"/>
   </g>
   <g id="patch_15">
    <path d="M 296.17546 131.276875 
L 408.639264 131.276875 
" style="fill: none; stroke: #808080; stroke-width: 0.8; stroke-linejoin: miter; stroke-linecap: square"/>
   </g>
   <g id="patch_16">
    <path d="M 296.17546 20.396875 
L 408.639264 20.396875 
" style="fill: none; stroke: #808080; stroke-width: 0.8; stroke-linejoin: miter; stroke-linecap: square"/>
   </g>
   <g id="text_11">
    <!-- Train loss: 0.01 -->
    <g transform="translate(319.876112 33.07764) scale(0.0694 -0.0694)">
     <defs>
      <path id="CascadiaCode-Regular-31" d="M 1644 0 
L 1644 4438 
L 2294 4438 
L 2294 0 
L 1644 0 
z
M 531 0 
L 531 594 
L 1706 594 
L 1706 0 
L 531 0 
z
M 2231 0 
L 2231 594 
L 3288 594 
L 3288 0 
L 2231 0 
z
M 594 3431 
L 594 4063 
L 1644 4438 
L 1644 3794 
L 594 3431 
z
" transform="scale(0.015625)"/>
     </defs>
     <use xlink:href="#CascadiaCode-Regular-54"/>
     <use xlink:href="#CascadiaCode-Regular-72" transform="translate(58.59375 0)"/>
     <use xlink:href="#CascadiaCode-Regular-61" transform="translate(117.1875 0)"/>
     <use xlink:href="#CascadiaCode-Regular-69" transform="translate(175.78125 0)"/>
     <use xlink:href="#CascadiaCode-Regular-6e" transform="translate(234.375 0)"/>
     <use xlink:href="#CascadiaCode-Regular-20" transform="translate(292.96875 0)"/>
     <use xlink:href="#CascadiaCode-Regular-6c" transform="translate(351.5625 0)"/>
     <use xlink:href="#CascadiaCode-Regular-6f" transform="translate(410.15625 0)"/>
     <use xlink:href="#CascadiaCode-Regular-73" transform="translate(468.75 0)"/>
     <use xlink:href="#CascadiaCode-Regular-73" transform="translate(527.34375 0)"/>
     <use xlink:href="#CascadiaCode-Regular-3a" transform="translate(585.9375 0)"/>
     <use xlink:href="#CascadiaCode-Regular-20" transform="translate(644.53125 0)"/>
     <use xlink:href="#CascadiaCode-Regular-30" transform="translate(703.125 0)"/>
     <use xlink:href="#CascadiaCode-Regular-2e" transform="translate(761.71875 0)"/>
     <use xlink:href="#CascadiaCode-Regular-30" transform="translate(820.3125 0)"/>
     <use xlink:href="#CascadiaCode-Regular-31" transform="translate(878.90625 0)"/>
    </g>
   </g>
   <g id="text_12">
    <!-- Test loss: 0.05 -->
    <g transform="translate(321.909315 40.745627) scale(0.0694 -0.0694)">
     <defs>
      <path id="CascadiaCode-Regular-35" d="M 1919 -63 
Q 1200 -63 806 279 
Q 413 622 413 1244 
L 1081 1244 
Q 1081 897 1300 705 
Q 1519 513 1925 513 
Q 2325 513 2544 753 
Q 2763 994 2763 1431 
Q 2763 1859 2525 2095 
Q 2288 2331 1850 2331 
Q 1413 2331 1031 2125 
L 1088 2656 
Q 1334 2797 1578 2845 
Q 1822 2894 2069 2894 
Q 2713 2894 3066 2512 
Q 3419 2131 3419 1431 
Q 3419 956 3242 622 
Q 3066 288 2731 112 
Q 2397 -63 1919 -63 
z
M 681 2125 
L 744 4438 
L 1413 4438 
L 1350 2513 
L 1031 2125 
L 681 2125 
z
M 1044 3856 
L 988 4438 
L 3138 4438 
L 3138 3856 
L 1044 3856 
z
" transform="scale(0.015625)"/>
     </defs>
     <use xlink:href="#CascadiaCode-Regular-54"/>
     <use xlink:href="#CascadiaCode-Regular-65" transform="translate(58.59375 0)"/>
     <use xlink:href="#CascadiaCode-Regular-73" transform="translate(117.1875 0)"/>
     <use xlink:href="#CascadiaCode-Regular-74" transform="translate(175.78125 0)"/>
     <use xlink:href="#CascadiaCode-Regular-20" transform="translate(234.375 0)"/>
     <use xlink:href="#CascadiaCode-Regular-6c" transform="translate(292.96875 0)"/>
     <use xlink:href="#CascadiaCode-Regular-6f" transform="translate(351.5625 0)"/>
     <use xlink:href="#CascadiaCode-Regular-73" transform="translate(410.15625 0)"/>
     <use xlink:href="#CascadiaCode-Regular-73" transform="translate(468.75 0)"/>
     <use xlink:href="#CascadiaCode-Regular-3a" transform="translate(527.34375 0)"/>
     <use xlink:href="#CascadiaCode-Regular-20" transform="translate(585.9375 0)"/>
     <use xlink:href="#CascadiaCode-Regular-30" transform="translate(644.53125 0)"/>
     <use xlink:href="#CascadiaCode-Regular-2e" transform="translate(703.125 0)"/>
     <use xlink:href="#CascadiaCode-Regular-30" transform="translate(761.71875 0)"/>
     <use xlink:href="#CascadiaCode-Regular-35" transform="translate(820.3125 0)"/>
    </g>
   </g>
   <g id="text_13">
    <!-- Too complex -->
    <g style="fill: #808080" transform="translate(323.786268 14.396875) scale(0.1 -0.1)">
     <defs>
      <path id="Helvetica-63" d="M 1703 3444 
Q 2269 3444 2623 3169 
Q 2978 2894 3050 2222 
L 2503 2222 
Q 2453 2531 2275 2736 
Q 2097 2941 1703 2941 
Q 1166 2941 934 2416 
Q 784 2075 784 1575 
Q 784 1072 996 728 
Q 1209 384 1666 384 
Q 2016 384 2220 598 
Q 2425 813 2503 1184 
L 3050 1184 
Q 2956 519 2581 211 
Q 2206 -97 1622 -97 
Q 966 -97 575 383 
Q 184 863 184 1581 
Q 184 2463 612 2953 
Q 1041 3444 1703 3444 
z
M 1616 3428 
L 1616 3428 
z
" transform="scale(0.015625)"/>
      <path id="Helvetica-78" d="M 94 3347 
L 822 3347 
L 1591 2169 
L 2369 3347 
L 3053 3331 
L 1925 1716 
L 3103 0 
L 2384 0 
L 1553 1256 
L 747 0 
L 34 0 
L 1213 1716 
L 94 3347 
z
" transform="scale(0.015625)"/>
     </defs>
     <use xlink:href="#Helvetica-54"/>
     <use xlink:href="#Helvetica-6f" transform="translate(61.083984 0)"/>
     <use xlink:href="#Helvetica-6f" transform="translate(116.699219 0)"/>
     <use xlink:href="#Helvetica-20" transform="translate(172.314453 0)"/>
     <use xlink:href="#Helvetica-63" transform="translate(200.097656 0)"/>
     <use xlink:href="#Helvetica-6f" transform="translate(250.097656 0)"/>
     <use xlink:href="#Helvetica-6d" transform="translate(305.712891 0)"/>
     <use xlink:href="#Helvetica-70" transform="translate(389.013672 0)"/>
     <use xlink:href="#Helvetica-6c" transform="translate(444.628906 0)"/>
     <use xlink:href="#Helvetica-65" transform="translate(466.845703 0)"/>
     <use xlink:href="#Helvetica-78" transform="translate(522.460938 0)"/>
    </g>
   </g>
  </g>
 </g>
 <defs>
  <clipPath id="pb3c44dfab6">
   <rect x="20.457813" y="20.396875" width="112.463805" height="110.88"/>
  </clipPath>
  <clipPath id="pfea133179d">
   <rect x="158.316636" y="20.396875" width="112.463805" height="110.88"/>
  </clipPath>
  <clipPath id="p8d9d9ca8d6">
   <rect x="296.17546" y="20.396875" width="112.463805" height="110.88"/>
  </clipPath>
 </defs>
</svg>
