<?xml version="1.0" encoding="utf-8" standalone="no"?>
<!DOCTYPE svg PUBLIC "-//W3C//DTD SVG 1.1//EN"
  "http://www.w3.org/Graphics/SVG/1.1/DTD/svg11.dtd">
<svg xmlns:xlink="http://www.w3.org/1999/xlink" width="418.257812pt" height="151.476481pt" viewBox="0 0 418.257812 151.476481" xmlns="http://www.w3.org/2000/svg" version="1.1">
 <metadata>
  <rdf:RDF xmlns:dc="http://purl.org/dc/elements/1.1/" xmlns:cc="http://creativecommons.org/ns#" xmlns:rdf="http://www.w3.org/1999/02/22-rdf-syntax-ns#">
   <cc:Work>
    <dc:type rdf:resource="http://purl.org/dc/dcmitype/StillImage"/>
    <dc:date>2026-05-16T14:42:01.403272</dc:date>
    <dc:format>image/svg+xml</dc:format>
    <dc:creator>
     <cc:Agent>
      <dc:title>Matplotlib v3.10.8, https://matplotlib.org/</dc:title>
     </cc:Agent>
    </dc:creator>
   </cc:Work>
  </rdf:RDF>
 </metadata>
 <defs>
  <style type="text/css">*{stroke-linejoin: round; stroke-linecap: butt}</style>
 </defs>
 <g id="figure_1">
  <g id="patch_1">
   <path d="M 0 151.476481 
L 418.257812 151.476481 
L 418.257812 0 
L 0 0 
L 0 151.476481 
z
" style="fill: none"/>
  </g>
  <g id="axes_1">
   <g id="patch_2">
    <path d="M 20.457812 131.018668 
L 135.340165 131.018668 
L 135.340165 20.56875 
L 20.457812 20.56875 
z
" style="fill: #ffffff"/>
   </g>
   <g id="PathCollection_1">
    <defs>
     <path id="ma8f0e148d2" d="M 0 1.118034 
C 0.296506 1.118034 0.580908 1.000231 0.790569 0.790569 
C 1.000231 0.580908 1.118034 0.296506 1.118034 0 
C 1.118034 -0.296506 1.000231 -0.580908 0.790569 -0.790569 
C 0.580908 -1.000231 0.296506 -1.118034 0 -1.118034 
C -0.296506 -1.118034 -0.580908 -1.000231 -0.790569 -0.790569 
C -1.000231 -0.580908 -1.118034 -0.296506 -1.118034 0 
C -1.118034 0.296506 -1.000231 0.580908 -0.790569 0.790569 
C -0.580908 1.000231 -0.296506 1.118034 0 1.118034 
z
" style="stroke: #1f77b4"/>
    </defs>
    <g clip-path="url(#pe5eac00841)">
     <use xlink:href="#ma8f0e148d2" x="46.849704" y="89.502852" style="fill: #1f77b4; stroke: #1f77b4"/>
     <use xlink:href="#ma8f0e148d2" x="35.559055" y="111.426072" style="fill: #1f77b4; stroke: #1f77b4"/>
     <use xlink:href="#ma8f0e148d2" x="124.472916" y="37.34772" style="fill: #1f77b4; stroke: #1f77b4"/>
     <use xlink:href="#ma8f0e148d2" x="77.898989" y="69.452973" style="fill: #1f77b4; stroke: #1f77b4"/>
     <use xlink:href="#ma8f0e148d2" x="34.147724" y="102.80004" style="fill: #1f77b4; stroke: #1f77b4"/>
     <use xlink:href="#ma8f0e148d2" x="76.487658" y="69.162507" style="fill: #1f77b4; stroke: #1f77b4"/>
     <use xlink:href="#ma8f0e148d2" x="114.593598" y="81.920014" style="fill: #1f77b4; stroke: #1f77b4"/>
     <use xlink:href="#ma8f0e148d2" x="63.785678" y="84.996289" style="fill: #1f77b4; stroke: #1f77b4"/>
     <use xlink:href="#ma8f0e148d2" x="92.0123" y="72.859534" style="fill: #1f77b4; stroke: #1f77b4"/>
     <use xlink:href="#ma8f0e148d2" x="108.948274" y="74.821614" style="fill: #1f77b4; stroke: #1f77b4"/>
     <use xlink:href="#ma8f0e148d2" x="72.253665" y="102.763569" style="fill: #1f77b4; stroke: #1f77b4"/>
     <use xlink:href="#ma8f0e148d2" x="123.061585" y="47.686712" style="fill: #1f77b4; stroke: #1f77b4"/>
     <use xlink:href="#ma8f0e148d2" x="107.536942" y="79.087852" style="fill: #1f77b4; stroke: #1f77b4"/>
     <use xlink:href="#ma8f0e148d2" x="60.963016" y="98.981057" style="fill: #1f77b4; stroke: #1f77b4"/>
     <use xlink:href="#ma8f0e148d2" x="55.317691" y="79.406807" style="fill: #1f77b4; stroke: #1f77b4"/>
     <use xlink:href="#ma8f0e148d2" x="66.60834" y="67.192517" style="fill: #1f77b4; stroke: #1f77b4"/>
     <use xlink:href="#ma8f0e148d2" x="118.827591" y="73.892858" style="fill: #1f77b4; stroke: #1f77b4"/>
     <use xlink:href="#ma8f0e148d2" x="48.261036" y="75.953871" style="fill: #1f77b4; stroke: #1f77b4"/>
     <use xlink:href="#ma8f0e148d2" x="96.246293" y="89.097633" style="fill: #1f77b4; stroke: #1f77b4"/>
     <use xlink:href="#ma8f0e148d2" x="121.650254" y="60.773963" style="fill: #1f77b4; stroke: #1f77b4"/>
     <use xlink:href="#ma8f0e148d2" x="56.729022" y="76.461765" style="fill: #1f77b4; stroke: #1f77b4"/>
     <use xlink:href="#ma8f0e148d2" x="41.20438" y="84.941704" style="fill: #1f77b4; stroke: #1f77b4"/>
     <use xlink:href="#ma8f0e148d2" x="89.189638" y="86.057799" style="fill: #1f77b4; stroke: #1f77b4"/>
     <use xlink:href="#ma8f0e148d2" x="97.657625" y="75.140849" style="fill: #1f77b4; stroke: #1f77b4"/>
     <use xlink:href="#ma8f0e148d2" x="31.325062" y="99.554167" style="fill: #1f77b4; stroke: #1f77b4"/>
     <use xlink:href="#ma8f0e148d2" x="70.842333" y="91.411215" style="fill: #1f77b4; stroke: #1f77b4"/>
     <use xlink:href="#ma8f0e148d2" x="45.438373" y="89.918025" style="fill: #1f77b4; stroke: #1f77b4"/>
     <use xlink:href="#ma8f0e148d2" x="87.778307" y="86.979573" style="fill: #1f77b4; stroke: #1f77b4"/>
     <use xlink:href="#ma8f0e148d2" x="116.004929" y="59.865814" style="fill: #1f77b4; stroke: #1f77b4"/>
     <use xlink:href="#ma8f0e148d2" x="117.41626" y="63.575806" style="fill: #1f77b4; stroke: #1f77b4"/>
     <use xlink:href="#ma8f0e148d2" x="62.374347" y="82.904709" style="fill: #1f77b4; stroke: #1f77b4"/>
     <use xlink:href="#ma8f0e148d2" x="106.125611" y="70.604107" style="fill: #1f77b4; stroke: #1f77b4"/>
     <use xlink:href="#ma8f0e148d2" x="69.431002" y="78.283654" style="fill: #1f77b4; stroke: #1f77b4"/>
     <use xlink:href="#ma8f0e148d2" x="127.295578" y="25.909972" style="fill: #1f77b4; stroke: #1f77b4"/>
     <use xlink:href="#ma8f0e148d2" x="36.970387" y="108.231587" style="fill: #1f77b4; stroke: #1f77b4"/>
     <use xlink:href="#ma8f0e148d2" x="82.132982" y="92.933543" style="fill: #1f77b4; stroke: #1f77b4"/>
     <use xlink:href="#ma8f0e148d2" x="93.423631" y="97.493599" style="fill: #1f77b4; stroke: #1f77b4"/>
     <use xlink:href="#ma8f0e148d2" x="44.027042" y="94.991147" style="fill: #1f77b4; stroke: #1f77b4"/>
     <use xlink:href="#ma8f0e148d2" x="86.366976" y="61.414163" style="fill: #1f77b4; stroke: #1f77b4"/>
     <use xlink:href="#ma8f0e148d2" x="73.664996" y="85.671825" style="fill: #1f77b4; stroke: #1f77b4"/>
     <use xlink:href="#ma8f0e148d2" x="120.238922" y="49.342347" style="fill: #1f77b4; stroke: #1f77b4"/>
     <use xlink:href="#ma8f0e148d2" x="29.913731" y="99.126222" style="fill: #1f77b4; stroke: #1f77b4"/>
     <use xlink:href="#ma8f0e148d2" x="28.5024" y="115.989401" style="fill: #1f77b4; stroke: #1f77b4"/>
     <use xlink:href="#ma8f0e148d2" x="59.551684" y="60.570404" style="fill: #1f77b4; stroke: #1f77b4"/>
     <use xlink:href="#ma8f0e148d2" x="68.019671" y="80.745806" style="fill: #1f77b4; stroke: #1f77b4"/>
     <use xlink:href="#ma8f0e148d2" x="110.359605" y="76.490306" style="fill: #1f77b4; stroke: #1f77b4"/>
     <use xlink:href="#ma8f0e148d2" x="104.71428" y="74.244664" style="fill: #1f77b4; stroke: #1f77b4"/>
     <use xlink:href="#ma8f0e148d2" x="84.955645" y="99.701613" style="fill: #1f77b4; stroke: #1f77b4"/>
     <use xlink:href="#ma8f0e148d2" x="90.600969" y="94.342914" style="fill: #1f77b4; stroke: #1f77b4"/>
     <use xlink:href="#ma8f0e148d2" x="52.495029" y="96.942828" style="fill: #1f77b4; stroke: #1f77b4"/>
     <use xlink:href="#ma8f0e148d2" x="79.31032" y="86.0546" style="fill: #1f77b4; stroke: #1f77b4"/>
     <use xlink:href="#ma8f0e148d2" x="25.679738" y="115.806201" style="fill: #1f77b4; stroke: #1f77b4"/>
    </g>
   </g>
   <g id="PathCollection_2">
    <defs>
     <path id="m40418a2779" d="M 0 1.118034 
C 0.296506 1.118034 0.580908 1.000231 0.790569 0.790569 
C 1.000231 0.580908 1.118034 0.296506 1.118034 0 
C 1.118034 -0.296506 1.000231 -0.580908 0.790569 -0.790569 
C 0.580908 -1.000231 0.296506 -1.118034 0 -1.118034 
C -0.296506 -1.118034 -0.580908 -1.000231 -0.790569 -0.790569 
C -1.000231 -0.580908 -1.118034 -0.296506 -1.118034 0 
C -1.118034 0.296506 -1.000231 0.580908 -0.790569 0.790569 
C -0.580908 1.000231 -0.296506 1.118034 0 1.118034 
z
" style="stroke: #1f77b4; stroke-opacity: 0.2"/>
    </defs>
    <g clip-path="url(#pe5eac00841)">
     <use xlink:href="#m40418a2779" x="75.076327" y="80.38581" style="fill: #1f77b4; fill-opacity: 0.2; stroke: #1f77b4; stroke-opacity: 0.2"/>
     <use xlink:href="#m40418a2779" x="130.11824" y="25.589201" style="fill: #1f77b4; fill-opacity: 0.2; stroke: #1f77b4; stroke-opacity: 0.2"/>
     <use xlink:href="#m40418a2779" x="42.615711" y="90.170428" style="fill: #1f77b4; fill-opacity: 0.2; stroke: #1f77b4; stroke-opacity: 0.2"/>
     <use xlink:href="#m40418a2779" x="32.736393" y="125.998218" style="fill: #1f77b4; fill-opacity: 0.2; stroke: #1f77b4; stroke-opacity: 0.2"/>
     <use xlink:href="#m40418a2779" x="103.302949" y="71.524682" style="fill: #1f77b4; fill-opacity: 0.2; stroke: #1f77b4; stroke-opacity: 0.2"/>
     <use xlink:href="#m40418a2779" x="39.793049" y="100.7977" style="fill: #1f77b4; fill-opacity: 0.2; stroke: #1f77b4; stroke-opacity: 0.2"/>
     <use xlink:href="#m40418a2779" x="94.834962" y="82.450844" style="fill: #1f77b4; fill-opacity: 0.2; stroke: #1f77b4; stroke-opacity: 0.2"/>
     <use xlink:href="#m40418a2779" x="80.721651" y="85.159405" style="fill: #1f77b4; fill-opacity: 0.2; stroke: #1f77b4; stroke-opacity: 0.2"/>
     <use xlink:href="#m40418a2779" x="99.068956" y="83.865861" style="fill: #1f77b4; fill-opacity: 0.2; stroke: #1f77b4; stroke-opacity: 0.2"/>
     <use xlink:href="#m40418a2779" x="125.884247" y="40.144043" style="fill: #1f77b4; fill-opacity: 0.2; stroke: #1f77b4; stroke-opacity: 0.2"/>
     <use xlink:href="#m40418a2779" x="100.480287" y="90.118141" style="fill: #1f77b4; fill-opacity: 0.2; stroke: #1f77b4; stroke-opacity: 0.2"/>
     <use xlink:href="#m40418a2779" x="53.90636" y="113.738407" style="fill: #1f77b4; fill-opacity: 0.2; stroke: #1f77b4; stroke-opacity: 0.2"/>
     <use xlink:href="#m40418a2779" x="49.672367" y="92.40046" style="fill: #1f77b4; fill-opacity: 0.2; stroke: #1f77b4; stroke-opacity: 0.2"/>
     <use xlink:href="#m40418a2779" x="27.091069" y="125.929925" style="fill: #1f77b4; fill-opacity: 0.2; stroke: #1f77b4; stroke-opacity: 0.2"/>
     <use xlink:href="#m40418a2779" x="111.770936" y="71.514113" style="fill: #1f77b4; fill-opacity: 0.2; stroke: #1f77b4; stroke-opacity: 0.2"/>
     <use xlink:href="#m40418a2779" x="65.197009" y="66.753873" style="fill: #1f77b4; fill-opacity: 0.2; stroke: #1f77b4; stroke-opacity: 0.2"/>
     <use xlink:href="#m40418a2779" x="113.182267" y="74.394682" style="fill: #1f77b4; fill-opacity: 0.2; stroke: #1f77b4; stroke-opacity: 0.2"/>
     <use xlink:href="#m40418a2779" x="128.706909" y="46.808125" style="fill: #1f77b4; fill-opacity: 0.2; stroke: #1f77b4; stroke-opacity: 0.2"/>
     <use xlink:href="#m40418a2779" x="83.544313" y="96.774924" style="fill: #1f77b4; fill-opacity: 0.2; stroke: #1f77b4; stroke-opacity: 0.2"/>
     <use xlink:href="#m40418a2779" x="58.140353" y="92.590356" style="fill: #1f77b4; fill-opacity: 0.2; stroke: #1f77b4; stroke-opacity: 0.2"/>
     <use xlink:href="#m40418a2779" x="101.891618" y="77.239863" style="fill: #1f77b4; fill-opacity: 0.2; stroke: #1f77b4; stroke-opacity: 0.2"/>
     <use xlink:href="#m40418a2779" x="51.083698" y="85.811904" style="fill: #1f77b4; fill-opacity: 0.2; stroke: #1f77b4; stroke-opacity: 0.2"/>
     <use xlink:href="#m40418a2779" x="38.381718" y="100.353001" style="fill: #1f77b4; fill-opacity: 0.2; stroke: #1f77b4; stroke-opacity: 0.2"/>
    </g>
   </g>
   <g id="matplotlib.axis_1">
    <g id="text_1">
     <!-- $x$ -->
     <g style="fill: #808080" transform="translate(74.998989 142.192106) scale(0.1 -0.1)">
      <defs>
       <path id="Cmmi10-78" d="M 500 184 
Q 613 97 819 97 
Q 1019 97 1172 289 
Q 1325 481 1381 709 
L 1672 1844 
Q 1741 2153 1741 2266 
Q 1741 2425 1652 2544 
Q 1563 2663 1403 2663 
Q 1200 2663 1022 2536 
Q 844 2409 722 2214 
Q 600 2019 550 1819 
Q 538 1778 500 1778 
L 422 1778 
Q 372 1778 372 1838 
L 372 1856 
Q 434 2094 584 2320 
Q 734 2547 951 2687 
Q 1169 2828 1416 2828 
Q 1650 2828 1839 2703 
Q 2028 2578 2106 2363 
Q 2216 2559 2386 2693 
Q 2556 2828 2759 2828 
Q 2897 2828 3040 2779 
Q 3184 2731 3275 2631 
Q 3366 2531 3366 2381 
Q 3366 2219 3261 2101 
Q 3156 1984 2994 1984 
Q 2891 1984 2822 2050 
Q 2753 2116 2753 2216 
Q 2753 2350 2845 2451 
Q 2938 2553 3066 2572 
Q 2950 2663 2747 2663 
Q 2541 2663 2389 2472 
Q 2238 2281 2175 2047 
L 1894 916 
Q 1825 659 1825 494 
Q 1825 331 1917 214 
Q 2009 97 2163 97 
Q 2463 97 2698 361 
Q 2934 625 3009 941 
Q 3022 978 3059 978 
L 3138 978 
Q 3163 978 3178 961 
Q 3194 944 3194 922 
Q 3194 916 3188 903 
Q 3097 522 2806 225 
Q 2516 -72 2150 -72 
Q 1916 -72 1727 54 
Q 1538 181 1459 397 
Q 1359 209 1182 68 
Q 1006 -72 806 -72 
Q 669 -72 523 -23 
Q 378 25 287 125 
Q 197 225 197 378 
Q 197 528 301 651 
Q 406 775 563 775 
Q 669 775 741 711 
Q 813 647 813 544 
Q 813 409 723 309 
Q 634 209 500 184 
z
" transform="scale(0.015625)"/>
      </defs>
      <use xlink:href="#Cmmi10-78" transform="translate(0 0.8125)"/>
     </g>
    </g>
   </g>
   <g id="matplotlib.axis_2">
    <g id="text_2">
     <!-- $y$ -->
     <g style="fill: #808080" transform="translate(14.357812 78.293709) rotate(-90) scale(0.1 -0.1)">
      <defs>
       <path id="Cmmi10-79" d="M 538 -916 
Q 672 -1147 1006 -1147 
Q 1309 -1147 1531 -934 
Q 1753 -722 1889 -420 
Q 2025 -119 2100 197 
Q 1816 -72 1484 -72 
Q 1231 -72 1053 15 
Q 875 103 776 276 
Q 678 450 678 697 
Q 678 906 734 1126 
Q 791 1347 892 1617 
Q 994 1888 1069 2088 
Q 1153 2322 1153 2472 
Q 1153 2663 1013 2663 
Q 759 2663 595 2402 
Q 431 2141 353 1819 
Q 341 1778 300 1778 
L 225 1778 
Q 172 1778 172 1838 
L 172 1856 
Q 275 2238 487 2533 
Q 700 2828 1025 2828 
Q 1253 2828 1411 2678 
Q 1569 2528 1569 2297 
Q 1569 2178 1516 2047 
Q 1488 1969 1388 1706 
Q 1288 1444 1234 1272 
Q 1181 1100 1147 934 
Q 1113 769 1113 603 
Q 1113 391 1203 244 
Q 1294 97 1491 97 
Q 1888 97 2203 581 
L 2688 2553 
Q 2709 2638 2787 2698 
Q 2866 2759 2956 2759 
Q 3034 2759 3092 2709 
Q 3150 2659 3150 2578 
Q 3150 2541 3144 2528 
L 2509 -19 
Q 2425 -347 2200 -647 
Q 1975 -947 1658 -1130 
Q 1341 -1313 997 -1313 
Q 831 -1313 668 -1248 
Q 506 -1184 406 -1056 
Q 306 -928 306 -756 
Q 306 -581 409 -453 
Q 513 -325 684 -325 
Q 788 -325 858 -389 
Q 928 -453 928 -556 
Q 928 -703 818 -812 
Q 709 -922 563 -922 
Q 556 -919 550 -917 
Q 544 -916 538 -916 
z
" transform="scale(0.015625)"/>
      </defs>
      <use xlink:href="#Cmmi10-79" transform="translate(0 0.8125)"/>
     </g>
    </g>
   </g>
   <g id="line2d_1">
    <path d="M 25.679738 104.607698 
L 26.734672 104.135389 
L 27.789606 103.663081 
L 28.844541 103.190772 
L 29.899475 102.718464 
L 30.954409 102.246155 
L 32.009344 101.773847 
L 33.064278 101.301538 
L 34.119213 100.82923 
L 35.174147 100.356921 
L 36.229081 99.884613 
L 37.284016 99.412304 
L 38.33895 98.939996 
L 39.393884 98.467687 
L 40.448819 97.995379 
L 41.503753 97.52307 
L 42.558688 97.050762 
L 43.613622 96.578453 
L 44.668556 96.106145 
L 45.723491 95.633836 
L 46.778425 95.161528 
L 47.833359 94.689219 
L 48.888294 94.216911 
L 49.943228 93.744602 
L 50.998163 93.272294 
L 52.053097 92.799985 
L 53.108031 92.327677 
L 54.162966 91.855368 
L 55.2179 91.38306 
L 56.272834 90.910751 
L 57.327769 90.438443 
L 58.382703 89.966134 
L 59.437637 89.493826 
L 60.492572 89.021517 
L 61.547506 88.549209 
L 62.602441 88.0769 
L 63.657375 87.604592 
L 64.712309 87.132283 
L 65.767244 86.659975 
L 66.822178 86.187666 
L 67.877112 85.715358 
L 68.932047 85.243049 
L 69.986981 84.770741 
L 71.041916 84.298432 
L 72.09685 83.826124 
L 73.151784 83.353815 
L 74.206719 82.881507 
L 75.261653 82.409198 
L 76.316587 81.93689 
L 77.371522 81.464581 
L 78.426456 80.992273 
L 79.481391 80.519964 
L 80.536325 80.047656 
L 81.591259 79.575347 
L 82.646194 79.103039 
L 83.701128 78.63073 
L 84.756062 78.158421 
L 85.810997 77.686113 
L 86.865931 77.213804 
L 87.920865 76.741496 
L 88.9758 76.269187 
L 90.030734 75.796879 
L 91.085669 75.32457 
L 92.140603 74.852262 
L 93.195537 74.379953 
L 94.250472 73.907645 
L 95.305406 73.435336 
L 96.36034 72.963028 
L 97.415275 72.490719 
L 98.470209 72.018411 
L 99.525144 71.546102 
L 100.580078 71.073794 
L 101.635012 70.601485 
L 102.689947 70.129177 
L 103.744881 69.656868 
L 104.799815 69.18456 
L 105.85475 68.712251 
L 106.909684 68.239943 
L 107.964619 67.767634 
L 109.019553 67.295326 
L 110.074487 66.823017 
L 111.129422 66.350709 
L 112.184356 65.8784 
L 113.23929 65.406092 
L 114.294225 64.933783 
L 115.349159 64.461475 
L 116.404093 63.989166 
L 117.459028 63.516858 
L 118.513962 63.044549 
L 119.568897 62.572241 
L 120.623831 62.099932 
L 121.678765 61.627624 
L 122.7337 61.155315 
L 123.788634 60.683007 
L 124.843568 60.210698 
L 125.898503 59.73839 
L 126.953437 59.266081 
L 128.008372 58.793773 
L 129.063306 58.321464 
L 130.11824 57.849156 
" clip-path="url(#pe5eac00841)" style="fill: none; stroke: #ff7f0e; stroke-linecap: square"/>
   </g>
   <g id="patch_3">
    <path d="M 20.457812 131.018668 
L 20.457812 20.56875 
" style="fill: none; stroke: #808080; stroke-width: 0.8; stroke-linejoin: miter; stroke-linecap: square"/>
   </g>
   <g id="patch_4">
    <path d="M 135.340165 131.018668 
L 135.340165 20.56875 
" style="fill: none; stroke: #808080; stroke-width: 0.8; stroke-linejoin: miter; stroke-linecap: square"/>
   </g>
   <g id="patch_5">
    <path d="M 20.457812 131.018668 
L 135.340165 131.018668 
" style="fill: none; stroke: #808080; stroke-width: 0.8; stroke-linejoin: miter; stroke-linecap: square"/>
   </g>
   <g id="patch_6">
    <path d="M 20.457812 20.56875 
L 135.340165 20.56875 
" style="fill: none; stroke: #808080; stroke-width: 0.8; stroke-linejoin: miter; stroke-linecap: square"/>
   </g>
   <g id="text_3">
    <!-- Train loss: 0.06 -->
    <g transform="translate(45.367739 30.835582) scale(0.0694 -0.0694)">
     <defs>
      <path id="CascadiaCode-Regular-54" d="M 1550 0 
L 1550 4438 
L 2200 4438 
L 2200 0 
L 1550 0 
z
M 250 3844 
L 250 4438 
L 3500 4438 
L 3500 3844 
L 250 3844 
z
" transform="scale(0.015625)"/>
      <path id="CascadiaCode-Regular-72" d="M 1650 1425 
L 1456 2463 
L 1713 2463 
Q 1769 3375 2625 3375 
Q 3138 3375 3369 3081 
Q 3600 2788 3600 2131 
L 2944 2131 
Q 2944 2494 2836 2653 
Q 2728 2813 2488 2813 
Q 2066 2813 1858 2452 
Q 1650 2091 1650 1425 
z
M 250 0 
L 250 581 
L 2463 581 
L 2463 0 
L 250 0 
z
M 988 0 
L 988 3313 
L 1525 3313 
L 1650 2363 
L 1650 0 
L 988 0 
z
M 375 2731 
L 375 3313 
L 1481 3313 
L 1544 2731 
L 375 2731 
z
" transform="scale(0.015625)"/>
      <path id="CascadiaCode-Regular-61" d="M 2556 -31 
L 2513 950 
L 2425 1225 
L 2425 2081 
Q 2425 2413 2192 2567 
Q 1959 2722 1500 2734 
L 706 2756 
L 769 3344 
L 1438 3334 
Q 2259 3322 2657 2980 
Q 3056 2638 3056 1981 
L 3056 600 
L 3619 531 
L 3619 0 
L 2556 -31 
z
M 1388 -63 
Q 869 -63 584 187 
Q 300 438 300 894 
Q 300 1419 692 1700 
Q 1084 1981 1800 1981 
Q 2097 1981 2330 1945 
Q 2563 1909 2744 1838 
L 2606 1388 
Q 2397 1434 2197 1442 
Q 1997 1450 1788 1450 
Q 925 1450 925 925 
Q 925 706 1073 587 
Q 1222 469 1494 469 
Q 1803 469 2011 575 
Q 2219 681 2322 847 
Q 2425 1013 2425 1188 
L 2425 1550 
L 2619 700 
L 2356 700 
L 2463 800 
Q 2463 513 2330 320 
Q 2197 128 1956 32 
Q 1716 -63 1388 -63 
z
" transform="scale(0.015625)"/>
      <path id="CascadiaCode-Regular-69" d="M 1763 0 
L 1763 3125 
L 2425 3125 
L 2425 0 
L 1763 0 
z
M 500 0 
L 500 581 
L 1825 581 
L 1825 0 
L 500 0 
z
M 2363 0 
L 2363 581 
L 3444 581 
L 3444 0 
L 2363 0 
z
M 688 2731 
L 688 3313 
L 2425 3313 
L 2425 2731 
L 688 2731 
z
M 2072 3838 
Q 1881 3838 1745 3973 
Q 1609 4109 1609 4300 
Q 1609 4494 1745 4628 
Q 1881 4763 2072 4763 
Q 2266 4763 2400 4628 
Q 2534 4494 2534 4300 
Q 2534 4109 2400 3973 
Q 2266 3838 2072 3838 
z
" transform="scale(0.015625)"/>
      <path id="CascadiaCode-Regular-6e" d="M 2563 0 
L 2563 2156 
Q 2563 2456 2406 2618 
Q 2250 2781 1969 2781 
Q 1188 2781 1188 1863 
L 994 2713 
L 1250 2713 
Q 1278 3047 1493 3211 
Q 1709 3375 2125 3375 
Q 2650 3375 2937 3056 
Q 3225 2738 3225 2156 
L 3225 0 
L 2563 0 
z
M 525 0 
L 525 3313 
L 1125 3313 
L 1188 2613 
L 1188 0 
L 525 0 
z
" transform="scale(0.015625)"/>
      <path id="CascadiaCode-Regular-20" transform="scale(0.015625)"/>
      <path id="CascadiaCode-Regular-6c" d="M 2369 -63 
Q 1794 -63 1537 250 
Q 1281 563 1281 1250 
L 1281 4688 
L 1944 4688 
L 1944 1281 
Q 1944 1019 1994 853 
Q 2044 688 2189 609 
Q 2334 531 2619 531 
Q 2878 531 3281 650 
L 3356 69 
Q 3103 0 2870 -31 
Q 2638 -63 2369 -63 
z
M 306 4106 
L 306 4688 
L 1338 4688 
L 1338 4106 
L 306 4106 
z
" transform="scale(0.015625)"/>
      <path id="CascadiaCode-Regular-6f" d="M 1875 -63 
Q 1188 -63 806 387 
Q 425 838 425 1656 
Q 425 2478 806 2926 
Q 1188 3375 1875 3375 
Q 2566 3375 2945 2926 
Q 3325 2478 3325 1656 
Q 3325 838 2945 387 
Q 2566 -63 1875 -63 
z
M 1875 531 
Q 2241 531 2439 825 
Q 2638 1119 2638 1656 
Q 2638 2197 2439 2489 
Q 2241 2781 1875 2781 
Q 1509 2781 1311 2489 
Q 1113 2197 1113 1656 
Q 1113 1119 1311 825 
Q 1509 531 1875 531 
z
" transform="scale(0.015625)"/>
      <path id="CascadiaCode-Regular-73" d="M 1619 -63 
Q 1244 -63 976 -41 
Q 709 -19 488 31 
L 563 631 
Q 891 581 1142 556 
Q 1394 531 1619 531 
Q 2122 531 2348 629 
Q 2575 728 2575 944 
Q 2575 1094 2495 1167 
Q 2416 1241 2250 1281 
L 1488 1475 
Q 997 1600 767 1784 
Q 538 1969 538 2344 
Q 538 2888 955 3131 
Q 1372 3375 2300 3375 
Q 2541 3375 2748 3361 
Q 2956 3347 3175 3313 
L 3106 2738 
Q 2853 2763 2659 2772 
Q 2466 2781 2281 2781 
Q 1725 2781 1475 2686 
Q 1225 2591 1225 2375 
Q 1225 2231 1328 2167 
Q 1431 2103 1644 2050 
L 2256 1900 
Q 2778 1775 3020 1565 
Q 3263 1356 3263 956 
Q 3263 422 2872 179 
Q 2481 -63 1619 -63 
z
" transform="scale(0.015625)"/>
      <path id="CascadiaCode-Regular-3a" d="M 1875 2450 
Q 1684 2450 1548 2586 
Q 1413 2722 1413 2913 
Q 1413 3106 1548 3240 
Q 1684 3375 1875 3375 
Q 2069 3375 2203 3240 
Q 2338 3106 2338 2913 
Q 2338 2722 2203 2586 
Q 2069 2450 1875 2450 
z
M 1875 -63 
Q 1684 -63 1548 73 
Q 1413 209 1413 400 
Q 1413 594 1548 728 
Q 1684 863 1875 863 
Q 2069 863 2203 728 
Q 2338 594 2338 400 
Q 2338 209 2203 73 
Q 2069 -63 1875 -63 
z
" transform="scale(0.015625)"/>
      <path id="CascadiaCode-Regular-30" d="M 1875 -63 
Q 363 -63 363 2188 
Q 363 4500 1875 4500 
Q 3388 4500 3388 2188 
Q 3388 -63 1875 -63 
z
M 1875 1719 
Q 1666 1719 1536 1848 
Q 1406 1978 1406 2188 
Q 1406 2400 1536 2528 
Q 1666 2656 1875 2656 
Q 2088 2656 2216 2528 
Q 2344 2400 2344 2188 
Q 2344 1978 2216 1848 
Q 2088 1719 1875 1719 
z
M 1875 513 
Q 2719 513 2719 2188 
Q 2719 3925 1875 3925 
Q 1031 3925 1031 2188 
Q 1031 513 1875 513 
z
" transform="scale(0.015625)"/>
      <path id="CascadiaCode-Regular-2e" d="M 1875 -63 
Q 1684 -63 1548 73 
Q 1413 209 1413 400 
Q 1413 594 1548 728 
Q 1684 863 1875 863 
Q 2069 863 2203 728 
Q 2338 594 2338 400 
Q 2338 209 2203 73 
Q 2069 -63 1875 -63 
z
" transform="scale(0.015625)"/>
      <path id="CascadiaCode-Regular-36" d="M 1900 -63 
Q 1128 -63 764 321 
Q 400 706 400 1519 
L 919 2088 
L 1150 2088 
Q 1244 2434 1523 2623 
Q 1803 2813 2206 2813 
Q 2788 2813 3103 2453 
Q 3419 2094 3419 1438 
Q 3419 731 3017 334 
Q 2616 -63 1900 -63 
z
M 1922 513 
Q 2319 513 2541 758 
Q 2763 1003 2763 1438 
Q 2763 1822 2558 2030 
Q 2353 2238 1972 2238 
Q 1538 2238 1303 2013 
Q 1069 1788 1069 1375 
Q 1069 969 1294 741 
Q 1519 513 1922 513 
z
M 400 1519 
L 400 1794 
Q 400 3066 1045 3728 
Q 1691 4391 3013 4456 
L 3075 3863 
Q 1094 3778 1094 2081 
L 1094 1725 
L 400 1519 
z
" transform="scale(0.015625)"/>
     </defs>
     <use xlink:href="#CascadiaCode-Regular-54"/>
     <use xlink:href="#CascadiaCode-Regular-72" transform="translate(58.59375 0)"/>
     <use xlink:href="#CascadiaCode-Regular-61" transform="translate(117.1875 0)"/>
     <use xlink:href="#CascadiaCode-Regular-69" transform="translate(175.78125 0)"/>
     <use xlink:href="#CascadiaCode-Regular-6e" transform="translate(234.375 0)"/>
     <use xlink:href="#CascadiaCode-Regular-20" transform="translate(292.96875 0)"/>
     <use xlink:href="#CascadiaCode-Regular-6c" transform="translate(351.5625 0)"/>
     <use xlink:href="#CascadiaCode-Regular-6f" transform="translate(410.15625 0)"/>
     <use xlink:href="#CascadiaCode-Regular-73" transform="translate(468.75 0)"/>
     <use xlink:href="#CascadiaCode-Regular-73" transform="translate(527.34375 0)"/>
     <use xlink:href="#CascadiaCode-Regular-3a" transform="translate(585.9375 0)"/>
     <use xlink:href="#CascadiaCode-Regular-20" transform="translate(644.53125 0)"/>
     <use xlink:href="#CascadiaCode-Regular-30" transform="translate(703.125 0)"/>
     <use xlink:href="#CascadiaCode-Regular-2e" transform="translate(761.71875 0)"/>
     <use xlink:href="#CascadiaCode-Regular-30" transform="translate(820.3125 0)"/>
     <use xlink:href="#CascadiaCode-Regular-36" transform="translate(878.90625 0)"/>
    </g>
   </g>
   <g id="text_4">
    <!-- Test loss: 0.08 -->
    <g transform="translate(47.400942 38.668469) scale(0.0694 -0.0694)">
     <defs>
      <path id="CascadiaCode-Regular-65" d="M 2163 -63 
Q 1316 -63 855 382 
Q 394 828 394 1663 
Q 394 2475 784 2925 
Q 1175 3375 1888 3375 
Q 2559 3375 2926 2969 
Q 3294 2563 3294 1788 
Q 3294 1559 3275 1363 
L 950 1363 
L 950 1869 
L 2694 1869 
Q 2694 2316 2481 2555 
Q 2269 2794 1894 2794 
Q 1472 2794 1239 2506 
Q 1006 2219 1006 1694 
Q 1006 1119 1326 819 
Q 1647 519 2238 519 
Q 2444 519 2644 542 
Q 2844 566 3050 606 
L 3131 25 
Q 2838 -31 2594 -47 
Q 2350 -63 2163 -63 
z
" transform="scale(0.015625)"/>
      <path id="CascadiaCode-Regular-74" d="M 2475 -63 
Q 1722 -63 1386 250 
Q 1050 563 1050 1250 
L 1050 1813 
L 1713 1813 
L 1713 1281 
Q 1713 888 1905 709 
Q 2097 531 2538 531 
Q 2694 531 2869 548 
Q 3044 566 3269 594 
L 3344 13 
Q 3125 -25 2917 -44 
Q 2709 -63 2475 -63 
z
M 1050 1563 
L 1050 4313 
L 1713 4313 
L 1713 1563 
L 1050 1563 
z
M 219 2731 
L 219 3313 
L 3219 3313 
L 3219 2731 
L 219 2731 
z
" transform="scale(0.015625)"/>
      <path id="CascadiaCode-Regular-38" d="M 1875 -63 
Q 1153 -63 758 273 
Q 363 609 363 1219 
Q 363 1778 758 2083 
Q 1153 2388 1875 2388 
Q 2597 2388 2992 2083 
Q 3388 1778 3388 1219 
Q 3388 609 2992 273 
Q 2597 -63 1875 -63 
z
M 1875 513 
Q 2284 513 2507 706 
Q 2731 900 2731 1250 
Q 2731 1625 2507 1834 
Q 2284 2044 1875 2044 
Q 1466 2044 1242 1834 
Q 1019 1625 1019 1250 
Q 1019 900 1242 706 
Q 1466 513 1875 513 
z
M 1356 2206 
L 1356 2525 
L 2400 2525 
L 2400 2206 
L 1356 2206 
z
M 1875 2644 
Q 2225 2644 2415 2805 
Q 2606 2966 2606 3250 
Q 2606 3575 2415 3750 
Q 2225 3925 1875 3925 
Q 1525 3925 1334 3750 
Q 1144 3575 1144 3250 
Q 1144 2966 1334 2805 
Q 1525 2644 1875 2644 
z
M 1875 2331 
Q 1216 2331 852 2604 
Q 488 2878 488 3375 
Q 488 3909 852 4204 
Q 1216 4500 1875 4500 
Q 2538 4500 2900 4204 
Q 3263 3909 3263 3375 
Q 3263 2878 2900 2604 
Q 2538 2331 1875 2331 
z
" transform="scale(0.015625)"/>
     </defs>
     <use xlink:href="#CascadiaCode-Regular-54"/>
     <use xlink:href="#CascadiaCode-Regular-65" transform="translate(58.59375 0)"/>
     <use xlink:href="#CascadiaCode-Regular-73" transform="translate(117.1875 0)"/>
     <use xlink:href="#CascadiaCode-Regular-74" transform="translate(175.78125 0)"/>
     <use xlink:href="#CascadiaCode-Regular-20" transform="translate(234.375 0)"/>
     <use xlink:href="#CascadiaCode-Regular-6c" transform="translate(292.96875 0)"/>
     <use xlink:href="#CascadiaCode-Regular-6f" transform="translate(351.5625 0)"/>
     <use xlink:href="#CascadiaCode-Regular-73" transform="translate(410.15625 0)"/>
     <use xlink:href="#CascadiaCode-Regular-73" transform="translate(468.75 0)"/>
     <use xlink:href="#CascadiaCode-Regular-3a" transform="translate(527.34375 0)"/>
     <use xlink:href="#CascadiaCode-Regular-20" transform="translate(585.9375 0)"/>
     <use xlink:href="#CascadiaCode-Regular-30" transform="translate(644.53125 0)"/>
     <use xlink:href="#CascadiaCode-Regular-2e" transform="translate(703.125 0)"/>
     <use xlink:href="#CascadiaCode-Regular-30" transform="translate(761.71875 0)"/>
     <use xlink:href="#CascadiaCode-Regular-38" transform="translate(820.3125 0)"/>
    </g>
   </g>
   <g id="text_5">
    <!-- Underfitting -->
    <g style="fill: #808080" transform="translate(52.331801 14.56875) scale(0.1 -0.1)">
     <defs>
      <path id="Helvetica-55" d="M 1163 4591 
L 1163 1753 
Q 1163 1253 1350 922 
Q 1628 422 2288 422 
Q 3078 422 3363 963 
Q 3516 1256 3516 1753 
L 3516 4591 
L 4147 4591 
L 4147 2013 
Q 4147 1166 3919 709 
Q 3500 -122 2338 -122 
Q 1175 -122 759 709 
Q 531 1166 531 2013 
L 531 4591 
L 1163 4591 
z
M 2341 4591 
L 2341 4591 
z
" transform="scale(0.015625)"/>
      <path id="Helvetica-6e" d="M 413 3347 
L 947 3347 
L 947 2872 
Q 1184 3166 1450 3294 
Q 1716 3422 2041 3422 
Q 2753 3422 3003 2925 
Q 3141 2653 3141 2147 
L 3141 0 
L 2569 0 
L 2569 2109 
Q 2569 2416 2478 2603 
Q 2328 2916 1934 2916 
Q 1734 2916 1606 2875 
Q 1375 2806 1200 2600 
Q 1059 2434 1017 2257 
Q 975 2081 975 1753 
L 975 0 
L 413 0 
L 413 3347 
z
M 1734 3428 
L 1734 3428 
z
" transform="scale(0.015625)"/>
      <path id="Helvetica-64" d="M 769 1634 
Q 769 1097 997 734 
Q 1225 372 1728 372 
Q 2119 372 2370 708 
Q 2622 1044 2622 1672 
Q 2622 2306 2362 2611 
Q 2103 2916 1722 2916 
Q 1297 2916 1033 2591 
Q 769 2266 769 1634 
z
M 1616 3406 
Q 2000 3406 2259 3244 
Q 2409 3150 2600 2916 
L 2600 4606 
L 3141 4606 
L 3141 0 
L 2634 0 
L 2634 466 
Q 2438 156 2169 18 
Q 1900 -119 1553 -119 
Q 994 -119 584 351 
Q 175 822 175 1603 
Q 175 2334 548 2870 
Q 922 3406 1616 3406 
z
" transform="scale(0.015625)"/>
      <path id="Helvetica-65" d="M 1806 3422 
Q 2163 3422 2497 3255 
Q 2831 3088 3006 2822 
Q 3175 2569 3231 2231 
Q 3281 2000 3281 1494 
L 828 1494 
Q 844 984 1069 676 
Q 1294 369 1766 369 
Q 2206 369 2469 659 
Q 2619 828 2681 1050 
L 3234 1050 
Q 3213 866 3089 639 
Q 2966 413 2813 269 
Q 2556 19 2178 -69 
Q 1975 -119 1719 -119 
Q 1094 -119 659 336 
Q 225 791 225 1609 
Q 225 2416 662 2919 
Q 1100 3422 1806 3422 
z
M 2703 1941 
Q 2669 2306 2544 2525 
Q 2313 2931 1772 2931 
Q 1384 2931 1121 2651 
Q 859 2372 844 1941 
L 2703 1941 
z
M 1753 3428 
L 1753 3428 
z
" transform="scale(0.015625)"/>
      <path id="Helvetica-72" d="M 428 3347 
L 963 3347 
L 963 2769 
Q 1028 2938 1284 3180 
Q 1541 3422 1875 3422 
Q 1891 3422 1928 3419 
Q 1966 3416 2056 3406 
L 2056 2813 
Q 2006 2822 1964 2825 
Q 1922 2828 1872 2828 
Q 1447 2828 1219 2554 
Q 991 2281 991 1925 
L 991 0 
L 428 0 
L 428 3347 
z
" transform="scale(0.015625)"/>
      <path id="Helvetica-66" d="M 553 3856 
Q 566 4206 675 4369 
Q 872 4656 1434 4656 
Q 1488 4656 1544 4653 
Q 1600 4650 1672 4644 
L 1672 4131 
Q 1584 4138 1545 4139 
Q 1506 4141 1472 4141 
Q 1216 4141 1166 4008 
Q 1116 3875 1116 3331 
L 1672 3331 
L 1672 2888 
L 1109 2888 
L 1109 0 
L 553 0 
L 553 2888 
L 88 2888 
L 88 3331 
L 553 3331 
L 553 3856 
z
" transform="scale(0.015625)"/>
      <path id="Helvetica-69" d="M 413 3331 
L 984 3331 
L 984 0 
L 413 0 
L 413 3331 
z
M 413 4591 
L 984 4591 
L 984 3953 
L 413 3953 
L 413 4591 
z
" transform="scale(0.015625)"/>
      <path id="Helvetica-74" d="M 525 4281 
L 1094 4281 
L 1094 3347 
L 1628 3347 
L 1628 2888 
L 1094 2888 
L 1094 703 
Q 1094 528 1213 469 
Q 1278 434 1431 434 
Q 1472 434 1519 436 
Q 1566 438 1628 444 
L 1628 0 
Q 1531 -28 1426 -40 
Q 1322 -53 1200 -53 
Q 806 -53 665 148 
Q 525 350 525 672 
L 525 2888 
L 72 2888 
L 72 3347 
L 525 3347 
L 525 4281 
z
" transform="scale(0.015625)"/>
      <path id="Helvetica-67" d="M 1594 3406 
Q 1988 3406 2281 3213 
Q 2441 3103 2606 2894 
L 2606 3316 
L 3125 3316 
L 3125 272 
Q 3125 -366 2938 -734 
Q 2588 -1416 1616 -1416 
Q 1075 -1416 706 -1173 
Q 338 -931 294 -416 
L 866 -416 
Q 906 -641 1028 -763 
Q 1219 -950 1628 -950 
Q 2275 -950 2475 -494 
Q 2594 -225 2584 466 
Q 2416 209 2178 84 
Q 1941 -41 1550 -41 
Q 1006 -41 598 345 
Q 191 731 191 1622 
Q 191 2463 602 2934 
Q 1013 3406 1594 3406 
z
M 2606 1688 
Q 2606 2309 2350 2609 
Q 2094 2909 1697 2909 
Q 1103 2909 884 2353 
Q 769 2056 769 1575 
Q 769 1009 998 714 
Q 1228 419 1616 419 
Q 2222 419 2469 966 
Q 2606 1275 2606 1688 
z
M 1659 3428 
L 1659 3428 
z
" transform="scale(0.015625)"/>
     </defs>
     <use xlink:href="#Helvetica-55"/>
     <use xlink:href="#Helvetica-6e" transform="translate(72.216797 0)"/>
     <use xlink:href="#Helvetica-64" transform="translate(127.832031 0)"/>
     <use xlink:href="#Helvetica-65" transform="translate(183.447266 0)"/>
     <use xlink:href="#Helvetica-72" transform="translate(239.0625 0)"/>
     <use xlink:href="#Helvetica-66" transform="translate(272.363281 0)"/>
     <use xlink:href="#Helvetica-69" transform="translate(300.146484 0)"/>
     <use xlink:href="#Helvetica-74" transform="translate(322.363281 0)"/>
     <use xlink:href="#Helvetica-74" transform="translate(350.146484 0)"/>
     <use xlink:href="#Helvetica-69" transform="translate(377.929688 0)"/>
     <use xlink:href="#Helvetica-6e" transform="translate(400.146484 0)"/>
     <use xlink:href="#Helvetica-67" transform="translate(455.761719 0)"/>
    </g>
   </g>
  </g>
  <g id="axes_2">
   <g id="patch_7">
    <path d="M 158.316636 131.018668 
L 273.198989 131.018668 
L 273.198989 20.56875 
L 158.316636 20.56875 
z
" style="fill: #ffffff"/>
   </g>
   <g id="PathCollection_3">
    <g clip-path="url(#peb1fd1cd27)">
     <use xlink:href="#ma8f0e148d2" x="184.708528" y="89.502852" style="fill: #1f77b4; stroke: #1f77b4"/>
     <use xlink:href="#ma8f0e148d2" x="173.417879" y="111.426072" style="fill: #1f77b4; stroke: #1f77b4"/>
     <use xlink:href="#ma8f0e148d2" x="262.331739" y="37.34772" style="fill: #1f77b4; stroke: #1f77b4"/>
     <use xlink:href="#ma8f0e148d2" x="215.757812" y="69.452973" style="fill: #1f77b4; stroke: #1f77b4"/>
     <use xlink:href="#ma8f0e148d2" x="172.006548" y="102.80004" style="fill: #1f77b4; stroke: #1f77b4"/>
     <use xlink:href="#ma8f0e148d2" x="214.346481" y="69.162507" style="fill: #1f77b4; stroke: #1f77b4"/>
     <use xlink:href="#ma8f0e148d2" x="252.452422" y="81.920014" style="fill: #1f77b4; stroke: #1f77b4"/>
     <use xlink:href="#ma8f0e148d2" x="201.644501" y="84.996289" style="fill: #1f77b4; stroke: #1f77b4"/>
     <use xlink:href="#ma8f0e148d2" x="229.871124" y="72.859534" style="fill: #1f77b4; stroke: #1f77b4"/>
     <use xlink:href="#ma8f0e148d2" x="246.807097" y="74.821614" style="fill: #1f77b4; stroke: #1f77b4"/>
     <use xlink:href="#ma8f0e148d2" x="210.112488" y="102.763569" style="fill: #1f77b4; stroke: #1f77b4"/>
     <use xlink:href="#ma8f0e148d2" x="260.920408" y="47.686712" style="fill: #1f77b4; stroke: #1f77b4"/>
     <use xlink:href="#ma8f0e148d2" x="245.395766" y="79.087852" style="fill: #1f77b4; stroke: #1f77b4"/>
     <use xlink:href="#ma8f0e148d2" x="198.821839" y="98.981057" style="fill: #1f77b4; stroke: #1f77b4"/>
     <use xlink:href="#ma8f0e148d2" x="193.176515" y="79.406807" style="fill: #1f77b4; stroke: #1f77b4"/>
     <use xlink:href="#ma8f0e148d2" x="204.467164" y="67.192517" style="fill: #1f77b4; stroke: #1f77b4"/>
     <use xlink:href="#ma8f0e148d2" x="256.686415" y="73.892858" style="fill: #1f77b4; stroke: #1f77b4"/>
     <use xlink:href="#ma8f0e148d2" x="186.119859" y="75.953871" style="fill: #1f77b4; stroke: #1f77b4"/>
     <use xlink:href="#ma8f0e148d2" x="234.105117" y="89.097633" style="fill: #1f77b4; stroke: #1f77b4"/>
     <use xlink:href="#ma8f0e148d2" x="259.509077" y="60.773963" style="fill: #1f77b4; stroke: #1f77b4"/>
     <use xlink:href="#ma8f0e148d2" x="194.587846" y="76.461765" style="fill: #1f77b4; stroke: #1f77b4"/>
     <use xlink:href="#ma8f0e148d2" x="179.063203" y="84.941704" style="fill: #1f77b4; stroke: #1f77b4"/>
     <use xlink:href="#ma8f0e148d2" x="227.048461" y="86.057799" style="fill: #1f77b4; stroke: #1f77b4"/>
     <use xlink:href="#ma8f0e148d2" x="235.516448" y="75.140849" style="fill: #1f77b4; stroke: #1f77b4"/>
     <use xlink:href="#ma8f0e148d2" x="169.183886" y="99.554167" style="fill: #1f77b4; stroke: #1f77b4"/>
     <use xlink:href="#ma8f0e148d2" x="208.701157" y="91.411215" style="fill: #1f77b4; stroke: #1f77b4"/>
     <use xlink:href="#ma8f0e148d2" x="183.297197" y="89.918025" style="fill: #1f77b4; stroke: #1f77b4"/>
     <use xlink:href="#ma8f0e148d2" x="225.63713" y="86.979573" style="fill: #1f77b4; stroke: #1f77b4"/>
     <use xlink:href="#ma8f0e148d2" x="253.863753" y="59.865814" style="fill: #1f77b4; stroke: #1f77b4"/>
     <use xlink:href="#ma8f0e148d2" x="255.275084" y="63.575806" style="fill: #1f77b4; stroke: #1f77b4"/>
     <use xlink:href="#ma8f0e148d2" x="200.23317" y="82.904709" style="fill: #1f77b4; stroke: #1f77b4"/>
     <use xlink:href="#ma8f0e148d2" x="243.984435" y="70.604107" style="fill: #1f77b4; stroke: #1f77b4"/>
     <use xlink:href="#ma8f0e148d2" x="207.289826" y="78.283654" style="fill: #1f77b4; stroke: #1f77b4"/>
     <use xlink:href="#ma8f0e148d2" x="265.154402" y="25.909972" style="fill: #1f77b4; stroke: #1f77b4"/>
     <use xlink:href="#ma8f0e148d2" x="174.82921" y="108.231587" style="fill: #1f77b4; stroke: #1f77b4"/>
     <use xlink:href="#ma8f0e148d2" x="219.991806" y="92.933543" style="fill: #1f77b4; stroke: #1f77b4"/>
     <use xlink:href="#ma8f0e148d2" x="231.282455" y="97.493599" style="fill: #1f77b4; stroke: #1f77b4"/>
     <use xlink:href="#ma8f0e148d2" x="181.885866" y="94.991147" style="fill: #1f77b4; stroke: #1f77b4"/>
     <use xlink:href="#ma8f0e148d2" x="224.225799" y="61.414163" style="fill: #1f77b4; stroke: #1f77b4"/>
     <use xlink:href="#ma8f0e148d2" x="211.523819" y="85.671825" style="fill: #1f77b4; stroke: #1f77b4"/>
     <use xlink:href="#ma8f0e148d2" x="258.097746" y="49.342347" style="fill: #1f77b4; stroke: #1f77b4"/>
     <use xlink:href="#ma8f0e148d2" x="167.772555" y="99.126222" style="fill: #1f77b4; stroke: #1f77b4"/>
     <use xlink:href="#ma8f0e148d2" x="166.361223" y="115.989401" style="fill: #1f77b4; stroke: #1f77b4"/>
     <use xlink:href="#ma8f0e148d2" x="197.410508" y="60.570404" style="fill: #1f77b4; stroke: #1f77b4"/>
     <use xlink:href="#ma8f0e148d2" x="205.878495" y="80.745806" style="fill: #1f77b4; stroke: #1f77b4"/>
     <use xlink:href="#ma8f0e148d2" x="248.218428" y="76.490306" style="fill: #1f77b4; stroke: #1f77b4"/>
     <use xlink:href="#ma8f0e148d2" x="242.573104" y="74.244664" style="fill: #1f77b4; stroke: #1f77b4"/>
     <use xlink:href="#ma8f0e148d2" x="222.814468" y="99.701613" style="fill: #1f77b4; stroke: #1f77b4"/>
     <use xlink:href="#ma8f0e148d2" x="228.459793" y="94.342914" style="fill: #1f77b4; stroke: #1f77b4"/>
     <use xlink:href="#ma8f0e148d2" x="190.353852" y="96.942828" style="fill: #1f77b4; stroke: #1f77b4"/>
     <use xlink:href="#ma8f0e148d2" x="217.169144" y="86.0546" style="fill: #1f77b4; stroke: #1f77b4"/>
     <use xlink:href="#ma8f0e148d2" x="163.538561" y="115.806201" style="fill: #1f77b4; stroke: #1f77b4"/>
    </g>
   </g>
   <g id="PathCollection_4">
    <g clip-path="url(#peb1fd1cd27)">
     <use xlink:href="#m40418a2779" x="212.93515" y="80.38581" style="fill: #1f77b4; fill-opacity: 0.2; stroke: #1f77b4; stroke-opacity: 0.2"/>
     <use xlink:href="#m40418a2779" x="267.977064" y="25.589201" style="fill: #1f77b4; fill-opacity: 0.2; stroke: #1f77b4; stroke-opacity: 0.2"/>
     <use xlink:href="#m40418a2779" x="180.474535" y="90.170428" style="fill: #1f77b4; fill-opacity: 0.2; stroke: #1f77b4; stroke-opacity: 0.2"/>
     <use xlink:href="#m40418a2779" x="170.595217" y="125.998218" style="fill: #1f77b4; fill-opacity: 0.2; stroke: #1f77b4; stroke-opacity: 0.2"/>
     <use xlink:href="#m40418a2779" x="241.161773" y="71.524682" style="fill: #1f77b4; fill-opacity: 0.2; stroke: #1f77b4; stroke-opacity: 0.2"/>
     <use xlink:href="#m40418a2779" x="177.651872" y="100.7977" style="fill: #1f77b4; fill-opacity: 0.2; stroke: #1f77b4; stroke-opacity: 0.2"/>
     <use xlink:href="#m40418a2779" x="232.693786" y="82.450844" style="fill: #1f77b4; fill-opacity: 0.2; stroke: #1f77b4; stroke-opacity: 0.2"/>
     <use xlink:href="#m40418a2779" x="218.580475" y="85.159405" style="fill: #1f77b4; fill-opacity: 0.2; stroke: #1f77b4; stroke-opacity: 0.2"/>
     <use xlink:href="#m40418a2779" x="236.927779" y="83.865861" style="fill: #1f77b4; fill-opacity: 0.2; stroke: #1f77b4; stroke-opacity: 0.2"/>
     <use xlink:href="#m40418a2779" x="263.74307" y="40.144043" style="fill: #1f77b4; fill-opacity: 0.2; stroke: #1f77b4; stroke-opacity: 0.2"/>
     <use xlink:href="#m40418a2779" x="238.33911" y="90.118141" style="fill: #1f77b4; fill-opacity: 0.2; stroke: #1f77b4; stroke-opacity: 0.2"/>
     <use xlink:href="#m40418a2779" x="191.765184" y="113.738407" style="fill: #1f77b4; fill-opacity: 0.2; stroke: #1f77b4; stroke-opacity: 0.2"/>
     <use xlink:href="#m40418a2779" x="187.53119" y="92.40046" style="fill: #1f77b4; fill-opacity: 0.2; stroke: #1f77b4; stroke-opacity: 0.2"/>
     <use xlink:href="#m40418a2779" x="164.949892" y="125.929925" style="fill: #1f77b4; fill-opacity: 0.2; stroke: #1f77b4; stroke-opacity: 0.2"/>
     <use xlink:href="#m40418a2779" x="249.629759" y="71.514113" style="fill: #1f77b4; fill-opacity: 0.2; stroke: #1f77b4; stroke-opacity: 0.2"/>
     <use xlink:href="#m40418a2779" x="203.055832" y="66.753873" style="fill: #1f77b4; fill-opacity: 0.2; stroke: #1f77b4; stroke-opacity: 0.2"/>
     <use xlink:href="#m40418a2779" x="251.04109" y="74.394682" style="fill: #1f77b4; fill-opacity: 0.2; stroke: #1f77b4; stroke-opacity: 0.2"/>
     <use xlink:href="#m40418a2779" x="266.565733" y="46.808125" style="fill: #1f77b4; fill-opacity: 0.2; stroke: #1f77b4; stroke-opacity: 0.2"/>
     <use xlink:href="#m40418a2779" x="221.403137" y="96.774924" style="fill: #1f77b4; fill-opacity: 0.2; stroke: #1f77b4; stroke-opacity: 0.2"/>
     <use xlink:href="#m40418a2779" x="195.999177" y="92.590356" style="fill: #1f77b4; fill-opacity: 0.2; stroke: #1f77b4; stroke-opacity: 0.2"/>
     <use xlink:href="#m40418a2779" x="239.750441" y="77.239863" style="fill: #1f77b4; fill-opacity: 0.2; stroke: #1f77b4; stroke-opacity: 0.2"/>
     <use xlink:href="#m40418a2779" x="188.942521" y="85.811904" style="fill: #1f77b4; fill-opacity: 0.2; stroke: #1f77b4; stroke-opacity: 0.2"/>
     <use xlink:href="#m40418a2779" x="176.240541" y="100.353001" style="fill: #1f77b4; fill-opacity: 0.2; stroke: #1f77b4; stroke-opacity: 0.2"/>
    </g>
   </g>
   <g id="matplotlib.axis_3">
    <g id="text_6">
     <!-- $x$ -->
     <g style="fill: #808080" transform="translate(212.857812 142.192106) scale(0.1 -0.1)">
      <use xlink:href="#Cmmi10-78" transform="translate(0 0.8125)"/>
     </g>
    </g>
   </g>
   <g id="matplotlib.axis_4"/>
   <g id="line2d_2">
    <path d="M 163.538561 121.028066 
L 164.593496 118.64521 
L 165.64843 116.358618 
L 166.703364 114.166305 
L 167.758299 112.066286 
L 168.813233 110.056576 
L 169.868167 108.135191 
L 170.923102 106.300145 
L 171.978036 104.549453 
L 173.03297 102.881132 
L 174.087905 101.293195 
L 175.142839 99.783659 
L 176.197774 98.350539 
L 177.252708 96.991849 
L 178.307642 95.705605 
L 179.362577 94.489822 
L 180.417511 93.342515 
L 181.472445 92.261699 
L 182.52738 91.24539 
L 183.582314 90.291603 
L 184.637249 89.398352 
L 185.692183 88.563654 
L 186.747117 87.785523 
L 187.802052 87.061975 
L 188.856986 86.391024 
L 189.91192 85.770686 
L 190.966855 85.198976 
L 192.021789 84.673909 
L 193.076724 84.1935 
L 194.131658 83.755766 
L 195.186592 83.358719 
L 196.241527 83.000377 
L 197.296461 82.678754 
L 198.351395 82.391865 
L 199.40633 82.137726 
L 200.461264 81.914352 
L 201.516198 81.719757 
L 202.571133 81.551957 
L 203.626067 81.408968 
L 204.681002 81.288803 
L 205.735936 81.18948 
L 206.79087 81.109012 
L 207.845805 81.045415 
L 208.900739 80.996704 
L 209.955673 80.960895 
L 211.010608 80.936002 
L 212.065542 80.920041 
L 213.120477 80.911027 
L 214.175411 80.906974 
L 215.230345 80.905899 
L 216.28528 80.905816 
L 217.340214 80.904741 
L 218.395148 80.900689 
L 219.450083 80.891675 
L 220.505017 80.875713 
L 221.559952 80.85082 
L 222.614886 80.815011 
L 223.66982 80.7663 
L 224.724755 80.702703 
L 225.779689 80.622236 
L 226.834623 80.522912 
L 227.889558 80.402748 
L 228.944492 80.259758 
L 229.999427 80.091959 
L 231.054361 79.897364 
L 232.109295 79.673989 
L 233.16423 79.41985 
L 234.219164 79.132961 
L 235.274098 78.811338 
L 236.329033 78.452996 
L 237.383967 78.05595 
L 238.438901 77.618215 
L 239.493836 77.137807 
L 240.54877 76.61274 
L 241.603705 76.04103 
L 242.658639 75.420692 
L 243.713573 74.749741 
L 244.768508 74.026192 
L 245.823442 73.248061 
L 246.878376 72.413363 
L 247.933311 71.520113 
L 248.988245 70.566326 
L 250.04318 69.550017 
L 251.098114 68.469201 
L 252.153048 67.321894 
L 253.207983 66.106111 
L 254.262917 64.819867 
L 255.317851 63.461177 
L 256.372786 62.028056 
L 257.42772 60.51852 
L 258.482655 58.930584 
L 259.537589 57.262262 
L 260.592523 55.511571 
L 261.647458 53.676525 
L 262.702392 51.755139 
L 263.757326 49.745429 
L 264.812261 47.64541 
L 265.867195 45.453097 
L 266.922129 43.166505 
L 267.977064 40.78365 
" clip-path="url(#peb1fd1cd27)" style="fill: none; stroke: #ff7f0e; stroke-linecap: square"/>
   </g>
   <g id="patch_8">
    <path d="M 158.316636 131.018668 
L 158.316636 20.56875 
" style="fill: none; stroke: #808080; stroke-width: 0.8; stroke-linejoin: miter; stroke-linecap: square"/>
   </g>
   <g id="patch_9">
    <path d="M 273.198989 131.018668 
L 273.198989 20.56875 
" style="fill: none; stroke: #808080; stroke-width: 0.8; stroke-linejoin: miter; stroke-linecap: square"/>
   </g>
   <g id="patch_10">
    <path d="M 158.316636 131.018668 
L 273.198989 131.018668 
" style="fill: none; stroke: #808080; stroke-width: 0.8; stroke-linejoin: miter; stroke-linecap: square"/>
   </g>
   <g id="patch_11">
    <path d="M 158.316636 20.56875 
L 273.198989 20.56875 
" style="fill: none; stroke: #808080; stroke-width: 0.8; stroke-linejoin: miter; stroke-linecap: square"/>
   </g>
   <g id="text_7">
    <!-- Train loss: 0.04 -->
    <g transform="translate(183.226562 30.835582) scale(0.0694 -0.0694)">
     <defs>
      <path id="CascadiaCode-Regular-34" d="M 231 994 
L 856 4188 
L 1531 4188 
L 900 994 
L 231 994 
z
M 231 994 
L 669 1575 
L 2494 1575 
L 2494 994 
L 231 994 
z
M 3019 994 
L 3019 1575 
L 3500 1575 
L 3500 994 
L 3019 994 
z
M 2431 0 
L 2431 4438 
L 3081 4438 
L 3081 0 
L 2431 0 
z
" transform="scale(0.015625)"/>
     </defs>
     <use xlink:href="#CascadiaCode-Regular-54"/>
     <use xlink:href="#CascadiaCode-Regular-72" transform="translate(58.59375 0)"/>
     <use xlink:href="#CascadiaCode-Regular-61" transform="translate(117.1875 0)"/>
     <use xlink:href="#CascadiaCode-Regular-69" transform="translate(175.78125 0)"/>
     <use xlink:href="#CascadiaCode-Regular-6e" transform="translate(234.375 0)"/>
     <use xlink:href="#CascadiaCode-Regular-20" transform="translate(292.96875 0)"/>
     <use xlink:href="#CascadiaCode-Regular-6c" transform="translate(351.5625 0)"/>
     <use xlink:href="#CascadiaCode-Regular-6f" transform="translate(410.15625 0)"/>
     <use xlink:href="#CascadiaCode-Regular-73" transform="translate(468.75 0)"/>
     <use xlink:href="#CascadiaCode-Regular-73" transform="translate(527.34375 0)"/>
     <use xlink:href="#CascadiaCode-Regular-3a" transform="translate(585.9375 0)"/>
     <use xlink:href="#CascadiaCode-Regular-20" transform="translate(644.53125 0)"/>
     <use xlink:href="#CascadiaCode-Regular-30" transform="translate(703.125 0)"/>
     <use xlink:href="#CascadiaCode-Regular-2e" transform="translate(761.71875 0)"/>
     <use xlink:href="#CascadiaCode-Regular-30" transform="translate(820.3125 0)"/>
     <use xlink:href="#CascadiaCode-Regular-34" transform="translate(878.90625 0)"/>
    </g>
   </g>
   <g id="text_8">
    <!-- Test loss: 0.04 -->
    <g transform="translate(185.259766 38.668469) scale(0.0694 -0.0694)">
     <use xlink:href="#CascadiaCode-Regular-54"/>
     <use xlink:href="#CascadiaCode-Regular-65" transform="translate(58.59375 0)"/>
     <use xlink:href="#CascadiaCode-Regular-73" transform="translate(117.1875 0)"/>
     <use xlink:href="#CascadiaCode-Regular-74" transform="translate(175.78125 0)"/>
     <use xlink:href="#CascadiaCode-Regular-20" transform="translate(234.375 0)"/>
     <use xlink:href="#CascadiaCode-Regular-6c" transform="translate(292.96875 0)"/>
     <use xlink:href="#CascadiaCode-Regular-6f" transform="translate(351.5625 0)"/>
     <use xlink:href="#CascadiaCode-Regular-73" transform="translate(410.15625 0)"/>
     <use xlink:href="#CascadiaCode-Regular-73" transform="translate(468.75 0)"/>
     <use xlink:href="#CascadiaCode-Regular-3a" transform="translate(527.34375 0)"/>
     <use xlink:href="#CascadiaCode-Regular-20" transform="translate(585.9375 0)"/>
     <use xlink:href="#CascadiaCode-Regular-30" transform="translate(644.53125 0)"/>
     <use xlink:href="#CascadiaCode-Regular-2e" transform="translate(703.125 0)"/>
     <use xlink:href="#CascadiaCode-Regular-30" transform="translate(761.71875 0)"/>
     <use xlink:href="#CascadiaCode-Regular-34" transform="translate(820.3125 0)"/>
    </g>
   </g>
   <g id="text_9">
    <!-- Just right -->
    <g style="fill: #808080" transform="translate(195.473437 14.56875) scale(0.1 -0.1)">
     <defs>
      <path id="Helvetica-4a" d="M 2741 1369 
Q 2741 788 2569 466 
Q 2250 -122 1356 -122 
Q 841 -122 475 158 
Q 109 438 109 1153 
L 109 1481 
L 694 1481 
L 694 1153 
Q 694 778 861 589 
Q 1028 400 1381 400 
Q 1878 400 2031 741 
Q 2125 950 2125 1531 
L 2125 4591 
L 2741 4591 
L 2741 1369 
z
" transform="scale(0.015625)"/>
      <path id="Helvetica-75" d="M 975 3347 
L 975 1125 
Q 975 869 1056 706 
Q 1206 406 1616 406 
Q 2203 406 2416 931 
Q 2531 1213 2531 1703 
L 2531 3347 
L 3094 3347 
L 3094 0 
L 2563 0 
L 2569 494 
Q 2459 303 2297 172 
Q 1975 -91 1516 -91 
Q 800 -91 541 388 
Q 400 644 400 1072 
L 400 3347 
L 975 3347 
z
M 1747 3428 
L 1747 3428 
z
" transform="scale(0.015625)"/>
      <path id="Helvetica-73" d="M 747 1050 
Q 772 769 888 619 
Q 1100 347 1625 347 
Q 1938 347 2175 483 
Q 2413 619 2413 903 
Q 2413 1119 2222 1231 
Q 2100 1300 1741 1391 
L 1294 1503 
Q 866 1609 663 1741 
Q 300 1969 300 2372 
Q 300 2847 642 3140 
Q 984 3434 1563 3434 
Q 2319 3434 2653 2991 
Q 2863 2709 2856 2384 
L 2325 2384 
Q 2309 2575 2191 2731 
Q 1997 2953 1519 2953 
Q 1200 2953 1036 2831 
Q 872 2709 872 2509 
Q 872 2291 1088 2159 
Q 1213 2081 1456 2022 
L 1828 1931 
Q 2434 1784 2641 1647 
Q 2969 1431 2969 969 
Q 2969 522 2630 197 
Q 2291 -128 1597 -128 
Q 850 -128 539 211 
Q 228 550 206 1050 
L 747 1050 
z
M 1578 3428 
L 1578 3428 
z
" transform="scale(0.015625)"/>
      <path id="Helvetica-20" transform="scale(0.015625)"/>
      <path id="Helvetica-68" d="M 413 4606 
L 975 4606 
L 975 2894 
Q 1175 3147 1334 3250 
Q 1606 3428 2013 3428 
Q 2741 3428 3000 2919 
Q 3141 2641 3141 2147 
L 3141 0 
L 2563 0 
L 2563 2109 
Q 2563 2478 2469 2650 
Q 2316 2925 1894 2925 
Q 1544 2925 1259 2684 
Q 975 2444 975 1775 
L 975 0 
L 413 0 
L 413 4606 
z
" transform="scale(0.015625)"/>
     </defs>
     <use xlink:href="#Helvetica-4a"/>
     <use xlink:href="#Helvetica-75" transform="translate(50 0)"/>
     <use xlink:href="#Helvetica-73" transform="translate(105.615234 0)"/>
     <use xlink:href="#Helvetica-74" transform="translate(155.615234 0)"/>
     <use xlink:href="#Helvetica-20" transform="translate(183.398438 0)"/>
     <use xlink:href="#Helvetica-72" transform="translate(211.181641 0)"/>
     <use xlink:href="#Helvetica-69" transform="translate(244.482422 0)"/>
     <use xlink:href="#Helvetica-67" transform="translate(266.699219 0)"/>
     <use xlink:href="#Helvetica-68" transform="translate(322.314453 0)"/>
     <use xlink:href="#Helvetica-74" transform="translate(377.929688 0)"/>
    </g>
   </g>
  </g>
  <g id="axes_3">
   <g id="patch_12">
    <path d="M 296.17546 131.018668 
L 411.057813 131.018668 
L 411.057813 20.56875 
L 296.17546 20.56875 
z
" style="fill: #ffffff"/>
   </g>
   <g id="PathCollection_5">
    <g clip-path="url(#p83bce76031)">
     <use xlink:href="#ma8f0e148d2" x="322.567351" y="89.502852" style="fill: #1f77b4; stroke: #1f77b4"/>
     <use xlink:href="#ma8f0e148d2" x="311.276703" y="111.426072" style="fill: #1f77b4; stroke: #1f77b4"/>
     <use xlink:href="#ma8f0e148d2" x="400.190563" y="37.34772" style="fill: #1f77b4; stroke: #1f77b4"/>
     <use xlink:href="#ma8f0e148d2" x="353.616636" y="69.452973" style="fill: #1f77b4; stroke: #1f77b4"/>
     <use xlink:href="#ma8f0e148d2" x="309.865371" y="102.80004" style="fill: #1f77b4; stroke: #1f77b4"/>
     <use xlink:href="#ma8f0e148d2" x="352.205305" y="69.162507" style="fill: #1f77b4; stroke: #1f77b4"/>
     <use xlink:href="#ma8f0e148d2" x="390.311245" y="81.920014" style="fill: #1f77b4; stroke: #1f77b4"/>
     <use xlink:href="#ma8f0e148d2" x="339.503325" y="84.996289" style="fill: #1f77b4; stroke: #1f77b4"/>
     <use xlink:href="#ma8f0e148d2" x="367.729947" y="72.859534" style="fill: #1f77b4; stroke: #1f77b4"/>
     <use xlink:href="#ma8f0e148d2" x="384.665921" y="74.821614" style="fill: #1f77b4; stroke: #1f77b4"/>
     <use xlink:href="#ma8f0e148d2" x="347.971312" y="102.763569" style="fill: #1f77b4; stroke: #1f77b4"/>
     <use xlink:href="#ma8f0e148d2" x="398.779232" y="47.686712" style="fill: #1f77b4; stroke: #1f77b4"/>
     <use xlink:href="#ma8f0e148d2" x="383.254589" y="79.087852" style="fill: #1f77b4; stroke: #1f77b4"/>
     <use xlink:href="#ma8f0e148d2" x="336.680663" y="98.981057" style="fill: #1f77b4; stroke: #1f77b4"/>
     <use xlink:href="#ma8f0e148d2" x="331.035338" y="79.406807" style="fill: #1f77b4; stroke: #1f77b4"/>
     <use xlink:href="#ma8f0e148d2" x="342.325987" y="67.192517" style="fill: #1f77b4; stroke: #1f77b4"/>
     <use xlink:href="#ma8f0e148d2" x="394.545238" y="73.892858" style="fill: #1f77b4; stroke: #1f77b4"/>
     <use xlink:href="#ma8f0e148d2" x="323.978683" y="75.953871" style="fill: #1f77b4; stroke: #1f77b4"/>
     <use xlink:href="#ma8f0e148d2" x="371.963941" y="89.097633" style="fill: #1f77b4; stroke: #1f77b4"/>
     <use xlink:href="#ma8f0e148d2" x="397.367901" y="60.773963" style="fill: #1f77b4; stroke: #1f77b4"/>
     <use xlink:href="#ma8f0e148d2" x="332.446669" y="76.461765" style="fill: #1f77b4; stroke: #1f77b4"/>
     <use xlink:href="#ma8f0e148d2" x="316.922027" y="84.941704" style="fill: #1f77b4; stroke: #1f77b4"/>
     <use xlink:href="#ma8f0e148d2" x="364.907285" y="86.057799" style="fill: #1f77b4; stroke: #1f77b4"/>
     <use xlink:href="#ma8f0e148d2" x="373.375272" y="75.140849" style="fill: #1f77b4; stroke: #1f77b4"/>
     <use xlink:href="#ma8f0e148d2" x="307.042709" y="99.554167" style="fill: #1f77b4; stroke: #1f77b4"/>
     <use xlink:href="#ma8f0e148d2" x="346.55998" y="91.411215" style="fill: #1f77b4; stroke: #1f77b4"/>
     <use xlink:href="#ma8f0e148d2" x="321.15602" y="89.918025" style="fill: #1f77b4; stroke: #1f77b4"/>
     <use xlink:href="#ma8f0e148d2" x="363.495954" y="86.979573" style="fill: #1f77b4; stroke: #1f77b4"/>
     <use xlink:href="#ma8f0e148d2" x="391.722576" y="59.865814" style="fill: #1f77b4; stroke: #1f77b4"/>
     <use xlink:href="#ma8f0e148d2" x="393.133907" y="63.575806" style="fill: #1f77b4; stroke: #1f77b4"/>
     <use xlink:href="#ma8f0e148d2" x="338.091994" y="82.904709" style="fill: #1f77b4; stroke: #1f77b4"/>
     <use xlink:href="#ma8f0e148d2" x="381.843258" y="70.604107" style="fill: #1f77b4; stroke: #1f77b4"/>
     <use xlink:href="#ma8f0e148d2" x="345.148649" y="78.283654" style="fill: #1f77b4; stroke: #1f77b4"/>
     <use xlink:href="#ma8f0e148d2" x="403.013225" y="25.909972" style="fill: #1f77b4; stroke: #1f77b4"/>
     <use xlink:href="#ma8f0e148d2" x="312.688034" y="108.231587" style="fill: #1f77b4; stroke: #1f77b4"/>
     <use xlink:href="#ma8f0e148d2" x="357.850629" y="92.933543" style="fill: #1f77b4; stroke: #1f77b4"/>
     <use xlink:href="#ma8f0e148d2" x="369.141278" y="97.493599" style="fill: #1f77b4; stroke: #1f77b4"/>
     <use xlink:href="#ma8f0e148d2" x="319.744689" y="94.991147" style="fill: #1f77b4; stroke: #1f77b4"/>
     <use xlink:href="#ma8f0e148d2" x="362.084623" y="61.414163" style="fill: #1f77b4; stroke: #1f77b4"/>
     <use xlink:href="#ma8f0e148d2" x="349.382643" y="85.671825" style="fill: #1f77b4; stroke: #1f77b4"/>
     <use xlink:href="#ma8f0e148d2" x="395.95657" y="49.342347" style="fill: #1f77b4; stroke: #1f77b4"/>
     <use xlink:href="#ma8f0e148d2" x="305.631378" y="99.126222" style="fill: #1f77b4; stroke: #1f77b4"/>
     <use xlink:href="#ma8f0e148d2" x="304.220047" y="115.989401" style="fill: #1f77b4; stroke: #1f77b4"/>
     <use xlink:href="#ma8f0e148d2" x="335.269332" y="60.570404" style="fill: #1f77b4; stroke: #1f77b4"/>
     <use xlink:href="#ma8f0e148d2" x="343.737318" y="80.745806" style="fill: #1f77b4; stroke: #1f77b4"/>
     <use xlink:href="#ma8f0e148d2" x="386.077252" y="76.490306" style="fill: #1f77b4; stroke: #1f77b4"/>
     <use xlink:href="#ma8f0e148d2" x="380.431927" y="74.244664" style="fill: #1f77b4; stroke: #1f77b4"/>
     <use xlink:href="#ma8f0e148d2" x="360.673292" y="99.701613" style="fill: #1f77b4; stroke: #1f77b4"/>
     <use xlink:href="#ma8f0e148d2" x="366.318616" y="94.342914" style="fill: #1f77b4; stroke: #1f77b4"/>
     <use xlink:href="#ma8f0e148d2" x="328.212676" y="96.942828" style="fill: #1f77b4; stroke: #1f77b4"/>
     <use xlink:href="#ma8f0e148d2" x="355.027967" y="86.0546" style="fill: #1f77b4; stroke: #1f77b4"/>
     <use xlink:href="#ma8f0e148d2" x="301.397385" y="115.806201" style="fill: #1f77b4; stroke: #1f77b4"/>
    </g>
   </g>
   <g id="PathCollection_6">
    <g clip-path="url(#p83bce76031)">
     <use xlink:href="#m40418a2779" x="350.793974" y="80.38581" style="fill: #1f77b4; fill-opacity: 0.2; stroke: #1f77b4; stroke-opacity: 0.2"/>
     <use xlink:href="#m40418a2779" x="405.835887" y="25.589201" style="fill: #1f77b4; fill-opacity: 0.2; stroke: #1f77b4; stroke-opacity: 0.2"/>
     <use xlink:href="#m40418a2779" x="318.333358" y="90.170428" style="fill: #1f77b4; fill-opacity: 0.2; stroke: #1f77b4; stroke-opacity: 0.2"/>
     <use xlink:href="#m40418a2779" x="308.45404" y="125.998218" style="fill: #1f77b4; fill-opacity: 0.2; stroke: #1f77b4; stroke-opacity: 0.2"/>
     <use xlink:href="#m40418a2779" x="379.020596" y="71.524682" style="fill: #1f77b4; fill-opacity: 0.2; stroke: #1f77b4; stroke-opacity: 0.2"/>
     <use xlink:href="#m40418a2779" x="315.510696" y="100.7977" style="fill: #1f77b4; fill-opacity: 0.2; stroke: #1f77b4; stroke-opacity: 0.2"/>
     <use xlink:href="#m40418a2779" x="370.552609" y="82.450844" style="fill: #1f77b4; fill-opacity: 0.2; stroke: #1f77b4; stroke-opacity: 0.2"/>
     <use xlink:href="#m40418a2779" x="356.439298" y="85.159405" style="fill: #1f77b4; fill-opacity: 0.2; stroke: #1f77b4; stroke-opacity: 0.2"/>
     <use xlink:href="#m40418a2779" x="374.786603" y="83.865861" style="fill: #1f77b4; fill-opacity: 0.2; stroke: #1f77b4; stroke-opacity: 0.2"/>
     <use xlink:href="#m40418a2779" x="401.601894" y="40.144043" style="fill: #1f77b4; fill-opacity: 0.2; stroke: #1f77b4; stroke-opacity: 0.2"/>
     <use xlink:href="#m40418a2779" x="376.197934" y="90.118141" style="fill: #1f77b4; fill-opacity: 0.2; stroke: #1f77b4; stroke-opacity: 0.2"/>
     <use xlink:href="#m40418a2779" x="329.624007" y="113.738407" style="fill: #1f77b4; fill-opacity: 0.2; stroke: #1f77b4; stroke-opacity: 0.2"/>
     <use xlink:href="#m40418a2779" x="325.390014" y="92.40046" style="fill: #1f77b4; fill-opacity: 0.2; stroke: #1f77b4; stroke-opacity: 0.2"/>
     <use xlink:href="#m40418a2779" x="302.808716" y="125.929925" style="fill: #1f77b4; fill-opacity: 0.2; stroke: #1f77b4; stroke-opacity: 0.2"/>
     <use xlink:href="#m40418a2779" x="387.488583" y="71.514113" style="fill: #1f77b4; fill-opacity: 0.2; stroke: #1f77b4; stroke-opacity: 0.2"/>
     <use xlink:href="#m40418a2779" x="340.914656" y="66.753873" style="fill: #1f77b4; fill-opacity: 0.2; stroke: #1f77b4; stroke-opacity: 0.2"/>
     <use xlink:href="#m40418a2779" x="388.899914" y="74.394682" style="fill: #1f77b4; fill-opacity: 0.2; stroke: #1f77b4; stroke-opacity: 0.2"/>
     <use xlink:href="#m40418a2779" x="404.424556" y="46.808125" style="fill: #1f77b4; fill-opacity: 0.2; stroke: #1f77b4; stroke-opacity: 0.2"/>
     <use xlink:href="#m40418a2779" x="359.26196" y="96.774924" style="fill: #1f77b4; fill-opacity: 0.2; stroke: #1f77b4; stroke-opacity: 0.2"/>
     <use xlink:href="#m40418a2779" x="333.858" y="92.590356" style="fill: #1f77b4; fill-opacity: 0.2; stroke: #1f77b4; stroke-opacity: 0.2"/>
     <use xlink:href="#m40418a2779" x="377.609265" y="77.239863" style="fill: #1f77b4; fill-opacity: 0.2; stroke: #1f77b4; stroke-opacity: 0.2"/>
     <use xlink:href="#m40418a2779" x="326.801345" y="85.811904" style="fill: #1f77b4; fill-opacity: 0.2; stroke: #1f77b4; stroke-opacity: 0.2"/>
     <use xlink:href="#m40418a2779" x="314.099365" y="100.353001" style="fill: #1f77b4; fill-opacity: 0.2; stroke: #1f77b4; stroke-opacity: 0.2"/>
    </g>
   </g>
   <g id="matplotlib.axis_5">
    <g id="text_10">
     <!-- $x$ -->
     <g style="fill: #808080" transform="translate(350.716636 142.192106) scale(0.1 -0.1)">
      <use xlink:href="#Cmmi10-78" transform="translate(0 0.8125)"/>
     </g>
    </g>
   </g>
   <g id="matplotlib.axis_6"/>
   <g id="line2d_3">
    <path d="M 301.397385 115.852001 
L 302.452319 115.852001 
L 303.507253 115.943601 
L 304.562188 111.773606 
L 305.617122 103.342017 
L 306.672057 103.449003 
L 307.726991 100.151663 
L 308.781925 101.988572 
L 309.83686 101.988572 
L 310.891794 110.627451 
L 311.946728 110.627451 
L 313.001663 109.030209 
L 314.056597 109.030209 
L 315.111532 97.385267 
L 316.166466 93.276536 
L 317.2214 89.966426 
L 318.276335 89.966426 
L 319.331269 93.722867 
L 320.386203 93.722867 
L 321.441138 89.814232 
L 322.496072 89.606645 
L 323.551006 82.832155 
L 324.605941 82.832155 
L 325.660875 84.588356 
L 326.71581 84.588356 
L 327.770744 82.927578 
L 328.825678 83.054552 
L 329.880613 78.670546 
L 330.935547 78.670546 
L 331.990481 77.198025 
L 333.045416 77.198025 
L 334.10035 64.543245 
L 335.155285 64.543245 
L 336.210219 94.96197 
L 337.265153 94.96197 
L 338.320088 82.904709 
L 339.375022 84.473394 
L 340.429956 80.545346 
L 341.484891 71.64346 
L 342.539825 70.580839 
L 343.59476 77.357484 
L 344.649694 79.51473 
L 345.704628 84.847434 
L 346.759563 91.411215 
L 347.814497 97.087392 
L 348.869431 91.379608 
L 349.924366 85.817432 
L 350.9793 73.289837 
L 352.034234 69.235124 
L 353.089169 69.452973 
L 354.144103 69.452973 
L 355.199038 73.60338 
L 356.253972 91.213808 
L 357.308906 91.213808 
L 358.363841 94.625561 
L 359.418775 98.009596 
L 360.473709 90.129751 
L 361.528644 61.414163 
L 362.583578 61.414163 
L 363.638513 86.74913 
L 364.693447 86.518686 
L 365.748381 84.829511 
L 366.803316 78.230379 
L 367.85825 78.230379 
L 368.913184 84.388895 
L 369.968119 92.507945 
L 371.023053 92.507945 
L 372.077988 92.507945 
L 373.132922 85.529553 
L 374.187856 80.50499 
L 375.242791 74.692756 
L 376.297725 74.692756 
L 377.352659 74.46871 
L 378.407594 74.46871 
L 379.462528 74.388901 
L 380.517462 74.388901 
L 381.572397 73.478762 
L 382.627331 74.833797 
L 383.682266 74.833797 
L 384.7372 73.767237 
L 385.792134 75.018756 
L 386.847069 75.018756 
L 387.902003 75.018756 
L 388.956937 78.555798 
L 390.011872 78.555798 
L 391.066806 77.906436 
L 392.121741 73.320384 
L 393.176675 71.313595 
L 394.231609 71.313595 
L 395.286544 55.479975 
L 396.341478 52.200251 
L 397.396412 57.916059 
L 398.451347 51.372434 
L 399.506281 34.488283 
L 400.561216 34.488283 
L 401.61615 31.628846 
L 402.671084 31.628846 
L 403.726019 31.628846 
L 404.780953 31.628846 
L 405.835887 31.628846 
" clip-path="url(#p83bce76031)" style="fill: none; stroke: #ff7f0e; stroke-linecap: square"/>
   </g>
   <g id="patch_13">
    <path d="M 296.17546 131.018668 
L 296.17546 20.56875 
" style="fill: none; stroke: #808080; stroke-width: 0.8; stroke-linejoin: miter; stroke-linecap: square"/>
   </g>
   <g id="patch_14">
    <path d="M 411.057813 131.018668 
L 411.057813 20.56875 
" style="fill: none; stroke: #808080; stroke-width: 0.8; stroke-linejoin: miter; stroke-linecap: square"/>
   </g>
   <g id="patch_15">
    <path d="M 296.17546 131.018668 
L 411.057813 131.018668 
" style="fill: none; stroke: #808080; stroke-width: 0.8; stroke-linejoin: miter; stroke-linecap: square"/>
   </g>
   <g id="patch_16">
    <path d="M 296.17546 20.56875 
L 411.057813 20.56875 
" style="fill: none; stroke: #808080; stroke-width: 0.8; stroke-linejoin: miter; stroke-linecap: square"/>
   </g>
   <g id="text_11">
    <!-- Train loss: 0.01 -->
    <g transform="translate(321.085386 30.835582) scale(0.0694 -0.0694)">
     <defs>
      <path id="CascadiaCode-Regular-31" d="M 1644 0 
L 1644 4438 
L 2294 4438 
L 2294 0 
L 1644 0 
z
M 531 0 
L 531 594 
L 1706 594 
L 1706 0 
L 531 0 
z
M 2231 0 
L 2231 594 
L 3288 594 
L 3288 0 
L 2231 0 
z
M 594 3431 
L 594 4063 
L 1644 4438 
L 1644 3794 
L 594 3431 
z
" transform="scale(0.015625)"/>
     </defs>
     <use xlink:href="#CascadiaCode-Regular-54"/>
     <use xlink:href="#CascadiaCode-Regular-72" transform="translate(58.59375 0)"/>
     <use xlink:href="#CascadiaCode-Regular-61" transform="translate(117.1875 0)"/>
     <use xlink:href="#CascadiaCode-Regular-69" transform="translate(175.78125 0)"/>
     <use xlink:href="#CascadiaCode-Regular-6e" transform="translate(234.375 0)"/>
     <use xlink:href="#CascadiaCode-Regular-20" transform="translate(292.96875 0)"/>
     <use xlink:href="#CascadiaCode-Regular-6c" transform="translate(351.5625 0)"/>
     <use xlink:href="#CascadiaCode-Regular-6f" transform="translate(410.15625 0)"/>
     <use xlink:href="#CascadiaCode-Regular-73" transform="translate(468.75 0)"/>
     <use xlink:href="#CascadiaCode-Regular-73" transform="translate(527.34375 0)"/>
     <use xlink:href="#CascadiaCode-Regular-3a" transform="translate(585.9375 0)"/>
     <use xlink:href="#CascadiaCode-Regular-20" transform="translate(644.53125 0)"/>
     <use xlink:href="#CascadiaCode-Regular-30" transform="translate(703.125 0)"/>
     <use xlink:href="#CascadiaCode-Regular-2e" transform="translate(761.71875 0)"/>
     <use xlink:href="#CascadiaCode-Regular-30" transform="translate(820.3125 0)"/>
     <use xlink:href="#CascadiaCode-Regular-31" transform="translate(878.90625 0)"/>
    </g>
   </g>
   <g id="text_12">
    <!-- Test loss: 0.05 -->
    <g transform="translate(323.118589 38.668469) scale(0.0694 -0.0694)">
     <defs>
      <path id="CascadiaCode-Regular-35" d="M 1919 -63 
Q 1200 -63 806 279 
Q 413 622 413 1244 
L 1081 1244 
Q 1081 897 1300 705 
Q 1519 513 1925 513 
Q 2325 513 2544 753 
Q 2763 994 2763 1431 
Q 2763 1859 2525 2095 
Q 2288 2331 1850 2331 
Q 1413 2331 1031 2125 
L 1088 2656 
Q 1334 2797 1578 2845 
Q 1822 2894 2069 2894 
Q 2713 2894 3066 2512 
Q 3419 2131 3419 1431 
Q 3419 956 3242 622 
Q 3066 288 2731 112 
Q 2397 -63 1919 -63 
z
M 681 2125 
L 744 4438 
L 1413 4438 
L 1350 2513 
L 1031 2125 
L 681 2125 
z
M 1044 3856 
L 988 4438 
L 3138 4438 
L 3138 3856 
L 1044 3856 
z
" transform="scale(0.015625)"/>
     </defs>
     <use xlink:href="#CascadiaCode-Regular-54"/>
     <use xlink:href="#CascadiaCode-Regular-65" transform="translate(58.59375 0)"/>
     <use xlink:href="#CascadiaCode-Regular-73" transform="translate(117.1875 0)"/>
     <use xlink:href="#CascadiaCode-Regular-74" transform="translate(175.78125 0)"/>
     <use xlink:href="#CascadiaCode-Regular-20" transform="translate(234.375 0)"/>
     <use xlink:href="#CascadiaCode-Regular-6c" transform="translate(292.96875 0)"/>
     <use xlink:href="#CascadiaCode-Regular-6f" transform="translate(351.5625 0)"/>
     <use xlink:href="#CascadiaCode-Regular-73" transform="translate(410.15625 0)"/>
     <use xlink:href="#CascadiaCode-Regular-73" transform="translate(468.75 0)"/>
     <use xlink:href="#CascadiaCode-Regular-3a" transform="translate(527.34375 0)"/>
     <use xlink:href="#CascadiaCode-Regular-20" transform="translate(585.9375 0)"/>
     <use xlink:href="#CascadiaCode-Regular-30" transform="translate(644.53125 0)"/>
     <use xlink:href="#CascadiaCode-Regular-2e" transform="translate(703.125 0)"/>
     <use xlink:href="#CascadiaCode-Regular-30" transform="translate(761.71875 0)"/>
     <use xlink:href="#CascadiaCode-Regular-35" transform="translate(820.3125 0)"/>
    </g>
   </g>
   <g id="text_13">
    <!-- Overfitting -->
    <g style="fill: #808080" transform="translate(330.832261 14.56875) scale(0.1 -0.1)">
     <defs>
      <path id="Helvetica-4f" d="M 2469 4716 
Q 3684 4716 4269 3934 
Q 4725 3325 4725 2375 
Q 4725 1347 4203 666 
Q 3591 -134 2456 -134 
Q 1397 -134 791 566 
Q 250 1241 250 2272 
Q 250 3203 713 3866 
Q 1306 4716 2469 4716 
z
M 2531 422 
Q 3353 422 3720 1011 
Q 4088 1600 4088 2366 
Q 4088 3175 3664 3669 
Q 3241 4163 2506 4163 
Q 1794 4163 1344 3673 
Q 894 3184 894 2231 
Q 894 1469 1280 945 
Q 1666 422 2531 422 
z
M 2488 4716 
L 2488 4716 
z
" transform="scale(0.015625)"/>
      <path id="Helvetica-76" d="M 688 3347 
L 1581 622 
L 2516 3347 
L 3131 3347 
L 1869 0 
L 1269 0 
L 34 3347 
L 688 3347 
z
" transform="scale(0.015625)"/>
     </defs>
     <use xlink:href="#Helvetica-4f"/>
     <use xlink:href="#Helvetica-76" transform="translate(77.783203 0)"/>
     <use xlink:href="#Helvetica-65" transform="translate(127.783203 0)"/>
     <use xlink:href="#Helvetica-72" transform="translate(183.398438 0)"/>
     <use xlink:href="#Helvetica-66" transform="translate(216.699219 0)"/>
     <use xlink:href="#Helvetica-69" transform="translate(244.482422 0)"/>
     <use xlink:href="#Helvetica-74" transform="translate(266.699219 0)"/>
     <use xlink:href="#Helvetica-74" transform="translate(294.482422 0)"/>
     <use xlink:href="#Helvetica-69" transform="translate(322.265625 0)"/>
     <use xlink:href="#Helvetica-6e" transform="translate(344.482422 0)"/>
     <use xlink:href="#Helvetica-67" transform="translate(400.097656 0)"/>
    </g>
   </g>
  </g>
 </g>
 <defs>
  <clipPath id="pe5eac00841">
   <rect x="20.457812" y="20.56875" width="114.882353" height="110.449918"/>
  </clipPath>
  <clipPath id="peb1fd1cd27">
   <rect x="158.316636" y="20.56875" width="114.882353" height="110.449918"/>
  </clipPath>
  <clipPath id="p83bce76031">
   <rect x="296.17546" y="20.56875" width="114.882353" height="110.449918"/>
  </clipPath>
 </defs>
</svg>
