<?xml version="1.0" encoding="utf-8" standalone="no"?>
<!DOCTYPE svg PUBLIC "-//W3C//DTD SVG 1.1//EN"
  "http://www.w3.org/Graphics/SVG/1.1/DTD/svg11.dtd">
<svg xmlns:xlink="http://www.w3.org/1999/xlink" width="415.839264pt" height="153.174062pt" viewBox="0 0 415.839264 153.174062" xmlns="http://www.w3.org/2000/svg" version="1.1">
 <metadata>
  <rdf:RDF xmlns:dc="http://purl.org/dc/elements/1.1/" xmlns:cc="http://creativecommons.org/ns#" xmlns:rdf="http://www.w3.org/1999/02/22-rdf-syntax-ns#">
   <cc:Work>
    <dc:type rdf:resource="http://purl.org/dc/dcmitype/StillImage"/>
    <dc:date>2026-05-15T21:29:11.537355</dc:date>
    <dc:format>image/svg+xml</dc:format>
    <dc:creator>
     <cc:Agent>
      <dc:title>Matplotlib v3.10.8, https://matplotlib.org/</dc:title>
     </cc:Agent>
    </dc:creator>
   </cc:Work>
  </rdf:RDF>
 </metadata>
 <defs>
  <style type="text/css">*{stroke-linejoin: round; stroke-linecap: butt}</style>
 </defs>
 <g id="figure_1">
  <g id="patch_1">
   <path d="M 0 153.174062 
L 415.839264 153.174062 
L 415.839264 0 
L 0 0 
z
" style="fill: #ffffff"/>
  </g>
  <g id="axes_1">
   <g id="patch_2">
    <path d="M 20.457813 132.71625 
L 132.921617 132.71625 
L 132.921617 21.83625 
L 20.457813 21.83625 
z
" style="fill: #ffffff"/>
   </g>
   <g id="PathCollection_1">
    <defs>
     <path id="m6fd509c2ff" d="M 0 1.118034 
C 0.296506 1.118034 0.580908 1.000231 0.790569 0.790569 
C 1.000231 0.580908 1.118034 0.296506 1.118034 0 
C 1.118034 -0.296506 1.000231 -0.580908 0.790569 -0.790569 
C 0.580908 -1.000231 0.296506 -1.118034 0 -1.118034 
C -0.296506 -1.118034 -0.580908 -1.000231 -0.790569 -0.790569 
C -1.000231 -0.580908 -1.118034 -0.296506 -1.118034 0 
C -1.118034 0.296506 -1.000231 0.580908 -0.790569 0.790569 
C -0.580908 1.000231 -0.296506 1.118034 0 1.118034 
z
" style="stroke: #1f77b4"/>
    </defs>
    <g clip-path="url(#p718706dca9)">
     <use xlink:href="#m6fd509c2ff" x="46.294092" y="91.949199" style="fill: #1f77b4; stroke: #1f77b4"/>
     <use xlink:href="#m6fd509c2ff" x="35.241138" y="113.410883" style="fill: #1f77b4; stroke: #1f77b4"/>
     <use xlink:href="#m6fd509c2ff" x="122.283149" y="40.892058" style="fill: #1f77b4; stroke: #1f77b4"/>
     <use xlink:href="#m6fd509c2ff" x="76.689715" y="72.321418" style="fill: #1f77b4; stroke: #1f77b4"/>
     <use xlink:href="#m6fd509c2ff" x="33.859519" y="104.96645" style="fill: #1f77b4; stroke: #1f77b4"/>
     <use xlink:href="#m6fd509c2ff" x="75.308096" y="72.037067" style="fill: #1f77b4; stroke: #1f77b4"/>
     <use xlink:href="#m6fd509c2ff" x="112.611815" y="84.525998" style="fill: #1f77b4; stroke: #1f77b4"/>
     <use xlink:href="#m6fd509c2ff" x="62.873523" y="87.53751" style="fill: #1f77b4; stroke: #1f77b4"/>
     <use xlink:href="#m6fd509c2ff" x="90.505907" y="75.656263" style="fill: #1f77b4; stroke: #1f77b4"/>
     <use xlink:href="#m6fd509c2ff" x="107.085338" y="77.577036" style="fill: #1f77b4; stroke: #1f77b4"/>
     <use xlink:href="#m6fd509c2ff" x="71.163238" y="104.930746" style="fill: #1f77b4; stroke: #1f77b4"/>
     <use xlink:href="#m6fd509c2ff" x="120.90153" y="51.013389" style="fill: #1f77b4; stroke: #1f77b4"/>
     <use xlink:href="#m6fd509c2ff" x="105.703719" y="81.75346" style="fill: #1f77b4; stroke: #1f77b4"/>
     <use xlink:href="#m6fd509c2ff" x="60.110284" y="101.227865" style="fill: #1f77b4; stroke: #1f77b4"/>
     <use xlink:href="#m6fd509c2ff" x="54.583807" y="82.065699" style="fill: #1f77b4; stroke: #1f77b4"/>
     <use xlink:href="#m6fd509c2ff" x="65.636761" y="70.10855" style="fill: #1f77b4; stroke: #1f77b4"/>
     <use xlink:href="#m6fd509c2ff" x="116.756672" y="76.667833" style="fill: #1f77b4; stroke: #1f77b4"/>
     <use xlink:href="#m6fd509c2ff" x="47.675711" y="78.685457" style="fill: #1f77b4; stroke: #1f77b4"/>
     <use xlink:href="#m6fd509c2ff" x="94.650765" y="91.552511" style="fill: #1f77b4; stroke: #1f77b4"/>
     <use xlink:href="#m6fd509c2ff" x="119.519911" y="63.825122" style="fill: #1f77b4; stroke: #1f77b4"/>
     <use xlink:href="#m6fd509c2ff" x="55.965427" y="79.182658" style="fill: #1f77b4; stroke: #1f77b4"/>
     <use xlink:href="#m6fd509c2ff" x="40.767615" y="87.484074" style="fill: #1f77b4; stroke: #1f77b4"/>
     <use xlink:href="#m6fd509c2ff" x="87.742669" y="88.576672" style="fill: #1f77b4; stroke: #1f77b4"/>
     <use xlink:href="#m6fd509c2ff" x="96.032384" y="77.88955" style="fill: #1f77b4; stroke: #1f77b4"/>
     <use xlink:href="#m6fd509c2ff" x="31.096281" y="101.78891" style="fill: #1f77b4; stroke: #1f77b4"/>
     <use xlink:href="#m6fd509c2ff" x="69.781619" y="93.817386" style="fill: #1f77b4; stroke: #1f77b4"/>
     <use xlink:href="#m6fd509c2ff" x="44.912473" y="92.355632" style="fill: #1f77b4; stroke: #1f77b4"/>
     <use xlink:href="#m6fd509c2ff" x="86.361049" y="89.479041" style="fill: #1f77b4; stroke: #1f77b4"/>
     <use xlink:href="#m6fd509c2ff" x="113.993434" y="62.936092" style="fill: #1f77b4; stroke: #1f77b4"/>
     <use xlink:href="#m6fd509c2ff" x="115.375053" y="66.567979" style="fill: #1f77b4; stroke: #1f77b4"/>
     <use xlink:href="#m6fd509c2ff" x="61.491903" y="85.489963" style="fill: #1f77b4; stroke: #1f77b4"/>
     <use xlink:href="#m6fd509c2ff" x="104.322099" y="73.448318" style="fill: #1f77b4; stroke: #1f77b4"/>
     <use xlink:href="#m6fd509c2ff" x="68.4" y="80.966192" style="fill: #1f77b4; stroke: #1f77b4"/>
     <use xlink:href="#m6fd509c2ff" x="125.046388" y="29.695101" style="fill: #1f77b4; stroke: #1f77b4"/>
     <use xlink:href="#m6fd509c2ff" x="36.622757" y="110.28365" style="fill: #1f77b4; stroke: #1f77b4"/>
     <use xlink:href="#m6fd509c2ff" x="80.834573" y="95.307666" style="fill: #1f77b4; stroke: #1f77b4"/>
     <use xlink:href="#m6fd509c2ff" x="91.887526" y="99.771722" style="fill: #1f77b4; stroke: #1f77b4"/>
     <use xlink:href="#m6fd509c2ff" x="43.530854" y="97.321952" style="fill: #1f77b4; stroke: #1f77b4"/>
     <use xlink:href="#m6fd509c2ff" x="84.97943" y="64.451844" style="fill: #1f77b4; stroke: #1f77b4"/>
     <use xlink:href="#m6fd509c2ff" x="72.544857" y="88.198825" style="fill: #1f77b4; stroke: #1f77b4"/>
     <use xlink:href="#m6fd509c2ff" x="118.138292" y="52.634169" style="fill: #1f77b4; stroke: #1f77b4"/>
     <use xlink:href="#m6fd509c2ff" x="29.714661" y="101.369974" style="fill: #1f77b4; stroke: #1f77b4"/>
     <use xlink:href="#m6fd509c2ff" x="28.333042" y="117.878143" style="fill: #1f77b4; stroke: #1f77b4"/>
     <use xlink:href="#m6fd509c2ff" x="58.728665" y="63.625849" style="fill: #1f77b4; stroke: #1f77b4"/>
     <use xlink:href="#m6fd509c2ff" x="67.01838" y="83.37651" style="fill: #1f77b4; stroke: #1f77b4"/>
     <use xlink:href="#m6fd509c2ff" x="108.466957" y="79.210598" style="fill: #1f77b4; stroke: #1f77b4"/>
     <use xlink:href="#m6fd509c2ff" x="102.94048" y="77.012232" style="fill: #1f77b4; stroke: #1f77b4"/>
     <use xlink:href="#m6fd509c2ff" x="83.597811" y="101.933252" style="fill: #1f77b4; stroke: #1f77b4"/>
     <use xlink:href="#m6fd509c2ff" x="89.124288" y="96.687366" style="fill: #1f77b4; stroke: #1f77b4"/>
     <use xlink:href="#m6fd509c2ff" x="51.820569" y="99.232546" style="fill: #1f77b4; stroke: #1f77b4"/>
     <use xlink:href="#m6fd509c2ff" x="78.071334" y="88.573541" style="fill: #1f77b4; stroke: #1f77b4"/>
     <use xlink:href="#m6fd509c2ff" x="25.569804" y="117.6988" style="fill: #1f77b4; stroke: #1f77b4"/>
    </g>
   </g>
   <g id="PathCollection_2">
    <defs>
     <path id="m6130de29d9" d="M 0 1.118034 
C 0.296506 1.118034 0.580908 1.000231 0.790569 0.790569 
C 1.000231 0.580908 1.118034 0.296506 1.118034 0 
C 1.118034 -0.296506 1.000231 -0.580908 0.790569 -0.790569 
C 0.580908 -1.000231 0.296506 -1.118034 0 -1.118034 
C -0.296506 -1.118034 -0.580908 -1.000231 -0.790569 -0.790569 
C -1.000231 -0.580908 -1.118034 -0.296506 -1.118034 0 
C -1.118034 0.296506 -1.000231 0.580908 -0.790569 0.790569 
C -0.580908 1.000231 -0.296506 1.118034 0 1.118034 
z
" style="stroke: #1f77b4; stroke-opacity: 0.2"/>
    </defs>
    <g clip-path="url(#p718706dca9)">
     <use xlink:href="#m6130de29d9" x="73.926476" y="83.024093" style="fill: #1f77b4; fill-opacity: 0.2; stroke: #1f77b4; stroke-opacity: 0.2"/>
     <use xlink:href="#m6130de29d9" x="127.809626" y="29.381083" style="fill: #1f77b4; fill-opacity: 0.2; stroke: #1f77b4; stroke-opacity: 0.2"/>
     <use xlink:href="#m6130de29d9" x="42.149234" y="92.602721" style="fill: #1f77b4; fill-opacity: 0.2; stroke: #1f77b4; stroke-opacity: 0.2"/>
     <use xlink:href="#m6130de29d9" x="32.4779" y="127.67625" style="fill: #1f77b4; fill-opacity: 0.2; stroke: #1f77b4; stroke-opacity: 0.2"/>
     <use xlink:href="#m6130de29d9" x="101.558861" y="74.349512" style="fill: #1f77b4; fill-opacity: 0.2; stroke: #1f77b4; stroke-opacity: 0.2"/>
     <use xlink:href="#m6130de29d9" x="39.385996" y="103.006264" style="fill: #1f77b4; fill-opacity: 0.2; stroke: #1f77b4; stroke-opacity: 0.2"/>
     <use xlink:href="#m6130de29d9" x="93.269146" y="85.045653" style="fill: #1f77b4; fill-opacity: 0.2; stroke: #1f77b4; stroke-opacity: 0.2"/>
     <use xlink:href="#m6130de29d9" x="79.452953" y="87.697192" style="fill: #1f77b4; fill-opacity: 0.2; stroke: #1f77b4; stroke-opacity: 0.2"/>
     <use xlink:href="#m6130de29d9" x="97.414003" y="86.430881" style="fill: #1f77b4; fill-opacity: 0.2; stroke: #1f77b4; stroke-opacity: 0.2"/>
     <use xlink:href="#m6130de29d9" x="123.664768" y="43.629511" style="fill: #1f77b4; fill-opacity: 0.2; stroke: #1f77b4; stroke-opacity: 0.2"/>
     <use xlink:href="#m6130de29d9" x="98.795622" y="92.551534" style="fill: #1f77b4; fill-opacity: 0.2; stroke: #1f77b4; stroke-opacity: 0.2"/>
     <use xlink:href="#m6130de29d9" x="53.202188" y="115.674538" style="fill: #1f77b4; fill-opacity: 0.2; stroke: #1f77b4; stroke-opacity: 0.2"/>
     <use xlink:href="#m6130de29d9" x="49.05733" y="94.785805" style="fill: #1f77b4; fill-opacity: 0.2; stroke: #1f77b4; stroke-opacity: 0.2"/>
     <use xlink:href="#m6130de29d9" x="26.951423" y="127.609395" style="fill: #1f77b4; fill-opacity: 0.2; stroke: #1f77b4; stroke-opacity: 0.2"/>
     <use xlink:href="#m6130de29d9" x="109.848576" y="74.339166" style="fill: #1f77b4; fill-opacity: 0.2; stroke: #1f77b4; stroke-opacity: 0.2"/>
     <use xlink:href="#m6130de29d9" x="64.255142" y="69.67914" style="fill: #1f77b4; fill-opacity: 0.2; stroke: #1f77b4; stroke-opacity: 0.2"/>
     <use xlink:href="#m6130de29d9" x="111.230195" y="77.159093" style="fill: #1f77b4; fill-opacity: 0.2; stroke: #1f77b4; stroke-opacity: 0.2"/>
     <use xlink:href="#m6130de29d9" x="126.428007" y="50.153298" style="fill: #1f77b4; fill-opacity: 0.2; stroke: #1f77b4; stroke-opacity: 0.2"/>
     <use xlink:href="#m6130de29d9" x="82.216192" y="99.068176" style="fill: #1f77b4; fill-opacity: 0.2; stroke: #1f77b4; stroke-opacity: 0.2"/>
     <use xlink:href="#m6130de29d9" x="57.347046" y="94.971704" style="fill: #1f77b4; fill-opacity: 0.2; stroke: #1f77b4; stroke-opacity: 0.2"/>
     <use xlink:href="#m6130de29d9" x="100.177242" y="79.944375" style="fill: #1f77b4; fill-opacity: 0.2; stroke: #1f77b4; stroke-opacity: 0.2"/>
     <use xlink:href="#m6130de29d9" x="50.43895" y="88.335955" style="fill: #1f77b4; fill-opacity: 0.2; stroke: #1f77b4; stroke-opacity: 0.2"/>
     <use xlink:href="#m6130de29d9" x="38.004377" y="102.570926" style="fill: #1f77b4; fill-opacity: 0.2; stroke: #1f77b4; stroke-opacity: 0.2"/>
    </g>
   </g>
   <g id="matplotlib.axis_1">
    <g id="text_1">
     <!-- $x$ -->
     <g transform="translate(73.689715 143.889687) scale(0.1 -0.1)">
      <defs>
       <path id="DejaVuSans-Oblique-78" d="M 3841 3500 
L 2234 1784 
L 3219 0 
L 2559 0 
L 1819 1388 
L 531 0 
L -166 0 
L 1556 1844 
L 641 3500 
L 1300 3500 
L 1972 2234 
L 3144 3500 
L 3841 3500 
z
" transform="scale(0.015625)"/>
      </defs>
      <use xlink:href="#DejaVuSans-Oblique-78" transform="translate(0 0.3125)"/>
     </g>
    </g>
   </g>
   <g id="matplotlib.axis_2">
    <g id="text_2">
     <!-- $y$ -->
     <g transform="translate(14.357813 80.27625) rotate(-90) scale(0.1 -0.1)">
      <defs>
       <path id="DejaVuSans-Oblique-79" d="M 1588 -325 
Q 1188 -997 936 -1164 
Q 684 -1331 294 -1331 
L -159 -1331 
L -63 -850 
L 269 -850 
Q 509 -850 678 -719 
Q 847 -588 1056 -206 
L 1234 128 
L 459 3500 
L 1069 3500 
L 1650 819 
L 3256 3500 
L 3859 3500 
L 1588 -325 
z
" transform="scale(0.015625)"/>
      </defs>
      <use xlink:href="#DejaVuSans-Oblique-79" transform="translate(0 0.3125)"/>
     </g>
    </g>
   </g>
   <g id="line2d_1">
    <path d="M 25.569804 107.136575 
L 26.602529 106.671747 
L 27.635255 106.214175 
L 28.66798 105.756603 
L 29.700706 105.299031 
L 30.733431 104.841459 
L 31.766156 104.383888 
L 32.798882 103.938529 
L 33.831607 103.494112 
L 34.864333 103.048984 
L 35.897058 102.584548 
L 36.929784 102.116971 
L 37.962509 101.638982 
L 38.995235 101.1209 
L 40.02796 100.577387 
L 41.060686 100.012715 
L 42.093411 99.448044 
L 43.126137 98.883372 
L 44.158862 98.317895 
L 45.191588 97.745098 
L 46.224313 97.170271 
L 47.257039 96.594034 
L 48.289764 96.017798 
L 49.32249 95.441562 
L 50.355215 94.865326 
L 51.387941 94.292895 
L 52.420666 93.703571 
L 53.453392 93.111047 
L 54.486117 92.518523 
L 55.518843 91.925999 
L 56.551568 91.333475 
L 57.584293 90.744284 
L 58.617019 90.168029 
L 59.649744 89.674616 
L 60.68247 89.221269 
L 61.715195 88.767922 
L 62.747921 88.345534 
L 63.780646 87.941739 
L 64.813372 87.547288 
L 65.846097 87.152838 
L 66.878823 86.758388 
L 67.911548 86.38388 
L 68.944274 86.01935 
L 69.976999 85.654819 
L 71.009725 85.290288 
L 72.04245 84.925758 
L 73.075176 84.561227 
L 74.107901 84.246552 
L 75.140627 83.963974 
L 76.173352 83.670547 
L 77.206078 83.366026 
L 78.238803 83.081348 
L 79.271529 82.80219 
L 80.304254 82.517561 
L 81.33698 82.209668 
L 82.369705 81.877596 
L 83.40243 81.546071 
L 84.435156 81.20126 
L 85.467881 80.821793 
L 86.500607 80.409214 
L 87.533332 79.988862 
L 88.566058 79.541724 
L 89.598783 79.094585 
L 90.631509 78.649594 
L 91.664234 78.187961 
L 92.69696 77.724609 
L 93.729685 77.261257 
L 94.762411 76.797904 
L 95.795136 76.314121 
L 96.827862 75.783742 
L 97.860587 75.226841 
L 98.893313 74.723807 
L 99.926038 74.193364 
L 100.958764 73.623409 
L 101.991489 73.053453 
L 103.024215 72.483498 
L 104.05694 71.913543 
L 105.089666 71.356122 
L 106.122391 70.836467 
L 107.155116 70.318762 
L 108.187842 69.801057 
L 109.220567 69.280867 
L 110.253293 68.754681 
L 111.286018 68.228496 
L 112.318744 67.707035 
L 113.351469 67.234284 
L 114.384195 66.761534 
L 115.41692 66.288784 
L 116.449646 65.857153 
L 117.482371 65.432638 
L 118.515097 65.011358 
L 119.547822 64.613712 
L 120.580548 64.225364 
L 121.613273 63.841615 
L 122.645999 63.46589 
L 123.678724 63.090165 
L 124.71145 62.71444 
L 125.744175 62.338715 
L 126.776901 61.96299 
L 127.809626 61.587265 
" clip-path="url(#p718706dca9)" style="fill: none; stroke: #ff7f0e; stroke-linecap: square"/>
   </g>
   <g id="patch_3">
    <path d="M 20.457813 132.71625 
L 20.457813 21.83625 
" style="fill: none; stroke: #000000; stroke-width: 0.8; stroke-linejoin: miter; stroke-linecap: square"/>
   </g>
   <g id="patch_4">
    <path d="M 132.921617 132.71625 
L 132.921617 21.83625 
" style="fill: none; stroke: #000000; stroke-width: 0.8; stroke-linejoin: miter; stroke-linecap: square"/>
   </g>
   <g id="patch_5">
    <path d="M 20.457812 132.71625 
L 132.921617 132.71625 
" style="fill: none; stroke: #000000; stroke-width: 0.8; stroke-linejoin: miter; stroke-linecap: square"/>
   </g>
   <g id="patch_6">
    <path d="M 20.457812 21.83625 
L 132.921617 21.83625 
" style="fill: none; stroke: #000000; stroke-width: 0.8; stroke-linejoin: miter; stroke-linecap: square"/>
   </g>
   <g id="text_3">
    <!-- Train loss: 0.06 -->
    <g transform="translate(44.158465 34.517015) scale(0.0694 -0.0694)">
     <defs>
      <path id="CascadiaCode-Regular-54" d="M 1550 0 
L 1550 4438 
L 2200 4438 
L 2200 0 
L 1550 0 
z
M 250 3844 
L 250 4438 
L 3500 4438 
L 3500 3844 
L 250 3844 
z
" transform="scale(0.015625)"/>
      <path id="CascadiaCode-Regular-72" d="M 1650 1425 
L 1456 2463 
L 1713 2463 
Q 1769 3375 2625 3375 
Q 3138 3375 3369 3081 
Q 3600 2788 3600 2131 
L 2944 2131 
Q 2944 2494 2836 2653 
Q 2728 2813 2488 2813 
Q 2066 2813 1858 2452 
Q 1650 2091 1650 1425 
z
M 250 0 
L 250 581 
L 2463 581 
L 2463 0 
L 250 0 
z
M 988 0 
L 988 3313 
L 1525 3313 
L 1650 2363 
L 1650 0 
L 988 0 
z
M 375 2731 
L 375 3313 
L 1481 3313 
L 1544 2731 
L 375 2731 
z
" transform="scale(0.015625)"/>
      <path id="CascadiaCode-Regular-61" d="M 2556 -31 
L 2513 950 
L 2425 1225 
L 2425 2081 
Q 2425 2413 2192 2567 
Q 1959 2722 1500 2734 
L 706 2756 
L 769 3344 
L 1438 3334 
Q 2259 3322 2657 2980 
Q 3056 2638 3056 1981 
L 3056 600 
L 3619 531 
L 3619 0 
L 2556 -31 
z
M 1388 -63 
Q 869 -63 584 187 
Q 300 438 300 894 
Q 300 1419 692 1700 
Q 1084 1981 1800 1981 
Q 2097 1981 2330 1945 
Q 2563 1909 2744 1838 
L 2606 1388 
Q 2397 1434 2197 1442 
Q 1997 1450 1788 1450 
Q 925 1450 925 925 
Q 925 706 1073 587 
Q 1222 469 1494 469 
Q 1803 469 2011 575 
Q 2219 681 2322 847 
Q 2425 1013 2425 1188 
L 2425 1550 
L 2619 700 
L 2356 700 
L 2463 800 
Q 2463 513 2330 320 
Q 2197 128 1956 32 
Q 1716 -63 1388 -63 
z
" transform="scale(0.015625)"/>
      <path id="CascadiaCode-Regular-69" d="M 1763 0 
L 1763 3125 
L 2425 3125 
L 2425 0 
L 1763 0 
z
M 500 0 
L 500 581 
L 1825 581 
L 1825 0 
L 500 0 
z
M 2363 0 
L 2363 581 
L 3444 581 
L 3444 0 
L 2363 0 
z
M 688 2731 
L 688 3313 
L 2425 3313 
L 2425 2731 
L 688 2731 
z
M 2072 3838 
Q 1881 3838 1745 3973 
Q 1609 4109 1609 4300 
Q 1609 4494 1745 4628 
Q 1881 4763 2072 4763 
Q 2266 4763 2400 4628 
Q 2534 4494 2534 4300 
Q 2534 4109 2400 3973 
Q 2266 3838 2072 3838 
z
" transform="scale(0.015625)"/>
      <path id="CascadiaCode-Regular-6e" d="M 2563 0 
L 2563 2156 
Q 2563 2456 2406 2618 
Q 2250 2781 1969 2781 
Q 1188 2781 1188 1863 
L 994 2713 
L 1250 2713 
Q 1278 3047 1493 3211 
Q 1709 3375 2125 3375 
Q 2650 3375 2937 3056 
Q 3225 2738 3225 2156 
L 3225 0 
L 2563 0 
z
M 525 0 
L 525 3313 
L 1125 3313 
L 1188 2613 
L 1188 0 
L 525 0 
z
" transform="scale(0.015625)"/>
      <path id="CascadiaCode-Regular-20" transform="scale(0.015625)"/>
      <path id="CascadiaCode-Regular-6c" d="M 2369 -63 
Q 1794 -63 1537 250 
Q 1281 563 1281 1250 
L 1281 4688 
L 1944 4688 
L 1944 1281 
Q 1944 1019 1994 853 
Q 2044 688 2189 609 
Q 2334 531 2619 531 
Q 2878 531 3281 650 
L 3356 69 
Q 3103 0 2870 -31 
Q 2638 -63 2369 -63 
z
M 306 4106 
L 306 4688 
L 1338 4688 
L 1338 4106 
L 306 4106 
z
" transform="scale(0.015625)"/>
      <path id="CascadiaCode-Regular-6f" d="M 1875 -63 
Q 1188 -63 806 387 
Q 425 838 425 1656 
Q 425 2478 806 2926 
Q 1188 3375 1875 3375 
Q 2566 3375 2945 2926 
Q 3325 2478 3325 1656 
Q 3325 838 2945 387 
Q 2566 -63 1875 -63 
z
M 1875 531 
Q 2241 531 2439 825 
Q 2638 1119 2638 1656 
Q 2638 2197 2439 2489 
Q 2241 2781 1875 2781 
Q 1509 2781 1311 2489 
Q 1113 2197 1113 1656 
Q 1113 1119 1311 825 
Q 1509 531 1875 531 
z
" transform="scale(0.015625)"/>
      <path id="CascadiaCode-Regular-73" d="M 1619 -63 
Q 1244 -63 976 -41 
Q 709 -19 488 31 
L 563 631 
Q 891 581 1142 556 
Q 1394 531 1619 531 
Q 2122 531 2348 629 
Q 2575 728 2575 944 
Q 2575 1094 2495 1167 
Q 2416 1241 2250 1281 
L 1488 1475 
Q 997 1600 767 1784 
Q 538 1969 538 2344 
Q 538 2888 955 3131 
Q 1372 3375 2300 3375 
Q 2541 3375 2748 3361 
Q 2956 3347 3175 3313 
L 3106 2738 
Q 2853 2763 2659 2772 
Q 2466 2781 2281 2781 
Q 1725 2781 1475 2686 
Q 1225 2591 1225 2375 
Q 1225 2231 1328 2167 
Q 1431 2103 1644 2050 
L 2256 1900 
Q 2778 1775 3020 1565 
Q 3263 1356 3263 956 
Q 3263 422 2872 179 
Q 2481 -63 1619 -63 
z
" transform="scale(0.015625)"/>
      <path id="CascadiaCode-Regular-3a" d="M 1875 2450 
Q 1684 2450 1548 2586 
Q 1413 2722 1413 2913 
Q 1413 3106 1548 3240 
Q 1684 3375 1875 3375 
Q 2069 3375 2203 3240 
Q 2338 3106 2338 2913 
Q 2338 2722 2203 2586 
Q 2069 2450 1875 2450 
z
M 1875 -63 
Q 1684 -63 1548 73 
Q 1413 209 1413 400 
Q 1413 594 1548 728 
Q 1684 863 1875 863 
Q 2069 863 2203 728 
Q 2338 594 2338 400 
Q 2338 209 2203 73 
Q 2069 -63 1875 -63 
z
" transform="scale(0.015625)"/>
      <path id="CascadiaCode-Regular-30" d="M 1875 -63 
Q 363 -63 363 2188 
Q 363 4500 1875 4500 
Q 3388 4500 3388 2188 
Q 3388 -63 1875 -63 
z
M 1875 1719 
Q 1666 1719 1536 1848 
Q 1406 1978 1406 2188 
Q 1406 2400 1536 2528 
Q 1666 2656 1875 2656 
Q 2088 2656 2216 2528 
Q 2344 2400 2344 2188 
Q 2344 1978 2216 1848 
Q 2088 1719 1875 1719 
z
M 1875 513 
Q 2719 513 2719 2188 
Q 2719 3925 1875 3925 
Q 1031 3925 1031 2188 
Q 1031 513 1875 513 
z
" transform="scale(0.015625)"/>
      <path id="CascadiaCode-Regular-2e" d="M 1875 -63 
Q 1684 -63 1548 73 
Q 1413 209 1413 400 
Q 1413 594 1548 728 
Q 1684 863 1875 863 
Q 2069 863 2203 728 
Q 2338 594 2338 400 
Q 2338 209 2203 73 
Q 2069 -63 1875 -63 
z
" transform="scale(0.015625)"/>
      <path id="CascadiaCode-Regular-36" d="M 1900 -63 
Q 1128 -63 764 321 
Q 400 706 400 1519 
L 919 2088 
L 1150 2088 
Q 1244 2434 1523 2623 
Q 1803 2813 2206 2813 
Q 2788 2813 3103 2453 
Q 3419 2094 3419 1438 
Q 3419 731 3017 334 
Q 2616 -63 1900 -63 
z
M 1922 513 
Q 2319 513 2541 758 
Q 2763 1003 2763 1438 
Q 2763 1822 2558 2030 
Q 2353 2238 1972 2238 
Q 1538 2238 1303 2013 
Q 1069 1788 1069 1375 
Q 1069 969 1294 741 
Q 1519 513 1922 513 
z
M 400 1519 
L 400 1794 
Q 400 3066 1045 3728 
Q 1691 4391 3013 4456 
L 3075 3863 
Q 1094 3778 1094 2081 
L 1094 1725 
L 400 1519 
z
" transform="scale(0.015625)"/>
     </defs>
     <use xlink:href="#CascadiaCode-Regular-54"/>
     <use xlink:href="#CascadiaCode-Regular-72" transform="translate(58.59375 0)"/>
     <use xlink:href="#CascadiaCode-Regular-61" transform="translate(117.1875 0)"/>
     <use xlink:href="#CascadiaCode-Regular-69" transform="translate(175.78125 0)"/>
     <use xlink:href="#CascadiaCode-Regular-6e" transform="translate(234.375 0)"/>
     <use xlink:href="#CascadiaCode-Regular-20" transform="translate(292.96875 0)"/>
     <use xlink:href="#CascadiaCode-Regular-6c" transform="translate(351.5625 0)"/>
     <use xlink:href="#CascadiaCode-Regular-6f" transform="translate(410.15625 0)"/>
     <use xlink:href="#CascadiaCode-Regular-73" transform="translate(468.75 0)"/>
     <use xlink:href="#CascadiaCode-Regular-73" transform="translate(527.34375 0)"/>
     <use xlink:href="#CascadiaCode-Regular-3a" transform="translate(585.9375 0)"/>
     <use xlink:href="#CascadiaCode-Regular-20" transform="translate(644.53125 0)"/>
     <use xlink:href="#CascadiaCode-Regular-30" transform="translate(703.125 0)"/>
     <use xlink:href="#CascadiaCode-Regular-2e" transform="translate(761.71875 0)"/>
     <use xlink:href="#CascadiaCode-Regular-30" transform="translate(820.3125 0)"/>
     <use xlink:href="#CascadiaCode-Regular-36" transform="translate(878.90625 0)"/>
    </g>
   </g>
   <g id="text_4">
    <!-- Test loss: 0.07 -->
    <g transform="translate(46.191668 42.185002) scale(0.0694 -0.0694)">
     <defs>
      <path id="CascadiaCode-Regular-65" d="M 2163 -63 
Q 1316 -63 855 382 
Q 394 828 394 1663 
Q 394 2475 784 2925 
Q 1175 3375 1888 3375 
Q 2559 3375 2926 2969 
Q 3294 2563 3294 1788 
Q 3294 1559 3275 1363 
L 950 1363 
L 950 1869 
L 2694 1869 
Q 2694 2316 2481 2555 
Q 2269 2794 1894 2794 
Q 1472 2794 1239 2506 
Q 1006 2219 1006 1694 
Q 1006 1119 1326 819 
Q 1647 519 2238 519 
Q 2444 519 2644 542 
Q 2844 566 3050 606 
L 3131 25 
Q 2838 -31 2594 -47 
Q 2350 -63 2163 -63 
z
" transform="scale(0.015625)"/>
      <path id="CascadiaCode-Regular-74" d="M 2475 -63 
Q 1722 -63 1386 250 
Q 1050 563 1050 1250 
L 1050 1813 
L 1713 1813 
L 1713 1281 
Q 1713 888 1905 709 
Q 2097 531 2538 531 
Q 2694 531 2869 548 
Q 3044 566 3269 594 
L 3344 13 
Q 3125 -25 2917 -44 
Q 2709 -63 2475 -63 
z
M 1050 1563 
L 1050 4313 
L 1713 4313 
L 1713 1563 
L 1050 1563 
z
M 219 2731 
L 219 3313 
L 3219 3313 
L 3219 2731 
L 219 2731 
z
" transform="scale(0.015625)"/>
      <path id="CascadiaCode-Regular-37" d="M 1366 0 
L 2891 4438 
L 3606 4438 
L 2081 0 
L 1366 0 
z
M 350 2881 
L 350 4344 
L 1019 4344 
L 1019 2881 
L 350 2881 
z
M 350 3844 
L 350 4438 
L 3606 4438 
L 3163 3844 
L 350 3844 
z
" transform="scale(0.015625)"/>
     </defs>
     <use xlink:href="#CascadiaCode-Regular-54"/>
     <use xlink:href="#CascadiaCode-Regular-65" transform="translate(58.59375 0)"/>
     <use xlink:href="#CascadiaCode-Regular-73" transform="translate(117.1875 0)"/>
     <use xlink:href="#CascadiaCode-Regular-74" transform="translate(175.78125 0)"/>
     <use xlink:href="#CascadiaCode-Regular-20" transform="translate(234.375 0)"/>
     <use xlink:href="#CascadiaCode-Regular-6c" transform="translate(292.96875 0)"/>
     <use xlink:href="#CascadiaCode-Regular-6f" transform="translate(351.5625 0)"/>
     <use xlink:href="#CascadiaCode-Regular-73" transform="translate(410.15625 0)"/>
     <use xlink:href="#CascadiaCode-Regular-73" transform="translate(468.75 0)"/>
     <use xlink:href="#CascadiaCode-Regular-3a" transform="translate(527.34375 0)"/>
     <use xlink:href="#CascadiaCode-Regular-20" transform="translate(585.9375 0)"/>
     <use xlink:href="#CascadiaCode-Regular-30" transform="translate(644.53125 0)"/>
     <use xlink:href="#CascadiaCode-Regular-2e" transform="translate(703.125 0)"/>
     <use xlink:href="#CascadiaCode-Regular-30" transform="translate(761.71875 0)"/>
     <use xlink:href="#CascadiaCode-Regular-37" transform="translate(820.3125 0)"/>
    </g>
   </g>
   <g id="text_5">
    <!-- Too simple -->
    <g transform="translate(47.34784 15.83625) scale(0.12 -0.12)">
     <defs>
      <path id="Helvetica-54" d="M 3828 4591 
L 3828 4044 
L 2281 4044 
L 2281 0 
L 1650 0 
L 1650 4044 
L 103 4044 
L 103 4591 
L 3828 4591 
z
" transform="scale(0.015625)"/>
      <path id="Helvetica-6f" d="M 1741 363 
Q 2300 363 2508 786 
Q 2716 1209 2716 1728 
Q 2716 2197 2566 2491 
Q 2328 2953 1747 2953 
Q 1231 2953 997 2559 
Q 763 2166 763 1609 
Q 763 1075 997 719 
Q 1231 363 1741 363 
z
M 1763 3444 
Q 2409 3444 2856 3012 
Q 3303 2581 3303 1744 
Q 3303 934 2909 406 
Q 2516 -122 1688 -122 
Q 997 -122 590 345 
Q 184 813 184 1600 
Q 184 2444 612 2944 
Q 1041 3444 1763 3444 
z
M 1744 3428 
L 1744 3428 
z
" transform="scale(0.015625)"/>
      <path id="Helvetica-20" transform="scale(0.015625)"/>
      <path id="Helvetica-73" d="M 747 1050 
Q 772 769 888 619 
Q 1100 347 1625 347 
Q 1938 347 2175 483 
Q 2413 619 2413 903 
Q 2413 1119 2222 1231 
Q 2100 1300 1741 1391 
L 1294 1503 
Q 866 1609 663 1741 
Q 300 1969 300 2372 
Q 300 2847 642 3140 
Q 984 3434 1563 3434 
Q 2319 3434 2653 2991 
Q 2863 2709 2856 2384 
L 2325 2384 
Q 2309 2575 2191 2731 
Q 1997 2953 1519 2953 
Q 1200 2953 1036 2831 
Q 872 2709 872 2509 
Q 872 2291 1088 2159 
Q 1213 2081 1456 2022 
L 1828 1931 
Q 2434 1784 2641 1647 
Q 2969 1431 2969 969 
Q 2969 522 2630 197 
Q 2291 -128 1597 -128 
Q 850 -128 539 211 
Q 228 550 206 1050 
L 747 1050 
z
M 1578 3428 
L 1578 3428 
z
" transform="scale(0.015625)"/>
      <path id="Helvetica-69" d="M 413 3331 
L 984 3331 
L 984 0 
L 413 0 
L 413 3331 
z
M 413 4591 
L 984 4591 
L 984 3953 
L 413 3953 
L 413 4591 
z
" transform="scale(0.015625)"/>
      <path id="Helvetica-6d" d="M 413 3347 
L 969 3347 
L 969 2872 
Q 1169 3119 1331 3231 
Q 1609 3422 1963 3422 
Q 2363 3422 2606 3225 
Q 2744 3113 2856 2894 
Q 3044 3163 3297 3292 
Q 3550 3422 3866 3422 
Q 4541 3422 4784 2934 
Q 4916 2672 4916 2228 
L 4916 0 
L 4331 0 
L 4331 2325 
Q 4331 2659 4164 2784 
Q 3997 2909 3756 2909 
Q 3425 2909 3186 2687 
Q 2947 2466 2947 1947 
L 2947 0 
L 2375 0 
L 2375 2184 
Q 2375 2525 2294 2681 
Q 2166 2916 1816 2916 
Q 1497 2916 1236 2669 
Q 975 2422 975 1775 
L 975 0 
L 413 0 
L 413 3347 
z
" transform="scale(0.015625)"/>
      <path id="Helvetica-70" d="M 1825 378 
Q 2219 378 2480 708 
Q 2741 1038 2741 1694 
Q 2741 2094 2625 2381 
Q 2406 2934 1825 2934 
Q 1241 2934 1025 2350 
Q 909 2038 909 1556 
Q 909 1169 1025 897 
Q 1244 378 1825 378 
z
M 369 3331 
L 916 3331 
L 916 2888 
Q 1084 3116 1284 3241 
Q 1569 3428 1953 3428 
Q 2522 3428 2919 2992 
Q 3316 2556 3316 1747 
Q 3316 653 2744 184 
Q 2381 -113 1900 -113 
Q 1522 -113 1266 53 
Q 1116 147 931 375 
L 931 -1334 
L 369 -1334 
L 369 3331 
z
" transform="scale(0.015625)"/>
      <path id="Helvetica-6c" d="M 428 4591 
L 991 4591 
L 991 0 
L 428 0 
L 428 4591 
z
" transform="scale(0.015625)"/>
      <path id="Helvetica-65" d="M 1806 3422 
Q 2163 3422 2497 3255 
Q 2831 3088 3006 2822 
Q 3175 2569 3231 2231 
Q 3281 2000 3281 1494 
L 828 1494 
Q 844 984 1069 676 
Q 1294 369 1766 369 
Q 2206 369 2469 659 
Q 2619 828 2681 1050 
L 3234 1050 
Q 3213 866 3089 639 
Q 2966 413 2813 269 
Q 2556 19 2178 -69 
Q 1975 -119 1719 -119 
Q 1094 -119 659 336 
Q 225 791 225 1609 
Q 225 2416 662 2919 
Q 1100 3422 1806 3422 
z
M 2703 1941 
Q 2669 2306 2544 2525 
Q 2313 2931 1772 2931 
Q 1384 2931 1121 2651 
Q 859 2372 844 1941 
L 2703 1941 
z
M 1753 3428 
L 1753 3428 
z
" transform="scale(0.015625)"/>
     </defs>
     <use xlink:href="#Helvetica-54"/>
     <use xlink:href="#Helvetica-6f" transform="translate(61.083984 0)"/>
     <use xlink:href="#Helvetica-6f" transform="translate(116.699219 0)"/>
     <use xlink:href="#Helvetica-20" transform="translate(172.314453 0)"/>
     <use xlink:href="#Helvetica-73" transform="translate(200.097656 0)"/>
     <use xlink:href="#Helvetica-69" transform="translate(250.097656 0)"/>
     <use xlink:href="#Helvetica-6d" transform="translate(272.314453 0)"/>
     <use xlink:href="#Helvetica-70" transform="translate(355.615234 0)"/>
     <use xlink:href="#Helvetica-6c" transform="translate(411.230469 0)"/>
     <use xlink:href="#Helvetica-65" transform="translate(433.447266 0)"/>
    </g>
   </g>
  </g>
  <g id="axes_2">
   <g id="patch_7">
    <path d="M 158.316636 132.71625 
L 270.780441 132.71625 
L 270.780441 21.83625 
L 158.316636 21.83625 
z
" style="fill: #ffffff"/>
   </g>
   <g id="PathCollection_3">
    <g clip-path="url(#p828b8d1562)">
     <use xlink:href="#m6fd509c2ff" x="184.152915" y="91.949199" style="fill: #1f77b4; stroke: #1f77b4"/>
     <use xlink:href="#m6fd509c2ff" x="173.099962" y="113.410883" style="fill: #1f77b4; stroke: #1f77b4"/>
     <use xlink:href="#m6fd509c2ff" x="260.141973" y="40.892058" style="fill: #1f77b4; stroke: #1f77b4"/>
     <use xlink:href="#m6fd509c2ff" x="214.548538" y="72.321418" style="fill: #1f77b4; stroke: #1f77b4"/>
     <use xlink:href="#m6fd509c2ff" x="171.718342" y="104.96645" style="fill: #1f77b4; stroke: #1f77b4"/>
     <use xlink:href="#m6fd509c2ff" x="213.166919" y="72.037067" style="fill: #1f77b4; stroke: #1f77b4"/>
     <use xlink:href="#m6fd509c2ff" x="250.470638" y="84.525998" style="fill: #1f77b4; stroke: #1f77b4"/>
     <use xlink:href="#m6fd509c2ff" x="200.732346" y="87.53751" style="fill: #1f77b4; stroke: #1f77b4"/>
     <use xlink:href="#m6fd509c2ff" x="228.364731" y="75.656263" style="fill: #1f77b4; stroke: #1f77b4"/>
     <use xlink:href="#m6fd509c2ff" x="244.944161" y="77.577036" style="fill: #1f77b4; stroke: #1f77b4"/>
     <use xlink:href="#m6fd509c2ff" x="209.022061" y="104.930746" style="fill: #1f77b4; stroke: #1f77b4"/>
     <use xlink:href="#m6fd509c2ff" x="258.760353" y="51.013389" style="fill: #1f77b4; stroke: #1f77b4"/>
     <use xlink:href="#m6fd509c2ff" x="243.562542" y="81.75346" style="fill: #1f77b4; stroke: #1f77b4"/>
     <use xlink:href="#m6fd509c2ff" x="197.969108" y="101.227865" style="fill: #1f77b4; stroke: #1f77b4"/>
     <use xlink:href="#m6fd509c2ff" x="192.442631" y="82.065699" style="fill: #1f77b4; stroke: #1f77b4"/>
     <use xlink:href="#m6fd509c2ff" x="203.495585" y="70.10855" style="fill: #1f77b4; stroke: #1f77b4"/>
     <use xlink:href="#m6fd509c2ff" x="254.615496" y="76.667833" style="fill: #1f77b4; stroke: #1f77b4"/>
     <use xlink:href="#m6fd509c2ff" x="185.534535" y="78.685457" style="fill: #1f77b4; stroke: #1f77b4"/>
     <use xlink:href="#m6fd509c2ff" x="232.509588" y="91.552511" style="fill: #1f77b4; stroke: #1f77b4"/>
     <use xlink:href="#m6fd509c2ff" x="257.378734" y="63.825122" style="fill: #1f77b4; stroke: #1f77b4"/>
     <use xlink:href="#m6fd509c2ff" x="193.82425" y="79.182658" style="fill: #1f77b4; stroke: #1f77b4"/>
     <use xlink:href="#m6fd509c2ff" x="178.626439" y="87.484074" style="fill: #1f77b4; stroke: #1f77b4"/>
     <use xlink:href="#m6fd509c2ff" x="225.601492" y="88.576672" style="fill: #1f77b4; stroke: #1f77b4"/>
     <use xlink:href="#m6fd509c2ff" x="233.891207" y="77.88955" style="fill: #1f77b4; stroke: #1f77b4"/>
     <use xlink:href="#m6fd509c2ff" x="168.955104" y="101.78891" style="fill: #1f77b4; stroke: #1f77b4"/>
     <use xlink:href="#m6fd509c2ff" x="207.640442" y="93.817386" style="fill: #1f77b4; stroke: #1f77b4"/>
     <use xlink:href="#m6fd509c2ff" x="182.771296" y="92.355632" style="fill: #1f77b4; stroke: #1f77b4"/>
     <use xlink:href="#m6fd509c2ff" x="224.219873" y="89.479041" style="fill: #1f77b4; stroke: #1f77b4"/>
     <use xlink:href="#m6fd509c2ff" x="251.852257" y="62.936092" style="fill: #1f77b4; stroke: #1f77b4"/>
     <use xlink:href="#m6fd509c2ff" x="253.233877" y="66.567979" style="fill: #1f77b4; stroke: #1f77b4"/>
     <use xlink:href="#m6fd509c2ff" x="199.350727" y="85.489963" style="fill: #1f77b4; stroke: #1f77b4"/>
     <use xlink:href="#m6fd509c2ff" x="242.180923" y="73.448318" style="fill: #1f77b4; stroke: #1f77b4"/>
     <use xlink:href="#m6fd509c2ff" x="206.258823" y="80.966192" style="fill: #1f77b4; stroke: #1f77b4"/>
     <use xlink:href="#m6fd509c2ff" x="262.905211" y="29.695101" style="fill: #1f77b4; stroke: #1f77b4"/>
     <use xlink:href="#m6fd509c2ff" x="174.481581" y="110.28365" style="fill: #1f77b4; stroke: #1f77b4"/>
     <use xlink:href="#m6fd509c2ff" x="218.693396" y="95.307666" style="fill: #1f77b4; stroke: #1f77b4"/>
     <use xlink:href="#m6fd509c2ff" x="229.74635" y="99.771722" style="fill: #1f77b4; stroke: #1f77b4"/>
     <use xlink:href="#m6fd509c2ff" x="181.389677" y="97.321952" style="fill: #1f77b4; stroke: #1f77b4"/>
     <use xlink:href="#m6fd509c2ff" x="222.838254" y="64.451844" style="fill: #1f77b4; stroke: #1f77b4"/>
     <use xlink:href="#m6fd509c2ff" x="210.403681" y="88.198825" style="fill: #1f77b4; stroke: #1f77b4"/>
     <use xlink:href="#m6fd509c2ff" x="255.997115" y="52.634169" style="fill: #1f77b4; stroke: #1f77b4"/>
     <use xlink:href="#m6fd509c2ff" x="167.573485" y="101.369974" style="fill: #1f77b4; stroke: #1f77b4"/>
     <use xlink:href="#m6fd509c2ff" x="166.191866" y="117.878143" style="fill: #1f77b4; stroke: #1f77b4"/>
     <use xlink:href="#m6fd509c2ff" x="196.587488" y="63.625849" style="fill: #1f77b4; stroke: #1f77b4"/>
     <use xlink:href="#m6fd509c2ff" x="204.877204" y="83.37651" style="fill: #1f77b4; stroke: #1f77b4"/>
     <use xlink:href="#m6fd509c2ff" x="246.32578" y="79.210598" style="fill: #1f77b4; stroke: #1f77b4"/>
     <use xlink:href="#m6fd509c2ff" x="240.799304" y="77.012232" style="fill: #1f77b4; stroke: #1f77b4"/>
     <use xlink:href="#m6fd509c2ff" x="221.456634" y="101.933252" style="fill: #1f77b4; stroke: #1f77b4"/>
     <use xlink:href="#m6fd509c2ff" x="226.983111" y="96.687366" style="fill: #1f77b4; stroke: #1f77b4"/>
     <use xlink:href="#m6fd509c2ff" x="189.679392" y="99.232546" style="fill: #1f77b4; stroke: #1f77b4"/>
     <use xlink:href="#m6fd509c2ff" x="215.930158" y="88.573541" style="fill: #1f77b4; stroke: #1f77b4"/>
     <use xlink:href="#m6fd509c2ff" x="163.428627" y="117.6988" style="fill: #1f77b4; stroke: #1f77b4"/>
    </g>
   </g>
   <g id="PathCollection_4">
    <g clip-path="url(#p828b8d1562)">
     <use xlink:href="#m6130de29d9" x="211.7853" y="83.024093" style="fill: #1f77b4; fill-opacity: 0.2; stroke: #1f77b4; stroke-opacity: 0.2"/>
     <use xlink:href="#m6130de29d9" x="265.66845" y="29.381083" style="fill: #1f77b4; fill-opacity: 0.2; stroke: #1f77b4; stroke-opacity: 0.2"/>
     <use xlink:href="#m6130de29d9" x="180.008058" y="92.602721" style="fill: #1f77b4; fill-opacity: 0.2; stroke: #1f77b4; stroke-opacity: 0.2"/>
     <use xlink:href="#m6130de29d9" x="170.336723" y="127.67625" style="fill: #1f77b4; fill-opacity: 0.2; stroke: #1f77b4; stroke-opacity: 0.2"/>
     <use xlink:href="#m6130de29d9" x="239.417684" y="74.349512" style="fill: #1f77b4; fill-opacity: 0.2; stroke: #1f77b4; stroke-opacity: 0.2"/>
     <use xlink:href="#m6130de29d9" x="177.244819" y="103.006264" style="fill: #1f77b4; fill-opacity: 0.2; stroke: #1f77b4; stroke-opacity: 0.2"/>
     <use xlink:href="#m6130de29d9" x="231.127969" y="85.045653" style="fill: #1f77b4; fill-opacity: 0.2; stroke: #1f77b4; stroke-opacity: 0.2"/>
     <use xlink:href="#m6130de29d9" x="217.311777" y="87.697192" style="fill: #1f77b4; fill-opacity: 0.2; stroke: #1f77b4; stroke-opacity: 0.2"/>
     <use xlink:href="#m6130de29d9" x="235.272827" y="86.430881" style="fill: #1f77b4; fill-opacity: 0.2; stroke: #1f77b4; stroke-opacity: 0.2"/>
     <use xlink:href="#m6130de29d9" x="261.523592" y="43.629511" style="fill: #1f77b4; fill-opacity: 0.2; stroke: #1f77b4; stroke-opacity: 0.2"/>
     <use xlink:href="#m6130de29d9" x="236.654446" y="92.551534" style="fill: #1f77b4; fill-opacity: 0.2; stroke: #1f77b4; stroke-opacity: 0.2"/>
     <use xlink:href="#m6130de29d9" x="191.061012" y="115.674538" style="fill: #1f77b4; fill-opacity: 0.2; stroke: #1f77b4; stroke-opacity: 0.2"/>
     <use xlink:href="#m6130de29d9" x="186.916154" y="94.785805" style="fill: #1f77b4; fill-opacity: 0.2; stroke: #1f77b4; stroke-opacity: 0.2"/>
     <use xlink:href="#m6130de29d9" x="164.810246" y="127.609395" style="fill: #1f77b4; fill-opacity: 0.2; stroke: #1f77b4; stroke-opacity: 0.2"/>
     <use xlink:href="#m6130de29d9" x="247.7074" y="74.339166" style="fill: #1f77b4; fill-opacity: 0.2; stroke: #1f77b4; stroke-opacity: 0.2"/>
     <use xlink:href="#m6130de29d9" x="202.113965" y="69.67914" style="fill: #1f77b4; fill-opacity: 0.2; stroke: #1f77b4; stroke-opacity: 0.2"/>
     <use xlink:href="#m6130de29d9" x="249.089019" y="77.159093" style="fill: #1f77b4; fill-opacity: 0.2; stroke: #1f77b4; stroke-opacity: 0.2"/>
     <use xlink:href="#m6130de29d9" x="264.28683" y="50.153298" style="fill: #1f77b4; fill-opacity: 0.2; stroke: #1f77b4; stroke-opacity: 0.2"/>
     <use xlink:href="#m6130de29d9" x="220.075015" y="99.068176" style="fill: #1f77b4; fill-opacity: 0.2; stroke: #1f77b4; stroke-opacity: 0.2"/>
     <use xlink:href="#m6130de29d9" x="195.205869" y="94.971704" style="fill: #1f77b4; fill-opacity: 0.2; stroke: #1f77b4; stroke-opacity: 0.2"/>
     <use xlink:href="#m6130de29d9" x="238.036065" y="79.944375" style="fill: #1f77b4; fill-opacity: 0.2; stroke: #1f77b4; stroke-opacity: 0.2"/>
     <use xlink:href="#m6130de29d9" x="188.297773" y="88.335955" style="fill: #1f77b4; fill-opacity: 0.2; stroke: #1f77b4; stroke-opacity: 0.2"/>
     <use xlink:href="#m6130de29d9" x="175.8632" y="102.570926" style="fill: #1f77b4; fill-opacity: 0.2; stroke: #1f77b4; stroke-opacity: 0.2"/>
    </g>
   </g>
   <g id="matplotlib.axis_3">
    <g id="text_6">
     <!-- $x$ -->
     <g transform="translate(211.548538 143.889687) scale(0.1 -0.1)">
      <use xlink:href="#DejaVuSans-Oblique-78" transform="translate(0 0.3125)"/>
     </g>
    </g>
   </g>
   <g id="matplotlib.axis_4"/>
   <g id="line2d_2">
    <path d="M 163.428627 116.131917 
L 164.461353 114.827075 
L 165.494078 113.520851 
L 166.526804 112.214358 
L 167.559529 110.907319 
L 168.592255 109.61286 
L 169.62498 108.324401 
L 170.657706 107.039026 
L 171.690431 105.753652 
L 172.723156 104.468277 
L 173.755882 103.180369 
L 174.788607 101.84803 
L 175.821333 100.471124 
L 176.854058 99.094218 
L 177.886784 97.717312 
L 178.919509 96.373062 
L 179.952235 95.031234 
L 180.98496 93.693568 
L 182.017686 92.357597 
L 183.050411 91.02216 
L 184.083137 89.686723 
L 185.115862 88.351273 
L 186.148588 87.536 
L 187.181313 87.05323 
L 188.214039 86.57046 
L 189.246764 86.08769 
L 190.27949 85.597244 
L 191.312215 85.101059 
L 192.344941 84.604874 
L 193.377666 84.108689 
L 194.410392 83.612504 
L 195.443117 83.123133 
L 196.475842 82.943105 
L 197.508568 83.1093 
L 198.541293 83.279136 
L 199.574019 83.462597 
L 200.606744 83.649103 
L 201.63947 83.826346 
L 202.672195 84.001648 
L 203.704921 84.1862 
L 204.737646 84.39731 
L 205.770372 84.608401 
L 206.803097 84.819449 
L 207.835823 85.030427 
L 208.868548 85.241103 
L 209.901274 85.434081 
L 210.933999 85.624567 
L 211.966725 85.815053 
L 212.99945 86.005539 
L 214.032176 86.199808 
L 215.064901 86.399032 
L 216.097627 86.598257 
L 217.130352 86.797481 
L 218.163078 86.996706 
L 219.195803 87.195 
L 220.228529 87.391298 
L 221.261254 87.526243 
L 222.293979 87.564794 
L 223.326705 87.5994 
L 224.35943 87.634006 
L 225.392156 87.668611 
L 226.424881 87.703217 
L 227.457607 87.726567 
L 228.490332 87.742093 
L 229.523058 87.756042 
L 230.555783 87.425092 
L 231.588509 86.978466 
L 232.621234 86.512156 
L 233.65396 86.045847 
L 234.686685 85.579538 
L 235.719411 85.083116 
L 236.752136 84.548604 
L 237.784862 83.963947 
L 238.817587 83.300742 
L 239.850313 82.576568 
L 240.883038 81.769606 
L 241.915764 80.948016 
L 242.948489 80.126425 
L 243.981215 79.304835 
L 245.01394 78.483244 
L 246.046666 77.661654 
L 247.079391 76.840063 
L 248.112116 76.033933 
L 249.144842 75.228502 
L 250.177567 74.37038 
L 251.210293 72.540062 
L 252.243018 70.120672 
L 253.275744 67.700877 
L 254.308469 65.270977 
L 255.341195 62.194096 
L 256.37392 58.491188 
L 257.406646 54.788279 
L 258.439371 51.084727 
L 259.472097 47.380984 
L 260.504822 43.677242 
L 261.537548 39.9735 
L 262.570273 36.269758 
L 263.602999 32.697417 
L 264.635724 29.606615 
L 265.66845 26.87625 
" clip-path="url(#p828b8d1562)" style="fill: none; stroke: #ff7f0e; stroke-linecap: square"/>
   </g>
   <g id="patch_8">
    <path d="M 158.316636 132.71625 
L 158.316636 21.83625 
" style="fill: none; stroke: #000000; stroke-width: 0.8; stroke-linejoin: miter; stroke-linecap: square"/>
   </g>
   <g id="patch_9">
    <path d="M 270.780441 132.71625 
L 270.780441 21.83625 
" style="fill: none; stroke: #000000; stroke-width: 0.8; stroke-linejoin: miter; stroke-linecap: square"/>
   </g>
   <g id="patch_10">
    <path d="M 158.316636 132.71625 
L 270.780441 132.71625 
" style="fill: none; stroke: #000000; stroke-width: 0.8; stroke-linejoin: miter; stroke-linecap: square"/>
   </g>
   <g id="patch_11">
    <path d="M 158.316636 21.83625 
L 270.780441 21.83625 
" style="fill: none; stroke: #000000; stroke-width: 0.8; stroke-linejoin: miter; stroke-linecap: square"/>
   </g>
   <g id="text_7">
    <!-- Train loss: 0.03 -->
    <g transform="translate(182.017288 34.517015) scale(0.0694 -0.0694)">
     <defs>
      <path id="CascadiaCode-Regular-33" d="M 1606 -63 
Q 1263 -63 977 -22 
Q 691 19 469 88 
L 547 684 
Q 738 631 977 572 
Q 1216 513 1581 513 
Q 2069 513 2337 706 
Q 2606 900 2606 1250 
Q 2606 1500 2451 1675 
Q 2297 1850 2003 1940 
Q 1709 2031 1288 2031 
L 1188 2031 
L 1113 2438 
L 2069 2363 
Q 2600 2322 2931 2017 
Q 3263 1713 3263 1188 
Q 3263 594 2830 265 
Q 2397 -63 1606 -63 
z
M 1188 2031 
L 1113 2438 
Q 1606 2503 1914 2631 
Q 2222 2759 2367 2942 
Q 2513 3125 2513 3350 
Q 2513 3622 2336 3773 
Q 2159 3925 1831 3925 
Q 1594 3925 1326 3806 
Q 1059 3688 822 3450 
L 391 3878 
Q 678 4203 1056 4351 
Q 1434 4500 1900 4500 
Q 2506 4500 2837 4242 
Q 3169 3984 3169 3506 
Q 3169 3106 2912 2811 
Q 2656 2516 2244 2406 
L 2244 2031 
L 1188 2031 
z
" transform="scale(0.015625)"/>
     </defs>
     <use xlink:href="#CascadiaCode-Regular-54"/>
     <use xlink:href="#CascadiaCode-Regular-72" transform="translate(58.59375 0)"/>
     <use xlink:href="#CascadiaCode-Regular-61" transform="translate(117.1875 0)"/>
     <use xlink:href="#CascadiaCode-Regular-69" transform="translate(175.78125 0)"/>
     <use xlink:href="#CascadiaCode-Regular-6e" transform="translate(234.375 0)"/>
     <use xlink:href="#CascadiaCode-Regular-20" transform="translate(292.96875 0)"/>
     <use xlink:href="#CascadiaCode-Regular-6c" transform="translate(351.5625 0)"/>
     <use xlink:href="#CascadiaCode-Regular-6f" transform="translate(410.15625 0)"/>
     <use xlink:href="#CascadiaCode-Regular-73" transform="translate(468.75 0)"/>
     <use xlink:href="#CascadiaCode-Regular-73" transform="translate(527.34375 0)"/>
     <use xlink:href="#CascadiaCode-Regular-3a" transform="translate(585.9375 0)"/>
     <use xlink:href="#CascadiaCode-Regular-20" transform="translate(644.53125 0)"/>
     <use xlink:href="#CascadiaCode-Regular-30" transform="translate(703.125 0)"/>
     <use xlink:href="#CascadiaCode-Regular-2e" transform="translate(761.71875 0)"/>
     <use xlink:href="#CascadiaCode-Regular-30" transform="translate(820.3125 0)"/>
     <use xlink:href="#CascadiaCode-Regular-33" transform="translate(878.90625 0)"/>
    </g>
   </g>
   <g id="text_8">
    <!-- Test loss: 0.04 -->
    <g transform="translate(184.050492 42.185002) scale(0.0694 -0.0694)">
     <defs>
      <path id="CascadiaCode-Regular-34" d="M 231 994 
L 856 4188 
L 1531 4188 
L 900 994 
L 231 994 
z
M 231 994 
L 669 1575 
L 2494 1575 
L 2494 994 
L 231 994 
z
M 3019 994 
L 3019 1575 
L 3500 1575 
L 3500 994 
L 3019 994 
z
M 2431 0 
L 2431 4438 
L 3081 4438 
L 3081 0 
L 2431 0 
z
" transform="scale(0.015625)"/>
     </defs>
     <use xlink:href="#CascadiaCode-Regular-54"/>
     <use xlink:href="#CascadiaCode-Regular-65" transform="translate(58.59375 0)"/>
     <use xlink:href="#CascadiaCode-Regular-73" transform="translate(117.1875 0)"/>
     <use xlink:href="#CascadiaCode-Regular-74" transform="translate(175.78125 0)"/>
     <use xlink:href="#CascadiaCode-Regular-20" transform="translate(234.375 0)"/>
     <use xlink:href="#CascadiaCode-Regular-6c" transform="translate(292.96875 0)"/>
     <use xlink:href="#CascadiaCode-Regular-6f" transform="translate(351.5625 0)"/>
     <use xlink:href="#CascadiaCode-Regular-73" transform="translate(410.15625 0)"/>
     <use xlink:href="#CascadiaCode-Regular-73" transform="translate(468.75 0)"/>
     <use xlink:href="#CascadiaCode-Regular-3a" transform="translate(527.34375 0)"/>
     <use xlink:href="#CascadiaCode-Regular-20" transform="translate(585.9375 0)"/>
     <use xlink:href="#CascadiaCode-Regular-30" transform="translate(644.53125 0)"/>
     <use xlink:href="#CascadiaCode-Regular-2e" transform="translate(703.125 0)"/>
     <use xlink:href="#CascadiaCode-Regular-30" transform="translate(761.71875 0)"/>
     <use xlink:href="#CascadiaCode-Regular-34" transform="translate(820.3125 0)"/>
    </g>
   </g>
   <g id="text_9">
    <!-- Just right -->
    <g transform="translate(190.207288 15.83625) scale(0.12 -0.12)">
     <defs>
      <path id="Helvetica-4a" d="M 2741 1369 
Q 2741 788 2569 466 
Q 2250 -122 1356 -122 
Q 841 -122 475 158 
Q 109 438 109 1153 
L 109 1481 
L 694 1481 
L 694 1153 
Q 694 778 861 589 
Q 1028 400 1381 400 
Q 1878 400 2031 741 
Q 2125 950 2125 1531 
L 2125 4591 
L 2741 4591 
L 2741 1369 
z
" transform="scale(0.015625)"/>
      <path id="Helvetica-75" d="M 975 3347 
L 975 1125 
Q 975 869 1056 706 
Q 1206 406 1616 406 
Q 2203 406 2416 931 
Q 2531 1213 2531 1703 
L 2531 3347 
L 3094 3347 
L 3094 0 
L 2563 0 
L 2569 494 
Q 2459 303 2297 172 
Q 1975 -91 1516 -91 
Q 800 -91 541 388 
Q 400 644 400 1072 
L 400 3347 
L 975 3347 
z
M 1747 3428 
L 1747 3428 
z
" transform="scale(0.015625)"/>
      <path id="Helvetica-74" d="M 525 4281 
L 1094 4281 
L 1094 3347 
L 1628 3347 
L 1628 2888 
L 1094 2888 
L 1094 703 
Q 1094 528 1213 469 
Q 1278 434 1431 434 
Q 1472 434 1519 436 
Q 1566 438 1628 444 
L 1628 0 
Q 1531 -28 1426 -40 
Q 1322 -53 1200 -53 
Q 806 -53 665 148 
Q 525 350 525 672 
L 525 2888 
L 72 2888 
L 72 3347 
L 525 3347 
L 525 4281 
z
" transform="scale(0.015625)"/>
      <path id="Helvetica-72" d="M 428 3347 
L 963 3347 
L 963 2769 
Q 1028 2938 1284 3180 
Q 1541 3422 1875 3422 
Q 1891 3422 1928 3419 
Q 1966 3416 2056 3406 
L 2056 2813 
Q 2006 2822 1964 2825 
Q 1922 2828 1872 2828 
Q 1447 2828 1219 2554 
Q 991 2281 991 1925 
L 991 0 
L 428 0 
L 428 3347 
z
" transform="scale(0.015625)"/>
      <path id="Helvetica-67" d="M 1594 3406 
Q 1988 3406 2281 3213 
Q 2441 3103 2606 2894 
L 2606 3316 
L 3125 3316 
L 3125 272 
Q 3125 -366 2938 -734 
Q 2588 -1416 1616 -1416 
Q 1075 -1416 706 -1173 
Q 338 -931 294 -416 
L 866 -416 
Q 906 -641 1028 -763 
Q 1219 -950 1628 -950 
Q 2275 -950 2475 -494 
Q 2594 -225 2584 466 
Q 2416 209 2178 84 
Q 1941 -41 1550 -41 
Q 1006 -41 598 345 
Q 191 731 191 1622 
Q 191 2463 602 2934 
Q 1013 3406 1594 3406 
z
M 2606 1688 
Q 2606 2309 2350 2609 
Q 2094 2909 1697 2909 
Q 1103 2909 884 2353 
Q 769 2056 769 1575 
Q 769 1009 998 714 
Q 1228 419 1616 419 
Q 2222 419 2469 966 
Q 2606 1275 2606 1688 
z
M 1659 3428 
L 1659 3428 
z
" transform="scale(0.015625)"/>
      <path id="Helvetica-68" d="M 413 4606 
L 975 4606 
L 975 2894 
Q 1175 3147 1334 3250 
Q 1606 3428 2013 3428 
Q 2741 3428 3000 2919 
Q 3141 2641 3141 2147 
L 3141 0 
L 2563 0 
L 2563 2109 
Q 2563 2478 2469 2650 
Q 2316 2925 1894 2925 
Q 1544 2925 1259 2684 
Q 975 2444 975 1775 
L 975 0 
L 413 0 
L 413 4606 
z
" transform="scale(0.015625)"/>
     </defs>
     <use xlink:href="#Helvetica-4a"/>
     <use xlink:href="#Helvetica-75" transform="translate(50 0)"/>
     <use xlink:href="#Helvetica-73" transform="translate(105.615234 0)"/>
     <use xlink:href="#Helvetica-74" transform="translate(155.615234 0)"/>
     <use xlink:href="#Helvetica-20" transform="translate(183.398438 0)"/>
     <use xlink:href="#Helvetica-72" transform="translate(211.181641 0)"/>
     <use xlink:href="#Helvetica-69" transform="translate(244.482422 0)"/>
     <use xlink:href="#Helvetica-67" transform="translate(266.699219 0)"/>
     <use xlink:href="#Helvetica-68" transform="translate(322.314453 0)"/>
     <use xlink:href="#Helvetica-74" transform="translate(377.929688 0)"/>
    </g>
   </g>
  </g>
  <g id="axes_3">
   <g id="patch_12">
    <path d="M 296.17546 132.71625 
L 408.639264 132.71625 
L 408.639264 21.83625 
L 296.17546 21.83625 
z
" style="fill: #ffffff"/>
   </g>
   <g id="PathCollection_5">
    <g clip-path="url(#p4659c3a6cd)">
     <use xlink:href="#m6fd509c2ff" x="322.011739" y="91.949199" style="fill: #1f77b4; stroke: #1f77b4"/>
     <use xlink:href="#m6fd509c2ff" x="310.958785" y="113.410883" style="fill: #1f77b4; stroke: #1f77b4"/>
     <use xlink:href="#m6fd509c2ff" x="398.000796" y="40.892058" style="fill: #1f77b4; stroke: #1f77b4"/>
     <use xlink:href="#m6fd509c2ff" x="352.407362" y="72.321418" style="fill: #1f77b4; stroke: #1f77b4"/>
     <use xlink:href="#m6fd509c2ff" x="309.577166" y="104.96645" style="fill: #1f77b4; stroke: #1f77b4"/>
     <use xlink:href="#m6fd509c2ff" x="351.025743" y="72.037067" style="fill: #1f77b4; stroke: #1f77b4"/>
     <use xlink:href="#m6fd509c2ff" x="388.329462" y="84.525998" style="fill: #1f77b4; stroke: #1f77b4"/>
     <use xlink:href="#m6fd509c2ff" x="338.59117" y="87.53751" style="fill: #1f77b4; stroke: #1f77b4"/>
     <use xlink:href="#m6fd509c2ff" x="366.223554" y="75.656263" style="fill: #1f77b4; stroke: #1f77b4"/>
     <use xlink:href="#m6fd509c2ff" x="382.802985" y="77.577036" style="fill: #1f77b4; stroke: #1f77b4"/>
     <use xlink:href="#m6fd509c2ff" x="346.880885" y="104.930746" style="fill: #1f77b4; stroke: #1f77b4"/>
     <use xlink:href="#m6fd509c2ff" x="396.619177" y="51.013389" style="fill: #1f77b4; stroke: #1f77b4"/>
     <use xlink:href="#m6fd509c2ff" x="381.421366" y="81.75346" style="fill: #1f77b4; stroke: #1f77b4"/>
     <use xlink:href="#m6fd509c2ff" x="335.827931" y="101.227865" style="fill: #1f77b4; stroke: #1f77b4"/>
     <use xlink:href="#m6fd509c2ff" x="330.301454" y="82.065699" style="fill: #1f77b4; stroke: #1f77b4"/>
     <use xlink:href="#m6fd509c2ff" x="341.354408" y="70.10855" style="fill: #1f77b4; stroke: #1f77b4"/>
     <use xlink:href="#m6fd509c2ff" x="392.474319" y="76.667833" style="fill: #1f77b4; stroke: #1f77b4"/>
     <use xlink:href="#m6fd509c2ff" x="323.393358" y="78.685457" style="fill: #1f77b4; stroke: #1f77b4"/>
     <use xlink:href="#m6fd509c2ff" x="370.368412" y="91.552511" style="fill: #1f77b4; stroke: #1f77b4"/>
     <use xlink:href="#m6fd509c2ff" x="395.237558" y="63.825122" style="fill: #1f77b4; stroke: #1f77b4"/>
     <use xlink:href="#m6fd509c2ff" x="331.683074" y="79.182658" style="fill: #1f77b4; stroke: #1f77b4"/>
     <use xlink:href="#m6fd509c2ff" x="316.485262" y="87.484074" style="fill: #1f77b4; stroke: #1f77b4"/>
     <use xlink:href="#m6fd509c2ff" x="363.460316" y="88.576672" style="fill: #1f77b4; stroke: #1f77b4"/>
     <use xlink:href="#m6fd509c2ff" x="371.750031" y="77.88955" style="fill: #1f77b4; stroke: #1f77b4"/>
     <use xlink:href="#m6fd509c2ff" x="306.813928" y="101.78891" style="fill: #1f77b4; stroke: #1f77b4"/>
     <use xlink:href="#m6fd509c2ff" x="345.499266" y="93.817386" style="fill: #1f77b4; stroke: #1f77b4"/>
     <use xlink:href="#m6fd509c2ff" x="320.63012" y="92.355632" style="fill: #1f77b4; stroke: #1f77b4"/>
     <use xlink:href="#m6fd509c2ff" x="362.078696" y="89.479041" style="fill: #1f77b4; stroke: #1f77b4"/>
     <use xlink:href="#m6fd509c2ff" x="389.711081" y="62.936092" style="fill: #1f77b4; stroke: #1f77b4"/>
     <use xlink:href="#m6fd509c2ff" x="391.0927" y="66.567979" style="fill: #1f77b4; stroke: #1f77b4"/>
     <use xlink:href="#m6fd509c2ff" x="337.20955" y="85.489963" style="fill: #1f77b4; stroke: #1f77b4"/>
     <use xlink:href="#m6fd509c2ff" x="380.039746" y="73.448318" style="fill: #1f77b4; stroke: #1f77b4"/>
     <use xlink:href="#m6fd509c2ff" x="344.117647" y="80.966192" style="fill: #1f77b4; stroke: #1f77b4"/>
     <use xlink:href="#m6fd509c2ff" x="400.764035" y="29.695101" style="fill: #1f77b4; stroke: #1f77b4"/>
     <use xlink:href="#m6fd509c2ff" x="312.340404" y="110.28365" style="fill: #1f77b4; stroke: #1f77b4"/>
     <use xlink:href="#m6fd509c2ff" x="356.55222" y="95.307666" style="fill: #1f77b4; stroke: #1f77b4"/>
     <use xlink:href="#m6fd509c2ff" x="367.605173" y="99.771722" style="fill: #1f77b4; stroke: #1f77b4"/>
     <use xlink:href="#m6fd509c2ff" x="319.248501" y="97.321952" style="fill: #1f77b4; stroke: #1f77b4"/>
     <use xlink:href="#m6fd509c2ff" x="360.697077" y="64.451844" style="fill: #1f77b4; stroke: #1f77b4"/>
     <use xlink:href="#m6fd509c2ff" x="348.262504" y="88.198825" style="fill: #1f77b4; stroke: #1f77b4"/>
     <use xlink:href="#m6fd509c2ff" x="393.855939" y="52.634169" style="fill: #1f77b4; stroke: #1f77b4"/>
     <use xlink:href="#m6fd509c2ff" x="305.432308" y="101.369974" style="fill: #1f77b4; stroke: #1f77b4"/>
     <use xlink:href="#m6fd509c2ff" x="304.050689" y="117.878143" style="fill: #1f77b4; stroke: #1f77b4"/>
     <use xlink:href="#m6fd509c2ff" x="334.446312" y="63.625849" style="fill: #1f77b4; stroke: #1f77b4"/>
     <use xlink:href="#m6fd509c2ff" x="342.736027" y="83.37651" style="fill: #1f77b4; stroke: #1f77b4"/>
     <use xlink:href="#m6fd509c2ff" x="384.184604" y="79.210598" style="fill: #1f77b4; stroke: #1f77b4"/>
     <use xlink:href="#m6fd509c2ff" x="378.658127" y="77.012232" style="fill: #1f77b4; stroke: #1f77b4"/>
     <use xlink:href="#m6fd509c2ff" x="359.315458" y="101.933252" style="fill: #1f77b4; stroke: #1f77b4"/>
     <use xlink:href="#m6fd509c2ff" x="364.841935" y="96.687366" style="fill: #1f77b4; stroke: #1f77b4"/>
     <use xlink:href="#m6fd509c2ff" x="327.538216" y="99.232546" style="fill: #1f77b4; stroke: #1f77b4"/>
     <use xlink:href="#m6fd509c2ff" x="353.788981" y="88.573541" style="fill: #1f77b4; stroke: #1f77b4"/>
     <use xlink:href="#m6fd509c2ff" x="301.287451" y="117.6988" style="fill: #1f77b4; stroke: #1f77b4"/>
    </g>
   </g>
   <g id="PathCollection_6">
    <g clip-path="url(#p4659c3a6cd)">
     <use xlink:href="#m6130de29d9" x="349.644123" y="83.024093" style="fill: #1f77b4; fill-opacity: 0.2; stroke: #1f77b4; stroke-opacity: 0.2"/>
     <use xlink:href="#m6130de29d9" x="403.527273" y="29.381083" style="fill: #1f77b4; fill-opacity: 0.2; stroke: #1f77b4; stroke-opacity: 0.2"/>
     <use xlink:href="#m6130de29d9" x="317.866881" y="92.602721" style="fill: #1f77b4; fill-opacity: 0.2; stroke: #1f77b4; stroke-opacity: 0.2"/>
     <use xlink:href="#m6130de29d9" x="308.195547" y="127.67625" style="fill: #1f77b4; fill-opacity: 0.2; stroke: #1f77b4; stroke-opacity: 0.2"/>
     <use xlink:href="#m6130de29d9" x="377.276508" y="74.349512" style="fill: #1f77b4; fill-opacity: 0.2; stroke: #1f77b4; stroke-opacity: 0.2"/>
     <use xlink:href="#m6130de29d9" x="315.103643" y="103.006264" style="fill: #1f77b4; fill-opacity: 0.2; stroke: #1f77b4; stroke-opacity: 0.2"/>
     <use xlink:href="#m6130de29d9" x="368.986793" y="85.045653" style="fill: #1f77b4; fill-opacity: 0.2; stroke: #1f77b4; stroke-opacity: 0.2"/>
     <use xlink:href="#m6130de29d9" x="355.1706" y="87.697192" style="fill: #1f77b4; fill-opacity: 0.2; stroke: #1f77b4; stroke-opacity: 0.2"/>
     <use xlink:href="#m6130de29d9" x="373.13165" y="86.430881" style="fill: #1f77b4; fill-opacity: 0.2; stroke: #1f77b4; stroke-opacity: 0.2"/>
     <use xlink:href="#m6130de29d9" x="399.382415" y="43.629511" style="fill: #1f77b4; fill-opacity: 0.2; stroke: #1f77b4; stroke-opacity: 0.2"/>
     <use xlink:href="#m6130de29d9" x="374.513269" y="92.551534" style="fill: #1f77b4; fill-opacity: 0.2; stroke: #1f77b4; stroke-opacity: 0.2"/>
     <use xlink:href="#m6130de29d9" x="328.919835" y="115.674538" style="fill: #1f77b4; fill-opacity: 0.2; stroke: #1f77b4; stroke-opacity: 0.2"/>
     <use xlink:href="#m6130de29d9" x="324.774977" y="94.785805" style="fill: #1f77b4; fill-opacity: 0.2; stroke: #1f77b4; stroke-opacity: 0.2"/>
     <use xlink:href="#m6130de29d9" x="302.66907" y="127.609395" style="fill: #1f77b4; fill-opacity: 0.2; stroke: #1f77b4; stroke-opacity: 0.2"/>
     <use xlink:href="#m6130de29d9" x="385.566223" y="74.339166" style="fill: #1f77b4; fill-opacity: 0.2; stroke: #1f77b4; stroke-opacity: 0.2"/>
     <use xlink:href="#m6130de29d9" x="339.972789" y="69.67914" style="fill: #1f77b4; fill-opacity: 0.2; stroke: #1f77b4; stroke-opacity: 0.2"/>
     <use xlink:href="#m6130de29d9" x="386.947842" y="77.159093" style="fill: #1f77b4; fill-opacity: 0.2; stroke: #1f77b4; stroke-opacity: 0.2"/>
     <use xlink:href="#m6130de29d9" x="402.145654" y="50.153298" style="fill: #1f77b4; fill-opacity: 0.2; stroke: #1f77b4; stroke-opacity: 0.2"/>
     <use xlink:href="#m6130de29d9" x="357.933839" y="99.068176" style="fill: #1f77b4; fill-opacity: 0.2; stroke: #1f77b4; stroke-opacity: 0.2"/>
     <use xlink:href="#m6130de29d9" x="333.064693" y="94.971704" style="fill: #1f77b4; fill-opacity: 0.2; stroke: #1f77b4; stroke-opacity: 0.2"/>
     <use xlink:href="#m6130de29d9" x="375.894889" y="79.944375" style="fill: #1f77b4; fill-opacity: 0.2; stroke: #1f77b4; stroke-opacity: 0.2"/>
     <use xlink:href="#m6130de29d9" x="326.156597" y="88.335955" style="fill: #1f77b4; fill-opacity: 0.2; stroke: #1f77b4; stroke-opacity: 0.2"/>
     <use xlink:href="#m6130de29d9" x="313.722024" y="102.570926" style="fill: #1f77b4; fill-opacity: 0.2; stroke: #1f77b4; stroke-opacity: 0.2"/>
    </g>
   </g>
   <g id="matplotlib.axis_5">
    <g id="text_10">
     <!-- $x$ -->
     <g transform="translate(349.407362 143.889687) scale(0.1 -0.1)">
      <use xlink:href="#DejaVuSans-Oblique-78" transform="translate(0 0.3125)"/>
     </g>
    </g>
   </g>
   <g id="matplotlib.axis_6"/>
   <g id="line2d_3">
    <path d="M 301.287451 115.49058 
L 302.320176 115.49058 
L 303.352902 115.573078 
L 304.385627 112.659026 
L 305.418353 105.23035 
L 306.451078 102.746596 
L 307.483804 102.230128 
L 308.516529 104.575529 
L 309.549255 106.175522 
L 310.58198 110.147927 
L 311.614705 111.105023 
L 312.647431 109.366546 
L 313.680156 109.016898 
L 314.712882 97.543089 
L 315.745607 96.255975 
L 316.778333 91.305137 
L 317.811058 91.305137 
L 318.843784 95.579402 
L 319.876509 95.758007 
L 320.909235 92.683844 
L 321.94196 91.370567 
L 322.974686 84.536964 
L 324.007411 84.575176 
L 325.040137 86.727666 
L 326.072862 94.227189 
L 327.105588 93.740731 
L 328.138313 93.49321 
L 329.171039 86.192641 
L 330.203764 83.210083 
L 331.23649 79.093292 
L 332.269215 79.153151 
L 333.301941 72.551067 
L 334.334666 76.0783 
L 335.367392 90.832819 
L 336.400117 93.1183 
L 337.432842 86.399708 
L 338.465568 87.365456 
L 339.498293 83.954449 
L 340.531019 77.047087 
L 341.563744 75.554127 
L 342.59647 81.119589 
L 343.629195 82.91104 
L 344.661921 84.616576 
L 345.694646 94.501909 
L 346.727372 100.0533 
L 347.760097 92.10366 
L 348.792823 91.059552 
L 349.825548 77.754373 
L 350.858274 74.718474 
L 351.890999 74.75549 
L 352.923725 77.401326 
L 353.95645 84.253099 
L 354.989176 88.620486 
L 356.021901 93.348876 
L 357.054627 94.928247 
L 358.087352 97.270476 
L 359.120078 92.333575 
L 360.152803 74.549504 
L 361.185528 72.805915 
L 362.218254 87.073191 
L 363.250979 88.565161 
L 364.283705 92.768606 
L 365.31643 91.371456 
L 366.349156 83.984901 
L 367.381881 95.233031 
L 368.414607 96.263638 
L 369.447332 92.512273 
L 370.480058 89.448769 
L 371.512783 83.710325 
L 372.545509 83.710325 
L 373.578234 81.32438 
L 374.61096 78.208233 
L 375.643685 77.141912 
L 376.676411 76.80854 
L 377.709136 76.805414 
L 378.741862 76.818625 
L 379.774587 75.179224 
L 380.807313 79.270696 
L 381.840038 79.953275 
L 382.872764 78.2883 
L 383.905489 78.941725 
L 384.938215 79.307685 
L 385.97094 79.765213 
L 387.003665 78.416767 
L 388.036391 77.784636 
L 389.069116 68.856491 
L 390.101842 65.264888 
L 391.134567 68.265003 
L 392.167293 71.381813 
L 393.200018 58.989232 
L 394.232744 56.751734 
L 395.265469 59.568217 
L 396.298195 54.005928 
L 397.33092 45.433966 
L 398.363646 43.386165 
L 399.396371 36.269487 
L 400.429097 36.269487 
L 401.461822 36.269487 
L 402.494548 36.269487 
L 403.527273 36.269487 
" clip-path="url(#p4659c3a6cd)" style="fill: none; stroke: #ff7f0e; stroke-linecap: square"/>
   </g>
   <g id="patch_13">
    <path d="M 296.17546 132.71625 
L 296.17546 21.83625 
" style="fill: none; stroke: #000000; stroke-width: 0.8; stroke-linejoin: miter; stroke-linecap: square"/>
   </g>
   <g id="patch_14">
    <path d="M 408.639264 132.71625 
L 408.639264 21.83625 
" style="fill: none; stroke: #000000; stroke-width: 0.8; stroke-linejoin: miter; stroke-linecap: square"/>
   </g>
   <g id="patch_15">
    <path d="M 296.17546 132.71625 
L 408.639264 132.71625 
" style="fill: none; stroke: #000000; stroke-width: 0.8; stroke-linejoin: miter; stroke-linecap: square"/>
   </g>
   <g id="patch_16">
    <path d="M 296.17546 21.83625 
L 408.639264 21.83625 
" style="fill: none; stroke: #000000; stroke-width: 0.8; stroke-linejoin: miter; stroke-linecap: square"/>
   </g>
   <g id="text_11">
    <!-- Train loss: 0.01 -->
    <g transform="translate(319.876112 34.517015) scale(0.0694 -0.0694)">
     <defs>
      <path id="CascadiaCode-Regular-31" d="M 1644 0 
L 1644 4438 
L 2294 4438 
L 2294 0 
L 1644 0 
z
M 531 0 
L 531 594 
L 1706 594 
L 1706 0 
L 531 0 
z
M 2231 0 
L 2231 594 
L 3288 594 
L 3288 0 
L 2231 0 
z
M 594 3431 
L 594 4063 
L 1644 4438 
L 1644 3794 
L 594 3431 
z
" transform="scale(0.015625)"/>
     </defs>
     <use xlink:href="#CascadiaCode-Regular-54"/>
     <use xlink:href="#CascadiaCode-Regular-72" transform="translate(58.59375 0)"/>
     <use xlink:href="#CascadiaCode-Regular-61" transform="translate(117.1875 0)"/>
     <use xlink:href="#CascadiaCode-Regular-69" transform="translate(175.78125 0)"/>
     <use xlink:href="#CascadiaCode-Regular-6e" transform="translate(234.375 0)"/>
     <use xlink:href="#CascadiaCode-Regular-20" transform="translate(292.96875 0)"/>
     <use xlink:href="#CascadiaCode-Regular-6c" transform="translate(351.5625 0)"/>
     <use xlink:href="#CascadiaCode-Regular-6f" transform="translate(410.15625 0)"/>
     <use xlink:href="#CascadiaCode-Regular-73" transform="translate(468.75 0)"/>
     <use xlink:href="#CascadiaCode-Regular-73" transform="translate(527.34375 0)"/>
     <use xlink:href="#CascadiaCode-Regular-3a" transform="translate(585.9375 0)"/>
     <use xlink:href="#CascadiaCode-Regular-20" transform="translate(644.53125 0)"/>
     <use xlink:href="#CascadiaCode-Regular-30" transform="translate(703.125 0)"/>
     <use xlink:href="#CascadiaCode-Regular-2e" transform="translate(761.71875 0)"/>
     <use xlink:href="#CascadiaCode-Regular-30" transform="translate(820.3125 0)"/>
     <use xlink:href="#CascadiaCode-Regular-31" transform="translate(878.90625 0)"/>
    </g>
   </g>
   <g id="text_12">
    <!-- Test loss: 0.05 -->
    <g transform="translate(321.909315 42.185002) scale(0.0694 -0.0694)">
     <defs>
      <path id="CascadiaCode-Regular-35" d="M 1919 -63 
Q 1200 -63 806 279 
Q 413 622 413 1244 
L 1081 1244 
Q 1081 897 1300 705 
Q 1519 513 1925 513 
Q 2325 513 2544 753 
Q 2763 994 2763 1431 
Q 2763 1859 2525 2095 
Q 2288 2331 1850 2331 
Q 1413 2331 1031 2125 
L 1088 2656 
Q 1334 2797 1578 2845 
Q 1822 2894 2069 2894 
Q 2713 2894 3066 2512 
Q 3419 2131 3419 1431 
Q 3419 956 3242 622 
Q 3066 288 2731 112 
Q 2397 -63 1919 -63 
z
M 681 2125 
L 744 4438 
L 1413 4438 
L 1350 2513 
L 1031 2125 
L 681 2125 
z
M 1044 3856 
L 988 4438 
L 3138 4438 
L 3138 3856 
L 1044 3856 
z
" transform="scale(0.015625)"/>
     </defs>
     <use xlink:href="#CascadiaCode-Regular-54"/>
     <use xlink:href="#CascadiaCode-Regular-65" transform="translate(58.59375 0)"/>
     <use xlink:href="#CascadiaCode-Regular-73" transform="translate(117.1875 0)"/>
     <use xlink:href="#CascadiaCode-Regular-74" transform="translate(175.78125 0)"/>
     <use xlink:href="#CascadiaCode-Regular-20" transform="translate(234.375 0)"/>
     <use xlink:href="#CascadiaCode-Regular-6c" transform="translate(292.96875 0)"/>
     <use xlink:href="#CascadiaCode-Regular-6f" transform="translate(351.5625 0)"/>
     <use xlink:href="#CascadiaCode-Regular-73" transform="translate(410.15625 0)"/>
     <use xlink:href="#CascadiaCode-Regular-73" transform="translate(468.75 0)"/>
     <use xlink:href="#CascadiaCode-Regular-3a" transform="translate(527.34375 0)"/>
     <use xlink:href="#CascadiaCode-Regular-20" transform="translate(585.9375 0)"/>
     <use xlink:href="#CascadiaCode-Regular-30" transform="translate(644.53125 0)"/>
     <use xlink:href="#CascadiaCode-Regular-2e" transform="translate(703.125 0)"/>
     <use xlink:href="#CascadiaCode-Regular-30" transform="translate(761.71875 0)"/>
     <use xlink:href="#CascadiaCode-Regular-35" transform="translate(820.3125 0)"/>
    </g>
   </g>
   <g id="text_13">
    <!-- Too complex -->
    <g transform="translate(318.062049 15.83625) scale(0.12 -0.12)">
     <defs>
      <path id="Helvetica-63" d="M 1703 3444 
Q 2269 3444 2623 3169 
Q 2978 2894 3050 2222 
L 2503 2222 
Q 2453 2531 2275 2736 
Q 2097 2941 1703 2941 
Q 1166 2941 934 2416 
Q 784 2075 784 1575 
Q 784 1072 996 728 
Q 1209 384 1666 384 
Q 2016 384 2220 598 
Q 2425 813 2503 1184 
L 3050 1184 
Q 2956 519 2581 211 
Q 2206 -97 1622 -97 
Q 966 -97 575 383 
Q 184 863 184 1581 
Q 184 2463 612 2953 
Q 1041 3444 1703 3444 
z
M 1616 3428 
L 1616 3428 
z
" transform="scale(0.015625)"/>
      <path id="Helvetica-78" d="M 94 3347 
L 822 3347 
L 1591 2169 
L 2369 3347 
L 3053 3331 
L 1925 1716 
L 3103 0 
L 2384 0 
L 1553 1256 
L 747 0 
L 34 0 
L 1213 1716 
L 94 3347 
z
" transform="scale(0.015625)"/>
     </defs>
     <use xlink:href="#Helvetica-54"/>
     <use xlink:href="#Helvetica-6f" transform="translate(61.083984 0)"/>
     <use xlink:href="#Helvetica-6f" transform="translate(116.699219 0)"/>
     <use xlink:href="#Helvetica-20" transform="translate(172.314453 0)"/>
     <use xlink:href="#Helvetica-63" transform="translate(200.097656 0)"/>
     <use xlink:href="#Helvetica-6f" transform="translate(250.097656 0)"/>
     <use xlink:href="#Helvetica-6d" transform="translate(305.712891 0)"/>
     <use xlink:href="#Helvetica-70" transform="translate(389.013672 0)"/>
     <use xlink:href="#Helvetica-6c" transform="translate(444.628906 0)"/>
     <use xlink:href="#Helvetica-65" transform="translate(466.845703 0)"/>
     <use xlink:href="#Helvetica-78" transform="translate(522.460938 0)"/>
    </g>
   </g>
  </g>
 </g>
 <defs>
  <clipPath id="p718706dca9">
   <rect x="20.457813" y="21.83625" width="112.463805" height="110.88"/>
  </clipPath>
  <clipPath id="p828b8d1562">
   <rect x="158.316636" y="21.83625" width="112.463805" height="110.88"/>
  </clipPath>
  <clipPath id="p4659c3a6cd">
   <rect x="296.17546" y="21.83625" width="112.463805" height="110.88"/>
  </clipPath>
 </defs>
</svg>
