<?xml version="1.0" encoding="utf-8" standalone="no"?>
<!DOCTYPE svg PUBLIC "-//W3C//DTD SVG 1.1//EN"
  "http://www.w3.org/Graphics/SVG/1.1/DTD/svg11.dtd">
<svg xmlns:xlink="http://www.w3.org/1999/xlink" width="347.04pt" height="347.04pt" viewBox="0 0 347.04 347.04" xmlns="http://www.w3.org/2000/svg" version="1.1">
 <metadata>
  <rdf:RDF xmlns:dc="http://purl.org/dc/elements/1.1/" xmlns:cc="http://creativecommons.org/ns#" xmlns:rdf="http://www.w3.org/1999/02/22-rdf-syntax-ns#">
   <cc:Work>
    <dc:type rdf:resource="http://purl.org/dc/dcmitype/StillImage"/>
    <dc:date>2023-03-18T15:37:19.679794</dc:date>
    <dc:format>image/svg+xml</dc:format>
    <dc:creator>
     <cc:Agent>
      <dc:title>Matplotlib v3.7.1, https://matplotlib.org/</dc:title>
     </cc:Agent>
    </dc:creator>
   </cc:Work>
  </rdf:RDF>
 </metadata>
 <defs>
  <style type="text/css">*{stroke-linejoin: round; stroke-linecap: butt}</style>
 </defs>
 <g id="figure_1">
  <g id="patch_1">
   <path d="M 0 347.04 
L 347.04 347.04 
L 347.04 -0 
L 0 -0 
z
" style="fill: #ffffff"/>
  </g>
  <g id="axes_1">
   <g id="line2d_1">
    <path d="M 40.464 106.992 
L 173.52 62.64 
" clip-path="url(#pd9effa5c61)" style="fill: none; stroke: #000000; stroke-linecap: square"/>
   </g>
   <g id="line2d_2">
    <path d="M 40.464 106.992 
L 173.52 106.992 
" clip-path="url(#pd9effa5c61)" style="fill: none; stroke: #000000; stroke-linecap: square"/>
   </g>
   <g id="line2d_3">
    <path d="M 40.464 106.992 
L 173.52 151.344 
" clip-path="url(#pd9effa5c61)" style="fill: none; stroke: #000000; stroke-linecap: square"/>
   </g>
   <g id="line2d_4">
    <path d="M 40.464 106.992 
L 173.52 195.696 
" clip-path="url(#pd9effa5c61)" style="fill: none; stroke: #000000; stroke-linecap: square"/>
   </g>
   <g id="line2d_5">
    <path d="M 40.464 106.992 
L 173.52 240.048 
" clip-path="url(#pd9effa5c61)" style="fill: none; stroke: #000000; stroke-linecap: square"/>
   </g>
   <g id="line2d_6">
    <path d="M 40.464 106.992 
L 173.52 284.4 
" clip-path="url(#pd9effa5c61)" style="fill: none; stroke: #000000; stroke-linecap: square"/>
   </g>
   <g id="line2d_7">
    <path d="M 40.464 151.344 
L 173.52 62.64 
" clip-path="url(#pd9effa5c61)" style="fill: none; stroke: #000000; stroke-linecap: square"/>
   </g>
   <g id="line2d_8">
    <path d="M 40.464 151.344 
L 173.52 106.992 
" clip-path="url(#pd9effa5c61)" style="fill: none; stroke: #000000; stroke-linecap: square"/>
   </g>
   <g id="line2d_9">
    <path d="M 40.464 151.344 
L 173.52 151.344 
" clip-path="url(#pd9effa5c61)" style="fill: none; stroke: #000000; stroke-linecap: square"/>
   </g>
   <g id="line2d_10">
    <path d="M 40.464 151.344 
L 173.52 195.696 
" clip-path="url(#pd9effa5c61)" style="fill: none; stroke: #000000; stroke-linecap: square"/>
   </g>
   <g id="line2d_11">
    <path d="M 40.464 151.344 
L 173.52 240.048 
" clip-path="url(#pd9effa5c61)" style="fill: none; stroke: #000000; stroke-linecap: square"/>
   </g>
   <g id="line2d_12">
    <path d="M 40.464 151.344 
L 173.52 284.4 
" clip-path="url(#pd9effa5c61)" style="fill: none; stroke: #000000; stroke-linecap: square"/>
   </g>
   <g id="line2d_13">
    <path d="M 40.464 195.696 
L 173.52 62.64 
" clip-path="url(#pd9effa5c61)" style="fill: none; stroke: #000000; stroke-linecap: square"/>
   </g>
   <g id="line2d_14">
    <path d="M 40.464 195.696 
L 173.52 106.992 
" clip-path="url(#pd9effa5c61)" style="fill: none; stroke: #000000; stroke-linecap: square"/>
   </g>
   <g id="line2d_15">
    <path d="M 40.464 195.696 
L 173.52 151.344 
" clip-path="url(#pd9effa5c61)" style="fill: none; stroke: #000000; stroke-linecap: square"/>
   </g>
   <g id="line2d_16">
    <path d="M 40.464 195.696 
L 173.52 195.696 
" clip-path="url(#pd9effa5c61)" style="fill: none; stroke: #000000; stroke-linecap: square"/>
   </g>
   <g id="line2d_17">
    <path d="M 40.464 195.696 
L 173.52 240.048 
" clip-path="url(#pd9effa5c61)" style="fill: none; stroke: #000000; stroke-linecap: square"/>
   </g>
   <g id="line2d_18">
    <path d="M 40.464 195.696 
L 173.52 284.4 
" clip-path="url(#pd9effa5c61)" style="fill: none; stroke: #000000; stroke-linecap: square"/>
   </g>
   <g id="line2d_19">
    <path d="M 40.464 240.048 
L 173.52 62.64 
" clip-path="url(#pd9effa5c61)" style="fill: none; stroke: #000000; stroke-linecap: square"/>
   </g>
   <g id="line2d_20">
    <path d="M 40.464 240.048 
L 173.52 106.992 
" clip-path="url(#pd9effa5c61)" style="fill: none; stroke: #000000; stroke-linecap: square"/>
   </g>
   <g id="line2d_21">
    <path d="M 40.464 240.048 
L 173.52 151.344 
" clip-path="url(#pd9effa5c61)" style="fill: none; stroke: #000000; stroke-linecap: square"/>
   </g>
   <g id="line2d_22">
    <path d="M 40.464 240.048 
L 173.52 195.696 
" clip-path="url(#pd9effa5c61)" style="fill: none; stroke: #000000; stroke-linecap: square"/>
   </g>
   <g id="line2d_23">
    <path d="M 40.464 240.048 
L 173.52 240.048 
" clip-path="url(#pd9effa5c61)" style="fill: none; stroke: #000000; stroke-linecap: square"/>
   </g>
   <g id="line2d_24">
    <path d="M 40.464 240.048 
L 173.52 284.4 
" clip-path="url(#pd9effa5c61)" style="fill: none; stroke: #000000; stroke-linecap: square"/>
   </g>
   <g id="line2d_25">
    <path d="M 173.52 62.64 
L 306.576 151.344 
" clip-path="url(#pd9effa5c61)" style="fill: none; stroke: #000000; stroke-linecap: square"/>
   </g>
   <g id="line2d_26">
    <path d="M 173.52 62.64 
L 306.576 195.696 
" clip-path="url(#pd9effa5c61)" style="fill: none; stroke: #000000; stroke-linecap: square"/>
   </g>
   <g id="line2d_27">
    <path d="M 173.52 106.992 
L 306.576 151.344 
" clip-path="url(#pd9effa5c61)" style="fill: none; stroke: #000000; stroke-linecap: square"/>
   </g>
   <g id="line2d_28">
    <path d="M 173.52 106.992 
L 306.576 195.696 
" clip-path="url(#pd9effa5c61)" style="fill: none; stroke: #000000; stroke-linecap: square"/>
   </g>
   <g id="line2d_29">
    <path d="M 173.52 151.344 
L 306.576 151.344 
" clip-path="url(#pd9effa5c61)" style="fill: none; stroke: #000000; stroke-linecap: square"/>
   </g>
   <g id="line2d_30">
    <path d="M 173.52 151.344 
L 306.576 195.696 
" clip-path="url(#pd9effa5c61)" style="fill: none; stroke: #000000; stroke-linecap: square"/>
   </g>
   <g id="line2d_31">
    <path d="M 173.52 195.696 
L 306.576 151.344 
" clip-path="url(#pd9effa5c61)" style="fill: none; stroke: #000000; stroke-linecap: square"/>
   </g>
   <g id="line2d_32">
    <path d="M 173.52 195.696 
L 306.576 195.696 
" clip-path="url(#pd9effa5c61)" style="fill: none; stroke: #000000; stroke-linecap: square"/>
   </g>
   <g id="line2d_33">
    <path d="M 173.52 240.048 
L 306.576 151.344 
" clip-path="url(#pd9effa5c61)" style="fill: none; stroke: #000000; stroke-linecap: square"/>
   </g>
   <g id="line2d_34">
    <path d="M 173.52 240.048 
L 306.576 195.696 
" clip-path="url(#pd9effa5c61)" style="fill: none; stroke: #000000; stroke-linecap: square"/>
   </g>
   <g id="line2d_35">
    <path d="M 173.52 284.4 
L 306.576 151.344 
" clip-path="url(#pd9effa5c61)" style="fill: none; stroke: #000000; stroke-linecap: square"/>
   </g>
   <g id="line2d_36">
    <path d="M 173.52 284.4 
L 306.576 195.696 
" clip-path="url(#pd9effa5c61)" style="fill: none; stroke: #000000; stroke-linecap: square"/>
   </g>
   <g id="patch_2">
    <path d="M 40.464 118.08 
C 43.404572 118.08 46.225102 116.911698 48.3044 114.8324 
C 50.383698 112.753102 51.552 109.932572 51.552 106.992 
C 51.552 104.051428 50.383698 101.230898 48.3044 99.1516 
C 46.225102 97.072302 43.404572 95.904 40.464 95.904 
C 37.523428 95.904 34.702898 97.072302 32.6236 99.1516 
C 30.544302 101.230898 29.376 104.051428 29.376 106.992 
C 29.376 109.932572 30.544302 112.753102 32.6236 114.8324 
C 34.702898 116.911698 37.523428 118.08 40.464 118.08 
z
" clip-path="url(#pd9effa5c61)" style="fill: #ffffff; stroke: #000000; stroke-linejoin: miter"/>
   </g>
   <g id="patch_3">
    <path d="M 40.464 162.432 
C 43.404572 162.432 46.225102 161.263698 48.3044 159.1844 
C 50.383698 157.105102 51.552 154.284572 51.552 151.344 
C 51.552 148.403428 50.383698 145.582898 48.3044 143.5036 
C 46.225102 141.424302 43.404572 140.256 40.464 140.256 
C 37.523428 140.256 34.702898 141.424302 32.6236 143.5036 
C 30.544302 145.582898 29.376 148.403428 29.376 151.344 
C 29.376 154.284572 30.544302 157.105102 32.6236 159.1844 
C 34.702898 161.263698 37.523428 162.432 40.464 162.432 
z
" clip-path="url(#pd9effa5c61)" style="fill: #ffffff; stroke: #000000; stroke-linejoin: miter"/>
   </g>
   <g id="patch_4">
    <path d="M 40.464 206.784 
C 43.404572 206.784 46.225102 205.615698 48.3044 203.5364 
C 50.383698 201.457102 51.552 198.636572 51.552 195.696 
C 51.552 192.755428 50.383698 189.934898 48.3044 187.8556 
C 46.225102 185.776302 43.404572 184.608 40.464 184.608 
C 37.523428 184.608 34.702898 185.776302 32.6236 187.8556 
C 30.544302 189.934898 29.376 192.755428 29.376 195.696 
C 29.376 198.636572 30.544302 201.457102 32.6236 203.5364 
C 34.702898 205.615698 37.523428 206.784 40.464 206.784 
z
" clip-path="url(#pd9effa5c61)" style="fill: #ffffff; stroke: #000000; stroke-linejoin: miter"/>
   </g>
   <g id="patch_5">
    <path d="M 40.464 251.136 
C 43.404572 251.136 46.225102 249.967698 48.3044 247.8884 
C 50.383698 245.809102 51.552 242.988572 51.552 240.048 
C 51.552 237.107428 50.383698 234.286898 48.3044 232.2076 
C 46.225102 230.128302 43.404572 228.96 40.464 228.96 
C 37.523428 228.96 34.702898 230.128302 32.6236 232.2076 
C 30.544302 234.286898 29.376 237.107428 29.376 240.048 
C 29.376 242.988572 30.544302 245.809102 32.6236 247.8884 
C 34.702898 249.967698 37.523428 251.136 40.464 251.136 
z
" clip-path="url(#pd9effa5c61)" style="fill: #ffffff; stroke: #000000; stroke-linejoin: miter"/>
   </g>
   <g id="patch_6">
    <path d="M 173.52 73.728 
C 176.460572 73.728 179.281102 72.559698 181.3604 70.4804 
C 183.439698 68.401102 184.608 65.580572 184.608 62.64 
C 184.608 59.699428 183.439698 56.878898 181.3604 54.7996 
C 179.281102 52.720302 176.460572 51.552 173.52 51.552 
C 170.579428 51.552 167.758898 52.720302 165.6796 54.7996 
C 163.600302 56.878898 162.432 59.699428 162.432 62.64 
C 162.432 65.580572 163.600302 68.401102 165.6796 70.4804 
C 167.758898 72.559698 170.579428 73.728 173.52 73.728 
z
" clip-path="url(#pd9effa5c61)" style="fill: #ffffff; stroke: #000000; stroke-linejoin: miter"/>
   </g>
   <g id="patch_7">
    <path d="M 173.52 118.08 
C 176.460572 118.08 179.281102 116.911698 181.3604 114.8324 
C 183.439698 112.753102 184.608 109.932572 184.608 106.992 
C 184.608 104.051428 183.439698 101.230898 181.3604 99.1516 
C 179.281102 97.072302 176.460572 95.904 173.52 95.904 
C 170.579428 95.904 167.758898 97.072302 165.6796 99.1516 
C 163.600302 101.230898 162.432 104.051428 162.432 106.992 
C 162.432 109.932572 163.600302 112.753102 165.6796 114.8324 
C 167.758898 116.911698 170.579428 118.08 173.52 118.08 
z
" clip-path="url(#pd9effa5c61)" style="fill: #ffffff; stroke: #000000; stroke-linejoin: miter"/>
   </g>
   <g id="patch_8">
    <path d="M 173.52 162.432 
C 176.460572 162.432 179.281102 161.263698 181.3604 159.1844 
C 183.439698 157.105102 184.608 154.284572 184.608 151.344 
C 184.608 148.403428 183.439698 145.582898 181.3604 143.5036 
C 179.281102 141.424302 176.460572 140.256 173.52 140.256 
C 170.579428 140.256 167.758898 141.424302 165.6796 143.5036 
C 163.600302 145.582898 162.432 148.403428 162.432 151.344 
C 162.432 154.284572 163.600302 157.105102 165.6796 159.1844 
C 167.758898 161.263698 170.579428 162.432 173.52 162.432 
z
" clip-path="url(#pd9effa5c61)" style="fill: #ffffff; stroke: #000000; stroke-linejoin: miter"/>
   </g>
   <g id="patch_9">
    <path d="M 173.52 206.784 
C 176.460572 206.784 179.281102 205.615698 181.3604 203.5364 
C 183.439698 201.457102 184.608 198.636572 184.608 195.696 
C 184.608 192.755428 183.439698 189.934898 181.3604 187.8556 
C 179.281102 185.776302 176.460572 184.608 173.52 184.608 
C 170.579428 184.608 167.758898 185.776302 165.6796 187.8556 
C 163.600302 189.934898 162.432 192.755428 162.432 195.696 
C 162.432 198.636572 163.600302 201.457102 165.6796 203.5364 
C 167.758898 205.615698 170.579428 206.784 173.52 206.784 
z
" clip-path="url(#pd9effa5c61)" style="fill: #ffffff; stroke: #000000; stroke-linejoin: miter"/>
   </g>
   <g id="patch_10">
    <path d="M 173.52 251.136 
C 176.460572 251.136 179.281102 249.967698 181.3604 247.8884 
C 183.439698 245.809102 184.608 242.988572 184.608 240.048 
C 184.608 237.107428 183.439698 234.286898 181.3604 232.2076 
C 179.281102 230.128302 176.460572 228.96 173.52 228.96 
C 170.579428 228.96 167.758898 230.128302 165.6796 232.2076 
C 163.600302 234.286898 162.432 237.107428 162.432 240.048 
C 162.432 242.988572 163.600302 245.809102 165.6796 247.8884 
C 167.758898 249.967698 170.579428 251.136 173.52 251.136 
z
" clip-path="url(#pd9effa5c61)" style="fill: #ffffff; stroke: #000000; stroke-linejoin: miter"/>
   </g>
   <g id="patch_11">
    <path d="M 173.52 295.488 
C 176.460572 295.488 179.281102 294.319698 181.3604 292.2404 
C 183.439698 290.161102 184.608 287.340572 184.608 284.4 
C 184.608 281.459428 183.439698 278.638898 181.3604 276.5596 
C 179.281102 274.480302 176.460572 273.312 173.52 273.312 
C 170.579428 273.312 167.758898 274.480302 165.6796 276.5596 
C 163.600302 278.638898 162.432 281.459428 162.432 284.4 
C 162.432 287.340572 163.600302 290.161102 165.6796 292.2404 
C 167.758898 294.319698 170.579428 295.488 173.52 295.488 
z
" clip-path="url(#pd9effa5c61)" style="fill: #ffffff; stroke: #000000; stroke-linejoin: miter"/>
   </g>
   <g id="patch_12">
    <path d="M 306.576 162.432 
C 309.516572 162.432 312.337102 161.263698 314.4164 159.1844 
C 316.495698 157.105102 317.664 154.284572 317.664 151.344 
C 317.664 148.403428 316.495698 145.582898 314.4164 143.5036 
C 312.337102 141.424302 309.516572 140.256 306.576 140.256 
C 303.635428 140.256 300.814898 141.424302 298.7356 143.5036 
C 296.656302 145.582898 295.488 148.403428 295.488 151.344 
C 295.488 154.284572 296.656302 157.105102 298.7356 159.1844 
C 300.814898 161.263698 303.635428 162.432 306.576 162.432 
z
" clip-path="url(#pd9effa5c61)" style="fill: #ffffff; stroke: #000000; stroke-linejoin: miter"/>
   </g>
   <g id="patch_13">
    <path d="M 306.576 206.784 
C 309.516572 206.784 312.337102 205.615698 314.4164 203.5364 
C 316.495698 201.457102 317.664 198.636572 317.664 195.696 
C 317.664 192.755428 316.495698 189.934898 314.4164 187.8556 
C 312.337102 185.776302 309.516572 184.608 306.576 184.608 
C 303.635428 184.608 300.814898 185.776302 298.7356 187.8556 
C 296.656302 189.934898 295.488 192.755428 295.488 195.696 
C 295.488 198.636572 296.656302 201.457102 298.7356 203.5364 
C 300.814898 205.615698 303.635428 206.784 306.576 206.784 
z
" clip-path="url(#pd9effa5c61)" style="fill: #ffffff; stroke: #000000; stroke-linejoin: miter"/>
   </g>
  </g>
 </g>
 <defs>
  <clipPath id="pd9effa5c61">
   <rect x="7.2" y="7.2" width="332.64" height="332.64"/>
  </clipPath>
 </defs>
</svg>
