<?xml version="1.0" encoding="utf-8" standalone="no"?>
<!DOCTYPE svg PUBLIC "-//W3C//DTD SVG 1.1//EN"
  "http://www.w3.org/Graphics/SVG/1.1/DTD/svg11.dtd">
<svg xmlns:xlink="http://www.w3.org/1999/xlink" width="181.8pt" height="181.8pt" viewBox="0 0 181.8 181.8" xmlns="http://www.w3.org/2000/svg" version="1.1">
 <metadata>
  <rdf:RDF xmlns:dc="http://purl.org/dc/elements/1.1/" xmlns:cc="http://creativecommons.org/ns#" xmlns:rdf="http://www.w3.org/1999/02/22-rdf-syntax-ns#">
   <cc:Work>
    <dc:type rdf:resource="http://purl.org/dc/dcmitype/StillImage"/>
    <dc:date>2023-03-18T16:05:23.526303</dc:date>
    <dc:format>image/svg+xml</dc:format>
    <dc:creator>
     <cc:Agent>
      <dc:title>Matplotlib v3.7.1, https://matplotlib.org/</dc:title>
     </cc:Agent>
    </dc:creator>
   </cc:Work>
  </rdf:RDF>
 </metadata>
 <defs>
  <style type="text/css">*{stroke-linejoin: round; stroke-linecap: butt}</style>
 </defs>
 <g id="figure_1">
  <g id="patch_1">
   <path d="M 0 181.8 
L 181.8 181.8 
L 181.8 -0 
L 0 -0 
z
" style="fill: #ffffff"/>
  </g>
  <g id="axes_1">
   <g id="line2d_1">
    <path d="M 23.94 40.68 
L 157.86 90.9 
" clip-path="url(#p91b3618dd0)" style="fill: none; stroke: #000000; stroke-linecap: square"/>
   </g>
   <g id="line2d_2">
    <path d="M 23.94 74.16 
L 157.86 90.9 
" clip-path="url(#p91b3618dd0)" style="fill: none; stroke: #000000; stroke-linecap: square"/>
   </g>
   <g id="line2d_3">
    <path d="M 23.94 107.64 
L 157.86 90.9 
" clip-path="url(#p91b3618dd0)" style="fill: none; stroke: #000000; stroke-linecap: square"/>
   </g>
   <g id="line2d_4">
    <path d="M 23.94 141.12 
L 157.86 90.9 
" clip-path="url(#p91b3618dd0)" style="fill: none; stroke: #000000; stroke-linecap: square"/>
   </g>
   <g id="patch_2">
    <path d="M 23.94 49.05 
C 26.15975 49.05 28.288884 48.168084 29.858484 46.598484 
C 31.428084 45.028884 32.31 42.89975 32.31 40.68 
C 32.31 38.46025 31.428084 36.331116 29.858484 34.761516 
C 28.288884 33.191916 26.15975 32.31 23.94 32.31 
C 21.72025 32.31 19.591116 33.191916 18.021516 34.761516 
C 16.451916 36.331116 15.57 38.46025 15.57 40.68 
C 15.57 42.89975 16.451916 45.028884 18.021516 46.598484 
C 19.591116 48.168084 21.72025 49.05 23.94 49.05 
z
" clip-path="url(#p91b3618dd0)" style="fill: #ffffff; stroke: #000000; stroke-linejoin: miter"/>
   </g>
   <g id="patch_3">
    <path d="M 23.94 82.53 
C 26.15975 82.53 28.288884 81.648084 29.858484 80.078484 
C 31.428084 78.508884 32.31 76.37975 32.31 74.16 
C 32.31 71.94025 31.428084 69.811116 29.858484 68.241516 
C 28.288884 66.671916 26.15975 65.79 23.94 65.79 
C 21.72025 65.79 19.591116 66.671916 18.021516 68.241516 
C 16.451916 69.811116 15.57 71.94025 15.57 74.16 
C 15.57 76.37975 16.451916 78.508884 18.021516 80.078484 
C 19.591116 81.648084 21.72025 82.53 23.94 82.53 
z
" clip-path="url(#p91b3618dd0)" style="fill: #ffffff; stroke: #000000; stroke-linejoin: miter"/>
   </g>
   <g id="patch_4">
    <path d="M 23.94 116.01 
C 26.15975 116.01 28.288884 115.128084 29.858484 113.558484 
C 31.428084 111.988884 32.31 109.85975 32.31 107.64 
C 32.31 105.42025 31.428084 103.291116 29.858484 101.721516 
C 28.288884 100.151916 26.15975 99.27 23.94 99.27 
C 21.72025 99.27 19.591116 100.151916 18.021516 101.721516 
C 16.451916 103.291116 15.57 105.42025 15.57 107.64 
C 15.57 109.85975 16.451916 111.988884 18.021516 113.558484 
C 19.591116 115.128084 21.72025 116.01 23.94 116.01 
z
" clip-path="url(#p91b3618dd0)" style="fill: #ffffff; stroke: #000000; stroke-linejoin: miter"/>
   </g>
   <g id="patch_5">
    <path d="M 23.94 149.49 
C 26.15975 149.49 28.288884 148.608084 29.858484 147.038484 
C 31.428084 145.468884 32.31 143.33975 32.31 141.12 
C 32.31 138.90025 31.428084 136.771116 29.858484 135.201516 
C 28.288884 133.631916 26.15975 132.75 23.94 132.75 
C 21.72025 132.75 19.591116 133.631916 18.021516 135.201516 
C 16.451916 136.771116 15.57 138.90025 15.57 141.12 
C 15.57 143.33975 16.451916 145.468884 18.021516 147.038484 
C 19.591116 148.608084 21.72025 149.49 23.94 149.49 
z
" clip-path="url(#p91b3618dd0)" style="fill: #ffffff; stroke: #000000; stroke-linejoin: miter"/>
   </g>
   <g id="patch_6">
    <path d="M 157.86 99.27 
C 160.07975 99.27 162.208884 98.388084 163.778484 96.818484 
C 165.348084 95.248884 166.23 93.11975 166.23 90.9 
C 166.23 88.68025 165.348084 86.551116 163.778484 84.981516 
C 162.208884 83.411916 160.07975 82.53 157.86 82.53 
C 155.64025 82.53 153.511116 83.411916 151.941516 84.981516 
C 150.371916 86.551116 149.49 88.68025 149.49 90.9 
C 149.49 93.11975 150.371916 95.248884 151.941516 96.818484 
C 153.511116 98.388084 155.64025 99.27 157.86 99.27 
z
" clip-path="url(#p91b3618dd0)" style="fill: #ffffff; stroke: #000000; stroke-linejoin: miter"/>
   </g>
  </g>
 </g>
 <defs>
  <clipPath id="p91b3618dd0">
   <rect x="7.2" y="7.2" width="167.4" height="167.4"/>
  </clipPath>
 </defs>
</svg>
